G04 #@! TF.GenerationSoftware,KiCad,Pcbnew,5.1.5+dfsg1-2build2*
G04 #@! TF.CreationDate,2020-10-27T01:34:20+02:00*
G04 #@! TF.ProjectId,memory,6d656d6f-7279-42e6-9b69-6361645f7063,rev?*
G04 #@! TF.SameCoordinates,Original*
G04 #@! TF.FileFunction,Copper,L1,Top*
G04 #@! TF.FilePolarity,Positive*
%FSLAX46Y46*%
G04 Gerber Fmt 4.6, Leading zero omitted, Abs format (unit mm)*
G04 Created by KiCad (PCBNEW 5.1.5+dfsg1-2build2) date 2020-10-27 01:34:20*
%MOMM*%
%LPD*%
G04 APERTURE LIST*
%ADD10R,1.050000X1.500000*%
%ADD11O,1.050000X1.500000*%
%ADD12O,1.600000X1.600000*%
%ADD13C,1.600000*%
%ADD14O,1.750000X1.200000*%
%ADD15C,0.100000*%
%ADD16R,1.600000X1.600000*%
%ADD17C,0.500000*%
%ADD18C,0.254000*%
G04 APERTURE END LIST*
D10*
X41148000Y-149860000D03*
D11*
X43688000Y-149860000D03*
X42418000Y-149860000D03*
D12*
X39624000Y-109220000D03*
D13*
X39624000Y-101600000D03*
D12*
X39624000Y-96520000D03*
D13*
X39624000Y-88900000D03*
D12*
X39624000Y-83820000D03*
D13*
X39624000Y-76200000D03*
D12*
X39624000Y-71120000D03*
D13*
X39624000Y-63500000D03*
D14*
X48260000Y-136844000D03*
X48260000Y-138844000D03*
X48260000Y-140844000D03*
X48260000Y-142844000D03*
X48260000Y-144844000D03*
X48260000Y-146844000D03*
G04 #@! TA.AperFunction,ComponentPad*
D15*
G36*
X48909505Y-148245204D02*
G01*
X48933773Y-148248804D01*
X48957572Y-148254765D01*
X48980671Y-148263030D01*
X49002850Y-148273520D01*
X49023893Y-148286132D01*
X49043599Y-148300747D01*
X49061777Y-148317223D01*
X49078253Y-148335401D01*
X49092868Y-148355107D01*
X49105480Y-148376150D01*
X49115970Y-148398329D01*
X49124235Y-148421428D01*
X49130196Y-148445227D01*
X49133796Y-148469495D01*
X49135000Y-148493999D01*
X49135000Y-149194001D01*
X49133796Y-149218505D01*
X49130196Y-149242773D01*
X49124235Y-149266572D01*
X49115970Y-149289671D01*
X49105480Y-149311850D01*
X49092868Y-149332893D01*
X49078253Y-149352599D01*
X49061777Y-149370777D01*
X49043599Y-149387253D01*
X49023893Y-149401868D01*
X49002850Y-149414480D01*
X48980671Y-149424970D01*
X48957572Y-149433235D01*
X48933773Y-149439196D01*
X48909505Y-149442796D01*
X48885001Y-149444000D01*
X47634999Y-149444000D01*
X47610495Y-149442796D01*
X47586227Y-149439196D01*
X47562428Y-149433235D01*
X47539329Y-149424970D01*
X47517150Y-149414480D01*
X47496107Y-149401868D01*
X47476401Y-149387253D01*
X47458223Y-149370777D01*
X47441747Y-149352599D01*
X47427132Y-149332893D01*
X47414520Y-149311850D01*
X47404030Y-149289671D01*
X47395765Y-149266572D01*
X47389804Y-149242773D01*
X47386204Y-149218505D01*
X47385000Y-149194001D01*
X47385000Y-148493999D01*
X47386204Y-148469495D01*
X47389804Y-148445227D01*
X47395765Y-148421428D01*
X47404030Y-148398329D01*
X47414520Y-148376150D01*
X47427132Y-148355107D01*
X47441747Y-148335401D01*
X47458223Y-148317223D01*
X47476401Y-148300747D01*
X47496107Y-148286132D01*
X47517150Y-148273520D01*
X47539329Y-148263030D01*
X47562428Y-148254765D01*
X47586227Y-148248804D01*
X47610495Y-148245204D01*
X47634999Y-148244000D01*
X48885001Y-148244000D01*
X48909505Y-148245204D01*
G37*
G04 #@! TD.AperFunction*
D12*
X50292000Y-114300000D03*
X42672000Y-132080000D03*
X50292000Y-116840000D03*
X42672000Y-129540000D03*
X50292000Y-119380000D03*
X42672000Y-127000000D03*
X50292000Y-121920000D03*
X42672000Y-124460000D03*
X50292000Y-124460000D03*
X42672000Y-121920000D03*
X50292000Y-127000000D03*
X42672000Y-119380000D03*
X50292000Y-129540000D03*
X42672000Y-116840000D03*
X50292000Y-132080000D03*
D16*
X42672000Y-114300000D03*
D12*
X50292000Y-101600000D03*
X42672000Y-109220000D03*
X50292000Y-104140000D03*
X42672000Y-106680000D03*
X50292000Y-106680000D03*
X42672000Y-104140000D03*
X50292000Y-109220000D03*
D16*
X42672000Y-101600000D03*
D12*
X50292000Y-88900000D03*
X42672000Y-96520000D03*
X50292000Y-91440000D03*
X42672000Y-93980000D03*
X50292000Y-93980000D03*
X42672000Y-91440000D03*
X50292000Y-96520000D03*
D16*
X42672000Y-88900000D03*
D12*
X50292000Y-76200000D03*
X42672000Y-83820000D03*
X50292000Y-78740000D03*
X42672000Y-81280000D03*
X50292000Y-81280000D03*
X42672000Y-78740000D03*
X50292000Y-83820000D03*
D16*
X42672000Y-76200000D03*
D12*
X50165000Y-63500000D03*
X42545000Y-71120000D03*
X50165000Y-66040000D03*
X42545000Y-68580000D03*
X50165000Y-68580000D03*
X42545000Y-66040000D03*
X50165000Y-71120000D03*
D16*
X42545000Y-63500000D03*
D13*
X53340000Y-114340000D03*
X53340000Y-116840000D03*
X53340000Y-101640000D03*
X53340000Y-104140000D03*
X53340000Y-88940000D03*
X53340000Y-91440000D03*
X53340000Y-76240000D03*
X53340000Y-78740000D03*
X53340000Y-63540000D03*
X53340000Y-66040000D03*
X43648000Y-145288000D03*
X41148000Y-145288000D03*
X53340000Y-147868000D03*
X53340000Y-150368000D03*
D17*
X52832000Y-149860000D02*
X53340000Y-150368000D01*
X48260000Y-149860000D02*
X48260000Y-148844000D01*
X43688000Y-149860000D02*
X48260000Y-149860000D01*
X48260000Y-149860000D02*
X52832000Y-149860000D01*
X41148000Y-149860000D02*
X41148000Y-145288000D01*
X50165000Y-71120000D02*
X51816000Y-71120000D01*
X51816000Y-109220000D02*
X50292000Y-109220000D01*
X50292000Y-83820000D02*
X51816000Y-83820000D01*
X51816000Y-71120000D02*
X51816000Y-83820000D01*
X50292000Y-96520000D02*
X51816000Y-96520000D01*
X51816000Y-96520000D02*
X51816000Y-109220000D01*
X51816000Y-83820000D02*
X51816000Y-96520000D01*
X51816000Y-109220000D02*
X51816000Y-144780000D01*
X51752000Y-144844000D02*
X48260000Y-144844000D01*
X51816000Y-144780000D02*
X51752000Y-144844000D01*
X39624000Y-63500000D02*
X42545000Y-63500000D01*
X50292000Y-116840000D02*
X47752000Y-116840000D01*
X47752000Y-116840000D02*
X47752000Y-63500000D01*
X47752000Y-63500000D02*
X42545000Y-63500000D01*
X39624000Y-76200000D02*
X42672000Y-76200000D01*
X50292000Y-119380000D02*
X46736000Y-119380000D01*
X46736000Y-119380000D02*
X46736000Y-76200000D01*
X46736000Y-76200000D02*
X42672000Y-76200000D01*
X39624000Y-88900000D02*
X42672000Y-88900000D01*
X50292000Y-121920000D02*
X45912010Y-121920000D01*
X45912010Y-121920000D02*
X45912010Y-89092010D01*
X45720000Y-88900000D02*
X42672000Y-88900000D01*
X45912010Y-89092010D02*
X45720000Y-88900000D01*
X39624000Y-101600000D02*
X42672000Y-101600000D01*
X45212000Y-124460000D02*
X45212000Y-101600000D01*
X50292000Y-124460000D02*
X45212000Y-124460000D01*
X45212000Y-101600000D02*
X43688000Y-101600000D01*
X43688000Y-101600000D02*
X42672000Y-101600000D01*
X48260000Y-139700000D02*
X48260000Y-138844000D01*
X41148000Y-139700000D02*
X48260000Y-139700000D01*
X41148000Y-116840000D02*
X41148000Y-139700000D01*
X42672000Y-116840000D02*
X41148000Y-116840000D01*
X40260000Y-140844000D02*
X48260000Y-140844000D01*
X40132000Y-140716000D02*
X40260000Y-140844000D01*
X40132000Y-114300000D02*
X40132000Y-140716000D01*
X42672000Y-114300000D02*
X40132000Y-114300000D01*
D18*
G36*
X55245000Y-152273000D02*
G01*
X37719000Y-152273000D01*
X37719000Y-150610000D01*
X39984928Y-150610000D01*
X39997188Y-150734482D01*
X40033498Y-150854180D01*
X40092463Y-150964494D01*
X40171815Y-151061185D01*
X40268506Y-151140537D01*
X40378820Y-151199502D01*
X40498518Y-151235812D01*
X40623000Y-151248072D01*
X40862250Y-151245000D01*
X41021000Y-151086250D01*
X41021000Y-149987000D01*
X40146750Y-149987000D01*
X39988000Y-150145750D01*
X39984928Y-150610000D01*
X37719000Y-150610000D01*
X37719000Y-149110000D01*
X39984928Y-149110000D01*
X39988000Y-149574250D01*
X40146750Y-149733000D01*
X41021000Y-149733000D01*
X41021000Y-148633750D01*
X40862250Y-148475000D01*
X40623000Y-148471928D01*
X40498518Y-148484188D01*
X40378820Y-148520498D01*
X40268506Y-148579463D01*
X40171815Y-148658815D01*
X40092463Y-148755506D01*
X40033498Y-148865820D01*
X39997188Y-148985518D01*
X39984928Y-149110000D01*
X37719000Y-149110000D01*
X37719000Y-146280702D01*
X40334903Y-146280702D01*
X40406486Y-146524671D01*
X40661996Y-146645571D01*
X40936184Y-146714300D01*
X41218512Y-146728217D01*
X41498130Y-146686787D01*
X41764292Y-146591603D01*
X41889514Y-146524671D01*
X41961097Y-146280702D01*
X41148000Y-145467605D01*
X40334903Y-146280702D01*
X37719000Y-146280702D01*
X37719000Y-145358512D01*
X39707783Y-145358512D01*
X39749213Y-145638130D01*
X39844397Y-145904292D01*
X39911329Y-146029514D01*
X40155298Y-146101097D01*
X40968395Y-145288000D01*
X41327605Y-145288000D01*
X42140702Y-146101097D01*
X42384671Y-146029514D01*
X42398324Y-146000659D01*
X42533363Y-146202759D01*
X42733241Y-146402637D01*
X42968273Y-146559680D01*
X43229426Y-146667853D01*
X43506665Y-146723000D01*
X43789335Y-146723000D01*
X44066574Y-146667853D01*
X44327727Y-146559680D01*
X44562759Y-146402637D01*
X44762637Y-146202759D01*
X44919680Y-145967727D01*
X45027853Y-145706574D01*
X45083000Y-145429335D01*
X45083000Y-145146665D01*
X45027853Y-144869426D01*
X44919680Y-144608273D01*
X44762637Y-144373241D01*
X44562759Y-144173363D01*
X44327727Y-144016320D01*
X44066574Y-143908147D01*
X43789335Y-143853000D01*
X43506665Y-143853000D01*
X43229426Y-143908147D01*
X42968273Y-144016320D01*
X42733241Y-144173363D01*
X42533363Y-144373241D01*
X42399308Y-144573869D01*
X42384671Y-144546486D01*
X42140702Y-144474903D01*
X41327605Y-145288000D01*
X40968395Y-145288000D01*
X40155298Y-144474903D01*
X39911329Y-144546486D01*
X39790429Y-144801996D01*
X39721700Y-145076184D01*
X39707783Y-145358512D01*
X37719000Y-145358512D01*
X37719000Y-144295298D01*
X40334903Y-144295298D01*
X41148000Y-145108395D01*
X41961097Y-144295298D01*
X41889514Y-144051329D01*
X41634004Y-143930429D01*
X41359816Y-143861700D01*
X41077488Y-143847783D01*
X40797870Y-143889213D01*
X40531708Y-143984397D01*
X40406486Y-144051329D01*
X40334903Y-144295298D01*
X37719000Y-144295298D01*
X37719000Y-109078665D01*
X38189000Y-109078665D01*
X38189000Y-109361335D01*
X38244147Y-109638574D01*
X38352320Y-109899727D01*
X38509363Y-110134759D01*
X38709241Y-110334637D01*
X38944273Y-110491680D01*
X39205426Y-110599853D01*
X39482665Y-110655000D01*
X39765335Y-110655000D01*
X40042574Y-110599853D01*
X40303727Y-110491680D01*
X40538759Y-110334637D01*
X40738637Y-110134759D01*
X40895680Y-109899727D01*
X41003853Y-109638574D01*
X41059000Y-109361335D01*
X41059000Y-109078665D01*
X41237000Y-109078665D01*
X41237000Y-109361335D01*
X41292147Y-109638574D01*
X41400320Y-109899727D01*
X41557363Y-110134759D01*
X41757241Y-110334637D01*
X41992273Y-110491680D01*
X42253426Y-110599853D01*
X42530665Y-110655000D01*
X42813335Y-110655000D01*
X43090574Y-110599853D01*
X43351727Y-110491680D01*
X43586759Y-110334637D01*
X43786637Y-110134759D01*
X43943680Y-109899727D01*
X44051853Y-109638574D01*
X44107000Y-109361335D01*
X44107000Y-109078665D01*
X44051853Y-108801426D01*
X43943680Y-108540273D01*
X43786637Y-108305241D01*
X43586759Y-108105363D01*
X43351727Y-107948320D01*
X43341135Y-107943933D01*
X43527131Y-107832385D01*
X43735519Y-107643414D01*
X43903037Y-107417420D01*
X44023246Y-107163087D01*
X44063904Y-107029039D01*
X43941915Y-106807000D01*
X42799000Y-106807000D01*
X42799000Y-106827000D01*
X42545000Y-106827000D01*
X42545000Y-106807000D01*
X41402085Y-106807000D01*
X41280096Y-107029039D01*
X41320754Y-107163087D01*
X41440963Y-107417420D01*
X41608481Y-107643414D01*
X41816869Y-107832385D01*
X42002865Y-107943933D01*
X41992273Y-107948320D01*
X41757241Y-108105363D01*
X41557363Y-108305241D01*
X41400320Y-108540273D01*
X41292147Y-108801426D01*
X41237000Y-109078665D01*
X41059000Y-109078665D01*
X41003853Y-108801426D01*
X40895680Y-108540273D01*
X40738637Y-108305241D01*
X40538759Y-108105363D01*
X40303727Y-107948320D01*
X40042574Y-107840147D01*
X39765335Y-107785000D01*
X39482665Y-107785000D01*
X39205426Y-107840147D01*
X38944273Y-107948320D01*
X38709241Y-108105363D01*
X38509363Y-108305241D01*
X38352320Y-108540273D01*
X38244147Y-108801426D01*
X38189000Y-109078665D01*
X37719000Y-109078665D01*
X37719000Y-96378665D01*
X38189000Y-96378665D01*
X38189000Y-96661335D01*
X38244147Y-96938574D01*
X38352320Y-97199727D01*
X38509363Y-97434759D01*
X38709241Y-97634637D01*
X38944273Y-97791680D01*
X39205426Y-97899853D01*
X39482665Y-97955000D01*
X39765335Y-97955000D01*
X40042574Y-97899853D01*
X40303727Y-97791680D01*
X40538759Y-97634637D01*
X40738637Y-97434759D01*
X40895680Y-97199727D01*
X41003853Y-96938574D01*
X41059000Y-96661335D01*
X41059000Y-96378665D01*
X41237000Y-96378665D01*
X41237000Y-96661335D01*
X41292147Y-96938574D01*
X41400320Y-97199727D01*
X41557363Y-97434759D01*
X41757241Y-97634637D01*
X41992273Y-97791680D01*
X42253426Y-97899853D01*
X42530665Y-97955000D01*
X42813335Y-97955000D01*
X43090574Y-97899853D01*
X43351727Y-97791680D01*
X43586759Y-97634637D01*
X43786637Y-97434759D01*
X43943680Y-97199727D01*
X44051853Y-96938574D01*
X44107000Y-96661335D01*
X44107000Y-96378665D01*
X44051853Y-96101426D01*
X43943680Y-95840273D01*
X43786637Y-95605241D01*
X43586759Y-95405363D01*
X43351727Y-95248320D01*
X43341135Y-95243933D01*
X43527131Y-95132385D01*
X43735519Y-94943414D01*
X43903037Y-94717420D01*
X44023246Y-94463087D01*
X44063904Y-94329039D01*
X43941915Y-94107000D01*
X42799000Y-94107000D01*
X42799000Y-94127000D01*
X42545000Y-94127000D01*
X42545000Y-94107000D01*
X41402085Y-94107000D01*
X41280096Y-94329039D01*
X41320754Y-94463087D01*
X41440963Y-94717420D01*
X41608481Y-94943414D01*
X41816869Y-95132385D01*
X42002865Y-95243933D01*
X41992273Y-95248320D01*
X41757241Y-95405363D01*
X41557363Y-95605241D01*
X41400320Y-95840273D01*
X41292147Y-96101426D01*
X41237000Y-96378665D01*
X41059000Y-96378665D01*
X41003853Y-96101426D01*
X40895680Y-95840273D01*
X40738637Y-95605241D01*
X40538759Y-95405363D01*
X40303727Y-95248320D01*
X40042574Y-95140147D01*
X39765335Y-95085000D01*
X39482665Y-95085000D01*
X39205426Y-95140147D01*
X38944273Y-95248320D01*
X38709241Y-95405363D01*
X38509363Y-95605241D01*
X38352320Y-95840273D01*
X38244147Y-96101426D01*
X38189000Y-96378665D01*
X37719000Y-96378665D01*
X37719000Y-83678665D01*
X38189000Y-83678665D01*
X38189000Y-83961335D01*
X38244147Y-84238574D01*
X38352320Y-84499727D01*
X38509363Y-84734759D01*
X38709241Y-84934637D01*
X38944273Y-85091680D01*
X39205426Y-85199853D01*
X39482665Y-85255000D01*
X39765335Y-85255000D01*
X40042574Y-85199853D01*
X40303727Y-85091680D01*
X40538759Y-84934637D01*
X40738637Y-84734759D01*
X40895680Y-84499727D01*
X41003853Y-84238574D01*
X41059000Y-83961335D01*
X41059000Y-83678665D01*
X41237000Y-83678665D01*
X41237000Y-83961335D01*
X41292147Y-84238574D01*
X41400320Y-84499727D01*
X41557363Y-84734759D01*
X41757241Y-84934637D01*
X41992273Y-85091680D01*
X42253426Y-85199853D01*
X42530665Y-85255000D01*
X42813335Y-85255000D01*
X43090574Y-85199853D01*
X43351727Y-85091680D01*
X43586759Y-84934637D01*
X43786637Y-84734759D01*
X43943680Y-84499727D01*
X44051853Y-84238574D01*
X44107000Y-83961335D01*
X44107000Y-83678665D01*
X44051853Y-83401426D01*
X43943680Y-83140273D01*
X43786637Y-82905241D01*
X43586759Y-82705363D01*
X43351727Y-82548320D01*
X43341135Y-82543933D01*
X43527131Y-82432385D01*
X43735519Y-82243414D01*
X43903037Y-82017420D01*
X44023246Y-81763087D01*
X44063904Y-81629039D01*
X43941915Y-81407000D01*
X42799000Y-81407000D01*
X42799000Y-81427000D01*
X42545000Y-81427000D01*
X42545000Y-81407000D01*
X41402085Y-81407000D01*
X41280096Y-81629039D01*
X41320754Y-81763087D01*
X41440963Y-82017420D01*
X41608481Y-82243414D01*
X41816869Y-82432385D01*
X42002865Y-82543933D01*
X41992273Y-82548320D01*
X41757241Y-82705363D01*
X41557363Y-82905241D01*
X41400320Y-83140273D01*
X41292147Y-83401426D01*
X41237000Y-83678665D01*
X41059000Y-83678665D01*
X41003853Y-83401426D01*
X40895680Y-83140273D01*
X40738637Y-82905241D01*
X40538759Y-82705363D01*
X40303727Y-82548320D01*
X40042574Y-82440147D01*
X39765335Y-82385000D01*
X39482665Y-82385000D01*
X39205426Y-82440147D01*
X38944273Y-82548320D01*
X38709241Y-82705363D01*
X38509363Y-82905241D01*
X38352320Y-83140273D01*
X38244147Y-83401426D01*
X38189000Y-83678665D01*
X37719000Y-83678665D01*
X37719000Y-70978665D01*
X38189000Y-70978665D01*
X38189000Y-71261335D01*
X38244147Y-71538574D01*
X38352320Y-71799727D01*
X38509363Y-72034759D01*
X38709241Y-72234637D01*
X38944273Y-72391680D01*
X39205426Y-72499853D01*
X39482665Y-72555000D01*
X39765335Y-72555000D01*
X40042574Y-72499853D01*
X40303727Y-72391680D01*
X40538759Y-72234637D01*
X40738637Y-72034759D01*
X40895680Y-71799727D01*
X41003853Y-71538574D01*
X41059000Y-71261335D01*
X41059000Y-70978665D01*
X41110000Y-70978665D01*
X41110000Y-71261335D01*
X41165147Y-71538574D01*
X41273320Y-71799727D01*
X41430363Y-72034759D01*
X41630241Y-72234637D01*
X41865273Y-72391680D01*
X42126426Y-72499853D01*
X42403665Y-72555000D01*
X42686335Y-72555000D01*
X42963574Y-72499853D01*
X43224727Y-72391680D01*
X43459759Y-72234637D01*
X43659637Y-72034759D01*
X43816680Y-71799727D01*
X43924853Y-71538574D01*
X43980000Y-71261335D01*
X43980000Y-70978665D01*
X43924853Y-70701426D01*
X43816680Y-70440273D01*
X43659637Y-70205241D01*
X43459759Y-70005363D01*
X43224727Y-69848320D01*
X43214135Y-69843933D01*
X43400131Y-69732385D01*
X43608519Y-69543414D01*
X43776037Y-69317420D01*
X43896246Y-69063087D01*
X43936904Y-68929039D01*
X43814915Y-68707000D01*
X42672000Y-68707000D01*
X42672000Y-68727000D01*
X42418000Y-68727000D01*
X42418000Y-68707000D01*
X41275085Y-68707000D01*
X41153096Y-68929039D01*
X41193754Y-69063087D01*
X41313963Y-69317420D01*
X41481481Y-69543414D01*
X41689869Y-69732385D01*
X41875865Y-69843933D01*
X41865273Y-69848320D01*
X41630241Y-70005363D01*
X41430363Y-70205241D01*
X41273320Y-70440273D01*
X41165147Y-70701426D01*
X41110000Y-70978665D01*
X41059000Y-70978665D01*
X41003853Y-70701426D01*
X40895680Y-70440273D01*
X40738637Y-70205241D01*
X40538759Y-70005363D01*
X40303727Y-69848320D01*
X40042574Y-69740147D01*
X39765335Y-69685000D01*
X39482665Y-69685000D01*
X39205426Y-69740147D01*
X38944273Y-69848320D01*
X38709241Y-70005363D01*
X38509363Y-70205241D01*
X38352320Y-70440273D01*
X38244147Y-70701426D01*
X38189000Y-70978665D01*
X37719000Y-70978665D01*
X37719000Y-63358665D01*
X38189000Y-63358665D01*
X38189000Y-63641335D01*
X38244147Y-63918574D01*
X38352320Y-64179727D01*
X38509363Y-64414759D01*
X38709241Y-64614637D01*
X38944273Y-64771680D01*
X39205426Y-64879853D01*
X39482665Y-64935000D01*
X39765335Y-64935000D01*
X40042574Y-64879853D01*
X40303727Y-64771680D01*
X40538759Y-64614637D01*
X40738637Y-64414759D01*
X40758521Y-64385000D01*
X41115299Y-64385000D01*
X41119188Y-64424482D01*
X41155498Y-64544180D01*
X41214463Y-64654494D01*
X41293815Y-64751185D01*
X41390506Y-64830537D01*
X41500820Y-64889502D01*
X41620518Y-64925812D01*
X41628961Y-64926643D01*
X41430363Y-65125241D01*
X41273320Y-65360273D01*
X41165147Y-65621426D01*
X41110000Y-65898665D01*
X41110000Y-66181335D01*
X41165147Y-66458574D01*
X41273320Y-66719727D01*
X41430363Y-66954759D01*
X41630241Y-67154637D01*
X41865273Y-67311680D01*
X41875865Y-67316067D01*
X41689869Y-67427615D01*
X41481481Y-67616586D01*
X41313963Y-67842580D01*
X41193754Y-68096913D01*
X41153096Y-68230961D01*
X41275085Y-68453000D01*
X42418000Y-68453000D01*
X42418000Y-68433000D01*
X42672000Y-68433000D01*
X42672000Y-68453000D01*
X43814915Y-68453000D01*
X43936904Y-68230961D01*
X43896246Y-68096913D01*
X43776037Y-67842580D01*
X43608519Y-67616586D01*
X43400131Y-67427615D01*
X43214135Y-67316067D01*
X43224727Y-67311680D01*
X43459759Y-67154637D01*
X43659637Y-66954759D01*
X43816680Y-66719727D01*
X43924853Y-66458574D01*
X43980000Y-66181335D01*
X43980000Y-65898665D01*
X43924853Y-65621426D01*
X43816680Y-65360273D01*
X43659637Y-65125241D01*
X43461039Y-64926643D01*
X43469482Y-64925812D01*
X43589180Y-64889502D01*
X43699494Y-64830537D01*
X43796185Y-64751185D01*
X43875537Y-64654494D01*
X43934502Y-64544180D01*
X43970812Y-64424482D01*
X43974701Y-64385000D01*
X46867001Y-64385000D01*
X46867001Y-75323620D01*
X46779477Y-75315000D01*
X46736000Y-75310718D01*
X46692524Y-75315000D01*
X44101701Y-75315000D01*
X44097812Y-75275518D01*
X44061502Y-75155820D01*
X44002537Y-75045506D01*
X43923185Y-74948815D01*
X43826494Y-74869463D01*
X43716180Y-74810498D01*
X43596482Y-74774188D01*
X43472000Y-74761928D01*
X41872000Y-74761928D01*
X41747518Y-74774188D01*
X41627820Y-74810498D01*
X41517506Y-74869463D01*
X41420815Y-74948815D01*
X41341463Y-75045506D01*
X41282498Y-75155820D01*
X41246188Y-75275518D01*
X41242299Y-75315000D01*
X40758521Y-75315000D01*
X40738637Y-75285241D01*
X40538759Y-75085363D01*
X40303727Y-74928320D01*
X40042574Y-74820147D01*
X39765335Y-74765000D01*
X39482665Y-74765000D01*
X39205426Y-74820147D01*
X38944273Y-74928320D01*
X38709241Y-75085363D01*
X38509363Y-75285241D01*
X38352320Y-75520273D01*
X38244147Y-75781426D01*
X38189000Y-76058665D01*
X38189000Y-76341335D01*
X38244147Y-76618574D01*
X38352320Y-76879727D01*
X38509363Y-77114759D01*
X38709241Y-77314637D01*
X38944273Y-77471680D01*
X39205426Y-77579853D01*
X39482665Y-77635000D01*
X39765335Y-77635000D01*
X40042574Y-77579853D01*
X40303727Y-77471680D01*
X40538759Y-77314637D01*
X40738637Y-77114759D01*
X40758521Y-77085000D01*
X41242299Y-77085000D01*
X41246188Y-77124482D01*
X41282498Y-77244180D01*
X41341463Y-77354494D01*
X41420815Y-77451185D01*
X41517506Y-77530537D01*
X41627820Y-77589502D01*
X41747518Y-77625812D01*
X41755961Y-77626643D01*
X41557363Y-77825241D01*
X41400320Y-78060273D01*
X41292147Y-78321426D01*
X41237000Y-78598665D01*
X41237000Y-78881335D01*
X41292147Y-79158574D01*
X41400320Y-79419727D01*
X41557363Y-79654759D01*
X41757241Y-79854637D01*
X41992273Y-80011680D01*
X42002865Y-80016067D01*
X41816869Y-80127615D01*
X41608481Y-80316586D01*
X41440963Y-80542580D01*
X41320754Y-80796913D01*
X41280096Y-80930961D01*
X41402085Y-81153000D01*
X42545000Y-81153000D01*
X42545000Y-81133000D01*
X42799000Y-81133000D01*
X42799000Y-81153000D01*
X43941915Y-81153000D01*
X44063904Y-80930961D01*
X44023246Y-80796913D01*
X43903037Y-80542580D01*
X43735519Y-80316586D01*
X43527131Y-80127615D01*
X43341135Y-80016067D01*
X43351727Y-80011680D01*
X43586759Y-79854637D01*
X43786637Y-79654759D01*
X43943680Y-79419727D01*
X44051853Y-79158574D01*
X44107000Y-78881335D01*
X44107000Y-78598665D01*
X44051853Y-78321426D01*
X43943680Y-78060273D01*
X43786637Y-77825241D01*
X43588039Y-77626643D01*
X43596482Y-77625812D01*
X43716180Y-77589502D01*
X43826494Y-77530537D01*
X43923185Y-77451185D01*
X44002537Y-77354494D01*
X44061502Y-77244180D01*
X44097812Y-77124482D01*
X44101701Y-77085000D01*
X45851001Y-77085000D01*
X45851001Y-88023620D01*
X45763477Y-88015000D01*
X45763469Y-88015000D01*
X45720000Y-88010719D01*
X45676531Y-88015000D01*
X44101701Y-88015000D01*
X44097812Y-87975518D01*
X44061502Y-87855820D01*
X44002537Y-87745506D01*
X43923185Y-87648815D01*
X43826494Y-87569463D01*
X43716180Y-87510498D01*
X43596482Y-87474188D01*
X43472000Y-87461928D01*
X41872000Y-87461928D01*
X41747518Y-87474188D01*
X41627820Y-87510498D01*
X41517506Y-87569463D01*
X41420815Y-87648815D01*
X41341463Y-87745506D01*
X41282498Y-87855820D01*
X41246188Y-87975518D01*
X41242299Y-88015000D01*
X40758521Y-88015000D01*
X40738637Y-87985241D01*
X40538759Y-87785363D01*
X40303727Y-87628320D01*
X40042574Y-87520147D01*
X39765335Y-87465000D01*
X39482665Y-87465000D01*
X39205426Y-87520147D01*
X38944273Y-87628320D01*
X38709241Y-87785363D01*
X38509363Y-87985241D01*
X38352320Y-88220273D01*
X38244147Y-88481426D01*
X38189000Y-88758665D01*
X38189000Y-89041335D01*
X38244147Y-89318574D01*
X38352320Y-89579727D01*
X38509363Y-89814759D01*
X38709241Y-90014637D01*
X38944273Y-90171680D01*
X39205426Y-90279853D01*
X39482665Y-90335000D01*
X39765335Y-90335000D01*
X40042574Y-90279853D01*
X40303727Y-90171680D01*
X40538759Y-90014637D01*
X40738637Y-89814759D01*
X40758521Y-89785000D01*
X41242299Y-89785000D01*
X41246188Y-89824482D01*
X41282498Y-89944180D01*
X41341463Y-90054494D01*
X41420815Y-90151185D01*
X41517506Y-90230537D01*
X41627820Y-90289502D01*
X41747518Y-90325812D01*
X41755961Y-90326643D01*
X41557363Y-90525241D01*
X41400320Y-90760273D01*
X41292147Y-91021426D01*
X41237000Y-91298665D01*
X41237000Y-91581335D01*
X41292147Y-91858574D01*
X41400320Y-92119727D01*
X41557363Y-92354759D01*
X41757241Y-92554637D01*
X41992273Y-92711680D01*
X42002865Y-92716067D01*
X41816869Y-92827615D01*
X41608481Y-93016586D01*
X41440963Y-93242580D01*
X41320754Y-93496913D01*
X41280096Y-93630961D01*
X41402085Y-93853000D01*
X42545000Y-93853000D01*
X42545000Y-93833000D01*
X42799000Y-93833000D01*
X42799000Y-93853000D01*
X43941915Y-93853000D01*
X44063904Y-93630961D01*
X44023246Y-93496913D01*
X43903037Y-93242580D01*
X43735519Y-93016586D01*
X43527131Y-92827615D01*
X43341135Y-92716067D01*
X43351727Y-92711680D01*
X43586759Y-92554637D01*
X43786637Y-92354759D01*
X43943680Y-92119727D01*
X44051853Y-91858574D01*
X44107000Y-91581335D01*
X44107000Y-91298665D01*
X44051853Y-91021426D01*
X43943680Y-90760273D01*
X43786637Y-90525241D01*
X43588039Y-90326643D01*
X43596482Y-90325812D01*
X43716180Y-90289502D01*
X43826494Y-90230537D01*
X43923185Y-90151185D01*
X44002537Y-90054494D01*
X44061502Y-89944180D01*
X44097812Y-89824482D01*
X44101701Y-89785000D01*
X45027011Y-89785000D01*
X45027011Y-100715000D01*
X44101701Y-100715000D01*
X44097812Y-100675518D01*
X44061502Y-100555820D01*
X44002537Y-100445506D01*
X43923185Y-100348815D01*
X43826494Y-100269463D01*
X43716180Y-100210498D01*
X43596482Y-100174188D01*
X43472000Y-100161928D01*
X41872000Y-100161928D01*
X41747518Y-100174188D01*
X41627820Y-100210498D01*
X41517506Y-100269463D01*
X41420815Y-100348815D01*
X41341463Y-100445506D01*
X41282498Y-100555820D01*
X41246188Y-100675518D01*
X41242299Y-100715000D01*
X40758521Y-100715000D01*
X40738637Y-100685241D01*
X40538759Y-100485363D01*
X40303727Y-100328320D01*
X40042574Y-100220147D01*
X39765335Y-100165000D01*
X39482665Y-100165000D01*
X39205426Y-100220147D01*
X38944273Y-100328320D01*
X38709241Y-100485363D01*
X38509363Y-100685241D01*
X38352320Y-100920273D01*
X38244147Y-101181426D01*
X38189000Y-101458665D01*
X38189000Y-101741335D01*
X38244147Y-102018574D01*
X38352320Y-102279727D01*
X38509363Y-102514759D01*
X38709241Y-102714637D01*
X38944273Y-102871680D01*
X39205426Y-102979853D01*
X39482665Y-103035000D01*
X39765335Y-103035000D01*
X40042574Y-102979853D01*
X40303727Y-102871680D01*
X40538759Y-102714637D01*
X40738637Y-102514759D01*
X40758521Y-102485000D01*
X41242299Y-102485000D01*
X41246188Y-102524482D01*
X41282498Y-102644180D01*
X41341463Y-102754494D01*
X41420815Y-102851185D01*
X41517506Y-102930537D01*
X41627820Y-102989502D01*
X41747518Y-103025812D01*
X41755961Y-103026643D01*
X41557363Y-103225241D01*
X41400320Y-103460273D01*
X41292147Y-103721426D01*
X41237000Y-103998665D01*
X41237000Y-104281335D01*
X41292147Y-104558574D01*
X41400320Y-104819727D01*
X41557363Y-105054759D01*
X41757241Y-105254637D01*
X41992273Y-105411680D01*
X42002865Y-105416067D01*
X41816869Y-105527615D01*
X41608481Y-105716586D01*
X41440963Y-105942580D01*
X41320754Y-106196913D01*
X41280096Y-106330961D01*
X41402085Y-106553000D01*
X42545000Y-106553000D01*
X42545000Y-106533000D01*
X42799000Y-106533000D01*
X42799000Y-106553000D01*
X43941915Y-106553000D01*
X44063904Y-106330961D01*
X44023246Y-106196913D01*
X43903037Y-105942580D01*
X43735519Y-105716586D01*
X43527131Y-105527615D01*
X43341135Y-105416067D01*
X43351727Y-105411680D01*
X43586759Y-105254637D01*
X43786637Y-105054759D01*
X43943680Y-104819727D01*
X44051853Y-104558574D01*
X44107000Y-104281335D01*
X44107000Y-103998665D01*
X44051853Y-103721426D01*
X43943680Y-103460273D01*
X43786637Y-103225241D01*
X43588039Y-103026643D01*
X43596482Y-103025812D01*
X43716180Y-102989502D01*
X43826494Y-102930537D01*
X43923185Y-102851185D01*
X44002537Y-102754494D01*
X44061502Y-102644180D01*
X44097812Y-102524482D01*
X44101701Y-102485000D01*
X44327001Y-102485000D01*
X44327000Y-124416523D01*
X44322718Y-124460000D01*
X44339805Y-124633490D01*
X44390411Y-124800313D01*
X44472589Y-124954059D01*
X44583183Y-125088817D01*
X44717941Y-125199411D01*
X44871687Y-125281589D01*
X45038510Y-125332195D01*
X45212000Y-125349282D01*
X45255476Y-125345000D01*
X49157479Y-125345000D01*
X49177363Y-125374759D01*
X49377241Y-125574637D01*
X49609759Y-125730000D01*
X49377241Y-125885363D01*
X49177363Y-126085241D01*
X49020320Y-126320273D01*
X48912147Y-126581426D01*
X48857000Y-126858665D01*
X48857000Y-127141335D01*
X48912147Y-127418574D01*
X49020320Y-127679727D01*
X49177363Y-127914759D01*
X49377241Y-128114637D01*
X49609759Y-128270000D01*
X49377241Y-128425363D01*
X49177363Y-128625241D01*
X49020320Y-128860273D01*
X48912147Y-129121426D01*
X48857000Y-129398665D01*
X48857000Y-129681335D01*
X48912147Y-129958574D01*
X49020320Y-130219727D01*
X49177363Y-130454759D01*
X49377241Y-130654637D01*
X49609759Y-130810000D01*
X49377241Y-130965363D01*
X49177363Y-131165241D01*
X49020320Y-131400273D01*
X48912147Y-131661426D01*
X48857000Y-131938665D01*
X48857000Y-132221335D01*
X48912147Y-132498574D01*
X49020320Y-132759727D01*
X49177363Y-132994759D01*
X49377241Y-133194637D01*
X49612273Y-133351680D01*
X49873426Y-133459853D01*
X50150665Y-133515000D01*
X50433335Y-133515000D01*
X50710574Y-133459853D01*
X50931001Y-133368549D01*
X50931001Y-143959000D01*
X49403366Y-143959000D01*
X49263238Y-143844000D01*
X49412502Y-143721502D01*
X49566833Y-143533449D01*
X49681511Y-143318901D01*
X49752130Y-143086102D01*
X49775975Y-142844000D01*
X49752130Y-142601898D01*
X49681511Y-142369099D01*
X49566833Y-142154551D01*
X49412502Y-141966498D01*
X49263238Y-141844000D01*
X49412502Y-141721502D01*
X49566833Y-141533449D01*
X49681511Y-141318901D01*
X49752130Y-141086102D01*
X49775975Y-140844000D01*
X49752130Y-140601898D01*
X49681511Y-140369099D01*
X49566833Y-140154551D01*
X49412502Y-139966498D01*
X49263238Y-139844000D01*
X49412502Y-139721502D01*
X49566833Y-139533449D01*
X49681511Y-139318901D01*
X49752130Y-139086102D01*
X49775975Y-138844000D01*
X49752130Y-138601898D01*
X49681511Y-138369099D01*
X49566833Y-138154551D01*
X49412502Y-137966498D01*
X49263238Y-137844000D01*
X49412502Y-137721502D01*
X49566833Y-137533449D01*
X49681511Y-137318901D01*
X49752130Y-137086102D01*
X49775975Y-136844000D01*
X49752130Y-136601898D01*
X49681511Y-136369099D01*
X49566833Y-136154551D01*
X49412502Y-135966498D01*
X49224449Y-135812167D01*
X49009901Y-135697489D01*
X48777102Y-135626870D01*
X48595665Y-135609000D01*
X47924335Y-135609000D01*
X47742898Y-135626870D01*
X47510099Y-135697489D01*
X47295551Y-135812167D01*
X47107498Y-135966498D01*
X46953167Y-136154551D01*
X46838489Y-136369099D01*
X46767870Y-136601898D01*
X46744025Y-136844000D01*
X46767870Y-137086102D01*
X46838489Y-137318901D01*
X46953167Y-137533449D01*
X47107498Y-137721502D01*
X47256762Y-137844000D01*
X47107498Y-137966498D01*
X46953167Y-138154551D01*
X46838489Y-138369099D01*
X46767870Y-138601898D01*
X46746881Y-138815000D01*
X42033000Y-138815000D01*
X42033000Y-133368550D01*
X42253426Y-133459853D01*
X42530665Y-133515000D01*
X42813335Y-133515000D01*
X43090574Y-133459853D01*
X43351727Y-133351680D01*
X43586759Y-133194637D01*
X43786637Y-132994759D01*
X43943680Y-132759727D01*
X44051853Y-132498574D01*
X44107000Y-132221335D01*
X44107000Y-131938665D01*
X44051853Y-131661426D01*
X43943680Y-131400273D01*
X43786637Y-131165241D01*
X43586759Y-130965363D01*
X43354241Y-130810000D01*
X43586759Y-130654637D01*
X43786637Y-130454759D01*
X43943680Y-130219727D01*
X44051853Y-129958574D01*
X44107000Y-129681335D01*
X44107000Y-129398665D01*
X44051853Y-129121426D01*
X43943680Y-128860273D01*
X43786637Y-128625241D01*
X43586759Y-128425363D01*
X43351727Y-128268320D01*
X43341135Y-128263933D01*
X43527131Y-128152385D01*
X43735519Y-127963414D01*
X43903037Y-127737420D01*
X44023246Y-127483087D01*
X44063904Y-127349039D01*
X43941915Y-127127000D01*
X42799000Y-127127000D01*
X42799000Y-127147000D01*
X42545000Y-127147000D01*
X42545000Y-127127000D01*
X42525000Y-127127000D01*
X42525000Y-126873000D01*
X42545000Y-126873000D01*
X42545000Y-126853000D01*
X42799000Y-126853000D01*
X42799000Y-126873000D01*
X43941915Y-126873000D01*
X44063904Y-126650961D01*
X44023246Y-126516913D01*
X43903037Y-126262580D01*
X43735519Y-126036586D01*
X43527131Y-125847615D01*
X43341135Y-125736067D01*
X43351727Y-125731680D01*
X43586759Y-125574637D01*
X43786637Y-125374759D01*
X43943680Y-125139727D01*
X44051853Y-124878574D01*
X44107000Y-124601335D01*
X44107000Y-124318665D01*
X44051853Y-124041426D01*
X43943680Y-123780273D01*
X43786637Y-123545241D01*
X43586759Y-123345363D01*
X43354241Y-123190000D01*
X43586759Y-123034637D01*
X43786637Y-122834759D01*
X43943680Y-122599727D01*
X44051853Y-122338574D01*
X44107000Y-122061335D01*
X44107000Y-121778665D01*
X44051853Y-121501426D01*
X43943680Y-121240273D01*
X43786637Y-121005241D01*
X43586759Y-120805363D01*
X43354241Y-120650000D01*
X43586759Y-120494637D01*
X43786637Y-120294759D01*
X43943680Y-120059727D01*
X44051853Y-119798574D01*
X44107000Y-119521335D01*
X44107000Y-119238665D01*
X44051853Y-118961426D01*
X43943680Y-118700273D01*
X43786637Y-118465241D01*
X43586759Y-118265363D01*
X43354241Y-118110000D01*
X43586759Y-117954637D01*
X43786637Y-117754759D01*
X43943680Y-117519727D01*
X44051853Y-117258574D01*
X44107000Y-116981335D01*
X44107000Y-116698665D01*
X44051853Y-116421426D01*
X43943680Y-116160273D01*
X43786637Y-115925241D01*
X43588039Y-115726643D01*
X43596482Y-115725812D01*
X43716180Y-115689502D01*
X43826494Y-115630537D01*
X43923185Y-115551185D01*
X44002537Y-115454494D01*
X44061502Y-115344180D01*
X44097812Y-115224482D01*
X44110072Y-115100000D01*
X44110072Y-113500000D01*
X44097812Y-113375518D01*
X44061502Y-113255820D01*
X44002537Y-113145506D01*
X43923185Y-113048815D01*
X43826494Y-112969463D01*
X43716180Y-112910498D01*
X43596482Y-112874188D01*
X43472000Y-112861928D01*
X41872000Y-112861928D01*
X41747518Y-112874188D01*
X41627820Y-112910498D01*
X41517506Y-112969463D01*
X41420815Y-113048815D01*
X41341463Y-113145506D01*
X41282498Y-113255820D01*
X41246188Y-113375518D01*
X41242299Y-113415000D01*
X40175476Y-113415000D01*
X40132000Y-113410718D01*
X40088523Y-113415000D01*
X39958510Y-113427805D01*
X39791687Y-113478411D01*
X39637941Y-113560589D01*
X39503183Y-113671183D01*
X39392589Y-113805941D01*
X39310411Y-113959687D01*
X39259805Y-114126510D01*
X39242718Y-114300000D01*
X39247000Y-114343477D01*
X39247001Y-140672521D01*
X39242719Y-140716000D01*
X39259805Y-140889490D01*
X39310412Y-141056313D01*
X39392590Y-141210059D01*
X39475468Y-141311046D01*
X39475471Y-141311049D01*
X39503184Y-141344817D01*
X39536952Y-141372530D01*
X39603466Y-141439044D01*
X39631183Y-141472817D01*
X39765941Y-141583411D01*
X39919687Y-141665589D01*
X40086510Y-141716195D01*
X40216523Y-141729000D01*
X40216533Y-141729000D01*
X40259999Y-141733281D01*
X40303465Y-141729000D01*
X47116634Y-141729000D01*
X47256762Y-141844000D01*
X47107498Y-141966498D01*
X46953167Y-142154551D01*
X46838489Y-142369099D01*
X46767870Y-142601898D01*
X46744025Y-142844000D01*
X46767870Y-143086102D01*
X46838489Y-143318901D01*
X46953167Y-143533449D01*
X47107498Y-143721502D01*
X47256762Y-143844000D01*
X47107498Y-143966498D01*
X46953167Y-144154551D01*
X46838489Y-144369099D01*
X46767870Y-144601898D01*
X46744025Y-144844000D01*
X46767870Y-145086102D01*
X46838489Y-145318901D01*
X46953167Y-145533449D01*
X47107498Y-145721502D01*
X47256762Y-145844000D01*
X47107498Y-145966498D01*
X46953167Y-146154551D01*
X46838489Y-146369099D01*
X46767870Y-146601898D01*
X46744025Y-146844000D01*
X46767870Y-147086102D01*
X46838489Y-147318901D01*
X46953167Y-147533449D01*
X47107498Y-147721502D01*
X47146111Y-147753191D01*
X47141613Y-147755595D01*
X47007038Y-147866038D01*
X46896595Y-148000613D01*
X46814528Y-148154149D01*
X46763992Y-148320745D01*
X46746928Y-148493999D01*
X46746928Y-148975000D01*
X44646977Y-148975000D01*
X44512212Y-148810788D01*
X44335578Y-148665829D01*
X44134059Y-148558115D01*
X43915399Y-148491785D01*
X43688000Y-148469388D01*
X43460600Y-148491785D01*
X43241940Y-148558115D01*
X43053000Y-148659106D01*
X42864059Y-148558115D01*
X42645399Y-148491785D01*
X42418000Y-148469388D01*
X42190600Y-148491785D01*
X41981902Y-148555093D01*
X41917180Y-148520498D01*
X41797482Y-148484188D01*
X41673000Y-148471928D01*
X41433750Y-148475000D01*
X41275000Y-148633750D01*
X41275000Y-149406892D01*
X41274785Y-149407601D01*
X41258000Y-149578022D01*
X41258000Y-150141979D01*
X41274785Y-150312400D01*
X41275000Y-150313109D01*
X41275000Y-151086250D01*
X41433750Y-151245000D01*
X41673000Y-151248072D01*
X41797482Y-151235812D01*
X41917180Y-151199502D01*
X41981902Y-151164907D01*
X42190601Y-151228215D01*
X42418000Y-151250612D01*
X42645400Y-151228215D01*
X42864060Y-151161885D01*
X43053001Y-151060894D01*
X43241941Y-151161885D01*
X43460601Y-151228215D01*
X43688000Y-151250612D01*
X43915400Y-151228215D01*
X44134060Y-151161885D01*
X44335579Y-151054171D01*
X44512212Y-150909212D01*
X44646977Y-150745000D01*
X48216523Y-150745000D01*
X48260000Y-150749282D01*
X48303476Y-150745000D01*
X51951877Y-150745000D01*
X51960147Y-150786574D01*
X52068320Y-151047727D01*
X52225363Y-151282759D01*
X52425241Y-151482637D01*
X52660273Y-151639680D01*
X52921426Y-151747853D01*
X53198665Y-151803000D01*
X53481335Y-151803000D01*
X53758574Y-151747853D01*
X54019727Y-151639680D01*
X54254759Y-151482637D01*
X54454637Y-151282759D01*
X54611680Y-151047727D01*
X54719853Y-150786574D01*
X54775000Y-150509335D01*
X54775000Y-150226665D01*
X54719853Y-149949426D01*
X54611680Y-149688273D01*
X54454637Y-149453241D01*
X54254759Y-149253363D01*
X54052173Y-149118000D01*
X54254759Y-148982637D01*
X54454637Y-148782759D01*
X54611680Y-148547727D01*
X54719853Y-148286574D01*
X54775000Y-148009335D01*
X54775000Y-147726665D01*
X54719853Y-147449426D01*
X54611680Y-147188273D01*
X54454637Y-146953241D01*
X54254759Y-146753363D01*
X54019727Y-146596320D01*
X53758574Y-146488147D01*
X53481335Y-146433000D01*
X53198665Y-146433000D01*
X52921426Y-146488147D01*
X52660273Y-146596320D01*
X52425241Y-146753363D01*
X52225363Y-146953241D01*
X52068320Y-147188273D01*
X51960147Y-147449426D01*
X51905000Y-147726665D01*
X51905000Y-148009335D01*
X51960147Y-148286574D01*
X52068320Y-148547727D01*
X52225363Y-148782759D01*
X52417604Y-148975000D01*
X49773072Y-148975000D01*
X49773072Y-148493999D01*
X49756008Y-148320745D01*
X49705472Y-148154149D01*
X49623405Y-148000613D01*
X49512962Y-147866038D01*
X49378387Y-147755595D01*
X49373889Y-147753191D01*
X49412502Y-147721502D01*
X49566833Y-147533449D01*
X49681511Y-147318901D01*
X49752130Y-147086102D01*
X49775975Y-146844000D01*
X49752130Y-146601898D01*
X49681511Y-146369099D01*
X49566833Y-146154551D01*
X49412502Y-145966498D01*
X49263238Y-145844000D01*
X49403366Y-145729000D01*
X51708531Y-145729000D01*
X51752000Y-145733281D01*
X51795469Y-145729000D01*
X51795477Y-145729000D01*
X51925490Y-145716195D01*
X52092313Y-145665589D01*
X52246059Y-145583411D01*
X52380817Y-145472817D01*
X52408534Y-145439044D01*
X52411044Y-145436534D01*
X52444817Y-145408817D01*
X52555411Y-145274059D01*
X52637589Y-145120313D01*
X52688195Y-144953490D01*
X52701000Y-144823477D01*
X52701000Y-144823469D01*
X52705281Y-144780000D01*
X52701000Y-144736531D01*
X52701000Y-118128550D01*
X52921426Y-118219853D01*
X53198665Y-118275000D01*
X53481335Y-118275000D01*
X53758574Y-118219853D01*
X54019727Y-118111680D01*
X54254759Y-117954637D01*
X54454637Y-117754759D01*
X54611680Y-117519727D01*
X54719853Y-117258574D01*
X54775000Y-116981335D01*
X54775000Y-116698665D01*
X54719853Y-116421426D01*
X54611680Y-116160273D01*
X54454637Y-115925241D01*
X54254759Y-115725363D01*
X54054131Y-115591308D01*
X54081514Y-115576671D01*
X54153097Y-115332702D01*
X53340000Y-114519605D01*
X53325858Y-114533748D01*
X53146253Y-114354143D01*
X53160395Y-114340000D01*
X53519605Y-114340000D01*
X54332702Y-115153097D01*
X54576671Y-115081514D01*
X54697571Y-114826004D01*
X54766300Y-114551816D01*
X54780217Y-114269488D01*
X54738787Y-113989870D01*
X54643603Y-113723708D01*
X54576671Y-113598486D01*
X54332702Y-113526903D01*
X53519605Y-114340000D01*
X53160395Y-114340000D01*
X53146253Y-114325858D01*
X53325858Y-114146253D01*
X53340000Y-114160395D01*
X54153097Y-113347298D01*
X54081514Y-113103329D01*
X53826004Y-112982429D01*
X53551816Y-112913700D01*
X53269488Y-112899783D01*
X52989870Y-112941213D01*
X52723708Y-113036397D01*
X52701000Y-113048535D01*
X52701000Y-109263477D01*
X52705282Y-109220000D01*
X52701000Y-109176523D01*
X52701000Y-105428550D01*
X52921426Y-105519853D01*
X53198665Y-105575000D01*
X53481335Y-105575000D01*
X53758574Y-105519853D01*
X54019727Y-105411680D01*
X54254759Y-105254637D01*
X54454637Y-105054759D01*
X54611680Y-104819727D01*
X54719853Y-104558574D01*
X54775000Y-104281335D01*
X54775000Y-103998665D01*
X54719853Y-103721426D01*
X54611680Y-103460273D01*
X54454637Y-103225241D01*
X54254759Y-103025363D01*
X54054131Y-102891308D01*
X54081514Y-102876671D01*
X54153097Y-102632702D01*
X53340000Y-101819605D01*
X53325858Y-101833748D01*
X53146253Y-101654143D01*
X53160395Y-101640000D01*
X53519605Y-101640000D01*
X54332702Y-102453097D01*
X54576671Y-102381514D01*
X54697571Y-102126004D01*
X54766300Y-101851816D01*
X54780217Y-101569488D01*
X54738787Y-101289870D01*
X54643603Y-101023708D01*
X54576671Y-100898486D01*
X54332702Y-100826903D01*
X53519605Y-101640000D01*
X53160395Y-101640000D01*
X53146253Y-101625858D01*
X53325858Y-101446253D01*
X53340000Y-101460395D01*
X54153097Y-100647298D01*
X54081514Y-100403329D01*
X53826004Y-100282429D01*
X53551816Y-100213700D01*
X53269488Y-100199783D01*
X52989870Y-100241213D01*
X52723708Y-100336397D01*
X52701000Y-100348535D01*
X52701000Y-96563477D01*
X52705282Y-96520000D01*
X52701000Y-96476523D01*
X52701000Y-92728550D01*
X52921426Y-92819853D01*
X53198665Y-92875000D01*
X53481335Y-92875000D01*
X53758574Y-92819853D01*
X54019727Y-92711680D01*
X54254759Y-92554637D01*
X54454637Y-92354759D01*
X54611680Y-92119727D01*
X54719853Y-91858574D01*
X54775000Y-91581335D01*
X54775000Y-91298665D01*
X54719853Y-91021426D01*
X54611680Y-90760273D01*
X54454637Y-90525241D01*
X54254759Y-90325363D01*
X54054131Y-90191308D01*
X54081514Y-90176671D01*
X54153097Y-89932702D01*
X53340000Y-89119605D01*
X53325858Y-89133748D01*
X53146253Y-88954143D01*
X53160395Y-88940000D01*
X53519605Y-88940000D01*
X54332702Y-89753097D01*
X54576671Y-89681514D01*
X54697571Y-89426004D01*
X54766300Y-89151816D01*
X54780217Y-88869488D01*
X54738787Y-88589870D01*
X54643603Y-88323708D01*
X54576671Y-88198486D01*
X54332702Y-88126903D01*
X53519605Y-88940000D01*
X53160395Y-88940000D01*
X53146253Y-88925858D01*
X53325858Y-88746253D01*
X53340000Y-88760395D01*
X54153097Y-87947298D01*
X54081514Y-87703329D01*
X53826004Y-87582429D01*
X53551816Y-87513700D01*
X53269488Y-87499783D01*
X52989870Y-87541213D01*
X52723708Y-87636397D01*
X52701000Y-87648535D01*
X52701000Y-83863477D01*
X52705282Y-83820000D01*
X52701000Y-83776523D01*
X52701000Y-80028550D01*
X52921426Y-80119853D01*
X53198665Y-80175000D01*
X53481335Y-80175000D01*
X53758574Y-80119853D01*
X54019727Y-80011680D01*
X54254759Y-79854637D01*
X54454637Y-79654759D01*
X54611680Y-79419727D01*
X54719853Y-79158574D01*
X54775000Y-78881335D01*
X54775000Y-78598665D01*
X54719853Y-78321426D01*
X54611680Y-78060273D01*
X54454637Y-77825241D01*
X54254759Y-77625363D01*
X54054131Y-77491308D01*
X54081514Y-77476671D01*
X54153097Y-77232702D01*
X53340000Y-76419605D01*
X53325858Y-76433748D01*
X53146253Y-76254143D01*
X53160395Y-76240000D01*
X53519605Y-76240000D01*
X54332702Y-77053097D01*
X54576671Y-76981514D01*
X54697571Y-76726004D01*
X54766300Y-76451816D01*
X54780217Y-76169488D01*
X54738787Y-75889870D01*
X54643603Y-75623708D01*
X54576671Y-75498486D01*
X54332702Y-75426903D01*
X53519605Y-76240000D01*
X53160395Y-76240000D01*
X53146253Y-76225858D01*
X53325858Y-76046253D01*
X53340000Y-76060395D01*
X54153097Y-75247298D01*
X54081514Y-75003329D01*
X53826004Y-74882429D01*
X53551816Y-74813700D01*
X53269488Y-74799783D01*
X52989870Y-74841213D01*
X52723708Y-74936397D01*
X52701000Y-74948535D01*
X52701000Y-71163477D01*
X52705282Y-71120000D01*
X52688195Y-70946510D01*
X52637589Y-70779687D01*
X52555411Y-70625941D01*
X52444817Y-70491183D01*
X52310059Y-70380589D01*
X52156313Y-70298411D01*
X51989490Y-70247805D01*
X51859477Y-70235000D01*
X51859476Y-70235000D01*
X51816000Y-70230718D01*
X51772523Y-70235000D01*
X51299521Y-70235000D01*
X51279637Y-70205241D01*
X51079759Y-70005363D01*
X50847241Y-69850000D01*
X51079759Y-69694637D01*
X51279637Y-69494759D01*
X51436680Y-69259727D01*
X51544853Y-68998574D01*
X51600000Y-68721335D01*
X51600000Y-68438665D01*
X51544853Y-68161426D01*
X51436680Y-67900273D01*
X51279637Y-67665241D01*
X51079759Y-67465363D01*
X50844727Y-67308320D01*
X50834135Y-67303933D01*
X51020131Y-67192385D01*
X51228519Y-67003414D01*
X51396037Y-66777420D01*
X51516246Y-66523087D01*
X51556904Y-66389039D01*
X51434915Y-66167000D01*
X50292000Y-66167000D01*
X50292000Y-66187000D01*
X50038000Y-66187000D01*
X50038000Y-66167000D01*
X48895085Y-66167000D01*
X48773096Y-66389039D01*
X48813754Y-66523087D01*
X48933963Y-66777420D01*
X49101481Y-67003414D01*
X49309869Y-67192385D01*
X49495865Y-67303933D01*
X49485273Y-67308320D01*
X49250241Y-67465363D01*
X49050363Y-67665241D01*
X48893320Y-67900273D01*
X48785147Y-68161426D01*
X48730000Y-68438665D01*
X48730000Y-68721335D01*
X48785147Y-68998574D01*
X48893320Y-69259727D01*
X49050363Y-69494759D01*
X49250241Y-69694637D01*
X49482759Y-69850000D01*
X49250241Y-70005363D01*
X49050363Y-70205241D01*
X48893320Y-70440273D01*
X48785147Y-70701426D01*
X48730000Y-70978665D01*
X48730000Y-71261335D01*
X48785147Y-71538574D01*
X48893320Y-71799727D01*
X49050363Y-72034759D01*
X49250241Y-72234637D01*
X49485273Y-72391680D01*
X49746426Y-72499853D01*
X50023665Y-72555000D01*
X50306335Y-72555000D01*
X50583574Y-72499853D01*
X50844727Y-72391680D01*
X50931000Y-72334034D01*
X50931000Y-74917995D01*
X50905881Y-74902930D01*
X50641040Y-74808091D01*
X50419000Y-74929376D01*
X50419000Y-76073000D01*
X50439000Y-76073000D01*
X50439000Y-76327000D01*
X50419000Y-76327000D01*
X50419000Y-78613000D01*
X50439000Y-78613000D01*
X50439000Y-78867000D01*
X50419000Y-78867000D01*
X50419000Y-78887000D01*
X50165000Y-78887000D01*
X50165000Y-78867000D01*
X49022085Y-78867000D01*
X48900096Y-79089039D01*
X48940754Y-79223087D01*
X49060963Y-79477420D01*
X49228481Y-79703414D01*
X49436869Y-79892385D01*
X49622865Y-80003933D01*
X49612273Y-80008320D01*
X49377241Y-80165363D01*
X49177363Y-80365241D01*
X49020320Y-80600273D01*
X48912147Y-80861426D01*
X48857000Y-81138665D01*
X48857000Y-81421335D01*
X48912147Y-81698574D01*
X49020320Y-81959727D01*
X49177363Y-82194759D01*
X49377241Y-82394637D01*
X49609759Y-82550000D01*
X49377241Y-82705363D01*
X49177363Y-82905241D01*
X49020320Y-83140273D01*
X48912147Y-83401426D01*
X48857000Y-83678665D01*
X48857000Y-83961335D01*
X48912147Y-84238574D01*
X49020320Y-84499727D01*
X49177363Y-84734759D01*
X49377241Y-84934637D01*
X49612273Y-85091680D01*
X49873426Y-85199853D01*
X50150665Y-85255000D01*
X50433335Y-85255000D01*
X50710574Y-85199853D01*
X50931000Y-85108550D01*
X50931000Y-87617995D01*
X50905881Y-87602930D01*
X50641040Y-87508091D01*
X50419000Y-87629376D01*
X50419000Y-88773000D01*
X50439000Y-88773000D01*
X50439000Y-89027000D01*
X50419000Y-89027000D01*
X50419000Y-91313000D01*
X50439000Y-91313000D01*
X50439000Y-91567000D01*
X50419000Y-91567000D01*
X50419000Y-91587000D01*
X50165000Y-91587000D01*
X50165000Y-91567000D01*
X49022085Y-91567000D01*
X48900096Y-91789039D01*
X48940754Y-91923087D01*
X49060963Y-92177420D01*
X49228481Y-92403414D01*
X49436869Y-92592385D01*
X49622865Y-92703933D01*
X49612273Y-92708320D01*
X49377241Y-92865363D01*
X49177363Y-93065241D01*
X49020320Y-93300273D01*
X48912147Y-93561426D01*
X48857000Y-93838665D01*
X48857000Y-94121335D01*
X48912147Y-94398574D01*
X49020320Y-94659727D01*
X49177363Y-94894759D01*
X49377241Y-95094637D01*
X49609759Y-95250000D01*
X49377241Y-95405363D01*
X49177363Y-95605241D01*
X49020320Y-95840273D01*
X48912147Y-96101426D01*
X48857000Y-96378665D01*
X48857000Y-96661335D01*
X48912147Y-96938574D01*
X49020320Y-97199727D01*
X49177363Y-97434759D01*
X49377241Y-97634637D01*
X49612273Y-97791680D01*
X49873426Y-97899853D01*
X50150665Y-97955000D01*
X50433335Y-97955000D01*
X50710574Y-97899853D01*
X50931000Y-97808550D01*
X50931000Y-100317995D01*
X50905881Y-100302930D01*
X50641040Y-100208091D01*
X50419000Y-100329376D01*
X50419000Y-101473000D01*
X50439000Y-101473000D01*
X50439000Y-101727000D01*
X50419000Y-101727000D01*
X50419000Y-104013000D01*
X50439000Y-104013000D01*
X50439000Y-104267000D01*
X50419000Y-104267000D01*
X50419000Y-104287000D01*
X50165000Y-104287000D01*
X50165000Y-104267000D01*
X49022085Y-104267000D01*
X48900096Y-104489039D01*
X48940754Y-104623087D01*
X49060963Y-104877420D01*
X49228481Y-105103414D01*
X49436869Y-105292385D01*
X49622865Y-105403933D01*
X49612273Y-105408320D01*
X49377241Y-105565363D01*
X49177363Y-105765241D01*
X49020320Y-106000273D01*
X48912147Y-106261426D01*
X48857000Y-106538665D01*
X48857000Y-106821335D01*
X48912147Y-107098574D01*
X49020320Y-107359727D01*
X49177363Y-107594759D01*
X49377241Y-107794637D01*
X49609759Y-107950000D01*
X49377241Y-108105363D01*
X49177363Y-108305241D01*
X49020320Y-108540273D01*
X48912147Y-108801426D01*
X48857000Y-109078665D01*
X48857000Y-109361335D01*
X48912147Y-109638574D01*
X49020320Y-109899727D01*
X49177363Y-110134759D01*
X49377241Y-110334637D01*
X49612273Y-110491680D01*
X49873426Y-110599853D01*
X50150665Y-110655000D01*
X50433335Y-110655000D01*
X50710574Y-110599853D01*
X50931000Y-110508550D01*
X50931000Y-113017995D01*
X50905881Y-113002930D01*
X50641040Y-112908091D01*
X50419000Y-113029376D01*
X50419000Y-114173000D01*
X50439000Y-114173000D01*
X50439000Y-114427000D01*
X50419000Y-114427000D01*
X50419000Y-114447000D01*
X50165000Y-114447000D01*
X50165000Y-114427000D01*
X49022085Y-114427000D01*
X48900096Y-114649039D01*
X48940754Y-114783087D01*
X49060963Y-115037420D01*
X49228481Y-115263414D01*
X49436869Y-115452385D01*
X49622865Y-115563933D01*
X49612273Y-115568320D01*
X49377241Y-115725363D01*
X49177363Y-115925241D01*
X49157479Y-115955000D01*
X48637000Y-115955000D01*
X48637000Y-113950961D01*
X48900096Y-113950961D01*
X49022085Y-114173000D01*
X50165000Y-114173000D01*
X50165000Y-113029376D01*
X49942960Y-112908091D01*
X49678119Y-113002930D01*
X49436869Y-113147615D01*
X49228481Y-113336586D01*
X49060963Y-113562580D01*
X48940754Y-113816913D01*
X48900096Y-113950961D01*
X48637000Y-113950961D01*
X48637000Y-101949039D01*
X48900096Y-101949039D01*
X48940754Y-102083087D01*
X49060963Y-102337420D01*
X49228481Y-102563414D01*
X49436869Y-102752385D01*
X49632982Y-102870000D01*
X49436869Y-102987615D01*
X49228481Y-103176586D01*
X49060963Y-103402580D01*
X48940754Y-103656913D01*
X48900096Y-103790961D01*
X49022085Y-104013000D01*
X50165000Y-104013000D01*
X50165000Y-101727000D01*
X49022085Y-101727000D01*
X48900096Y-101949039D01*
X48637000Y-101949039D01*
X48637000Y-101250961D01*
X48900096Y-101250961D01*
X49022085Y-101473000D01*
X50165000Y-101473000D01*
X50165000Y-100329376D01*
X49942960Y-100208091D01*
X49678119Y-100302930D01*
X49436869Y-100447615D01*
X49228481Y-100636586D01*
X49060963Y-100862580D01*
X48940754Y-101116913D01*
X48900096Y-101250961D01*
X48637000Y-101250961D01*
X48637000Y-89249039D01*
X48900096Y-89249039D01*
X48940754Y-89383087D01*
X49060963Y-89637420D01*
X49228481Y-89863414D01*
X49436869Y-90052385D01*
X49632982Y-90170000D01*
X49436869Y-90287615D01*
X49228481Y-90476586D01*
X49060963Y-90702580D01*
X48940754Y-90956913D01*
X48900096Y-91090961D01*
X49022085Y-91313000D01*
X50165000Y-91313000D01*
X50165000Y-89027000D01*
X49022085Y-89027000D01*
X48900096Y-89249039D01*
X48637000Y-89249039D01*
X48637000Y-88550961D01*
X48900096Y-88550961D01*
X49022085Y-88773000D01*
X50165000Y-88773000D01*
X50165000Y-87629376D01*
X49942960Y-87508091D01*
X49678119Y-87602930D01*
X49436869Y-87747615D01*
X49228481Y-87936586D01*
X49060963Y-88162580D01*
X48940754Y-88416913D01*
X48900096Y-88550961D01*
X48637000Y-88550961D01*
X48637000Y-76549039D01*
X48900096Y-76549039D01*
X48940754Y-76683087D01*
X49060963Y-76937420D01*
X49228481Y-77163414D01*
X49436869Y-77352385D01*
X49632982Y-77470000D01*
X49436869Y-77587615D01*
X49228481Y-77776586D01*
X49060963Y-78002580D01*
X48940754Y-78256913D01*
X48900096Y-78390961D01*
X49022085Y-78613000D01*
X50165000Y-78613000D01*
X50165000Y-76327000D01*
X49022085Y-76327000D01*
X48900096Y-76549039D01*
X48637000Y-76549039D01*
X48637000Y-75850961D01*
X48900096Y-75850961D01*
X49022085Y-76073000D01*
X50165000Y-76073000D01*
X50165000Y-74929376D01*
X49942960Y-74808091D01*
X49678119Y-74902930D01*
X49436869Y-75047615D01*
X49228481Y-75236586D01*
X49060963Y-75462580D01*
X48940754Y-75716913D01*
X48900096Y-75850961D01*
X48637000Y-75850961D01*
X48637000Y-63849039D01*
X48773096Y-63849039D01*
X48813754Y-63983087D01*
X48933963Y-64237420D01*
X49101481Y-64463414D01*
X49309869Y-64652385D01*
X49505982Y-64770000D01*
X49309869Y-64887615D01*
X49101481Y-65076586D01*
X48933963Y-65302580D01*
X48813754Y-65556913D01*
X48773096Y-65690961D01*
X48895085Y-65913000D01*
X50038000Y-65913000D01*
X50038000Y-63627000D01*
X50292000Y-63627000D01*
X50292000Y-65913000D01*
X51434915Y-65913000D01*
X51442790Y-65898665D01*
X51905000Y-65898665D01*
X51905000Y-66181335D01*
X51960147Y-66458574D01*
X52068320Y-66719727D01*
X52225363Y-66954759D01*
X52425241Y-67154637D01*
X52660273Y-67311680D01*
X52921426Y-67419853D01*
X53198665Y-67475000D01*
X53481335Y-67475000D01*
X53758574Y-67419853D01*
X54019727Y-67311680D01*
X54254759Y-67154637D01*
X54454637Y-66954759D01*
X54611680Y-66719727D01*
X54719853Y-66458574D01*
X54775000Y-66181335D01*
X54775000Y-65898665D01*
X54719853Y-65621426D01*
X54611680Y-65360273D01*
X54454637Y-65125241D01*
X54254759Y-64925363D01*
X54054131Y-64791308D01*
X54081514Y-64776671D01*
X54153097Y-64532702D01*
X53340000Y-63719605D01*
X52526903Y-64532702D01*
X52598486Y-64776671D01*
X52627341Y-64790324D01*
X52425241Y-64925363D01*
X52225363Y-65125241D01*
X52068320Y-65360273D01*
X51960147Y-65621426D01*
X51905000Y-65898665D01*
X51442790Y-65898665D01*
X51556904Y-65690961D01*
X51516246Y-65556913D01*
X51396037Y-65302580D01*
X51228519Y-65076586D01*
X51020131Y-64887615D01*
X50824018Y-64770000D01*
X51020131Y-64652385D01*
X51228519Y-64463414D01*
X51396037Y-64237420D01*
X51516246Y-63983087D01*
X51556904Y-63849039D01*
X51434915Y-63627000D01*
X50292000Y-63627000D01*
X50038000Y-63627000D01*
X48895085Y-63627000D01*
X48773096Y-63849039D01*
X48637000Y-63849039D01*
X48637000Y-63610512D01*
X51899783Y-63610512D01*
X51941213Y-63890130D01*
X52036397Y-64156292D01*
X52103329Y-64281514D01*
X52347298Y-64353097D01*
X53160395Y-63540000D01*
X53519605Y-63540000D01*
X54332702Y-64353097D01*
X54576671Y-64281514D01*
X54697571Y-64026004D01*
X54766300Y-63751816D01*
X54780217Y-63469488D01*
X54738787Y-63189870D01*
X54643603Y-62923708D01*
X54576671Y-62798486D01*
X54332702Y-62726903D01*
X53519605Y-63540000D01*
X53160395Y-63540000D01*
X52347298Y-62726903D01*
X52103329Y-62798486D01*
X51982429Y-63053996D01*
X51913700Y-63328184D01*
X51899783Y-63610512D01*
X48637000Y-63610512D01*
X48637000Y-63543477D01*
X48641282Y-63500000D01*
X48624195Y-63326510D01*
X48573589Y-63159687D01*
X48568925Y-63150961D01*
X48773096Y-63150961D01*
X48895085Y-63373000D01*
X50038000Y-63373000D01*
X50038000Y-62229376D01*
X50292000Y-62229376D01*
X50292000Y-63373000D01*
X51434915Y-63373000D01*
X51556904Y-63150961D01*
X51516246Y-63016913D01*
X51396037Y-62762580D01*
X51236460Y-62547298D01*
X52526903Y-62547298D01*
X53340000Y-63360395D01*
X54153097Y-62547298D01*
X54081514Y-62303329D01*
X53826004Y-62182429D01*
X53551816Y-62113700D01*
X53269488Y-62099783D01*
X52989870Y-62141213D01*
X52723708Y-62236397D01*
X52598486Y-62303329D01*
X52526903Y-62547298D01*
X51236460Y-62547298D01*
X51228519Y-62536586D01*
X51020131Y-62347615D01*
X50778881Y-62202930D01*
X50514040Y-62108091D01*
X50292000Y-62229376D01*
X50038000Y-62229376D01*
X49815960Y-62108091D01*
X49551119Y-62202930D01*
X49309869Y-62347615D01*
X49101481Y-62536586D01*
X48933963Y-62762580D01*
X48813754Y-63016913D01*
X48773096Y-63150961D01*
X48568925Y-63150961D01*
X48491411Y-63005941D01*
X48380817Y-62871183D01*
X48246059Y-62760589D01*
X48092313Y-62678411D01*
X47925490Y-62627805D01*
X47795477Y-62615000D01*
X47752000Y-62610718D01*
X47708524Y-62615000D01*
X43974701Y-62615000D01*
X43970812Y-62575518D01*
X43934502Y-62455820D01*
X43875537Y-62345506D01*
X43796185Y-62248815D01*
X43699494Y-62169463D01*
X43589180Y-62110498D01*
X43469482Y-62074188D01*
X43345000Y-62061928D01*
X41745000Y-62061928D01*
X41620518Y-62074188D01*
X41500820Y-62110498D01*
X41390506Y-62169463D01*
X41293815Y-62248815D01*
X41214463Y-62345506D01*
X41155498Y-62455820D01*
X41119188Y-62575518D01*
X41115299Y-62615000D01*
X40758521Y-62615000D01*
X40738637Y-62585241D01*
X40538759Y-62385363D01*
X40303727Y-62228320D01*
X40042574Y-62120147D01*
X39765335Y-62065000D01*
X39482665Y-62065000D01*
X39205426Y-62120147D01*
X38944273Y-62228320D01*
X38709241Y-62385363D01*
X38509363Y-62585241D01*
X38352320Y-62820273D01*
X38244147Y-63081426D01*
X38189000Y-63358665D01*
X37719000Y-63358665D01*
X37719000Y-60071000D01*
X55245000Y-60071000D01*
X55245000Y-152273000D01*
G37*
X55245000Y-152273000D02*
X37719000Y-152273000D01*
X37719000Y-150610000D01*
X39984928Y-150610000D01*
X39997188Y-150734482D01*
X40033498Y-150854180D01*
X40092463Y-150964494D01*
X40171815Y-151061185D01*
X40268506Y-151140537D01*
X40378820Y-151199502D01*
X40498518Y-151235812D01*
X40623000Y-151248072D01*
X40862250Y-151245000D01*
X41021000Y-151086250D01*
X41021000Y-149987000D01*
X40146750Y-149987000D01*
X39988000Y-150145750D01*
X39984928Y-150610000D01*
X37719000Y-150610000D01*
X37719000Y-149110000D01*
X39984928Y-149110000D01*
X39988000Y-149574250D01*
X40146750Y-149733000D01*
X41021000Y-149733000D01*
X41021000Y-148633750D01*
X40862250Y-148475000D01*
X40623000Y-148471928D01*
X40498518Y-148484188D01*
X40378820Y-148520498D01*
X40268506Y-148579463D01*
X40171815Y-148658815D01*
X40092463Y-148755506D01*
X40033498Y-148865820D01*
X39997188Y-148985518D01*
X39984928Y-149110000D01*
X37719000Y-149110000D01*
X37719000Y-146280702D01*
X40334903Y-146280702D01*
X40406486Y-146524671D01*
X40661996Y-146645571D01*
X40936184Y-146714300D01*
X41218512Y-146728217D01*
X41498130Y-146686787D01*
X41764292Y-146591603D01*
X41889514Y-146524671D01*
X41961097Y-146280702D01*
X41148000Y-145467605D01*
X40334903Y-146280702D01*
X37719000Y-146280702D01*
X37719000Y-145358512D01*
X39707783Y-145358512D01*
X39749213Y-145638130D01*
X39844397Y-145904292D01*
X39911329Y-146029514D01*
X40155298Y-146101097D01*
X40968395Y-145288000D01*
X41327605Y-145288000D01*
X42140702Y-146101097D01*
X42384671Y-146029514D01*
X42398324Y-146000659D01*
X42533363Y-146202759D01*
X42733241Y-146402637D01*
X42968273Y-146559680D01*
X43229426Y-146667853D01*
X43506665Y-146723000D01*
X43789335Y-146723000D01*
X44066574Y-146667853D01*
X44327727Y-146559680D01*
X44562759Y-146402637D01*
X44762637Y-146202759D01*
X44919680Y-145967727D01*
X45027853Y-145706574D01*
X45083000Y-145429335D01*
X45083000Y-145146665D01*
X45027853Y-144869426D01*
X44919680Y-144608273D01*
X44762637Y-144373241D01*
X44562759Y-144173363D01*
X44327727Y-144016320D01*
X44066574Y-143908147D01*
X43789335Y-143853000D01*
X43506665Y-143853000D01*
X43229426Y-143908147D01*
X42968273Y-144016320D01*
X42733241Y-144173363D01*
X42533363Y-144373241D01*
X42399308Y-144573869D01*
X42384671Y-144546486D01*
X42140702Y-144474903D01*
X41327605Y-145288000D01*
X40968395Y-145288000D01*
X40155298Y-144474903D01*
X39911329Y-144546486D01*
X39790429Y-144801996D01*
X39721700Y-145076184D01*
X39707783Y-145358512D01*
X37719000Y-145358512D01*
X37719000Y-144295298D01*
X40334903Y-144295298D01*
X41148000Y-145108395D01*
X41961097Y-144295298D01*
X41889514Y-144051329D01*
X41634004Y-143930429D01*
X41359816Y-143861700D01*
X41077488Y-143847783D01*
X40797870Y-143889213D01*
X40531708Y-143984397D01*
X40406486Y-144051329D01*
X40334903Y-144295298D01*
X37719000Y-144295298D01*
X37719000Y-109078665D01*
X38189000Y-109078665D01*
X38189000Y-109361335D01*
X38244147Y-109638574D01*
X38352320Y-109899727D01*
X38509363Y-110134759D01*
X38709241Y-110334637D01*
X38944273Y-110491680D01*
X39205426Y-110599853D01*
X39482665Y-110655000D01*
X39765335Y-110655000D01*
X40042574Y-110599853D01*
X40303727Y-110491680D01*
X40538759Y-110334637D01*
X40738637Y-110134759D01*
X40895680Y-109899727D01*
X41003853Y-109638574D01*
X41059000Y-109361335D01*
X41059000Y-109078665D01*
X41237000Y-109078665D01*
X41237000Y-109361335D01*
X41292147Y-109638574D01*
X41400320Y-109899727D01*
X41557363Y-110134759D01*
X41757241Y-110334637D01*
X41992273Y-110491680D01*
X42253426Y-110599853D01*
X42530665Y-110655000D01*
X42813335Y-110655000D01*
X43090574Y-110599853D01*
X43351727Y-110491680D01*
X43586759Y-110334637D01*
X43786637Y-110134759D01*
X43943680Y-109899727D01*
X44051853Y-109638574D01*
X44107000Y-109361335D01*
X44107000Y-109078665D01*
X44051853Y-108801426D01*
X43943680Y-108540273D01*
X43786637Y-108305241D01*
X43586759Y-108105363D01*
X43351727Y-107948320D01*
X43341135Y-107943933D01*
X43527131Y-107832385D01*
X43735519Y-107643414D01*
X43903037Y-107417420D01*
X44023246Y-107163087D01*
X44063904Y-107029039D01*
X43941915Y-106807000D01*
X42799000Y-106807000D01*
X42799000Y-106827000D01*
X42545000Y-106827000D01*
X42545000Y-106807000D01*
X41402085Y-106807000D01*
X41280096Y-107029039D01*
X41320754Y-107163087D01*
X41440963Y-107417420D01*
X41608481Y-107643414D01*
X41816869Y-107832385D01*
X42002865Y-107943933D01*
X41992273Y-107948320D01*
X41757241Y-108105363D01*
X41557363Y-108305241D01*
X41400320Y-108540273D01*
X41292147Y-108801426D01*
X41237000Y-109078665D01*
X41059000Y-109078665D01*
X41003853Y-108801426D01*
X40895680Y-108540273D01*
X40738637Y-108305241D01*
X40538759Y-108105363D01*
X40303727Y-107948320D01*
X40042574Y-107840147D01*
X39765335Y-107785000D01*
X39482665Y-107785000D01*
X39205426Y-107840147D01*
X38944273Y-107948320D01*
X38709241Y-108105363D01*
X38509363Y-108305241D01*
X38352320Y-108540273D01*
X38244147Y-108801426D01*
X38189000Y-109078665D01*
X37719000Y-109078665D01*
X37719000Y-96378665D01*
X38189000Y-96378665D01*
X38189000Y-96661335D01*
X38244147Y-96938574D01*
X38352320Y-97199727D01*
X38509363Y-97434759D01*
X38709241Y-97634637D01*
X38944273Y-97791680D01*
X39205426Y-97899853D01*
X39482665Y-97955000D01*
X39765335Y-97955000D01*
X40042574Y-97899853D01*
X40303727Y-97791680D01*
X40538759Y-97634637D01*
X40738637Y-97434759D01*
X40895680Y-97199727D01*
X41003853Y-96938574D01*
X41059000Y-96661335D01*
X41059000Y-96378665D01*
X41237000Y-96378665D01*
X41237000Y-96661335D01*
X41292147Y-96938574D01*
X41400320Y-97199727D01*
X41557363Y-97434759D01*
X41757241Y-97634637D01*
X41992273Y-97791680D01*
X42253426Y-97899853D01*
X42530665Y-97955000D01*
X42813335Y-97955000D01*
X43090574Y-97899853D01*
X43351727Y-97791680D01*
X43586759Y-97634637D01*
X43786637Y-97434759D01*
X43943680Y-97199727D01*
X44051853Y-96938574D01*
X44107000Y-96661335D01*
X44107000Y-96378665D01*
X44051853Y-96101426D01*
X43943680Y-95840273D01*
X43786637Y-95605241D01*
X43586759Y-95405363D01*
X43351727Y-95248320D01*
X43341135Y-95243933D01*
X43527131Y-95132385D01*
X43735519Y-94943414D01*
X43903037Y-94717420D01*
X44023246Y-94463087D01*
X44063904Y-94329039D01*
X43941915Y-94107000D01*
X42799000Y-94107000D01*
X42799000Y-94127000D01*
X42545000Y-94127000D01*
X42545000Y-94107000D01*
X41402085Y-94107000D01*
X41280096Y-94329039D01*
X41320754Y-94463087D01*
X41440963Y-94717420D01*
X41608481Y-94943414D01*
X41816869Y-95132385D01*
X42002865Y-95243933D01*
X41992273Y-95248320D01*
X41757241Y-95405363D01*
X41557363Y-95605241D01*
X41400320Y-95840273D01*
X41292147Y-96101426D01*
X41237000Y-96378665D01*
X41059000Y-96378665D01*
X41003853Y-96101426D01*
X40895680Y-95840273D01*
X40738637Y-95605241D01*
X40538759Y-95405363D01*
X40303727Y-95248320D01*
X40042574Y-95140147D01*
X39765335Y-95085000D01*
X39482665Y-95085000D01*
X39205426Y-95140147D01*
X38944273Y-95248320D01*
X38709241Y-95405363D01*
X38509363Y-95605241D01*
X38352320Y-95840273D01*
X38244147Y-96101426D01*
X38189000Y-96378665D01*
X37719000Y-96378665D01*
X37719000Y-83678665D01*
X38189000Y-83678665D01*
X38189000Y-83961335D01*
X38244147Y-84238574D01*
X38352320Y-84499727D01*
X38509363Y-84734759D01*
X38709241Y-84934637D01*
X38944273Y-85091680D01*
X39205426Y-85199853D01*
X39482665Y-85255000D01*
X39765335Y-85255000D01*
X40042574Y-85199853D01*
X40303727Y-85091680D01*
X40538759Y-84934637D01*
X40738637Y-84734759D01*
X40895680Y-84499727D01*
X41003853Y-84238574D01*
X41059000Y-83961335D01*
X41059000Y-83678665D01*
X41237000Y-83678665D01*
X41237000Y-83961335D01*
X41292147Y-84238574D01*
X41400320Y-84499727D01*
X41557363Y-84734759D01*
X41757241Y-84934637D01*
X41992273Y-85091680D01*
X42253426Y-85199853D01*
X42530665Y-85255000D01*
X42813335Y-85255000D01*
X43090574Y-85199853D01*
X43351727Y-85091680D01*
X43586759Y-84934637D01*
X43786637Y-84734759D01*
X43943680Y-84499727D01*
X44051853Y-84238574D01*
X44107000Y-83961335D01*
X44107000Y-83678665D01*
X44051853Y-83401426D01*
X43943680Y-83140273D01*
X43786637Y-82905241D01*
X43586759Y-82705363D01*
X43351727Y-82548320D01*
X43341135Y-82543933D01*
X43527131Y-82432385D01*
X43735519Y-82243414D01*
X43903037Y-82017420D01*
X44023246Y-81763087D01*
X44063904Y-81629039D01*
X43941915Y-81407000D01*
X42799000Y-81407000D01*
X42799000Y-81427000D01*
X42545000Y-81427000D01*
X42545000Y-81407000D01*
X41402085Y-81407000D01*
X41280096Y-81629039D01*
X41320754Y-81763087D01*
X41440963Y-82017420D01*
X41608481Y-82243414D01*
X41816869Y-82432385D01*
X42002865Y-82543933D01*
X41992273Y-82548320D01*
X41757241Y-82705363D01*
X41557363Y-82905241D01*
X41400320Y-83140273D01*
X41292147Y-83401426D01*
X41237000Y-83678665D01*
X41059000Y-83678665D01*
X41003853Y-83401426D01*
X40895680Y-83140273D01*
X40738637Y-82905241D01*
X40538759Y-82705363D01*
X40303727Y-82548320D01*
X40042574Y-82440147D01*
X39765335Y-82385000D01*
X39482665Y-82385000D01*
X39205426Y-82440147D01*
X38944273Y-82548320D01*
X38709241Y-82705363D01*
X38509363Y-82905241D01*
X38352320Y-83140273D01*
X38244147Y-83401426D01*
X38189000Y-83678665D01*
X37719000Y-83678665D01*
X37719000Y-70978665D01*
X38189000Y-70978665D01*
X38189000Y-71261335D01*
X38244147Y-71538574D01*
X38352320Y-71799727D01*
X38509363Y-72034759D01*
X38709241Y-72234637D01*
X38944273Y-72391680D01*
X39205426Y-72499853D01*
X39482665Y-72555000D01*
X39765335Y-72555000D01*
X40042574Y-72499853D01*
X40303727Y-72391680D01*
X40538759Y-72234637D01*
X40738637Y-72034759D01*
X40895680Y-71799727D01*
X41003853Y-71538574D01*
X41059000Y-71261335D01*
X41059000Y-70978665D01*
X41110000Y-70978665D01*
X41110000Y-71261335D01*
X41165147Y-71538574D01*
X41273320Y-71799727D01*
X41430363Y-72034759D01*
X41630241Y-72234637D01*
X41865273Y-72391680D01*
X42126426Y-72499853D01*
X42403665Y-72555000D01*
X42686335Y-72555000D01*
X42963574Y-72499853D01*
X43224727Y-72391680D01*
X43459759Y-72234637D01*
X43659637Y-72034759D01*
X43816680Y-71799727D01*
X43924853Y-71538574D01*
X43980000Y-71261335D01*
X43980000Y-70978665D01*
X43924853Y-70701426D01*
X43816680Y-70440273D01*
X43659637Y-70205241D01*
X43459759Y-70005363D01*
X43224727Y-69848320D01*
X43214135Y-69843933D01*
X43400131Y-69732385D01*
X43608519Y-69543414D01*
X43776037Y-69317420D01*
X43896246Y-69063087D01*
X43936904Y-68929039D01*
X43814915Y-68707000D01*
X42672000Y-68707000D01*
X42672000Y-68727000D01*
X42418000Y-68727000D01*
X42418000Y-68707000D01*
X41275085Y-68707000D01*
X41153096Y-68929039D01*
X41193754Y-69063087D01*
X41313963Y-69317420D01*
X41481481Y-69543414D01*
X41689869Y-69732385D01*
X41875865Y-69843933D01*
X41865273Y-69848320D01*
X41630241Y-70005363D01*
X41430363Y-70205241D01*
X41273320Y-70440273D01*
X41165147Y-70701426D01*
X41110000Y-70978665D01*
X41059000Y-70978665D01*
X41003853Y-70701426D01*
X40895680Y-70440273D01*
X40738637Y-70205241D01*
X40538759Y-70005363D01*
X40303727Y-69848320D01*
X40042574Y-69740147D01*
X39765335Y-69685000D01*
X39482665Y-69685000D01*
X39205426Y-69740147D01*
X38944273Y-69848320D01*
X38709241Y-70005363D01*
X38509363Y-70205241D01*
X38352320Y-70440273D01*
X38244147Y-70701426D01*
X38189000Y-70978665D01*
X37719000Y-70978665D01*
X37719000Y-63358665D01*
X38189000Y-63358665D01*
X38189000Y-63641335D01*
X38244147Y-63918574D01*
X38352320Y-64179727D01*
X38509363Y-64414759D01*
X38709241Y-64614637D01*
X38944273Y-64771680D01*
X39205426Y-64879853D01*
X39482665Y-64935000D01*
X39765335Y-64935000D01*
X40042574Y-64879853D01*
X40303727Y-64771680D01*
X40538759Y-64614637D01*
X40738637Y-64414759D01*
X40758521Y-64385000D01*
X41115299Y-64385000D01*
X41119188Y-64424482D01*
X41155498Y-64544180D01*
X41214463Y-64654494D01*
X41293815Y-64751185D01*
X41390506Y-64830537D01*
X41500820Y-64889502D01*
X41620518Y-64925812D01*
X41628961Y-64926643D01*
X41430363Y-65125241D01*
X41273320Y-65360273D01*
X41165147Y-65621426D01*
X41110000Y-65898665D01*
X41110000Y-66181335D01*
X41165147Y-66458574D01*
X41273320Y-66719727D01*
X41430363Y-66954759D01*
X41630241Y-67154637D01*
X41865273Y-67311680D01*
X41875865Y-67316067D01*
X41689869Y-67427615D01*
X41481481Y-67616586D01*
X41313963Y-67842580D01*
X41193754Y-68096913D01*
X41153096Y-68230961D01*
X41275085Y-68453000D01*
X42418000Y-68453000D01*
X42418000Y-68433000D01*
X42672000Y-68433000D01*
X42672000Y-68453000D01*
X43814915Y-68453000D01*
X43936904Y-68230961D01*
X43896246Y-68096913D01*
X43776037Y-67842580D01*
X43608519Y-67616586D01*
X43400131Y-67427615D01*
X43214135Y-67316067D01*
X43224727Y-67311680D01*
X43459759Y-67154637D01*
X43659637Y-66954759D01*
X43816680Y-66719727D01*
X43924853Y-66458574D01*
X43980000Y-66181335D01*
X43980000Y-65898665D01*
X43924853Y-65621426D01*
X43816680Y-65360273D01*
X43659637Y-65125241D01*
X43461039Y-64926643D01*
X43469482Y-64925812D01*
X43589180Y-64889502D01*
X43699494Y-64830537D01*
X43796185Y-64751185D01*
X43875537Y-64654494D01*
X43934502Y-64544180D01*
X43970812Y-64424482D01*
X43974701Y-64385000D01*
X46867001Y-64385000D01*
X46867001Y-75323620D01*
X46779477Y-75315000D01*
X46736000Y-75310718D01*
X46692524Y-75315000D01*
X44101701Y-75315000D01*
X44097812Y-75275518D01*
X44061502Y-75155820D01*
X44002537Y-75045506D01*
X43923185Y-74948815D01*
X43826494Y-74869463D01*
X43716180Y-74810498D01*
X43596482Y-74774188D01*
X43472000Y-74761928D01*
X41872000Y-74761928D01*
X41747518Y-74774188D01*
X41627820Y-74810498D01*
X41517506Y-74869463D01*
X41420815Y-74948815D01*
X41341463Y-75045506D01*
X41282498Y-75155820D01*
X41246188Y-75275518D01*
X41242299Y-75315000D01*
X40758521Y-75315000D01*
X40738637Y-75285241D01*
X40538759Y-75085363D01*
X40303727Y-74928320D01*
X40042574Y-74820147D01*
X39765335Y-74765000D01*
X39482665Y-74765000D01*
X39205426Y-74820147D01*
X38944273Y-74928320D01*
X38709241Y-75085363D01*
X38509363Y-75285241D01*
X38352320Y-75520273D01*
X38244147Y-75781426D01*
X38189000Y-76058665D01*
X38189000Y-76341335D01*
X38244147Y-76618574D01*
X38352320Y-76879727D01*
X38509363Y-77114759D01*
X38709241Y-77314637D01*
X38944273Y-77471680D01*
X39205426Y-77579853D01*
X39482665Y-77635000D01*
X39765335Y-77635000D01*
X40042574Y-77579853D01*
X40303727Y-77471680D01*
X40538759Y-77314637D01*
X40738637Y-77114759D01*
X40758521Y-77085000D01*
X41242299Y-77085000D01*
X41246188Y-77124482D01*
X41282498Y-77244180D01*
X41341463Y-77354494D01*
X41420815Y-77451185D01*
X41517506Y-77530537D01*
X41627820Y-77589502D01*
X41747518Y-77625812D01*
X41755961Y-77626643D01*
X41557363Y-77825241D01*
X41400320Y-78060273D01*
X41292147Y-78321426D01*
X41237000Y-78598665D01*
X41237000Y-78881335D01*
X41292147Y-79158574D01*
X41400320Y-79419727D01*
X41557363Y-79654759D01*
X41757241Y-79854637D01*
X41992273Y-80011680D01*
X42002865Y-80016067D01*
X41816869Y-80127615D01*
X41608481Y-80316586D01*
X41440963Y-80542580D01*
X41320754Y-80796913D01*
X41280096Y-80930961D01*
X41402085Y-81153000D01*
X42545000Y-81153000D01*
X42545000Y-81133000D01*
X42799000Y-81133000D01*
X42799000Y-81153000D01*
X43941915Y-81153000D01*
X44063904Y-80930961D01*
X44023246Y-80796913D01*
X43903037Y-80542580D01*
X43735519Y-80316586D01*
X43527131Y-80127615D01*
X43341135Y-80016067D01*
X43351727Y-80011680D01*
X43586759Y-79854637D01*
X43786637Y-79654759D01*
X43943680Y-79419727D01*
X44051853Y-79158574D01*
X44107000Y-78881335D01*
X44107000Y-78598665D01*
X44051853Y-78321426D01*
X43943680Y-78060273D01*
X43786637Y-77825241D01*
X43588039Y-77626643D01*
X43596482Y-77625812D01*
X43716180Y-77589502D01*
X43826494Y-77530537D01*
X43923185Y-77451185D01*
X44002537Y-77354494D01*
X44061502Y-77244180D01*
X44097812Y-77124482D01*
X44101701Y-77085000D01*
X45851001Y-77085000D01*
X45851001Y-88023620D01*
X45763477Y-88015000D01*
X45763469Y-88015000D01*
X45720000Y-88010719D01*
X45676531Y-88015000D01*
X44101701Y-88015000D01*
X44097812Y-87975518D01*
X44061502Y-87855820D01*
X44002537Y-87745506D01*
X43923185Y-87648815D01*
X43826494Y-87569463D01*
X43716180Y-87510498D01*
X43596482Y-87474188D01*
X43472000Y-87461928D01*
X41872000Y-87461928D01*
X41747518Y-87474188D01*
X41627820Y-87510498D01*
X41517506Y-87569463D01*
X41420815Y-87648815D01*
X41341463Y-87745506D01*
X41282498Y-87855820D01*
X41246188Y-87975518D01*
X41242299Y-88015000D01*
X40758521Y-88015000D01*
X40738637Y-87985241D01*
X40538759Y-87785363D01*
X40303727Y-87628320D01*
X40042574Y-87520147D01*
X39765335Y-87465000D01*
X39482665Y-87465000D01*
X39205426Y-87520147D01*
X38944273Y-87628320D01*
X38709241Y-87785363D01*
X38509363Y-87985241D01*
X38352320Y-88220273D01*
X38244147Y-88481426D01*
X38189000Y-88758665D01*
X38189000Y-89041335D01*
X38244147Y-89318574D01*
X38352320Y-89579727D01*
X38509363Y-89814759D01*
X38709241Y-90014637D01*
X38944273Y-90171680D01*
X39205426Y-90279853D01*
X39482665Y-90335000D01*
X39765335Y-90335000D01*
X40042574Y-90279853D01*
X40303727Y-90171680D01*
X40538759Y-90014637D01*
X40738637Y-89814759D01*
X40758521Y-89785000D01*
X41242299Y-89785000D01*
X41246188Y-89824482D01*
X41282498Y-89944180D01*
X41341463Y-90054494D01*
X41420815Y-90151185D01*
X41517506Y-90230537D01*
X41627820Y-90289502D01*
X41747518Y-90325812D01*
X41755961Y-90326643D01*
X41557363Y-90525241D01*
X41400320Y-90760273D01*
X41292147Y-91021426D01*
X41237000Y-91298665D01*
X41237000Y-91581335D01*
X41292147Y-91858574D01*
X41400320Y-92119727D01*
X41557363Y-92354759D01*
X41757241Y-92554637D01*
X41992273Y-92711680D01*
X42002865Y-92716067D01*
X41816869Y-92827615D01*
X41608481Y-93016586D01*
X41440963Y-93242580D01*
X41320754Y-93496913D01*
X41280096Y-93630961D01*
X41402085Y-93853000D01*
X42545000Y-93853000D01*
X42545000Y-93833000D01*
X42799000Y-93833000D01*
X42799000Y-93853000D01*
X43941915Y-93853000D01*
X44063904Y-93630961D01*
X44023246Y-93496913D01*
X43903037Y-93242580D01*
X43735519Y-93016586D01*
X43527131Y-92827615D01*
X43341135Y-92716067D01*
X43351727Y-92711680D01*
X43586759Y-92554637D01*
X43786637Y-92354759D01*
X43943680Y-92119727D01*
X44051853Y-91858574D01*
X44107000Y-91581335D01*
X44107000Y-91298665D01*
X44051853Y-91021426D01*
X43943680Y-90760273D01*
X43786637Y-90525241D01*
X43588039Y-90326643D01*
X43596482Y-90325812D01*
X43716180Y-90289502D01*
X43826494Y-90230537D01*
X43923185Y-90151185D01*
X44002537Y-90054494D01*
X44061502Y-89944180D01*
X44097812Y-89824482D01*
X44101701Y-89785000D01*
X45027011Y-89785000D01*
X45027011Y-100715000D01*
X44101701Y-100715000D01*
X44097812Y-100675518D01*
X44061502Y-100555820D01*
X44002537Y-100445506D01*
X43923185Y-100348815D01*
X43826494Y-100269463D01*
X43716180Y-100210498D01*
X43596482Y-100174188D01*
X43472000Y-100161928D01*
X41872000Y-100161928D01*
X41747518Y-100174188D01*
X41627820Y-100210498D01*
X41517506Y-100269463D01*
X41420815Y-100348815D01*
X41341463Y-100445506D01*
X41282498Y-100555820D01*
X41246188Y-100675518D01*
X41242299Y-100715000D01*
X40758521Y-100715000D01*
X40738637Y-100685241D01*
X40538759Y-100485363D01*
X40303727Y-100328320D01*
X40042574Y-100220147D01*
X39765335Y-100165000D01*
X39482665Y-100165000D01*
X39205426Y-100220147D01*
X38944273Y-100328320D01*
X38709241Y-100485363D01*
X38509363Y-100685241D01*
X38352320Y-100920273D01*
X38244147Y-101181426D01*
X38189000Y-101458665D01*
X38189000Y-101741335D01*
X38244147Y-102018574D01*
X38352320Y-102279727D01*
X38509363Y-102514759D01*
X38709241Y-102714637D01*
X38944273Y-102871680D01*
X39205426Y-102979853D01*
X39482665Y-103035000D01*
X39765335Y-103035000D01*
X40042574Y-102979853D01*
X40303727Y-102871680D01*
X40538759Y-102714637D01*
X40738637Y-102514759D01*
X40758521Y-102485000D01*
X41242299Y-102485000D01*
X41246188Y-102524482D01*
X41282498Y-102644180D01*
X41341463Y-102754494D01*
X41420815Y-102851185D01*
X41517506Y-102930537D01*
X41627820Y-102989502D01*
X41747518Y-103025812D01*
X41755961Y-103026643D01*
X41557363Y-103225241D01*
X41400320Y-103460273D01*
X41292147Y-103721426D01*
X41237000Y-103998665D01*
X41237000Y-104281335D01*
X41292147Y-104558574D01*
X41400320Y-104819727D01*
X41557363Y-105054759D01*
X41757241Y-105254637D01*
X41992273Y-105411680D01*
X42002865Y-105416067D01*
X41816869Y-105527615D01*
X41608481Y-105716586D01*
X41440963Y-105942580D01*
X41320754Y-106196913D01*
X41280096Y-106330961D01*
X41402085Y-106553000D01*
X42545000Y-106553000D01*
X42545000Y-106533000D01*
X42799000Y-106533000D01*
X42799000Y-106553000D01*
X43941915Y-106553000D01*
X44063904Y-106330961D01*
X44023246Y-106196913D01*
X43903037Y-105942580D01*
X43735519Y-105716586D01*
X43527131Y-105527615D01*
X43341135Y-105416067D01*
X43351727Y-105411680D01*
X43586759Y-105254637D01*
X43786637Y-105054759D01*
X43943680Y-104819727D01*
X44051853Y-104558574D01*
X44107000Y-104281335D01*
X44107000Y-103998665D01*
X44051853Y-103721426D01*
X43943680Y-103460273D01*
X43786637Y-103225241D01*
X43588039Y-103026643D01*
X43596482Y-103025812D01*
X43716180Y-102989502D01*
X43826494Y-102930537D01*
X43923185Y-102851185D01*
X44002537Y-102754494D01*
X44061502Y-102644180D01*
X44097812Y-102524482D01*
X44101701Y-102485000D01*
X44327001Y-102485000D01*
X44327000Y-124416523D01*
X44322718Y-124460000D01*
X44339805Y-124633490D01*
X44390411Y-124800313D01*
X44472589Y-124954059D01*
X44583183Y-125088817D01*
X44717941Y-125199411D01*
X44871687Y-125281589D01*
X45038510Y-125332195D01*
X45212000Y-125349282D01*
X45255476Y-125345000D01*
X49157479Y-125345000D01*
X49177363Y-125374759D01*
X49377241Y-125574637D01*
X49609759Y-125730000D01*
X49377241Y-125885363D01*
X49177363Y-126085241D01*
X49020320Y-126320273D01*
X48912147Y-126581426D01*
X48857000Y-126858665D01*
X48857000Y-127141335D01*
X48912147Y-127418574D01*
X49020320Y-127679727D01*
X49177363Y-127914759D01*
X49377241Y-128114637D01*
X49609759Y-128270000D01*
X49377241Y-128425363D01*
X49177363Y-128625241D01*
X49020320Y-128860273D01*
X48912147Y-129121426D01*
X48857000Y-129398665D01*
X48857000Y-129681335D01*
X48912147Y-129958574D01*
X49020320Y-130219727D01*
X49177363Y-130454759D01*
X49377241Y-130654637D01*
X49609759Y-130810000D01*
X49377241Y-130965363D01*
X49177363Y-131165241D01*
X49020320Y-131400273D01*
X48912147Y-131661426D01*
X48857000Y-131938665D01*
X48857000Y-132221335D01*
X48912147Y-132498574D01*
X49020320Y-132759727D01*
X49177363Y-132994759D01*
X49377241Y-133194637D01*
X49612273Y-133351680D01*
X49873426Y-133459853D01*
X50150665Y-133515000D01*
X50433335Y-133515000D01*
X50710574Y-133459853D01*
X50931001Y-133368549D01*
X50931001Y-143959000D01*
X49403366Y-143959000D01*
X49263238Y-143844000D01*
X49412502Y-143721502D01*
X49566833Y-143533449D01*
X49681511Y-143318901D01*
X49752130Y-143086102D01*
X49775975Y-142844000D01*
X49752130Y-142601898D01*
X49681511Y-142369099D01*
X49566833Y-142154551D01*
X49412502Y-141966498D01*
X49263238Y-141844000D01*
X49412502Y-141721502D01*
X49566833Y-141533449D01*
X49681511Y-141318901D01*
X49752130Y-141086102D01*
X49775975Y-140844000D01*
X49752130Y-140601898D01*
X49681511Y-140369099D01*
X49566833Y-140154551D01*
X49412502Y-139966498D01*
X49263238Y-139844000D01*
X49412502Y-139721502D01*
X49566833Y-139533449D01*
X49681511Y-139318901D01*
X49752130Y-139086102D01*
X49775975Y-138844000D01*
X49752130Y-138601898D01*
X49681511Y-138369099D01*
X49566833Y-138154551D01*
X49412502Y-137966498D01*
X49263238Y-137844000D01*
X49412502Y-137721502D01*
X49566833Y-137533449D01*
X49681511Y-137318901D01*
X49752130Y-137086102D01*
X49775975Y-136844000D01*
X49752130Y-136601898D01*
X49681511Y-136369099D01*
X49566833Y-136154551D01*
X49412502Y-135966498D01*
X49224449Y-135812167D01*
X49009901Y-135697489D01*
X48777102Y-135626870D01*
X48595665Y-135609000D01*
X47924335Y-135609000D01*
X47742898Y-135626870D01*
X47510099Y-135697489D01*
X47295551Y-135812167D01*
X47107498Y-135966498D01*
X46953167Y-136154551D01*
X46838489Y-136369099D01*
X46767870Y-136601898D01*
X46744025Y-136844000D01*
X46767870Y-137086102D01*
X46838489Y-137318901D01*
X46953167Y-137533449D01*
X47107498Y-137721502D01*
X47256762Y-137844000D01*
X47107498Y-137966498D01*
X46953167Y-138154551D01*
X46838489Y-138369099D01*
X46767870Y-138601898D01*
X46746881Y-138815000D01*
X42033000Y-138815000D01*
X42033000Y-133368550D01*
X42253426Y-133459853D01*
X42530665Y-133515000D01*
X42813335Y-133515000D01*
X43090574Y-133459853D01*
X43351727Y-133351680D01*
X43586759Y-133194637D01*
X43786637Y-132994759D01*
X43943680Y-132759727D01*
X44051853Y-132498574D01*
X44107000Y-132221335D01*
X44107000Y-131938665D01*
X44051853Y-131661426D01*
X43943680Y-131400273D01*
X43786637Y-131165241D01*
X43586759Y-130965363D01*
X43354241Y-130810000D01*
X43586759Y-130654637D01*
X43786637Y-130454759D01*
X43943680Y-130219727D01*
X44051853Y-129958574D01*
X44107000Y-129681335D01*
X44107000Y-129398665D01*
X44051853Y-129121426D01*
X43943680Y-128860273D01*
X43786637Y-128625241D01*
X43586759Y-128425363D01*
X43351727Y-128268320D01*
X43341135Y-128263933D01*
X43527131Y-128152385D01*
X43735519Y-127963414D01*
X43903037Y-127737420D01*
X44023246Y-127483087D01*
X44063904Y-127349039D01*
X43941915Y-127127000D01*
X42799000Y-127127000D01*
X42799000Y-127147000D01*
X42545000Y-127147000D01*
X42545000Y-127127000D01*
X42525000Y-127127000D01*
X42525000Y-126873000D01*
X42545000Y-126873000D01*
X42545000Y-126853000D01*
X42799000Y-126853000D01*
X42799000Y-126873000D01*
X43941915Y-126873000D01*
X44063904Y-126650961D01*
X44023246Y-126516913D01*
X43903037Y-126262580D01*
X43735519Y-126036586D01*
X43527131Y-125847615D01*
X43341135Y-125736067D01*
X43351727Y-125731680D01*
X43586759Y-125574637D01*
X43786637Y-125374759D01*
X43943680Y-125139727D01*
X44051853Y-124878574D01*
X44107000Y-124601335D01*
X44107000Y-124318665D01*
X44051853Y-124041426D01*
X43943680Y-123780273D01*
X43786637Y-123545241D01*
X43586759Y-123345363D01*
X43354241Y-123190000D01*
X43586759Y-123034637D01*
X43786637Y-122834759D01*
X43943680Y-122599727D01*
X44051853Y-122338574D01*
X44107000Y-122061335D01*
X44107000Y-121778665D01*
X44051853Y-121501426D01*
X43943680Y-121240273D01*
X43786637Y-121005241D01*
X43586759Y-120805363D01*
X43354241Y-120650000D01*
X43586759Y-120494637D01*
X43786637Y-120294759D01*
X43943680Y-120059727D01*
X44051853Y-119798574D01*
X44107000Y-119521335D01*
X44107000Y-119238665D01*
X44051853Y-118961426D01*
X43943680Y-118700273D01*
X43786637Y-118465241D01*
X43586759Y-118265363D01*
X43354241Y-118110000D01*
X43586759Y-117954637D01*
X43786637Y-117754759D01*
X43943680Y-117519727D01*
X44051853Y-117258574D01*
X44107000Y-116981335D01*
X44107000Y-116698665D01*
X44051853Y-116421426D01*
X43943680Y-116160273D01*
X43786637Y-115925241D01*
X43588039Y-115726643D01*
X43596482Y-115725812D01*
X43716180Y-115689502D01*
X43826494Y-115630537D01*
X43923185Y-115551185D01*
X44002537Y-115454494D01*
X44061502Y-115344180D01*
X44097812Y-115224482D01*
X44110072Y-115100000D01*
X44110072Y-113500000D01*
X44097812Y-113375518D01*
X44061502Y-113255820D01*
X44002537Y-113145506D01*
X43923185Y-113048815D01*
X43826494Y-112969463D01*
X43716180Y-112910498D01*
X43596482Y-112874188D01*
X43472000Y-112861928D01*
X41872000Y-112861928D01*
X41747518Y-112874188D01*
X41627820Y-112910498D01*
X41517506Y-112969463D01*
X41420815Y-113048815D01*
X41341463Y-113145506D01*
X41282498Y-113255820D01*
X41246188Y-113375518D01*
X41242299Y-113415000D01*
X40175476Y-113415000D01*
X40132000Y-113410718D01*
X40088523Y-113415000D01*
X39958510Y-113427805D01*
X39791687Y-113478411D01*
X39637941Y-113560589D01*
X39503183Y-113671183D01*
X39392589Y-113805941D01*
X39310411Y-113959687D01*
X39259805Y-114126510D01*
X39242718Y-114300000D01*
X39247000Y-114343477D01*
X39247001Y-140672521D01*
X39242719Y-140716000D01*
X39259805Y-140889490D01*
X39310412Y-141056313D01*
X39392590Y-141210059D01*
X39475468Y-141311046D01*
X39475471Y-141311049D01*
X39503184Y-141344817D01*
X39536952Y-141372530D01*
X39603466Y-141439044D01*
X39631183Y-141472817D01*
X39765941Y-141583411D01*
X39919687Y-141665589D01*
X40086510Y-141716195D01*
X40216523Y-141729000D01*
X40216533Y-141729000D01*
X40259999Y-141733281D01*
X40303465Y-141729000D01*
X47116634Y-141729000D01*
X47256762Y-141844000D01*
X47107498Y-141966498D01*
X46953167Y-142154551D01*
X46838489Y-142369099D01*
X46767870Y-142601898D01*
X46744025Y-142844000D01*
X46767870Y-143086102D01*
X46838489Y-143318901D01*
X46953167Y-143533449D01*
X47107498Y-143721502D01*
X47256762Y-143844000D01*
X47107498Y-143966498D01*
X46953167Y-144154551D01*
X46838489Y-144369099D01*
X46767870Y-144601898D01*
X46744025Y-144844000D01*
X46767870Y-145086102D01*
X46838489Y-145318901D01*
X46953167Y-145533449D01*
X47107498Y-145721502D01*
X47256762Y-145844000D01*
X47107498Y-145966498D01*
X46953167Y-146154551D01*
X46838489Y-146369099D01*
X46767870Y-146601898D01*
X46744025Y-146844000D01*
X46767870Y-147086102D01*
X46838489Y-147318901D01*
X46953167Y-147533449D01*
X47107498Y-147721502D01*
X47146111Y-147753191D01*
X47141613Y-147755595D01*
X47007038Y-147866038D01*
X46896595Y-148000613D01*
X46814528Y-148154149D01*
X46763992Y-148320745D01*
X46746928Y-148493999D01*
X46746928Y-148975000D01*
X44646977Y-148975000D01*
X44512212Y-148810788D01*
X44335578Y-148665829D01*
X44134059Y-148558115D01*
X43915399Y-148491785D01*
X43688000Y-148469388D01*
X43460600Y-148491785D01*
X43241940Y-148558115D01*
X43053000Y-148659106D01*
X42864059Y-148558115D01*
X42645399Y-148491785D01*
X42418000Y-148469388D01*
X42190600Y-148491785D01*
X41981902Y-148555093D01*
X41917180Y-148520498D01*
X41797482Y-148484188D01*
X41673000Y-148471928D01*
X41433750Y-148475000D01*
X41275000Y-148633750D01*
X41275000Y-149406892D01*
X41274785Y-149407601D01*
X41258000Y-149578022D01*
X41258000Y-150141979D01*
X41274785Y-150312400D01*
X41275000Y-150313109D01*
X41275000Y-151086250D01*
X41433750Y-151245000D01*
X41673000Y-151248072D01*
X41797482Y-151235812D01*
X41917180Y-151199502D01*
X41981902Y-151164907D01*
X42190601Y-151228215D01*
X42418000Y-151250612D01*
X42645400Y-151228215D01*
X42864060Y-151161885D01*
X43053001Y-151060894D01*
X43241941Y-151161885D01*
X43460601Y-151228215D01*
X43688000Y-151250612D01*
X43915400Y-151228215D01*
X44134060Y-151161885D01*
X44335579Y-151054171D01*
X44512212Y-150909212D01*
X44646977Y-150745000D01*
X48216523Y-150745000D01*
X48260000Y-150749282D01*
X48303476Y-150745000D01*
X51951877Y-150745000D01*
X51960147Y-150786574D01*
X52068320Y-151047727D01*
X52225363Y-151282759D01*
X52425241Y-151482637D01*
X52660273Y-151639680D01*
X52921426Y-151747853D01*
X53198665Y-151803000D01*
X53481335Y-151803000D01*
X53758574Y-151747853D01*
X54019727Y-151639680D01*
X54254759Y-151482637D01*
X54454637Y-151282759D01*
X54611680Y-151047727D01*
X54719853Y-150786574D01*
X54775000Y-150509335D01*
X54775000Y-150226665D01*
X54719853Y-149949426D01*
X54611680Y-149688273D01*
X54454637Y-149453241D01*
X54254759Y-149253363D01*
X54052173Y-149118000D01*
X54254759Y-148982637D01*
X54454637Y-148782759D01*
X54611680Y-148547727D01*
X54719853Y-148286574D01*
X54775000Y-148009335D01*
X54775000Y-147726665D01*
X54719853Y-147449426D01*
X54611680Y-147188273D01*
X54454637Y-146953241D01*
X54254759Y-146753363D01*
X54019727Y-146596320D01*
X53758574Y-146488147D01*
X53481335Y-146433000D01*
X53198665Y-146433000D01*
X52921426Y-146488147D01*
X52660273Y-146596320D01*
X52425241Y-146753363D01*
X52225363Y-146953241D01*
X52068320Y-147188273D01*
X51960147Y-147449426D01*
X51905000Y-147726665D01*
X51905000Y-148009335D01*
X51960147Y-148286574D01*
X52068320Y-148547727D01*
X52225363Y-148782759D01*
X52417604Y-148975000D01*
X49773072Y-148975000D01*
X49773072Y-148493999D01*
X49756008Y-148320745D01*
X49705472Y-148154149D01*
X49623405Y-148000613D01*
X49512962Y-147866038D01*
X49378387Y-147755595D01*
X49373889Y-147753191D01*
X49412502Y-147721502D01*
X49566833Y-147533449D01*
X49681511Y-147318901D01*
X49752130Y-147086102D01*
X49775975Y-146844000D01*
X49752130Y-146601898D01*
X49681511Y-146369099D01*
X49566833Y-146154551D01*
X49412502Y-145966498D01*
X49263238Y-145844000D01*
X49403366Y-145729000D01*
X51708531Y-145729000D01*
X51752000Y-145733281D01*
X51795469Y-145729000D01*
X51795477Y-145729000D01*
X51925490Y-145716195D01*
X52092313Y-145665589D01*
X52246059Y-145583411D01*
X52380817Y-145472817D01*
X52408534Y-145439044D01*
X52411044Y-145436534D01*
X52444817Y-145408817D01*
X52555411Y-145274059D01*
X52637589Y-145120313D01*
X52688195Y-144953490D01*
X52701000Y-144823477D01*
X52701000Y-144823469D01*
X52705281Y-144780000D01*
X52701000Y-144736531D01*
X52701000Y-118128550D01*
X52921426Y-118219853D01*
X53198665Y-118275000D01*
X53481335Y-118275000D01*
X53758574Y-118219853D01*
X54019727Y-118111680D01*
X54254759Y-117954637D01*
X54454637Y-117754759D01*
X54611680Y-117519727D01*
X54719853Y-117258574D01*
X54775000Y-116981335D01*
X54775000Y-116698665D01*
X54719853Y-116421426D01*
X54611680Y-116160273D01*
X54454637Y-115925241D01*
X54254759Y-115725363D01*
X54054131Y-115591308D01*
X54081514Y-115576671D01*
X54153097Y-115332702D01*
X53340000Y-114519605D01*
X53325858Y-114533748D01*
X53146253Y-114354143D01*
X53160395Y-114340000D01*
X53519605Y-114340000D01*
X54332702Y-115153097D01*
X54576671Y-115081514D01*
X54697571Y-114826004D01*
X54766300Y-114551816D01*
X54780217Y-114269488D01*
X54738787Y-113989870D01*
X54643603Y-113723708D01*
X54576671Y-113598486D01*
X54332702Y-113526903D01*
X53519605Y-114340000D01*
X53160395Y-114340000D01*
X53146253Y-114325858D01*
X53325858Y-114146253D01*
X53340000Y-114160395D01*
X54153097Y-113347298D01*
X54081514Y-113103329D01*
X53826004Y-112982429D01*
X53551816Y-112913700D01*
X53269488Y-112899783D01*
X52989870Y-112941213D01*
X52723708Y-113036397D01*
X52701000Y-113048535D01*
X52701000Y-109263477D01*
X52705282Y-109220000D01*
X52701000Y-109176523D01*
X52701000Y-105428550D01*
X52921426Y-105519853D01*
X53198665Y-105575000D01*
X53481335Y-105575000D01*
X53758574Y-105519853D01*
X54019727Y-105411680D01*
X54254759Y-105254637D01*
X54454637Y-105054759D01*
X54611680Y-104819727D01*
X54719853Y-104558574D01*
X54775000Y-104281335D01*
X54775000Y-103998665D01*
X54719853Y-103721426D01*
X54611680Y-103460273D01*
X54454637Y-103225241D01*
X54254759Y-103025363D01*
X54054131Y-102891308D01*
X54081514Y-102876671D01*
X54153097Y-102632702D01*
X53340000Y-101819605D01*
X53325858Y-101833748D01*
X53146253Y-101654143D01*
X53160395Y-101640000D01*
X53519605Y-101640000D01*
X54332702Y-102453097D01*
X54576671Y-102381514D01*
X54697571Y-102126004D01*
X54766300Y-101851816D01*
X54780217Y-101569488D01*
X54738787Y-101289870D01*
X54643603Y-101023708D01*
X54576671Y-100898486D01*
X54332702Y-100826903D01*
X53519605Y-101640000D01*
X53160395Y-101640000D01*
X53146253Y-101625858D01*
X53325858Y-101446253D01*
X53340000Y-101460395D01*
X54153097Y-100647298D01*
X54081514Y-100403329D01*
X53826004Y-100282429D01*
X53551816Y-100213700D01*
X53269488Y-100199783D01*
X52989870Y-100241213D01*
X52723708Y-100336397D01*
X52701000Y-100348535D01*
X52701000Y-96563477D01*
X52705282Y-96520000D01*
X52701000Y-96476523D01*
X52701000Y-92728550D01*
X52921426Y-92819853D01*
X53198665Y-92875000D01*
X53481335Y-92875000D01*
X53758574Y-92819853D01*
X54019727Y-92711680D01*
X54254759Y-92554637D01*
X54454637Y-92354759D01*
X54611680Y-92119727D01*
X54719853Y-91858574D01*
X54775000Y-91581335D01*
X54775000Y-91298665D01*
X54719853Y-91021426D01*
X54611680Y-90760273D01*
X54454637Y-90525241D01*
X54254759Y-90325363D01*
X54054131Y-90191308D01*
X54081514Y-90176671D01*
X54153097Y-89932702D01*
X53340000Y-89119605D01*
X53325858Y-89133748D01*
X53146253Y-88954143D01*
X53160395Y-88940000D01*
X53519605Y-88940000D01*
X54332702Y-89753097D01*
X54576671Y-89681514D01*
X54697571Y-89426004D01*
X54766300Y-89151816D01*
X54780217Y-88869488D01*
X54738787Y-88589870D01*
X54643603Y-88323708D01*
X54576671Y-88198486D01*
X54332702Y-88126903D01*
X53519605Y-88940000D01*
X53160395Y-88940000D01*
X53146253Y-88925858D01*
X53325858Y-88746253D01*
X53340000Y-88760395D01*
X54153097Y-87947298D01*
X54081514Y-87703329D01*
X53826004Y-87582429D01*
X53551816Y-87513700D01*
X53269488Y-87499783D01*
X52989870Y-87541213D01*
X52723708Y-87636397D01*
X52701000Y-87648535D01*
X52701000Y-83863477D01*
X52705282Y-83820000D01*
X52701000Y-83776523D01*
X52701000Y-80028550D01*
X52921426Y-80119853D01*
X53198665Y-80175000D01*
X53481335Y-80175000D01*
X53758574Y-80119853D01*
X54019727Y-80011680D01*
X54254759Y-79854637D01*
X54454637Y-79654759D01*
X54611680Y-79419727D01*
X54719853Y-79158574D01*
X54775000Y-78881335D01*
X54775000Y-78598665D01*
X54719853Y-78321426D01*
X54611680Y-78060273D01*
X54454637Y-77825241D01*
X54254759Y-77625363D01*
X54054131Y-77491308D01*
X54081514Y-77476671D01*
X54153097Y-77232702D01*
X53340000Y-76419605D01*
X53325858Y-76433748D01*
X53146253Y-76254143D01*
X53160395Y-76240000D01*
X53519605Y-76240000D01*
X54332702Y-77053097D01*
X54576671Y-76981514D01*
X54697571Y-76726004D01*
X54766300Y-76451816D01*
X54780217Y-76169488D01*
X54738787Y-75889870D01*
X54643603Y-75623708D01*
X54576671Y-75498486D01*
X54332702Y-75426903D01*
X53519605Y-76240000D01*
X53160395Y-76240000D01*
X53146253Y-76225858D01*
X53325858Y-76046253D01*
X53340000Y-76060395D01*
X54153097Y-75247298D01*
X54081514Y-75003329D01*
X53826004Y-74882429D01*
X53551816Y-74813700D01*
X53269488Y-74799783D01*
X52989870Y-74841213D01*
X52723708Y-74936397D01*
X52701000Y-74948535D01*
X52701000Y-71163477D01*
X52705282Y-71120000D01*
X52688195Y-70946510D01*
X52637589Y-70779687D01*
X52555411Y-70625941D01*
X52444817Y-70491183D01*
X52310059Y-70380589D01*
X52156313Y-70298411D01*
X51989490Y-70247805D01*
X51859477Y-70235000D01*
X51859476Y-70235000D01*
X51816000Y-70230718D01*
X51772523Y-70235000D01*
X51299521Y-70235000D01*
X51279637Y-70205241D01*
X51079759Y-70005363D01*
X50847241Y-69850000D01*
X51079759Y-69694637D01*
X51279637Y-69494759D01*
X51436680Y-69259727D01*
X51544853Y-68998574D01*
X51600000Y-68721335D01*
X51600000Y-68438665D01*
X51544853Y-68161426D01*
X51436680Y-67900273D01*
X51279637Y-67665241D01*
X51079759Y-67465363D01*
X50844727Y-67308320D01*
X50834135Y-67303933D01*
X51020131Y-67192385D01*
X51228519Y-67003414D01*
X51396037Y-66777420D01*
X51516246Y-66523087D01*
X51556904Y-66389039D01*
X51434915Y-66167000D01*
X50292000Y-66167000D01*
X50292000Y-66187000D01*
X50038000Y-66187000D01*
X50038000Y-66167000D01*
X48895085Y-66167000D01*
X48773096Y-66389039D01*
X48813754Y-66523087D01*
X48933963Y-66777420D01*
X49101481Y-67003414D01*
X49309869Y-67192385D01*
X49495865Y-67303933D01*
X49485273Y-67308320D01*
X49250241Y-67465363D01*
X49050363Y-67665241D01*
X48893320Y-67900273D01*
X48785147Y-68161426D01*
X48730000Y-68438665D01*
X48730000Y-68721335D01*
X48785147Y-68998574D01*
X48893320Y-69259727D01*
X49050363Y-69494759D01*
X49250241Y-69694637D01*
X49482759Y-69850000D01*
X49250241Y-70005363D01*
X49050363Y-70205241D01*
X48893320Y-70440273D01*
X48785147Y-70701426D01*
X48730000Y-70978665D01*
X48730000Y-71261335D01*
X48785147Y-71538574D01*
X48893320Y-71799727D01*
X49050363Y-72034759D01*
X49250241Y-72234637D01*
X49485273Y-72391680D01*
X49746426Y-72499853D01*
X50023665Y-72555000D01*
X50306335Y-72555000D01*
X50583574Y-72499853D01*
X50844727Y-72391680D01*
X50931000Y-72334034D01*
X50931000Y-74917995D01*
X50905881Y-74902930D01*
X50641040Y-74808091D01*
X50419000Y-74929376D01*
X50419000Y-76073000D01*
X50439000Y-76073000D01*
X50439000Y-76327000D01*
X50419000Y-76327000D01*
X50419000Y-78613000D01*
X50439000Y-78613000D01*
X50439000Y-78867000D01*
X50419000Y-78867000D01*
X50419000Y-78887000D01*
X50165000Y-78887000D01*
X50165000Y-78867000D01*
X49022085Y-78867000D01*
X48900096Y-79089039D01*
X48940754Y-79223087D01*
X49060963Y-79477420D01*
X49228481Y-79703414D01*
X49436869Y-79892385D01*
X49622865Y-80003933D01*
X49612273Y-80008320D01*
X49377241Y-80165363D01*
X49177363Y-80365241D01*
X49020320Y-80600273D01*
X48912147Y-80861426D01*
X48857000Y-81138665D01*
X48857000Y-81421335D01*
X48912147Y-81698574D01*
X49020320Y-81959727D01*
X49177363Y-82194759D01*
X49377241Y-82394637D01*
X49609759Y-82550000D01*
X49377241Y-82705363D01*
X49177363Y-82905241D01*
X49020320Y-83140273D01*
X48912147Y-83401426D01*
X48857000Y-83678665D01*
X48857000Y-83961335D01*
X48912147Y-84238574D01*
X49020320Y-84499727D01*
X49177363Y-84734759D01*
X49377241Y-84934637D01*
X49612273Y-85091680D01*
X49873426Y-85199853D01*
X50150665Y-85255000D01*
X50433335Y-85255000D01*
X50710574Y-85199853D01*
X50931000Y-85108550D01*
X50931000Y-87617995D01*
X50905881Y-87602930D01*
X50641040Y-87508091D01*
X50419000Y-87629376D01*
X50419000Y-88773000D01*
X50439000Y-88773000D01*
X50439000Y-89027000D01*
X50419000Y-89027000D01*
X50419000Y-91313000D01*
X50439000Y-91313000D01*
X50439000Y-91567000D01*
X50419000Y-91567000D01*
X50419000Y-91587000D01*
X50165000Y-91587000D01*
X50165000Y-91567000D01*
X49022085Y-91567000D01*
X48900096Y-91789039D01*
X48940754Y-91923087D01*
X49060963Y-92177420D01*
X49228481Y-92403414D01*
X49436869Y-92592385D01*
X49622865Y-92703933D01*
X49612273Y-92708320D01*
X49377241Y-92865363D01*
X49177363Y-93065241D01*
X49020320Y-93300273D01*
X48912147Y-93561426D01*
X48857000Y-93838665D01*
X48857000Y-94121335D01*
X48912147Y-94398574D01*
X49020320Y-94659727D01*
X49177363Y-94894759D01*
X49377241Y-95094637D01*
X49609759Y-95250000D01*
X49377241Y-95405363D01*
X49177363Y-95605241D01*
X49020320Y-95840273D01*
X48912147Y-96101426D01*
X48857000Y-96378665D01*
X48857000Y-96661335D01*
X48912147Y-96938574D01*
X49020320Y-97199727D01*
X49177363Y-97434759D01*
X49377241Y-97634637D01*
X49612273Y-97791680D01*
X49873426Y-97899853D01*
X50150665Y-97955000D01*
X50433335Y-97955000D01*
X50710574Y-97899853D01*
X50931000Y-97808550D01*
X50931000Y-100317995D01*
X50905881Y-100302930D01*
X50641040Y-100208091D01*
X50419000Y-100329376D01*
X50419000Y-101473000D01*
X50439000Y-101473000D01*
X50439000Y-101727000D01*
X50419000Y-101727000D01*
X50419000Y-104013000D01*
X50439000Y-104013000D01*
X50439000Y-104267000D01*
X50419000Y-104267000D01*
X50419000Y-104287000D01*
X50165000Y-104287000D01*
X50165000Y-104267000D01*
X49022085Y-104267000D01*
X48900096Y-104489039D01*
X48940754Y-104623087D01*
X49060963Y-104877420D01*
X49228481Y-105103414D01*
X49436869Y-105292385D01*
X49622865Y-105403933D01*
X49612273Y-105408320D01*
X49377241Y-105565363D01*
X49177363Y-105765241D01*
X49020320Y-106000273D01*
X48912147Y-106261426D01*
X48857000Y-106538665D01*
X48857000Y-106821335D01*
X48912147Y-107098574D01*
X49020320Y-107359727D01*
X49177363Y-107594759D01*
X49377241Y-107794637D01*
X49609759Y-107950000D01*
X49377241Y-108105363D01*
X49177363Y-108305241D01*
X49020320Y-108540273D01*
X48912147Y-108801426D01*
X48857000Y-109078665D01*
X48857000Y-109361335D01*
X48912147Y-109638574D01*
X49020320Y-109899727D01*
X49177363Y-110134759D01*
X49377241Y-110334637D01*
X49612273Y-110491680D01*
X49873426Y-110599853D01*
X50150665Y-110655000D01*
X50433335Y-110655000D01*
X50710574Y-110599853D01*
X50931000Y-110508550D01*
X50931000Y-113017995D01*
X50905881Y-113002930D01*
X50641040Y-112908091D01*
X50419000Y-113029376D01*
X50419000Y-114173000D01*
X50439000Y-114173000D01*
X50439000Y-114427000D01*
X50419000Y-114427000D01*
X50419000Y-114447000D01*
X50165000Y-114447000D01*
X50165000Y-114427000D01*
X49022085Y-114427000D01*
X48900096Y-114649039D01*
X48940754Y-114783087D01*
X49060963Y-115037420D01*
X49228481Y-115263414D01*
X49436869Y-115452385D01*
X49622865Y-115563933D01*
X49612273Y-115568320D01*
X49377241Y-115725363D01*
X49177363Y-115925241D01*
X49157479Y-115955000D01*
X48637000Y-115955000D01*
X48637000Y-113950961D01*
X48900096Y-113950961D01*
X49022085Y-114173000D01*
X50165000Y-114173000D01*
X50165000Y-113029376D01*
X49942960Y-112908091D01*
X49678119Y-113002930D01*
X49436869Y-113147615D01*
X49228481Y-113336586D01*
X49060963Y-113562580D01*
X48940754Y-113816913D01*
X48900096Y-113950961D01*
X48637000Y-113950961D01*
X48637000Y-101949039D01*
X48900096Y-101949039D01*
X48940754Y-102083087D01*
X49060963Y-102337420D01*
X49228481Y-102563414D01*
X49436869Y-102752385D01*
X49632982Y-102870000D01*
X49436869Y-102987615D01*
X49228481Y-103176586D01*
X49060963Y-103402580D01*
X48940754Y-103656913D01*
X48900096Y-103790961D01*
X49022085Y-104013000D01*
X50165000Y-104013000D01*
X50165000Y-101727000D01*
X49022085Y-101727000D01*
X48900096Y-101949039D01*
X48637000Y-101949039D01*
X48637000Y-101250961D01*
X48900096Y-101250961D01*
X49022085Y-101473000D01*
X50165000Y-101473000D01*
X50165000Y-100329376D01*
X49942960Y-100208091D01*
X49678119Y-100302930D01*
X49436869Y-100447615D01*
X49228481Y-100636586D01*
X49060963Y-100862580D01*
X48940754Y-101116913D01*
X48900096Y-101250961D01*
X48637000Y-101250961D01*
X48637000Y-89249039D01*
X48900096Y-89249039D01*
X48940754Y-89383087D01*
X49060963Y-89637420D01*
X49228481Y-89863414D01*
X49436869Y-90052385D01*
X49632982Y-90170000D01*
X49436869Y-90287615D01*
X49228481Y-90476586D01*
X49060963Y-90702580D01*
X48940754Y-90956913D01*
X48900096Y-91090961D01*
X49022085Y-91313000D01*
X50165000Y-91313000D01*
X50165000Y-89027000D01*
X49022085Y-89027000D01*
X48900096Y-89249039D01*
X48637000Y-89249039D01*
X48637000Y-88550961D01*
X48900096Y-88550961D01*
X49022085Y-88773000D01*
X50165000Y-88773000D01*
X50165000Y-87629376D01*
X49942960Y-87508091D01*
X49678119Y-87602930D01*
X49436869Y-87747615D01*
X49228481Y-87936586D01*
X49060963Y-88162580D01*
X48940754Y-88416913D01*
X48900096Y-88550961D01*
X48637000Y-88550961D01*
X48637000Y-76549039D01*
X48900096Y-76549039D01*
X48940754Y-76683087D01*
X49060963Y-76937420D01*
X49228481Y-77163414D01*
X49436869Y-77352385D01*
X49632982Y-77470000D01*
X49436869Y-77587615D01*
X49228481Y-77776586D01*
X49060963Y-78002580D01*
X48940754Y-78256913D01*
X48900096Y-78390961D01*
X49022085Y-78613000D01*
X50165000Y-78613000D01*
X50165000Y-76327000D01*
X49022085Y-76327000D01*
X48900096Y-76549039D01*
X48637000Y-76549039D01*
X48637000Y-75850961D01*
X48900096Y-75850961D01*
X49022085Y-76073000D01*
X50165000Y-76073000D01*
X50165000Y-74929376D01*
X49942960Y-74808091D01*
X49678119Y-74902930D01*
X49436869Y-75047615D01*
X49228481Y-75236586D01*
X49060963Y-75462580D01*
X48940754Y-75716913D01*
X48900096Y-75850961D01*
X48637000Y-75850961D01*
X48637000Y-63849039D01*
X48773096Y-63849039D01*
X48813754Y-63983087D01*
X48933963Y-64237420D01*
X49101481Y-64463414D01*
X49309869Y-64652385D01*
X49505982Y-64770000D01*
X49309869Y-64887615D01*
X49101481Y-65076586D01*
X48933963Y-65302580D01*
X48813754Y-65556913D01*
X48773096Y-65690961D01*
X48895085Y-65913000D01*
X50038000Y-65913000D01*
X50038000Y-63627000D01*
X50292000Y-63627000D01*
X50292000Y-65913000D01*
X51434915Y-65913000D01*
X51442790Y-65898665D01*
X51905000Y-65898665D01*
X51905000Y-66181335D01*
X51960147Y-66458574D01*
X52068320Y-66719727D01*
X52225363Y-66954759D01*
X52425241Y-67154637D01*
X52660273Y-67311680D01*
X52921426Y-67419853D01*
X53198665Y-67475000D01*
X53481335Y-67475000D01*
X53758574Y-67419853D01*
X54019727Y-67311680D01*
X54254759Y-67154637D01*
X54454637Y-66954759D01*
X54611680Y-66719727D01*
X54719853Y-66458574D01*
X54775000Y-66181335D01*
X54775000Y-65898665D01*
X54719853Y-65621426D01*
X54611680Y-65360273D01*
X54454637Y-65125241D01*
X54254759Y-64925363D01*
X54054131Y-64791308D01*
X54081514Y-64776671D01*
X54153097Y-64532702D01*
X53340000Y-63719605D01*
X52526903Y-64532702D01*
X52598486Y-64776671D01*
X52627341Y-64790324D01*
X52425241Y-64925363D01*
X52225363Y-65125241D01*
X52068320Y-65360273D01*
X51960147Y-65621426D01*
X51905000Y-65898665D01*
X51442790Y-65898665D01*
X51556904Y-65690961D01*
X51516246Y-65556913D01*
X51396037Y-65302580D01*
X51228519Y-65076586D01*
X51020131Y-64887615D01*
X50824018Y-64770000D01*
X51020131Y-64652385D01*
X51228519Y-64463414D01*
X51396037Y-64237420D01*
X51516246Y-63983087D01*
X51556904Y-63849039D01*
X51434915Y-63627000D01*
X50292000Y-63627000D01*
X50038000Y-63627000D01*
X48895085Y-63627000D01*
X48773096Y-63849039D01*
X48637000Y-63849039D01*
X48637000Y-63610512D01*
X51899783Y-63610512D01*
X51941213Y-63890130D01*
X52036397Y-64156292D01*
X52103329Y-64281514D01*
X52347298Y-64353097D01*
X53160395Y-63540000D01*
X53519605Y-63540000D01*
X54332702Y-64353097D01*
X54576671Y-64281514D01*
X54697571Y-64026004D01*
X54766300Y-63751816D01*
X54780217Y-63469488D01*
X54738787Y-63189870D01*
X54643603Y-62923708D01*
X54576671Y-62798486D01*
X54332702Y-62726903D01*
X53519605Y-63540000D01*
X53160395Y-63540000D01*
X52347298Y-62726903D01*
X52103329Y-62798486D01*
X51982429Y-63053996D01*
X51913700Y-63328184D01*
X51899783Y-63610512D01*
X48637000Y-63610512D01*
X48637000Y-63543477D01*
X48641282Y-63500000D01*
X48624195Y-63326510D01*
X48573589Y-63159687D01*
X48568925Y-63150961D01*
X48773096Y-63150961D01*
X48895085Y-63373000D01*
X50038000Y-63373000D01*
X50038000Y-62229376D01*
X50292000Y-62229376D01*
X50292000Y-63373000D01*
X51434915Y-63373000D01*
X51556904Y-63150961D01*
X51516246Y-63016913D01*
X51396037Y-62762580D01*
X51236460Y-62547298D01*
X52526903Y-62547298D01*
X53340000Y-63360395D01*
X54153097Y-62547298D01*
X54081514Y-62303329D01*
X53826004Y-62182429D01*
X53551816Y-62113700D01*
X53269488Y-62099783D01*
X52989870Y-62141213D01*
X52723708Y-62236397D01*
X52598486Y-62303329D01*
X52526903Y-62547298D01*
X51236460Y-62547298D01*
X51228519Y-62536586D01*
X51020131Y-62347615D01*
X50778881Y-62202930D01*
X50514040Y-62108091D01*
X50292000Y-62229376D01*
X50038000Y-62229376D01*
X49815960Y-62108091D01*
X49551119Y-62202930D01*
X49309869Y-62347615D01*
X49101481Y-62536586D01*
X48933963Y-62762580D01*
X48813754Y-63016913D01*
X48773096Y-63150961D01*
X48568925Y-63150961D01*
X48491411Y-63005941D01*
X48380817Y-62871183D01*
X48246059Y-62760589D01*
X48092313Y-62678411D01*
X47925490Y-62627805D01*
X47795477Y-62615000D01*
X47752000Y-62610718D01*
X47708524Y-62615000D01*
X43974701Y-62615000D01*
X43970812Y-62575518D01*
X43934502Y-62455820D01*
X43875537Y-62345506D01*
X43796185Y-62248815D01*
X43699494Y-62169463D01*
X43589180Y-62110498D01*
X43469482Y-62074188D01*
X43345000Y-62061928D01*
X41745000Y-62061928D01*
X41620518Y-62074188D01*
X41500820Y-62110498D01*
X41390506Y-62169463D01*
X41293815Y-62248815D01*
X41214463Y-62345506D01*
X41155498Y-62455820D01*
X41119188Y-62575518D01*
X41115299Y-62615000D01*
X40758521Y-62615000D01*
X40738637Y-62585241D01*
X40538759Y-62385363D01*
X40303727Y-62228320D01*
X40042574Y-62120147D01*
X39765335Y-62065000D01*
X39482665Y-62065000D01*
X39205426Y-62120147D01*
X38944273Y-62228320D01*
X38709241Y-62385363D01*
X38509363Y-62585241D01*
X38352320Y-62820273D01*
X38244147Y-63081426D01*
X38189000Y-63358665D01*
X37719000Y-63358665D01*
X37719000Y-60071000D01*
X55245000Y-60071000D01*
X55245000Y-152273000D01*
M02*
