G04 #@! TF.GenerationSoftware,KiCad,Pcbnew,5.1.5+dfsg1-2build2*
G04 #@! TF.CreationDate,2020-10-27T01:34:20+02:00*
G04 #@! TF.ProjectId,memory,6d656d6f-7279-42e6-9b69-6361645f7063,rev?*
G04 #@! TF.SameCoordinates,Original*
G04 #@! TF.FileFunction,Copper,L2,Bot*
G04 #@! TF.FilePolarity,Positive*
%FSLAX46Y46*%
G04 Gerber Fmt 4.6, Leading zero omitted, Abs format (unit mm)*
G04 Created by KiCad (PCBNEW 5.1.5+dfsg1-2build2) date 2020-10-27 01:34:20*
%MOMM*%
%LPD*%
G04 APERTURE LIST*
%ADD10R,1.050000X1.500000*%
%ADD11O,1.050000X1.500000*%
%ADD12O,1.600000X1.600000*%
%ADD13C,1.600000*%
%ADD14O,1.750000X1.200000*%
%ADD15C,0.100000*%
%ADD16R,1.600000X1.600000*%
%ADD17C,0.500000*%
%ADD18C,0.254000*%
G04 APERTURE END LIST*
D10*
X41148000Y-149860000D03*
D11*
X43688000Y-149860000D03*
X42418000Y-149860000D03*
D12*
X39624000Y-109220000D03*
D13*
X39624000Y-101600000D03*
D12*
X39624000Y-96520000D03*
D13*
X39624000Y-88900000D03*
D12*
X39624000Y-83820000D03*
D13*
X39624000Y-76200000D03*
D12*
X39624000Y-71120000D03*
D13*
X39624000Y-63500000D03*
D14*
X48260000Y-136844000D03*
X48260000Y-138844000D03*
X48260000Y-140844000D03*
X48260000Y-142844000D03*
X48260000Y-144844000D03*
X48260000Y-146844000D03*
G04 #@! TA.AperFunction,ComponentPad*
D15*
G36*
X48909505Y-148245204D02*
G01*
X48933773Y-148248804D01*
X48957572Y-148254765D01*
X48980671Y-148263030D01*
X49002850Y-148273520D01*
X49023893Y-148286132D01*
X49043599Y-148300747D01*
X49061777Y-148317223D01*
X49078253Y-148335401D01*
X49092868Y-148355107D01*
X49105480Y-148376150D01*
X49115970Y-148398329D01*
X49124235Y-148421428D01*
X49130196Y-148445227D01*
X49133796Y-148469495D01*
X49135000Y-148493999D01*
X49135000Y-149194001D01*
X49133796Y-149218505D01*
X49130196Y-149242773D01*
X49124235Y-149266572D01*
X49115970Y-149289671D01*
X49105480Y-149311850D01*
X49092868Y-149332893D01*
X49078253Y-149352599D01*
X49061777Y-149370777D01*
X49043599Y-149387253D01*
X49023893Y-149401868D01*
X49002850Y-149414480D01*
X48980671Y-149424970D01*
X48957572Y-149433235D01*
X48933773Y-149439196D01*
X48909505Y-149442796D01*
X48885001Y-149444000D01*
X47634999Y-149444000D01*
X47610495Y-149442796D01*
X47586227Y-149439196D01*
X47562428Y-149433235D01*
X47539329Y-149424970D01*
X47517150Y-149414480D01*
X47496107Y-149401868D01*
X47476401Y-149387253D01*
X47458223Y-149370777D01*
X47441747Y-149352599D01*
X47427132Y-149332893D01*
X47414520Y-149311850D01*
X47404030Y-149289671D01*
X47395765Y-149266572D01*
X47389804Y-149242773D01*
X47386204Y-149218505D01*
X47385000Y-149194001D01*
X47385000Y-148493999D01*
X47386204Y-148469495D01*
X47389804Y-148445227D01*
X47395765Y-148421428D01*
X47404030Y-148398329D01*
X47414520Y-148376150D01*
X47427132Y-148355107D01*
X47441747Y-148335401D01*
X47458223Y-148317223D01*
X47476401Y-148300747D01*
X47496107Y-148286132D01*
X47517150Y-148273520D01*
X47539329Y-148263030D01*
X47562428Y-148254765D01*
X47586227Y-148248804D01*
X47610495Y-148245204D01*
X47634999Y-148244000D01*
X48885001Y-148244000D01*
X48909505Y-148245204D01*
G37*
G04 #@! TD.AperFunction*
D12*
X50292000Y-114300000D03*
X42672000Y-132080000D03*
X50292000Y-116840000D03*
X42672000Y-129540000D03*
X50292000Y-119380000D03*
X42672000Y-127000000D03*
X50292000Y-121920000D03*
X42672000Y-124460000D03*
X50292000Y-124460000D03*
X42672000Y-121920000D03*
X50292000Y-127000000D03*
X42672000Y-119380000D03*
X50292000Y-129540000D03*
X42672000Y-116840000D03*
X50292000Y-132080000D03*
D16*
X42672000Y-114300000D03*
D12*
X50292000Y-101600000D03*
X42672000Y-109220000D03*
X50292000Y-104140000D03*
X42672000Y-106680000D03*
X50292000Y-106680000D03*
X42672000Y-104140000D03*
X50292000Y-109220000D03*
D16*
X42672000Y-101600000D03*
D12*
X50292000Y-88900000D03*
X42672000Y-96520000D03*
X50292000Y-91440000D03*
X42672000Y-93980000D03*
X50292000Y-93980000D03*
X42672000Y-91440000D03*
X50292000Y-96520000D03*
D16*
X42672000Y-88900000D03*
D12*
X50292000Y-76200000D03*
X42672000Y-83820000D03*
X50292000Y-78740000D03*
X42672000Y-81280000D03*
X50292000Y-81280000D03*
X42672000Y-78740000D03*
X50292000Y-83820000D03*
D16*
X42672000Y-76200000D03*
D12*
X50165000Y-63500000D03*
X42545000Y-71120000D03*
X50165000Y-66040000D03*
X42545000Y-68580000D03*
X50165000Y-68580000D03*
X42545000Y-66040000D03*
X50165000Y-71120000D03*
D16*
X42545000Y-63500000D03*
D13*
X53340000Y-114340000D03*
X53340000Y-116840000D03*
X53340000Y-101640000D03*
X53340000Y-104140000D03*
X53340000Y-88940000D03*
X53340000Y-91440000D03*
X53340000Y-76240000D03*
X53340000Y-78740000D03*
X53340000Y-63540000D03*
X53340000Y-66040000D03*
X43648000Y-145288000D03*
X41148000Y-145288000D03*
X53340000Y-147868000D03*
X53340000Y-150368000D03*
D17*
X53340000Y-150443998D02*
X53123999Y-150659999D01*
X53340000Y-149860000D02*
X53340000Y-150443998D01*
X53300000Y-63500000D02*
X53340000Y-63540000D01*
X53300000Y-76200000D02*
X53340000Y-76240000D01*
X53300000Y-88900000D02*
X53340000Y-88940000D01*
X53300000Y-101600000D02*
X53340000Y-101640000D01*
X53300000Y-114300000D02*
X53340000Y-114340000D01*
X50165000Y-68580000D02*
X51816000Y-68580000D01*
X51816000Y-106680000D02*
X50292000Y-106680000D01*
X50292000Y-81280000D02*
X51816000Y-81280000D01*
X51816000Y-68580000D02*
X51816000Y-81280000D01*
X50292000Y-93980000D02*
X51816000Y-93980000D01*
X51816000Y-81280000D02*
X51816000Y-93980000D01*
X51816000Y-106172000D02*
X51816000Y-146812000D01*
X51816000Y-93980000D02*
X51816000Y-106172000D01*
X51816000Y-106172000D02*
X51816000Y-106680000D01*
X51784000Y-146844000D02*
X48260000Y-146844000D01*
X51816000Y-146812000D02*
X51784000Y-146844000D01*
X41148000Y-66040000D02*
X41148000Y-78740000D01*
X41148000Y-78740000D02*
X42672000Y-78740000D01*
X42545000Y-66040000D02*
X41148000Y-66040000D01*
X41148000Y-83312000D02*
X41148000Y-91440000D01*
X41148000Y-78740000D02*
X41148000Y-83312000D01*
X41148000Y-91440000D02*
X42672000Y-91440000D01*
X41148000Y-91440000D02*
X41148000Y-104140000D01*
X41148000Y-104140000D02*
X42672000Y-104140000D01*
X41148000Y-104140000D02*
X41148000Y-134620000D01*
X41148000Y-134620000D02*
X41148000Y-142748000D01*
X41244000Y-142844000D02*
X41148000Y-142748000D01*
X48260000Y-142844000D02*
X41244000Y-142844000D01*
D18*
G36*
X55245000Y-152273000D02*
G01*
X37719000Y-152273000D01*
X37719000Y-149110000D01*
X39984928Y-149110000D01*
X39984928Y-150610000D01*
X39997188Y-150734482D01*
X40033498Y-150854180D01*
X40092463Y-150964494D01*
X40171815Y-151061185D01*
X40268506Y-151140537D01*
X40378820Y-151199502D01*
X40498518Y-151235812D01*
X40623000Y-151248072D01*
X41673000Y-151248072D01*
X41797482Y-151235812D01*
X41917180Y-151199502D01*
X41982057Y-151164824D01*
X42050663Y-151195272D01*
X42112190Y-151203964D01*
X42291000Y-151078163D01*
X42291000Y-150760235D01*
X42298812Y-150734482D01*
X42311072Y-150610000D01*
X42311072Y-149578022D01*
X42528000Y-149578022D01*
X42528000Y-150141979D01*
X42544785Y-150312400D01*
X42545000Y-150313109D01*
X42545000Y-151078163D01*
X42723810Y-151203964D01*
X42785337Y-151195272D01*
X42994882Y-151102275D01*
X43053331Y-151061071D01*
X43241941Y-151161885D01*
X43460601Y-151228215D01*
X43688000Y-151250612D01*
X43915400Y-151228215D01*
X44134060Y-151161885D01*
X44335579Y-151054171D01*
X44512212Y-150909212D01*
X44657171Y-150732579D01*
X44764885Y-150531059D01*
X44831215Y-150312399D01*
X44839659Y-150226665D01*
X51905000Y-150226665D01*
X51905000Y-150509335D01*
X51960147Y-150786574D01*
X52068320Y-151047727D01*
X52225363Y-151282759D01*
X52425241Y-151482637D01*
X52660273Y-151639680D01*
X52921426Y-151747853D01*
X53198665Y-151803000D01*
X53481335Y-151803000D01*
X53758574Y-151747853D01*
X54019727Y-151639680D01*
X54254759Y-151482637D01*
X54454637Y-151282759D01*
X54611680Y-151047727D01*
X54719853Y-150786574D01*
X54775000Y-150509335D01*
X54775000Y-150226665D01*
X54719853Y-149949426D01*
X54611680Y-149688273D01*
X54454637Y-149453241D01*
X54254759Y-149253363D01*
X54054131Y-149119308D01*
X54081514Y-149104671D01*
X54153097Y-148860702D01*
X53340000Y-148047605D01*
X52526903Y-148860702D01*
X52598486Y-149104671D01*
X52627341Y-149118324D01*
X52425241Y-149253363D01*
X52225363Y-149453241D01*
X52068320Y-149688273D01*
X51960147Y-149949426D01*
X51905000Y-150226665D01*
X44839659Y-150226665D01*
X44848000Y-150141978D01*
X44848000Y-149578021D01*
X44831215Y-149407600D01*
X44764885Y-149188940D01*
X44657171Y-148987421D01*
X44512212Y-148810788D01*
X44335578Y-148665829D01*
X44134059Y-148558115D01*
X43915399Y-148491785D01*
X43688000Y-148469388D01*
X43460600Y-148491785D01*
X43241940Y-148558115D01*
X43053331Y-148658929D01*
X42994882Y-148617725D01*
X42785337Y-148524728D01*
X42723810Y-148516036D01*
X42545000Y-148641837D01*
X42545000Y-149406892D01*
X42544785Y-149407601D01*
X42528000Y-149578022D01*
X42311072Y-149578022D01*
X42311072Y-149110000D01*
X42298812Y-148985518D01*
X42291000Y-148959765D01*
X42291000Y-148641837D01*
X42112190Y-148516036D01*
X42050663Y-148524728D01*
X41982057Y-148555176D01*
X41917180Y-148520498D01*
X41797482Y-148484188D01*
X41673000Y-148471928D01*
X40623000Y-148471928D01*
X40498518Y-148484188D01*
X40378820Y-148520498D01*
X40268506Y-148579463D01*
X40171815Y-148658815D01*
X40092463Y-148755506D01*
X40033498Y-148865820D01*
X39997188Y-148985518D01*
X39984928Y-149110000D01*
X37719000Y-149110000D01*
X37719000Y-145146665D01*
X39713000Y-145146665D01*
X39713000Y-145429335D01*
X39768147Y-145706574D01*
X39876320Y-145967727D01*
X40033363Y-146202759D01*
X40233241Y-146402637D01*
X40468273Y-146559680D01*
X40729426Y-146667853D01*
X41006665Y-146723000D01*
X41289335Y-146723000D01*
X41566574Y-146667853D01*
X41827727Y-146559680D01*
X42062759Y-146402637D01*
X42184694Y-146280702D01*
X42834903Y-146280702D01*
X42906486Y-146524671D01*
X43161996Y-146645571D01*
X43436184Y-146714300D01*
X43718512Y-146728217D01*
X43998130Y-146686787D01*
X44264292Y-146591603D01*
X44389514Y-146524671D01*
X44461097Y-146280702D01*
X43648000Y-145467605D01*
X42834903Y-146280702D01*
X42184694Y-146280702D01*
X42262637Y-146202759D01*
X42396692Y-146002131D01*
X42411329Y-146029514D01*
X42655298Y-146101097D01*
X43468395Y-145288000D01*
X43827605Y-145288000D01*
X44640702Y-146101097D01*
X44884671Y-146029514D01*
X45005571Y-145774004D01*
X45074300Y-145499816D01*
X45088217Y-145217488D01*
X45046787Y-144937870D01*
X44951603Y-144671708D01*
X44884671Y-144546486D01*
X44640702Y-144474903D01*
X43827605Y-145288000D01*
X43468395Y-145288000D01*
X42655298Y-144474903D01*
X42411329Y-144546486D01*
X42397676Y-144575341D01*
X42262637Y-144373241D01*
X42184694Y-144295298D01*
X42834903Y-144295298D01*
X43648000Y-145108395D01*
X44461097Y-144295298D01*
X44389514Y-144051329D01*
X44134004Y-143930429D01*
X43859816Y-143861700D01*
X43577488Y-143847783D01*
X43297870Y-143889213D01*
X43031708Y-143984397D01*
X42906486Y-144051329D01*
X42834903Y-144295298D01*
X42184694Y-144295298D01*
X42062759Y-144173363D01*
X41827727Y-144016320D01*
X41566574Y-143908147D01*
X41289335Y-143853000D01*
X41006665Y-143853000D01*
X40729426Y-143908147D01*
X40468273Y-144016320D01*
X40233241Y-144173363D01*
X40033363Y-144373241D01*
X39876320Y-144608273D01*
X39768147Y-144869426D01*
X39713000Y-145146665D01*
X37719000Y-145146665D01*
X37719000Y-109569040D01*
X38232091Y-109569040D01*
X38326930Y-109833881D01*
X38471615Y-110075131D01*
X38660586Y-110283519D01*
X38886580Y-110451037D01*
X39140913Y-110571246D01*
X39274961Y-110611904D01*
X39497000Y-110489915D01*
X39497000Y-109347000D01*
X38353376Y-109347000D01*
X38232091Y-109569040D01*
X37719000Y-109569040D01*
X37719000Y-108870960D01*
X38232091Y-108870960D01*
X38353376Y-109093000D01*
X39497000Y-109093000D01*
X39497000Y-107950085D01*
X39274961Y-107828096D01*
X39140913Y-107868754D01*
X38886580Y-107988963D01*
X38660586Y-108156481D01*
X38471615Y-108364869D01*
X38326930Y-108606119D01*
X38232091Y-108870960D01*
X37719000Y-108870960D01*
X37719000Y-96869040D01*
X38232091Y-96869040D01*
X38326930Y-97133881D01*
X38471615Y-97375131D01*
X38660586Y-97583519D01*
X38886580Y-97751037D01*
X39140913Y-97871246D01*
X39274961Y-97911904D01*
X39497000Y-97789915D01*
X39497000Y-96647000D01*
X38353376Y-96647000D01*
X38232091Y-96869040D01*
X37719000Y-96869040D01*
X37719000Y-96170960D01*
X38232091Y-96170960D01*
X38353376Y-96393000D01*
X39497000Y-96393000D01*
X39497000Y-95250085D01*
X39274961Y-95128096D01*
X39140913Y-95168754D01*
X38886580Y-95288963D01*
X38660586Y-95456481D01*
X38471615Y-95664869D01*
X38326930Y-95906119D01*
X38232091Y-96170960D01*
X37719000Y-96170960D01*
X37719000Y-84169040D01*
X38232091Y-84169040D01*
X38326930Y-84433881D01*
X38471615Y-84675131D01*
X38660586Y-84883519D01*
X38886580Y-85051037D01*
X39140913Y-85171246D01*
X39274961Y-85211904D01*
X39497000Y-85089915D01*
X39497000Y-83947000D01*
X38353376Y-83947000D01*
X38232091Y-84169040D01*
X37719000Y-84169040D01*
X37719000Y-83470960D01*
X38232091Y-83470960D01*
X38353376Y-83693000D01*
X39497000Y-83693000D01*
X39497000Y-82550085D01*
X39274961Y-82428096D01*
X39140913Y-82468754D01*
X38886580Y-82588963D01*
X38660586Y-82756481D01*
X38471615Y-82964869D01*
X38326930Y-83206119D01*
X38232091Y-83470960D01*
X37719000Y-83470960D01*
X37719000Y-76058665D01*
X38189000Y-76058665D01*
X38189000Y-76341335D01*
X38244147Y-76618574D01*
X38352320Y-76879727D01*
X38509363Y-77114759D01*
X38709241Y-77314637D01*
X38944273Y-77471680D01*
X39205426Y-77579853D01*
X39482665Y-77635000D01*
X39765335Y-77635000D01*
X40042574Y-77579853D01*
X40263001Y-77488549D01*
X40263001Y-78696513D01*
X40258718Y-78740000D01*
X40263000Y-78783477D01*
X40263001Y-82542446D01*
X40107087Y-82468754D01*
X39973039Y-82428096D01*
X39751000Y-82550085D01*
X39751000Y-83693000D01*
X39771000Y-83693000D01*
X39771000Y-83947000D01*
X39751000Y-83947000D01*
X39751000Y-85089915D01*
X39973039Y-85211904D01*
X40107087Y-85171246D01*
X40263000Y-85097555D01*
X40263001Y-87611451D01*
X40042574Y-87520147D01*
X39765335Y-87465000D01*
X39482665Y-87465000D01*
X39205426Y-87520147D01*
X38944273Y-87628320D01*
X38709241Y-87785363D01*
X38509363Y-87985241D01*
X38352320Y-88220273D01*
X38244147Y-88481426D01*
X38189000Y-88758665D01*
X38189000Y-89041335D01*
X38244147Y-89318574D01*
X38352320Y-89579727D01*
X38509363Y-89814759D01*
X38709241Y-90014637D01*
X38944273Y-90171680D01*
X39205426Y-90279853D01*
X39482665Y-90335000D01*
X39765335Y-90335000D01*
X40042574Y-90279853D01*
X40263001Y-90188549D01*
X40263001Y-91396513D01*
X40258718Y-91440000D01*
X40263000Y-91483477D01*
X40263000Y-95242446D01*
X40107087Y-95168754D01*
X39973039Y-95128096D01*
X39751000Y-95250085D01*
X39751000Y-96393000D01*
X39771000Y-96393000D01*
X39771000Y-96647000D01*
X39751000Y-96647000D01*
X39751000Y-97789915D01*
X39973039Y-97911904D01*
X40107087Y-97871246D01*
X40263001Y-97797554D01*
X40263001Y-100311451D01*
X40042574Y-100220147D01*
X39765335Y-100165000D01*
X39482665Y-100165000D01*
X39205426Y-100220147D01*
X38944273Y-100328320D01*
X38709241Y-100485363D01*
X38509363Y-100685241D01*
X38352320Y-100920273D01*
X38244147Y-101181426D01*
X38189000Y-101458665D01*
X38189000Y-101741335D01*
X38244147Y-102018574D01*
X38352320Y-102279727D01*
X38509363Y-102514759D01*
X38709241Y-102714637D01*
X38944273Y-102871680D01*
X39205426Y-102979853D01*
X39482665Y-103035000D01*
X39765335Y-103035000D01*
X40042574Y-102979853D01*
X40263001Y-102888549D01*
X40263001Y-104096513D01*
X40258718Y-104140000D01*
X40263000Y-104183477D01*
X40263000Y-107942445D01*
X40107087Y-107868754D01*
X39973039Y-107828096D01*
X39751000Y-107950085D01*
X39751000Y-109093000D01*
X39771000Y-109093000D01*
X39771000Y-109347000D01*
X39751000Y-109347000D01*
X39751000Y-110489915D01*
X39973039Y-110611904D01*
X40107087Y-110571246D01*
X40263000Y-110497555D01*
X40263001Y-134576514D01*
X40263000Y-134576524D01*
X40263001Y-142704521D01*
X40258719Y-142748000D01*
X40275805Y-142921490D01*
X40326412Y-143088313D01*
X40408590Y-143242059D01*
X40491468Y-143343046D01*
X40491471Y-143343049D01*
X40519184Y-143376817D01*
X40552952Y-143404530D01*
X40587466Y-143439044D01*
X40615183Y-143472817D01*
X40749941Y-143583411D01*
X40903687Y-143665589D01*
X41070510Y-143716195D01*
X41200523Y-143729000D01*
X41200531Y-143729000D01*
X41244000Y-143733281D01*
X41287469Y-143729000D01*
X47116634Y-143729000D01*
X47256762Y-143844000D01*
X47107498Y-143966498D01*
X46953167Y-144154551D01*
X46838489Y-144369099D01*
X46767870Y-144601898D01*
X46744025Y-144844000D01*
X46767870Y-145086102D01*
X46838489Y-145318901D01*
X46953167Y-145533449D01*
X47107498Y-145721502D01*
X47256762Y-145844000D01*
X47107498Y-145966498D01*
X46953167Y-146154551D01*
X46838489Y-146369099D01*
X46767870Y-146601898D01*
X46744025Y-146844000D01*
X46767870Y-147086102D01*
X46838489Y-147318901D01*
X46953167Y-147533449D01*
X47107498Y-147721502D01*
X47146111Y-147753191D01*
X47141613Y-147755595D01*
X47007038Y-147866038D01*
X46896595Y-148000613D01*
X46814528Y-148154149D01*
X46763992Y-148320745D01*
X46746928Y-148493999D01*
X46746928Y-149194001D01*
X46763992Y-149367255D01*
X46814528Y-149533851D01*
X46896595Y-149687387D01*
X47007038Y-149821962D01*
X47141613Y-149932405D01*
X47295149Y-150014472D01*
X47461745Y-150065008D01*
X47634999Y-150082072D01*
X48885001Y-150082072D01*
X49058255Y-150065008D01*
X49224851Y-150014472D01*
X49378387Y-149932405D01*
X49512962Y-149821962D01*
X49623405Y-149687387D01*
X49705472Y-149533851D01*
X49756008Y-149367255D01*
X49773072Y-149194001D01*
X49773072Y-148493999D01*
X49756008Y-148320745D01*
X49705472Y-148154149D01*
X49623405Y-148000613D01*
X49512962Y-147866038D01*
X49378387Y-147755595D01*
X49373889Y-147753191D01*
X49403366Y-147729000D01*
X51740531Y-147729000D01*
X51784000Y-147733281D01*
X51827469Y-147729000D01*
X51827477Y-147729000D01*
X51910514Y-147720822D01*
X51899783Y-147938512D01*
X51941213Y-148218130D01*
X52036397Y-148484292D01*
X52103329Y-148609514D01*
X52347298Y-148681097D01*
X53160395Y-147868000D01*
X53519605Y-147868000D01*
X54332702Y-148681097D01*
X54576671Y-148609514D01*
X54697571Y-148354004D01*
X54766300Y-148079816D01*
X54780217Y-147797488D01*
X54738787Y-147517870D01*
X54643603Y-147251708D01*
X54576671Y-147126486D01*
X54332702Y-147054903D01*
X53519605Y-147868000D01*
X53160395Y-147868000D01*
X53146253Y-147853858D01*
X53325858Y-147674253D01*
X53340000Y-147688395D01*
X54153097Y-146875298D01*
X54081514Y-146631329D01*
X53826004Y-146510429D01*
X53551816Y-146441700D01*
X53269488Y-146427783D01*
X52989870Y-146469213D01*
X52723708Y-146564397D01*
X52701000Y-146576535D01*
X52701000Y-118125178D01*
X52853996Y-118197571D01*
X53128184Y-118266300D01*
X53410512Y-118280217D01*
X53690130Y-118238787D01*
X53956292Y-118143603D01*
X54081514Y-118076671D01*
X54153097Y-117832702D01*
X53340000Y-117019605D01*
X53325858Y-117033748D01*
X53146253Y-116854143D01*
X53160395Y-116840000D01*
X53519605Y-116840000D01*
X54332702Y-117653097D01*
X54576671Y-117581514D01*
X54697571Y-117326004D01*
X54766300Y-117051816D01*
X54780217Y-116769488D01*
X54738787Y-116489870D01*
X54643603Y-116223708D01*
X54576671Y-116098486D01*
X54332702Y-116026903D01*
X53519605Y-116840000D01*
X53160395Y-116840000D01*
X53146253Y-116825858D01*
X53325858Y-116646253D01*
X53340000Y-116660395D01*
X54153097Y-115847298D01*
X54081514Y-115603329D01*
X54052659Y-115589676D01*
X54254759Y-115454637D01*
X54454637Y-115254759D01*
X54611680Y-115019727D01*
X54719853Y-114758574D01*
X54775000Y-114481335D01*
X54775000Y-114198665D01*
X54719853Y-113921426D01*
X54611680Y-113660273D01*
X54454637Y-113425241D01*
X54254759Y-113225363D01*
X54019727Y-113068320D01*
X53758574Y-112960147D01*
X53481335Y-112905000D01*
X53198665Y-112905000D01*
X52921426Y-112960147D01*
X52701000Y-113051450D01*
X52701000Y-106723477D01*
X52705282Y-106680000D01*
X52701000Y-106636523D01*
X52701000Y-105425178D01*
X52853996Y-105497571D01*
X53128184Y-105566300D01*
X53410512Y-105580217D01*
X53690130Y-105538787D01*
X53956292Y-105443603D01*
X54081514Y-105376671D01*
X54153097Y-105132702D01*
X53340000Y-104319605D01*
X53325858Y-104333748D01*
X53146253Y-104154143D01*
X53160395Y-104140000D01*
X53519605Y-104140000D01*
X54332702Y-104953097D01*
X54576671Y-104881514D01*
X54697571Y-104626004D01*
X54766300Y-104351816D01*
X54780217Y-104069488D01*
X54738787Y-103789870D01*
X54643603Y-103523708D01*
X54576671Y-103398486D01*
X54332702Y-103326903D01*
X53519605Y-104140000D01*
X53160395Y-104140000D01*
X53146253Y-104125858D01*
X53325858Y-103946253D01*
X53340000Y-103960395D01*
X54153097Y-103147298D01*
X54081514Y-102903329D01*
X54052659Y-102889676D01*
X54254759Y-102754637D01*
X54454637Y-102554759D01*
X54611680Y-102319727D01*
X54719853Y-102058574D01*
X54775000Y-101781335D01*
X54775000Y-101498665D01*
X54719853Y-101221426D01*
X54611680Y-100960273D01*
X54454637Y-100725241D01*
X54254759Y-100525363D01*
X54019727Y-100368320D01*
X53758574Y-100260147D01*
X53481335Y-100205000D01*
X53198665Y-100205000D01*
X52921426Y-100260147D01*
X52701000Y-100351450D01*
X52701000Y-94023477D01*
X52705282Y-93980000D01*
X52701000Y-93936523D01*
X52701000Y-92725178D01*
X52853996Y-92797571D01*
X53128184Y-92866300D01*
X53410512Y-92880217D01*
X53690130Y-92838787D01*
X53956292Y-92743603D01*
X54081514Y-92676671D01*
X54153097Y-92432702D01*
X53340000Y-91619605D01*
X53325858Y-91633748D01*
X53146253Y-91454143D01*
X53160395Y-91440000D01*
X53519605Y-91440000D01*
X54332702Y-92253097D01*
X54576671Y-92181514D01*
X54697571Y-91926004D01*
X54766300Y-91651816D01*
X54780217Y-91369488D01*
X54738787Y-91089870D01*
X54643603Y-90823708D01*
X54576671Y-90698486D01*
X54332702Y-90626903D01*
X53519605Y-91440000D01*
X53160395Y-91440000D01*
X53146253Y-91425858D01*
X53325858Y-91246253D01*
X53340000Y-91260395D01*
X54153097Y-90447298D01*
X54081514Y-90203329D01*
X54052659Y-90189676D01*
X54254759Y-90054637D01*
X54454637Y-89854759D01*
X54611680Y-89619727D01*
X54719853Y-89358574D01*
X54775000Y-89081335D01*
X54775000Y-88798665D01*
X54719853Y-88521426D01*
X54611680Y-88260273D01*
X54454637Y-88025241D01*
X54254759Y-87825363D01*
X54019727Y-87668320D01*
X53758574Y-87560147D01*
X53481335Y-87505000D01*
X53198665Y-87505000D01*
X52921426Y-87560147D01*
X52701000Y-87651450D01*
X52701000Y-81323477D01*
X52705282Y-81280000D01*
X52701000Y-81236523D01*
X52701000Y-80025178D01*
X52853996Y-80097571D01*
X53128184Y-80166300D01*
X53410512Y-80180217D01*
X53690130Y-80138787D01*
X53956292Y-80043603D01*
X54081514Y-79976671D01*
X54153097Y-79732702D01*
X53340000Y-78919605D01*
X53325858Y-78933748D01*
X53146253Y-78754143D01*
X53160395Y-78740000D01*
X53519605Y-78740000D01*
X54332702Y-79553097D01*
X54576671Y-79481514D01*
X54697571Y-79226004D01*
X54766300Y-78951816D01*
X54780217Y-78669488D01*
X54738787Y-78389870D01*
X54643603Y-78123708D01*
X54576671Y-77998486D01*
X54332702Y-77926903D01*
X53519605Y-78740000D01*
X53160395Y-78740000D01*
X53146253Y-78725858D01*
X53325858Y-78546253D01*
X53340000Y-78560395D01*
X54153097Y-77747298D01*
X54081514Y-77503329D01*
X54052659Y-77489676D01*
X54254759Y-77354637D01*
X54454637Y-77154759D01*
X54611680Y-76919727D01*
X54719853Y-76658574D01*
X54775000Y-76381335D01*
X54775000Y-76098665D01*
X54719853Y-75821426D01*
X54611680Y-75560273D01*
X54454637Y-75325241D01*
X54254759Y-75125363D01*
X54019727Y-74968320D01*
X53758574Y-74860147D01*
X53481335Y-74805000D01*
X53198665Y-74805000D01*
X52921426Y-74860147D01*
X52701000Y-74951450D01*
X52701000Y-68623477D01*
X52705282Y-68580000D01*
X52688195Y-68406510D01*
X52637589Y-68239687D01*
X52555411Y-68085941D01*
X52444817Y-67951183D01*
X52310059Y-67840589D01*
X52156313Y-67758411D01*
X51989490Y-67707805D01*
X51859477Y-67695000D01*
X51859476Y-67695000D01*
X51816000Y-67690718D01*
X51772523Y-67695000D01*
X51299521Y-67695000D01*
X51279637Y-67665241D01*
X51079759Y-67465363D01*
X50847241Y-67310000D01*
X51079759Y-67154637D01*
X51201694Y-67032702D01*
X52526903Y-67032702D01*
X52598486Y-67276671D01*
X52853996Y-67397571D01*
X53128184Y-67466300D01*
X53410512Y-67480217D01*
X53690130Y-67438787D01*
X53956292Y-67343603D01*
X54081514Y-67276671D01*
X54153097Y-67032702D01*
X53340000Y-66219605D01*
X52526903Y-67032702D01*
X51201694Y-67032702D01*
X51279637Y-66954759D01*
X51436680Y-66719727D01*
X51544853Y-66458574D01*
X51600000Y-66181335D01*
X51600000Y-66110512D01*
X51899783Y-66110512D01*
X51941213Y-66390130D01*
X52036397Y-66656292D01*
X52103329Y-66781514D01*
X52347298Y-66853097D01*
X53160395Y-66040000D01*
X53519605Y-66040000D01*
X54332702Y-66853097D01*
X54576671Y-66781514D01*
X54697571Y-66526004D01*
X54766300Y-66251816D01*
X54780217Y-65969488D01*
X54738787Y-65689870D01*
X54643603Y-65423708D01*
X54576671Y-65298486D01*
X54332702Y-65226903D01*
X53519605Y-66040000D01*
X53160395Y-66040000D01*
X52347298Y-65226903D01*
X52103329Y-65298486D01*
X51982429Y-65553996D01*
X51913700Y-65828184D01*
X51899783Y-66110512D01*
X51600000Y-66110512D01*
X51600000Y-65898665D01*
X51544853Y-65621426D01*
X51436680Y-65360273D01*
X51279637Y-65125241D01*
X51079759Y-64925363D01*
X50847241Y-64770000D01*
X51079759Y-64614637D01*
X51279637Y-64414759D01*
X51436680Y-64179727D01*
X51544853Y-63918574D01*
X51600000Y-63641335D01*
X51600000Y-63398665D01*
X51905000Y-63398665D01*
X51905000Y-63681335D01*
X51960147Y-63958574D01*
X52068320Y-64219727D01*
X52225363Y-64454759D01*
X52425241Y-64654637D01*
X52625869Y-64788692D01*
X52598486Y-64803329D01*
X52526903Y-65047298D01*
X53340000Y-65860395D01*
X54153097Y-65047298D01*
X54081514Y-64803329D01*
X54052659Y-64789676D01*
X54254759Y-64654637D01*
X54454637Y-64454759D01*
X54611680Y-64219727D01*
X54719853Y-63958574D01*
X54775000Y-63681335D01*
X54775000Y-63398665D01*
X54719853Y-63121426D01*
X54611680Y-62860273D01*
X54454637Y-62625241D01*
X54254759Y-62425363D01*
X54019727Y-62268320D01*
X53758574Y-62160147D01*
X53481335Y-62105000D01*
X53198665Y-62105000D01*
X52921426Y-62160147D01*
X52660273Y-62268320D01*
X52425241Y-62425363D01*
X52225363Y-62625241D01*
X52068320Y-62860273D01*
X51960147Y-63121426D01*
X51905000Y-63398665D01*
X51600000Y-63398665D01*
X51600000Y-63358665D01*
X51544853Y-63081426D01*
X51436680Y-62820273D01*
X51279637Y-62585241D01*
X51079759Y-62385363D01*
X50844727Y-62228320D01*
X50583574Y-62120147D01*
X50306335Y-62065000D01*
X50023665Y-62065000D01*
X49746426Y-62120147D01*
X49485273Y-62228320D01*
X49250241Y-62385363D01*
X49050363Y-62585241D01*
X48893320Y-62820273D01*
X48785147Y-63081426D01*
X48730000Y-63358665D01*
X48730000Y-63641335D01*
X48785147Y-63918574D01*
X48893320Y-64179727D01*
X49050363Y-64414759D01*
X49250241Y-64614637D01*
X49482759Y-64770000D01*
X49250241Y-64925363D01*
X49050363Y-65125241D01*
X48893320Y-65360273D01*
X48785147Y-65621426D01*
X48730000Y-65898665D01*
X48730000Y-66181335D01*
X48785147Y-66458574D01*
X48893320Y-66719727D01*
X49050363Y-66954759D01*
X49250241Y-67154637D01*
X49482759Y-67310000D01*
X49250241Y-67465363D01*
X49050363Y-67665241D01*
X48893320Y-67900273D01*
X48785147Y-68161426D01*
X48730000Y-68438665D01*
X48730000Y-68721335D01*
X48785147Y-68998574D01*
X48893320Y-69259727D01*
X49050363Y-69494759D01*
X49250241Y-69694637D01*
X49482759Y-69850000D01*
X49250241Y-70005363D01*
X49050363Y-70205241D01*
X48893320Y-70440273D01*
X48785147Y-70701426D01*
X48730000Y-70978665D01*
X48730000Y-71261335D01*
X48785147Y-71538574D01*
X48893320Y-71799727D01*
X49050363Y-72034759D01*
X49250241Y-72234637D01*
X49485273Y-72391680D01*
X49746426Y-72499853D01*
X50023665Y-72555000D01*
X50306335Y-72555000D01*
X50583574Y-72499853D01*
X50844727Y-72391680D01*
X50931000Y-72334034D01*
X50931000Y-74911451D01*
X50710574Y-74820147D01*
X50433335Y-74765000D01*
X50150665Y-74765000D01*
X49873426Y-74820147D01*
X49612273Y-74928320D01*
X49377241Y-75085363D01*
X49177363Y-75285241D01*
X49020320Y-75520273D01*
X48912147Y-75781426D01*
X48857000Y-76058665D01*
X48857000Y-76341335D01*
X48912147Y-76618574D01*
X49020320Y-76879727D01*
X49177363Y-77114759D01*
X49377241Y-77314637D01*
X49609759Y-77470000D01*
X49377241Y-77625363D01*
X49177363Y-77825241D01*
X49020320Y-78060273D01*
X48912147Y-78321426D01*
X48857000Y-78598665D01*
X48857000Y-78881335D01*
X48912147Y-79158574D01*
X49020320Y-79419727D01*
X49177363Y-79654759D01*
X49377241Y-79854637D01*
X49609759Y-80010000D01*
X49377241Y-80165363D01*
X49177363Y-80365241D01*
X49020320Y-80600273D01*
X48912147Y-80861426D01*
X48857000Y-81138665D01*
X48857000Y-81421335D01*
X48912147Y-81698574D01*
X49020320Y-81959727D01*
X49177363Y-82194759D01*
X49377241Y-82394637D01*
X49609759Y-82550000D01*
X49377241Y-82705363D01*
X49177363Y-82905241D01*
X49020320Y-83140273D01*
X48912147Y-83401426D01*
X48857000Y-83678665D01*
X48857000Y-83961335D01*
X48912147Y-84238574D01*
X49020320Y-84499727D01*
X49177363Y-84734759D01*
X49377241Y-84934637D01*
X49612273Y-85091680D01*
X49873426Y-85199853D01*
X50150665Y-85255000D01*
X50433335Y-85255000D01*
X50710574Y-85199853D01*
X50931000Y-85108550D01*
X50931000Y-87611451D01*
X50710574Y-87520147D01*
X50433335Y-87465000D01*
X50150665Y-87465000D01*
X49873426Y-87520147D01*
X49612273Y-87628320D01*
X49377241Y-87785363D01*
X49177363Y-87985241D01*
X49020320Y-88220273D01*
X48912147Y-88481426D01*
X48857000Y-88758665D01*
X48857000Y-89041335D01*
X48912147Y-89318574D01*
X49020320Y-89579727D01*
X49177363Y-89814759D01*
X49377241Y-90014637D01*
X49609759Y-90170000D01*
X49377241Y-90325363D01*
X49177363Y-90525241D01*
X49020320Y-90760273D01*
X48912147Y-91021426D01*
X48857000Y-91298665D01*
X48857000Y-91581335D01*
X48912147Y-91858574D01*
X49020320Y-92119727D01*
X49177363Y-92354759D01*
X49377241Y-92554637D01*
X49609759Y-92710000D01*
X49377241Y-92865363D01*
X49177363Y-93065241D01*
X49020320Y-93300273D01*
X48912147Y-93561426D01*
X48857000Y-93838665D01*
X48857000Y-94121335D01*
X48912147Y-94398574D01*
X49020320Y-94659727D01*
X49177363Y-94894759D01*
X49377241Y-95094637D01*
X49609759Y-95250000D01*
X49377241Y-95405363D01*
X49177363Y-95605241D01*
X49020320Y-95840273D01*
X48912147Y-96101426D01*
X48857000Y-96378665D01*
X48857000Y-96661335D01*
X48912147Y-96938574D01*
X49020320Y-97199727D01*
X49177363Y-97434759D01*
X49377241Y-97634637D01*
X49612273Y-97791680D01*
X49873426Y-97899853D01*
X50150665Y-97955000D01*
X50433335Y-97955000D01*
X50710574Y-97899853D01*
X50931000Y-97808550D01*
X50931001Y-100311451D01*
X50710574Y-100220147D01*
X50433335Y-100165000D01*
X50150665Y-100165000D01*
X49873426Y-100220147D01*
X49612273Y-100328320D01*
X49377241Y-100485363D01*
X49177363Y-100685241D01*
X49020320Y-100920273D01*
X48912147Y-101181426D01*
X48857000Y-101458665D01*
X48857000Y-101741335D01*
X48912147Y-102018574D01*
X49020320Y-102279727D01*
X49177363Y-102514759D01*
X49377241Y-102714637D01*
X49609759Y-102870000D01*
X49377241Y-103025363D01*
X49177363Y-103225241D01*
X49020320Y-103460273D01*
X48912147Y-103721426D01*
X48857000Y-103998665D01*
X48857000Y-104281335D01*
X48912147Y-104558574D01*
X49020320Y-104819727D01*
X49177363Y-105054759D01*
X49377241Y-105254637D01*
X49609759Y-105410000D01*
X49377241Y-105565363D01*
X49177363Y-105765241D01*
X49020320Y-106000273D01*
X48912147Y-106261426D01*
X48857000Y-106538665D01*
X48857000Y-106821335D01*
X48912147Y-107098574D01*
X49020320Y-107359727D01*
X49177363Y-107594759D01*
X49377241Y-107794637D01*
X49609759Y-107950000D01*
X49377241Y-108105363D01*
X49177363Y-108305241D01*
X49020320Y-108540273D01*
X48912147Y-108801426D01*
X48857000Y-109078665D01*
X48857000Y-109361335D01*
X48912147Y-109638574D01*
X49020320Y-109899727D01*
X49177363Y-110134759D01*
X49377241Y-110334637D01*
X49612273Y-110491680D01*
X49873426Y-110599853D01*
X50150665Y-110655000D01*
X50433335Y-110655000D01*
X50710574Y-110599853D01*
X50931000Y-110508550D01*
X50931000Y-113011450D01*
X50710574Y-112920147D01*
X50433335Y-112865000D01*
X50150665Y-112865000D01*
X49873426Y-112920147D01*
X49612273Y-113028320D01*
X49377241Y-113185363D01*
X49177363Y-113385241D01*
X49020320Y-113620273D01*
X48912147Y-113881426D01*
X48857000Y-114158665D01*
X48857000Y-114441335D01*
X48912147Y-114718574D01*
X49020320Y-114979727D01*
X49177363Y-115214759D01*
X49377241Y-115414637D01*
X49609759Y-115570000D01*
X49377241Y-115725363D01*
X49177363Y-115925241D01*
X49020320Y-116160273D01*
X48912147Y-116421426D01*
X48857000Y-116698665D01*
X48857000Y-116981335D01*
X48912147Y-117258574D01*
X49020320Y-117519727D01*
X49177363Y-117754759D01*
X49377241Y-117954637D01*
X49609759Y-118110000D01*
X49377241Y-118265363D01*
X49177363Y-118465241D01*
X49020320Y-118700273D01*
X48912147Y-118961426D01*
X48857000Y-119238665D01*
X48857000Y-119521335D01*
X48912147Y-119798574D01*
X49020320Y-120059727D01*
X49177363Y-120294759D01*
X49377241Y-120494637D01*
X49609759Y-120650000D01*
X49377241Y-120805363D01*
X49177363Y-121005241D01*
X49020320Y-121240273D01*
X48912147Y-121501426D01*
X48857000Y-121778665D01*
X48857000Y-122061335D01*
X48912147Y-122338574D01*
X49020320Y-122599727D01*
X49177363Y-122834759D01*
X49377241Y-123034637D01*
X49609759Y-123190000D01*
X49377241Y-123345363D01*
X49177363Y-123545241D01*
X49020320Y-123780273D01*
X48912147Y-124041426D01*
X48857000Y-124318665D01*
X48857000Y-124601335D01*
X48912147Y-124878574D01*
X49020320Y-125139727D01*
X49177363Y-125374759D01*
X49377241Y-125574637D01*
X49609759Y-125730000D01*
X49377241Y-125885363D01*
X49177363Y-126085241D01*
X49020320Y-126320273D01*
X48912147Y-126581426D01*
X48857000Y-126858665D01*
X48857000Y-127141335D01*
X48912147Y-127418574D01*
X49020320Y-127679727D01*
X49177363Y-127914759D01*
X49377241Y-128114637D01*
X49609759Y-128270000D01*
X49377241Y-128425363D01*
X49177363Y-128625241D01*
X49020320Y-128860273D01*
X48912147Y-129121426D01*
X48857000Y-129398665D01*
X48857000Y-129681335D01*
X48912147Y-129958574D01*
X49020320Y-130219727D01*
X49177363Y-130454759D01*
X49377241Y-130654637D01*
X49609759Y-130810000D01*
X49377241Y-130965363D01*
X49177363Y-131165241D01*
X49020320Y-131400273D01*
X48912147Y-131661426D01*
X48857000Y-131938665D01*
X48857000Y-132221335D01*
X48912147Y-132498574D01*
X49020320Y-132759727D01*
X49177363Y-132994759D01*
X49377241Y-133194637D01*
X49612273Y-133351680D01*
X49873426Y-133459853D01*
X50150665Y-133515000D01*
X50433335Y-133515000D01*
X50710574Y-133459853D01*
X50931001Y-133368549D01*
X50931001Y-145959000D01*
X49403366Y-145959000D01*
X49263238Y-145844000D01*
X49412502Y-145721502D01*
X49566833Y-145533449D01*
X49681511Y-145318901D01*
X49752130Y-145086102D01*
X49775975Y-144844000D01*
X49752130Y-144601898D01*
X49681511Y-144369099D01*
X49566833Y-144154551D01*
X49412502Y-143966498D01*
X49263238Y-143844000D01*
X49412502Y-143721502D01*
X49566833Y-143533449D01*
X49681511Y-143318901D01*
X49752130Y-143086102D01*
X49775975Y-142844000D01*
X49752130Y-142601898D01*
X49681511Y-142369099D01*
X49566833Y-142154551D01*
X49412502Y-141966498D01*
X49263238Y-141844000D01*
X49412502Y-141721502D01*
X49566833Y-141533449D01*
X49681511Y-141318901D01*
X49752130Y-141086102D01*
X49775975Y-140844000D01*
X49752130Y-140601898D01*
X49681511Y-140369099D01*
X49566833Y-140154551D01*
X49412502Y-139966498D01*
X49263238Y-139844000D01*
X49412502Y-139721502D01*
X49566833Y-139533449D01*
X49681511Y-139318901D01*
X49752130Y-139086102D01*
X49775975Y-138844000D01*
X49752130Y-138601898D01*
X49681511Y-138369099D01*
X49566833Y-138154551D01*
X49412502Y-137966498D01*
X49262652Y-137843519D01*
X49326725Y-137800307D01*
X49498078Y-137627474D01*
X49632421Y-137424533D01*
X49724591Y-137199282D01*
X49728462Y-137161609D01*
X49603731Y-136971000D01*
X48387000Y-136971000D01*
X48387000Y-136991000D01*
X48133000Y-136991000D01*
X48133000Y-136971000D01*
X46916269Y-136971000D01*
X46791538Y-137161609D01*
X46795409Y-137199282D01*
X46887579Y-137424533D01*
X47021922Y-137627474D01*
X47193275Y-137800307D01*
X47257348Y-137843519D01*
X47107498Y-137966498D01*
X46953167Y-138154551D01*
X46838489Y-138369099D01*
X46767870Y-138601898D01*
X46744025Y-138844000D01*
X46767870Y-139086102D01*
X46838489Y-139318901D01*
X46953167Y-139533449D01*
X47107498Y-139721502D01*
X47256762Y-139844000D01*
X47107498Y-139966498D01*
X46953167Y-140154551D01*
X46838489Y-140369099D01*
X46767870Y-140601898D01*
X46744025Y-140844000D01*
X46767870Y-141086102D01*
X46838489Y-141318901D01*
X46953167Y-141533449D01*
X47107498Y-141721502D01*
X47256762Y-141844000D01*
X47116634Y-141959000D01*
X42033000Y-141959000D01*
X42033000Y-136526391D01*
X46791538Y-136526391D01*
X46916269Y-136717000D01*
X48133000Y-136717000D01*
X48133000Y-135609000D01*
X48387000Y-135609000D01*
X48387000Y-136717000D01*
X49603731Y-136717000D01*
X49728462Y-136526391D01*
X49724591Y-136488718D01*
X49632421Y-136263467D01*
X49498078Y-136060526D01*
X49326725Y-135887693D01*
X49124946Y-135751610D01*
X48900496Y-135657507D01*
X48662000Y-135609000D01*
X48387000Y-135609000D01*
X48133000Y-135609000D01*
X47858000Y-135609000D01*
X47619504Y-135657507D01*
X47395054Y-135751610D01*
X47193275Y-135887693D01*
X47021922Y-136060526D01*
X46887579Y-136263467D01*
X46795409Y-136488718D01*
X46791538Y-136526391D01*
X42033000Y-136526391D01*
X42033000Y-133362005D01*
X42058119Y-133377070D01*
X42322960Y-133471909D01*
X42545000Y-133350624D01*
X42545000Y-132207000D01*
X42799000Y-132207000D01*
X42799000Y-133350624D01*
X43021040Y-133471909D01*
X43285881Y-133377070D01*
X43527131Y-133232385D01*
X43735519Y-133043414D01*
X43903037Y-132817420D01*
X44023246Y-132563087D01*
X44063904Y-132429039D01*
X43941915Y-132207000D01*
X42799000Y-132207000D01*
X42545000Y-132207000D01*
X42525000Y-132207000D01*
X42525000Y-131953000D01*
X42545000Y-131953000D01*
X42545000Y-131933000D01*
X42799000Y-131933000D01*
X42799000Y-131953000D01*
X43941915Y-131953000D01*
X44063904Y-131730961D01*
X44023246Y-131596913D01*
X43903037Y-131342580D01*
X43735519Y-131116586D01*
X43527131Y-130927615D01*
X43341135Y-130816067D01*
X43351727Y-130811680D01*
X43586759Y-130654637D01*
X43786637Y-130454759D01*
X43943680Y-130219727D01*
X44051853Y-129958574D01*
X44107000Y-129681335D01*
X44107000Y-129398665D01*
X44051853Y-129121426D01*
X43943680Y-128860273D01*
X43786637Y-128625241D01*
X43586759Y-128425363D01*
X43354241Y-128270000D01*
X43586759Y-128114637D01*
X43786637Y-127914759D01*
X43943680Y-127679727D01*
X44051853Y-127418574D01*
X44107000Y-127141335D01*
X44107000Y-126858665D01*
X44051853Y-126581426D01*
X43943680Y-126320273D01*
X43786637Y-126085241D01*
X43586759Y-125885363D01*
X43351727Y-125728320D01*
X43341135Y-125723933D01*
X43527131Y-125612385D01*
X43735519Y-125423414D01*
X43903037Y-125197420D01*
X44023246Y-124943087D01*
X44063904Y-124809039D01*
X43941915Y-124587000D01*
X42799000Y-124587000D01*
X42799000Y-124607000D01*
X42545000Y-124607000D01*
X42545000Y-124587000D01*
X42525000Y-124587000D01*
X42525000Y-124333000D01*
X42545000Y-124333000D01*
X42545000Y-122047000D01*
X42799000Y-122047000D01*
X42799000Y-124333000D01*
X43941915Y-124333000D01*
X44063904Y-124110961D01*
X44023246Y-123976913D01*
X43903037Y-123722580D01*
X43735519Y-123496586D01*
X43527131Y-123307615D01*
X43331018Y-123190000D01*
X43527131Y-123072385D01*
X43735519Y-122883414D01*
X43903037Y-122657420D01*
X44023246Y-122403087D01*
X44063904Y-122269039D01*
X43941915Y-122047000D01*
X42799000Y-122047000D01*
X42545000Y-122047000D01*
X42525000Y-122047000D01*
X42525000Y-121793000D01*
X42545000Y-121793000D01*
X42545000Y-119507000D01*
X42799000Y-119507000D01*
X42799000Y-121793000D01*
X43941915Y-121793000D01*
X44063904Y-121570961D01*
X44023246Y-121436913D01*
X43903037Y-121182580D01*
X43735519Y-120956586D01*
X43527131Y-120767615D01*
X43331018Y-120650000D01*
X43527131Y-120532385D01*
X43735519Y-120343414D01*
X43903037Y-120117420D01*
X44023246Y-119863087D01*
X44063904Y-119729039D01*
X43941915Y-119507000D01*
X42799000Y-119507000D01*
X42545000Y-119507000D01*
X42525000Y-119507000D01*
X42525000Y-119253000D01*
X42545000Y-119253000D01*
X42545000Y-119233000D01*
X42799000Y-119233000D01*
X42799000Y-119253000D01*
X43941915Y-119253000D01*
X44063904Y-119030961D01*
X44023246Y-118896913D01*
X43903037Y-118642580D01*
X43735519Y-118416586D01*
X43527131Y-118227615D01*
X43341135Y-118116067D01*
X43351727Y-118111680D01*
X43586759Y-117954637D01*
X43786637Y-117754759D01*
X43943680Y-117519727D01*
X44051853Y-117258574D01*
X44107000Y-116981335D01*
X44107000Y-116698665D01*
X44051853Y-116421426D01*
X43943680Y-116160273D01*
X43786637Y-115925241D01*
X43588039Y-115726643D01*
X43596482Y-115725812D01*
X43716180Y-115689502D01*
X43826494Y-115630537D01*
X43923185Y-115551185D01*
X44002537Y-115454494D01*
X44061502Y-115344180D01*
X44097812Y-115224482D01*
X44110072Y-115100000D01*
X44110072Y-113500000D01*
X44097812Y-113375518D01*
X44061502Y-113255820D01*
X44002537Y-113145506D01*
X43923185Y-113048815D01*
X43826494Y-112969463D01*
X43716180Y-112910498D01*
X43596482Y-112874188D01*
X43472000Y-112861928D01*
X42033000Y-112861928D01*
X42033000Y-110502005D01*
X42058119Y-110517070D01*
X42322960Y-110611909D01*
X42545000Y-110490624D01*
X42545000Y-109347000D01*
X42799000Y-109347000D01*
X42799000Y-110490624D01*
X43021040Y-110611909D01*
X43285881Y-110517070D01*
X43527131Y-110372385D01*
X43735519Y-110183414D01*
X43903037Y-109957420D01*
X44023246Y-109703087D01*
X44063904Y-109569039D01*
X43941915Y-109347000D01*
X42799000Y-109347000D01*
X42545000Y-109347000D01*
X42525000Y-109347000D01*
X42525000Y-109093000D01*
X42545000Y-109093000D01*
X42545000Y-109073000D01*
X42799000Y-109073000D01*
X42799000Y-109093000D01*
X43941915Y-109093000D01*
X44063904Y-108870961D01*
X44023246Y-108736913D01*
X43903037Y-108482580D01*
X43735519Y-108256586D01*
X43527131Y-108067615D01*
X43341135Y-107956067D01*
X43351727Y-107951680D01*
X43586759Y-107794637D01*
X43786637Y-107594759D01*
X43943680Y-107359727D01*
X44051853Y-107098574D01*
X44107000Y-106821335D01*
X44107000Y-106538665D01*
X44051853Y-106261426D01*
X43943680Y-106000273D01*
X43786637Y-105765241D01*
X43586759Y-105565363D01*
X43354241Y-105410000D01*
X43586759Y-105254637D01*
X43786637Y-105054759D01*
X43943680Y-104819727D01*
X44051853Y-104558574D01*
X44107000Y-104281335D01*
X44107000Y-103998665D01*
X44051853Y-103721426D01*
X43943680Y-103460273D01*
X43786637Y-103225241D01*
X43588039Y-103026643D01*
X43596482Y-103025812D01*
X43716180Y-102989502D01*
X43826494Y-102930537D01*
X43923185Y-102851185D01*
X44002537Y-102754494D01*
X44061502Y-102644180D01*
X44097812Y-102524482D01*
X44110072Y-102400000D01*
X44110072Y-100800000D01*
X44097812Y-100675518D01*
X44061502Y-100555820D01*
X44002537Y-100445506D01*
X43923185Y-100348815D01*
X43826494Y-100269463D01*
X43716180Y-100210498D01*
X43596482Y-100174188D01*
X43472000Y-100161928D01*
X42033000Y-100161928D01*
X42033000Y-97802005D01*
X42058119Y-97817070D01*
X42322960Y-97911909D01*
X42545000Y-97790624D01*
X42545000Y-96647000D01*
X42799000Y-96647000D01*
X42799000Y-97790624D01*
X43021040Y-97911909D01*
X43285881Y-97817070D01*
X43527131Y-97672385D01*
X43735519Y-97483414D01*
X43903037Y-97257420D01*
X44023246Y-97003087D01*
X44063904Y-96869039D01*
X43941915Y-96647000D01*
X42799000Y-96647000D01*
X42545000Y-96647000D01*
X42525000Y-96647000D01*
X42525000Y-96393000D01*
X42545000Y-96393000D01*
X42545000Y-96373000D01*
X42799000Y-96373000D01*
X42799000Y-96393000D01*
X43941915Y-96393000D01*
X44063904Y-96170961D01*
X44023246Y-96036913D01*
X43903037Y-95782580D01*
X43735519Y-95556586D01*
X43527131Y-95367615D01*
X43341135Y-95256067D01*
X43351727Y-95251680D01*
X43586759Y-95094637D01*
X43786637Y-94894759D01*
X43943680Y-94659727D01*
X44051853Y-94398574D01*
X44107000Y-94121335D01*
X44107000Y-93838665D01*
X44051853Y-93561426D01*
X43943680Y-93300273D01*
X43786637Y-93065241D01*
X43586759Y-92865363D01*
X43354241Y-92710000D01*
X43586759Y-92554637D01*
X43786637Y-92354759D01*
X43943680Y-92119727D01*
X44051853Y-91858574D01*
X44107000Y-91581335D01*
X44107000Y-91298665D01*
X44051853Y-91021426D01*
X43943680Y-90760273D01*
X43786637Y-90525241D01*
X43588039Y-90326643D01*
X43596482Y-90325812D01*
X43716180Y-90289502D01*
X43826494Y-90230537D01*
X43923185Y-90151185D01*
X44002537Y-90054494D01*
X44061502Y-89944180D01*
X44097812Y-89824482D01*
X44110072Y-89700000D01*
X44110072Y-88100000D01*
X44097812Y-87975518D01*
X44061502Y-87855820D01*
X44002537Y-87745506D01*
X43923185Y-87648815D01*
X43826494Y-87569463D01*
X43716180Y-87510498D01*
X43596482Y-87474188D01*
X43472000Y-87461928D01*
X42033000Y-87461928D01*
X42033000Y-85102005D01*
X42058119Y-85117070D01*
X42322960Y-85211909D01*
X42545000Y-85090624D01*
X42545000Y-83947000D01*
X42799000Y-83947000D01*
X42799000Y-85090624D01*
X43021040Y-85211909D01*
X43285881Y-85117070D01*
X43527131Y-84972385D01*
X43735519Y-84783414D01*
X43903037Y-84557420D01*
X44023246Y-84303087D01*
X44063904Y-84169039D01*
X43941915Y-83947000D01*
X42799000Y-83947000D01*
X42545000Y-83947000D01*
X42525000Y-83947000D01*
X42525000Y-83693000D01*
X42545000Y-83693000D01*
X42545000Y-83673000D01*
X42799000Y-83673000D01*
X42799000Y-83693000D01*
X43941915Y-83693000D01*
X44063904Y-83470961D01*
X44023246Y-83336913D01*
X43903037Y-83082580D01*
X43735519Y-82856586D01*
X43527131Y-82667615D01*
X43341135Y-82556067D01*
X43351727Y-82551680D01*
X43586759Y-82394637D01*
X43786637Y-82194759D01*
X43943680Y-81959727D01*
X44051853Y-81698574D01*
X44107000Y-81421335D01*
X44107000Y-81138665D01*
X44051853Y-80861426D01*
X43943680Y-80600273D01*
X43786637Y-80365241D01*
X43586759Y-80165363D01*
X43354241Y-80010000D01*
X43586759Y-79854637D01*
X43786637Y-79654759D01*
X43943680Y-79419727D01*
X44051853Y-79158574D01*
X44107000Y-78881335D01*
X44107000Y-78598665D01*
X44051853Y-78321426D01*
X43943680Y-78060273D01*
X43786637Y-77825241D01*
X43588039Y-77626643D01*
X43596482Y-77625812D01*
X43716180Y-77589502D01*
X43826494Y-77530537D01*
X43923185Y-77451185D01*
X44002537Y-77354494D01*
X44061502Y-77244180D01*
X44097812Y-77124482D01*
X44110072Y-77000000D01*
X44110072Y-75400000D01*
X44097812Y-75275518D01*
X44061502Y-75155820D01*
X44002537Y-75045506D01*
X43923185Y-74948815D01*
X43826494Y-74869463D01*
X43716180Y-74810498D01*
X43596482Y-74774188D01*
X43472000Y-74761928D01*
X42033000Y-74761928D01*
X42033000Y-72453553D01*
X42195960Y-72511909D01*
X42418000Y-72390624D01*
X42418000Y-71247000D01*
X42672000Y-71247000D01*
X42672000Y-72390624D01*
X42894040Y-72511909D01*
X43158881Y-72417070D01*
X43400131Y-72272385D01*
X43608519Y-72083414D01*
X43776037Y-71857420D01*
X43896246Y-71603087D01*
X43936904Y-71469039D01*
X43814915Y-71247000D01*
X42672000Y-71247000D01*
X42418000Y-71247000D01*
X42398000Y-71247000D01*
X42398000Y-70993000D01*
X42418000Y-70993000D01*
X42418000Y-70973000D01*
X42672000Y-70973000D01*
X42672000Y-70993000D01*
X43814915Y-70993000D01*
X43936904Y-70770961D01*
X43896246Y-70636913D01*
X43776037Y-70382580D01*
X43608519Y-70156586D01*
X43400131Y-69967615D01*
X43214135Y-69856067D01*
X43224727Y-69851680D01*
X43459759Y-69694637D01*
X43659637Y-69494759D01*
X43816680Y-69259727D01*
X43924853Y-68998574D01*
X43980000Y-68721335D01*
X43980000Y-68438665D01*
X43924853Y-68161426D01*
X43816680Y-67900273D01*
X43659637Y-67665241D01*
X43459759Y-67465363D01*
X43227241Y-67310000D01*
X43459759Y-67154637D01*
X43659637Y-66954759D01*
X43816680Y-66719727D01*
X43924853Y-66458574D01*
X43980000Y-66181335D01*
X43980000Y-65898665D01*
X43924853Y-65621426D01*
X43816680Y-65360273D01*
X43659637Y-65125241D01*
X43461039Y-64926643D01*
X43469482Y-64925812D01*
X43589180Y-64889502D01*
X43699494Y-64830537D01*
X43796185Y-64751185D01*
X43875537Y-64654494D01*
X43934502Y-64544180D01*
X43970812Y-64424482D01*
X43983072Y-64300000D01*
X43983072Y-62700000D01*
X43970812Y-62575518D01*
X43934502Y-62455820D01*
X43875537Y-62345506D01*
X43796185Y-62248815D01*
X43699494Y-62169463D01*
X43589180Y-62110498D01*
X43469482Y-62074188D01*
X43345000Y-62061928D01*
X41745000Y-62061928D01*
X41620518Y-62074188D01*
X41500820Y-62110498D01*
X41390506Y-62169463D01*
X41293815Y-62248815D01*
X41214463Y-62345506D01*
X41155498Y-62455820D01*
X41119188Y-62575518D01*
X41106928Y-62700000D01*
X41106928Y-64300000D01*
X41119188Y-64424482D01*
X41155498Y-64544180D01*
X41214463Y-64654494D01*
X41293815Y-64751185D01*
X41390506Y-64830537D01*
X41500820Y-64889502D01*
X41620518Y-64925812D01*
X41628961Y-64926643D01*
X41430363Y-65125241D01*
X41410479Y-65155000D01*
X41191476Y-65155000D01*
X41148000Y-65150718D01*
X41104523Y-65155000D01*
X40974510Y-65167805D01*
X40807687Y-65218411D01*
X40653941Y-65300589D01*
X40519183Y-65411183D01*
X40408589Y-65545941D01*
X40326411Y-65699687D01*
X40275805Y-65866510D01*
X40258718Y-66040000D01*
X40263000Y-66083477D01*
X40263000Y-69842446D01*
X40107087Y-69768754D01*
X39973039Y-69728096D01*
X39751000Y-69850085D01*
X39751000Y-70993000D01*
X39771000Y-70993000D01*
X39771000Y-71247000D01*
X39751000Y-71247000D01*
X39751000Y-72389915D01*
X39973039Y-72511904D01*
X40107087Y-72471246D01*
X40263001Y-72397554D01*
X40263001Y-74911451D01*
X40042574Y-74820147D01*
X39765335Y-74765000D01*
X39482665Y-74765000D01*
X39205426Y-74820147D01*
X38944273Y-74928320D01*
X38709241Y-75085363D01*
X38509363Y-75285241D01*
X38352320Y-75520273D01*
X38244147Y-75781426D01*
X38189000Y-76058665D01*
X37719000Y-76058665D01*
X37719000Y-71469040D01*
X38232091Y-71469040D01*
X38326930Y-71733881D01*
X38471615Y-71975131D01*
X38660586Y-72183519D01*
X38886580Y-72351037D01*
X39140913Y-72471246D01*
X39274961Y-72511904D01*
X39497000Y-72389915D01*
X39497000Y-71247000D01*
X38353376Y-71247000D01*
X38232091Y-71469040D01*
X37719000Y-71469040D01*
X37719000Y-70770960D01*
X38232091Y-70770960D01*
X38353376Y-70993000D01*
X39497000Y-70993000D01*
X39497000Y-69850085D01*
X39274961Y-69728096D01*
X39140913Y-69768754D01*
X38886580Y-69888963D01*
X38660586Y-70056481D01*
X38471615Y-70264869D01*
X38326930Y-70506119D01*
X38232091Y-70770960D01*
X37719000Y-70770960D01*
X37719000Y-63358665D01*
X38189000Y-63358665D01*
X38189000Y-63641335D01*
X38244147Y-63918574D01*
X38352320Y-64179727D01*
X38509363Y-64414759D01*
X38709241Y-64614637D01*
X38944273Y-64771680D01*
X39205426Y-64879853D01*
X39482665Y-64935000D01*
X39765335Y-64935000D01*
X40042574Y-64879853D01*
X40303727Y-64771680D01*
X40538759Y-64614637D01*
X40738637Y-64414759D01*
X40895680Y-64179727D01*
X41003853Y-63918574D01*
X41059000Y-63641335D01*
X41059000Y-63358665D01*
X41003853Y-63081426D01*
X40895680Y-62820273D01*
X40738637Y-62585241D01*
X40538759Y-62385363D01*
X40303727Y-62228320D01*
X40042574Y-62120147D01*
X39765335Y-62065000D01*
X39482665Y-62065000D01*
X39205426Y-62120147D01*
X38944273Y-62228320D01*
X38709241Y-62385363D01*
X38509363Y-62585241D01*
X38352320Y-62820273D01*
X38244147Y-63081426D01*
X38189000Y-63358665D01*
X37719000Y-63358665D01*
X37719000Y-60071000D01*
X55245000Y-60071000D01*
X55245000Y-152273000D01*
G37*
X55245000Y-152273000D02*
X37719000Y-152273000D01*
X37719000Y-149110000D01*
X39984928Y-149110000D01*
X39984928Y-150610000D01*
X39997188Y-150734482D01*
X40033498Y-150854180D01*
X40092463Y-150964494D01*
X40171815Y-151061185D01*
X40268506Y-151140537D01*
X40378820Y-151199502D01*
X40498518Y-151235812D01*
X40623000Y-151248072D01*
X41673000Y-151248072D01*
X41797482Y-151235812D01*
X41917180Y-151199502D01*
X41982057Y-151164824D01*
X42050663Y-151195272D01*
X42112190Y-151203964D01*
X42291000Y-151078163D01*
X42291000Y-150760235D01*
X42298812Y-150734482D01*
X42311072Y-150610000D01*
X42311072Y-149578022D01*
X42528000Y-149578022D01*
X42528000Y-150141979D01*
X42544785Y-150312400D01*
X42545000Y-150313109D01*
X42545000Y-151078163D01*
X42723810Y-151203964D01*
X42785337Y-151195272D01*
X42994882Y-151102275D01*
X43053331Y-151061071D01*
X43241941Y-151161885D01*
X43460601Y-151228215D01*
X43688000Y-151250612D01*
X43915400Y-151228215D01*
X44134060Y-151161885D01*
X44335579Y-151054171D01*
X44512212Y-150909212D01*
X44657171Y-150732579D01*
X44764885Y-150531059D01*
X44831215Y-150312399D01*
X44839659Y-150226665D01*
X51905000Y-150226665D01*
X51905000Y-150509335D01*
X51960147Y-150786574D01*
X52068320Y-151047727D01*
X52225363Y-151282759D01*
X52425241Y-151482637D01*
X52660273Y-151639680D01*
X52921426Y-151747853D01*
X53198665Y-151803000D01*
X53481335Y-151803000D01*
X53758574Y-151747853D01*
X54019727Y-151639680D01*
X54254759Y-151482637D01*
X54454637Y-151282759D01*
X54611680Y-151047727D01*
X54719853Y-150786574D01*
X54775000Y-150509335D01*
X54775000Y-150226665D01*
X54719853Y-149949426D01*
X54611680Y-149688273D01*
X54454637Y-149453241D01*
X54254759Y-149253363D01*
X54054131Y-149119308D01*
X54081514Y-149104671D01*
X54153097Y-148860702D01*
X53340000Y-148047605D01*
X52526903Y-148860702D01*
X52598486Y-149104671D01*
X52627341Y-149118324D01*
X52425241Y-149253363D01*
X52225363Y-149453241D01*
X52068320Y-149688273D01*
X51960147Y-149949426D01*
X51905000Y-150226665D01*
X44839659Y-150226665D01*
X44848000Y-150141978D01*
X44848000Y-149578021D01*
X44831215Y-149407600D01*
X44764885Y-149188940D01*
X44657171Y-148987421D01*
X44512212Y-148810788D01*
X44335578Y-148665829D01*
X44134059Y-148558115D01*
X43915399Y-148491785D01*
X43688000Y-148469388D01*
X43460600Y-148491785D01*
X43241940Y-148558115D01*
X43053331Y-148658929D01*
X42994882Y-148617725D01*
X42785337Y-148524728D01*
X42723810Y-148516036D01*
X42545000Y-148641837D01*
X42545000Y-149406892D01*
X42544785Y-149407601D01*
X42528000Y-149578022D01*
X42311072Y-149578022D01*
X42311072Y-149110000D01*
X42298812Y-148985518D01*
X42291000Y-148959765D01*
X42291000Y-148641837D01*
X42112190Y-148516036D01*
X42050663Y-148524728D01*
X41982057Y-148555176D01*
X41917180Y-148520498D01*
X41797482Y-148484188D01*
X41673000Y-148471928D01*
X40623000Y-148471928D01*
X40498518Y-148484188D01*
X40378820Y-148520498D01*
X40268506Y-148579463D01*
X40171815Y-148658815D01*
X40092463Y-148755506D01*
X40033498Y-148865820D01*
X39997188Y-148985518D01*
X39984928Y-149110000D01*
X37719000Y-149110000D01*
X37719000Y-145146665D01*
X39713000Y-145146665D01*
X39713000Y-145429335D01*
X39768147Y-145706574D01*
X39876320Y-145967727D01*
X40033363Y-146202759D01*
X40233241Y-146402637D01*
X40468273Y-146559680D01*
X40729426Y-146667853D01*
X41006665Y-146723000D01*
X41289335Y-146723000D01*
X41566574Y-146667853D01*
X41827727Y-146559680D01*
X42062759Y-146402637D01*
X42184694Y-146280702D01*
X42834903Y-146280702D01*
X42906486Y-146524671D01*
X43161996Y-146645571D01*
X43436184Y-146714300D01*
X43718512Y-146728217D01*
X43998130Y-146686787D01*
X44264292Y-146591603D01*
X44389514Y-146524671D01*
X44461097Y-146280702D01*
X43648000Y-145467605D01*
X42834903Y-146280702D01*
X42184694Y-146280702D01*
X42262637Y-146202759D01*
X42396692Y-146002131D01*
X42411329Y-146029514D01*
X42655298Y-146101097D01*
X43468395Y-145288000D01*
X43827605Y-145288000D01*
X44640702Y-146101097D01*
X44884671Y-146029514D01*
X45005571Y-145774004D01*
X45074300Y-145499816D01*
X45088217Y-145217488D01*
X45046787Y-144937870D01*
X44951603Y-144671708D01*
X44884671Y-144546486D01*
X44640702Y-144474903D01*
X43827605Y-145288000D01*
X43468395Y-145288000D01*
X42655298Y-144474903D01*
X42411329Y-144546486D01*
X42397676Y-144575341D01*
X42262637Y-144373241D01*
X42184694Y-144295298D01*
X42834903Y-144295298D01*
X43648000Y-145108395D01*
X44461097Y-144295298D01*
X44389514Y-144051329D01*
X44134004Y-143930429D01*
X43859816Y-143861700D01*
X43577488Y-143847783D01*
X43297870Y-143889213D01*
X43031708Y-143984397D01*
X42906486Y-144051329D01*
X42834903Y-144295298D01*
X42184694Y-144295298D01*
X42062759Y-144173363D01*
X41827727Y-144016320D01*
X41566574Y-143908147D01*
X41289335Y-143853000D01*
X41006665Y-143853000D01*
X40729426Y-143908147D01*
X40468273Y-144016320D01*
X40233241Y-144173363D01*
X40033363Y-144373241D01*
X39876320Y-144608273D01*
X39768147Y-144869426D01*
X39713000Y-145146665D01*
X37719000Y-145146665D01*
X37719000Y-109569040D01*
X38232091Y-109569040D01*
X38326930Y-109833881D01*
X38471615Y-110075131D01*
X38660586Y-110283519D01*
X38886580Y-110451037D01*
X39140913Y-110571246D01*
X39274961Y-110611904D01*
X39497000Y-110489915D01*
X39497000Y-109347000D01*
X38353376Y-109347000D01*
X38232091Y-109569040D01*
X37719000Y-109569040D01*
X37719000Y-108870960D01*
X38232091Y-108870960D01*
X38353376Y-109093000D01*
X39497000Y-109093000D01*
X39497000Y-107950085D01*
X39274961Y-107828096D01*
X39140913Y-107868754D01*
X38886580Y-107988963D01*
X38660586Y-108156481D01*
X38471615Y-108364869D01*
X38326930Y-108606119D01*
X38232091Y-108870960D01*
X37719000Y-108870960D01*
X37719000Y-96869040D01*
X38232091Y-96869040D01*
X38326930Y-97133881D01*
X38471615Y-97375131D01*
X38660586Y-97583519D01*
X38886580Y-97751037D01*
X39140913Y-97871246D01*
X39274961Y-97911904D01*
X39497000Y-97789915D01*
X39497000Y-96647000D01*
X38353376Y-96647000D01*
X38232091Y-96869040D01*
X37719000Y-96869040D01*
X37719000Y-96170960D01*
X38232091Y-96170960D01*
X38353376Y-96393000D01*
X39497000Y-96393000D01*
X39497000Y-95250085D01*
X39274961Y-95128096D01*
X39140913Y-95168754D01*
X38886580Y-95288963D01*
X38660586Y-95456481D01*
X38471615Y-95664869D01*
X38326930Y-95906119D01*
X38232091Y-96170960D01*
X37719000Y-96170960D01*
X37719000Y-84169040D01*
X38232091Y-84169040D01*
X38326930Y-84433881D01*
X38471615Y-84675131D01*
X38660586Y-84883519D01*
X38886580Y-85051037D01*
X39140913Y-85171246D01*
X39274961Y-85211904D01*
X39497000Y-85089915D01*
X39497000Y-83947000D01*
X38353376Y-83947000D01*
X38232091Y-84169040D01*
X37719000Y-84169040D01*
X37719000Y-83470960D01*
X38232091Y-83470960D01*
X38353376Y-83693000D01*
X39497000Y-83693000D01*
X39497000Y-82550085D01*
X39274961Y-82428096D01*
X39140913Y-82468754D01*
X38886580Y-82588963D01*
X38660586Y-82756481D01*
X38471615Y-82964869D01*
X38326930Y-83206119D01*
X38232091Y-83470960D01*
X37719000Y-83470960D01*
X37719000Y-76058665D01*
X38189000Y-76058665D01*
X38189000Y-76341335D01*
X38244147Y-76618574D01*
X38352320Y-76879727D01*
X38509363Y-77114759D01*
X38709241Y-77314637D01*
X38944273Y-77471680D01*
X39205426Y-77579853D01*
X39482665Y-77635000D01*
X39765335Y-77635000D01*
X40042574Y-77579853D01*
X40263001Y-77488549D01*
X40263001Y-78696513D01*
X40258718Y-78740000D01*
X40263000Y-78783477D01*
X40263001Y-82542446D01*
X40107087Y-82468754D01*
X39973039Y-82428096D01*
X39751000Y-82550085D01*
X39751000Y-83693000D01*
X39771000Y-83693000D01*
X39771000Y-83947000D01*
X39751000Y-83947000D01*
X39751000Y-85089915D01*
X39973039Y-85211904D01*
X40107087Y-85171246D01*
X40263000Y-85097555D01*
X40263001Y-87611451D01*
X40042574Y-87520147D01*
X39765335Y-87465000D01*
X39482665Y-87465000D01*
X39205426Y-87520147D01*
X38944273Y-87628320D01*
X38709241Y-87785363D01*
X38509363Y-87985241D01*
X38352320Y-88220273D01*
X38244147Y-88481426D01*
X38189000Y-88758665D01*
X38189000Y-89041335D01*
X38244147Y-89318574D01*
X38352320Y-89579727D01*
X38509363Y-89814759D01*
X38709241Y-90014637D01*
X38944273Y-90171680D01*
X39205426Y-90279853D01*
X39482665Y-90335000D01*
X39765335Y-90335000D01*
X40042574Y-90279853D01*
X40263001Y-90188549D01*
X40263001Y-91396513D01*
X40258718Y-91440000D01*
X40263000Y-91483477D01*
X40263000Y-95242446D01*
X40107087Y-95168754D01*
X39973039Y-95128096D01*
X39751000Y-95250085D01*
X39751000Y-96393000D01*
X39771000Y-96393000D01*
X39771000Y-96647000D01*
X39751000Y-96647000D01*
X39751000Y-97789915D01*
X39973039Y-97911904D01*
X40107087Y-97871246D01*
X40263001Y-97797554D01*
X40263001Y-100311451D01*
X40042574Y-100220147D01*
X39765335Y-100165000D01*
X39482665Y-100165000D01*
X39205426Y-100220147D01*
X38944273Y-100328320D01*
X38709241Y-100485363D01*
X38509363Y-100685241D01*
X38352320Y-100920273D01*
X38244147Y-101181426D01*
X38189000Y-101458665D01*
X38189000Y-101741335D01*
X38244147Y-102018574D01*
X38352320Y-102279727D01*
X38509363Y-102514759D01*
X38709241Y-102714637D01*
X38944273Y-102871680D01*
X39205426Y-102979853D01*
X39482665Y-103035000D01*
X39765335Y-103035000D01*
X40042574Y-102979853D01*
X40263001Y-102888549D01*
X40263001Y-104096513D01*
X40258718Y-104140000D01*
X40263000Y-104183477D01*
X40263000Y-107942445D01*
X40107087Y-107868754D01*
X39973039Y-107828096D01*
X39751000Y-107950085D01*
X39751000Y-109093000D01*
X39771000Y-109093000D01*
X39771000Y-109347000D01*
X39751000Y-109347000D01*
X39751000Y-110489915D01*
X39973039Y-110611904D01*
X40107087Y-110571246D01*
X40263000Y-110497555D01*
X40263001Y-134576514D01*
X40263000Y-134576524D01*
X40263001Y-142704521D01*
X40258719Y-142748000D01*
X40275805Y-142921490D01*
X40326412Y-143088313D01*
X40408590Y-143242059D01*
X40491468Y-143343046D01*
X40491471Y-143343049D01*
X40519184Y-143376817D01*
X40552952Y-143404530D01*
X40587466Y-143439044D01*
X40615183Y-143472817D01*
X40749941Y-143583411D01*
X40903687Y-143665589D01*
X41070510Y-143716195D01*
X41200523Y-143729000D01*
X41200531Y-143729000D01*
X41244000Y-143733281D01*
X41287469Y-143729000D01*
X47116634Y-143729000D01*
X47256762Y-143844000D01*
X47107498Y-143966498D01*
X46953167Y-144154551D01*
X46838489Y-144369099D01*
X46767870Y-144601898D01*
X46744025Y-144844000D01*
X46767870Y-145086102D01*
X46838489Y-145318901D01*
X46953167Y-145533449D01*
X47107498Y-145721502D01*
X47256762Y-145844000D01*
X47107498Y-145966498D01*
X46953167Y-146154551D01*
X46838489Y-146369099D01*
X46767870Y-146601898D01*
X46744025Y-146844000D01*
X46767870Y-147086102D01*
X46838489Y-147318901D01*
X46953167Y-147533449D01*
X47107498Y-147721502D01*
X47146111Y-147753191D01*
X47141613Y-147755595D01*
X47007038Y-147866038D01*
X46896595Y-148000613D01*
X46814528Y-148154149D01*
X46763992Y-148320745D01*
X46746928Y-148493999D01*
X46746928Y-149194001D01*
X46763992Y-149367255D01*
X46814528Y-149533851D01*
X46896595Y-149687387D01*
X47007038Y-149821962D01*
X47141613Y-149932405D01*
X47295149Y-150014472D01*
X47461745Y-150065008D01*
X47634999Y-150082072D01*
X48885001Y-150082072D01*
X49058255Y-150065008D01*
X49224851Y-150014472D01*
X49378387Y-149932405D01*
X49512962Y-149821962D01*
X49623405Y-149687387D01*
X49705472Y-149533851D01*
X49756008Y-149367255D01*
X49773072Y-149194001D01*
X49773072Y-148493999D01*
X49756008Y-148320745D01*
X49705472Y-148154149D01*
X49623405Y-148000613D01*
X49512962Y-147866038D01*
X49378387Y-147755595D01*
X49373889Y-147753191D01*
X49403366Y-147729000D01*
X51740531Y-147729000D01*
X51784000Y-147733281D01*
X51827469Y-147729000D01*
X51827477Y-147729000D01*
X51910514Y-147720822D01*
X51899783Y-147938512D01*
X51941213Y-148218130D01*
X52036397Y-148484292D01*
X52103329Y-148609514D01*
X52347298Y-148681097D01*
X53160395Y-147868000D01*
X53519605Y-147868000D01*
X54332702Y-148681097D01*
X54576671Y-148609514D01*
X54697571Y-148354004D01*
X54766300Y-148079816D01*
X54780217Y-147797488D01*
X54738787Y-147517870D01*
X54643603Y-147251708D01*
X54576671Y-147126486D01*
X54332702Y-147054903D01*
X53519605Y-147868000D01*
X53160395Y-147868000D01*
X53146253Y-147853858D01*
X53325858Y-147674253D01*
X53340000Y-147688395D01*
X54153097Y-146875298D01*
X54081514Y-146631329D01*
X53826004Y-146510429D01*
X53551816Y-146441700D01*
X53269488Y-146427783D01*
X52989870Y-146469213D01*
X52723708Y-146564397D01*
X52701000Y-146576535D01*
X52701000Y-118125178D01*
X52853996Y-118197571D01*
X53128184Y-118266300D01*
X53410512Y-118280217D01*
X53690130Y-118238787D01*
X53956292Y-118143603D01*
X54081514Y-118076671D01*
X54153097Y-117832702D01*
X53340000Y-117019605D01*
X53325858Y-117033748D01*
X53146253Y-116854143D01*
X53160395Y-116840000D01*
X53519605Y-116840000D01*
X54332702Y-117653097D01*
X54576671Y-117581514D01*
X54697571Y-117326004D01*
X54766300Y-117051816D01*
X54780217Y-116769488D01*
X54738787Y-116489870D01*
X54643603Y-116223708D01*
X54576671Y-116098486D01*
X54332702Y-116026903D01*
X53519605Y-116840000D01*
X53160395Y-116840000D01*
X53146253Y-116825858D01*
X53325858Y-116646253D01*
X53340000Y-116660395D01*
X54153097Y-115847298D01*
X54081514Y-115603329D01*
X54052659Y-115589676D01*
X54254759Y-115454637D01*
X54454637Y-115254759D01*
X54611680Y-115019727D01*
X54719853Y-114758574D01*
X54775000Y-114481335D01*
X54775000Y-114198665D01*
X54719853Y-113921426D01*
X54611680Y-113660273D01*
X54454637Y-113425241D01*
X54254759Y-113225363D01*
X54019727Y-113068320D01*
X53758574Y-112960147D01*
X53481335Y-112905000D01*
X53198665Y-112905000D01*
X52921426Y-112960147D01*
X52701000Y-113051450D01*
X52701000Y-106723477D01*
X52705282Y-106680000D01*
X52701000Y-106636523D01*
X52701000Y-105425178D01*
X52853996Y-105497571D01*
X53128184Y-105566300D01*
X53410512Y-105580217D01*
X53690130Y-105538787D01*
X53956292Y-105443603D01*
X54081514Y-105376671D01*
X54153097Y-105132702D01*
X53340000Y-104319605D01*
X53325858Y-104333748D01*
X53146253Y-104154143D01*
X53160395Y-104140000D01*
X53519605Y-104140000D01*
X54332702Y-104953097D01*
X54576671Y-104881514D01*
X54697571Y-104626004D01*
X54766300Y-104351816D01*
X54780217Y-104069488D01*
X54738787Y-103789870D01*
X54643603Y-103523708D01*
X54576671Y-103398486D01*
X54332702Y-103326903D01*
X53519605Y-104140000D01*
X53160395Y-104140000D01*
X53146253Y-104125858D01*
X53325858Y-103946253D01*
X53340000Y-103960395D01*
X54153097Y-103147298D01*
X54081514Y-102903329D01*
X54052659Y-102889676D01*
X54254759Y-102754637D01*
X54454637Y-102554759D01*
X54611680Y-102319727D01*
X54719853Y-102058574D01*
X54775000Y-101781335D01*
X54775000Y-101498665D01*
X54719853Y-101221426D01*
X54611680Y-100960273D01*
X54454637Y-100725241D01*
X54254759Y-100525363D01*
X54019727Y-100368320D01*
X53758574Y-100260147D01*
X53481335Y-100205000D01*
X53198665Y-100205000D01*
X52921426Y-100260147D01*
X52701000Y-100351450D01*
X52701000Y-94023477D01*
X52705282Y-93980000D01*
X52701000Y-93936523D01*
X52701000Y-92725178D01*
X52853996Y-92797571D01*
X53128184Y-92866300D01*
X53410512Y-92880217D01*
X53690130Y-92838787D01*
X53956292Y-92743603D01*
X54081514Y-92676671D01*
X54153097Y-92432702D01*
X53340000Y-91619605D01*
X53325858Y-91633748D01*
X53146253Y-91454143D01*
X53160395Y-91440000D01*
X53519605Y-91440000D01*
X54332702Y-92253097D01*
X54576671Y-92181514D01*
X54697571Y-91926004D01*
X54766300Y-91651816D01*
X54780217Y-91369488D01*
X54738787Y-91089870D01*
X54643603Y-90823708D01*
X54576671Y-90698486D01*
X54332702Y-90626903D01*
X53519605Y-91440000D01*
X53160395Y-91440000D01*
X53146253Y-91425858D01*
X53325858Y-91246253D01*
X53340000Y-91260395D01*
X54153097Y-90447298D01*
X54081514Y-90203329D01*
X54052659Y-90189676D01*
X54254759Y-90054637D01*
X54454637Y-89854759D01*
X54611680Y-89619727D01*
X54719853Y-89358574D01*
X54775000Y-89081335D01*
X54775000Y-88798665D01*
X54719853Y-88521426D01*
X54611680Y-88260273D01*
X54454637Y-88025241D01*
X54254759Y-87825363D01*
X54019727Y-87668320D01*
X53758574Y-87560147D01*
X53481335Y-87505000D01*
X53198665Y-87505000D01*
X52921426Y-87560147D01*
X52701000Y-87651450D01*
X52701000Y-81323477D01*
X52705282Y-81280000D01*
X52701000Y-81236523D01*
X52701000Y-80025178D01*
X52853996Y-80097571D01*
X53128184Y-80166300D01*
X53410512Y-80180217D01*
X53690130Y-80138787D01*
X53956292Y-80043603D01*
X54081514Y-79976671D01*
X54153097Y-79732702D01*
X53340000Y-78919605D01*
X53325858Y-78933748D01*
X53146253Y-78754143D01*
X53160395Y-78740000D01*
X53519605Y-78740000D01*
X54332702Y-79553097D01*
X54576671Y-79481514D01*
X54697571Y-79226004D01*
X54766300Y-78951816D01*
X54780217Y-78669488D01*
X54738787Y-78389870D01*
X54643603Y-78123708D01*
X54576671Y-77998486D01*
X54332702Y-77926903D01*
X53519605Y-78740000D01*
X53160395Y-78740000D01*
X53146253Y-78725858D01*
X53325858Y-78546253D01*
X53340000Y-78560395D01*
X54153097Y-77747298D01*
X54081514Y-77503329D01*
X54052659Y-77489676D01*
X54254759Y-77354637D01*
X54454637Y-77154759D01*
X54611680Y-76919727D01*
X54719853Y-76658574D01*
X54775000Y-76381335D01*
X54775000Y-76098665D01*
X54719853Y-75821426D01*
X54611680Y-75560273D01*
X54454637Y-75325241D01*
X54254759Y-75125363D01*
X54019727Y-74968320D01*
X53758574Y-74860147D01*
X53481335Y-74805000D01*
X53198665Y-74805000D01*
X52921426Y-74860147D01*
X52701000Y-74951450D01*
X52701000Y-68623477D01*
X52705282Y-68580000D01*
X52688195Y-68406510D01*
X52637589Y-68239687D01*
X52555411Y-68085941D01*
X52444817Y-67951183D01*
X52310059Y-67840589D01*
X52156313Y-67758411D01*
X51989490Y-67707805D01*
X51859477Y-67695000D01*
X51859476Y-67695000D01*
X51816000Y-67690718D01*
X51772523Y-67695000D01*
X51299521Y-67695000D01*
X51279637Y-67665241D01*
X51079759Y-67465363D01*
X50847241Y-67310000D01*
X51079759Y-67154637D01*
X51201694Y-67032702D01*
X52526903Y-67032702D01*
X52598486Y-67276671D01*
X52853996Y-67397571D01*
X53128184Y-67466300D01*
X53410512Y-67480217D01*
X53690130Y-67438787D01*
X53956292Y-67343603D01*
X54081514Y-67276671D01*
X54153097Y-67032702D01*
X53340000Y-66219605D01*
X52526903Y-67032702D01*
X51201694Y-67032702D01*
X51279637Y-66954759D01*
X51436680Y-66719727D01*
X51544853Y-66458574D01*
X51600000Y-66181335D01*
X51600000Y-66110512D01*
X51899783Y-66110512D01*
X51941213Y-66390130D01*
X52036397Y-66656292D01*
X52103329Y-66781514D01*
X52347298Y-66853097D01*
X53160395Y-66040000D01*
X53519605Y-66040000D01*
X54332702Y-66853097D01*
X54576671Y-66781514D01*
X54697571Y-66526004D01*
X54766300Y-66251816D01*
X54780217Y-65969488D01*
X54738787Y-65689870D01*
X54643603Y-65423708D01*
X54576671Y-65298486D01*
X54332702Y-65226903D01*
X53519605Y-66040000D01*
X53160395Y-66040000D01*
X52347298Y-65226903D01*
X52103329Y-65298486D01*
X51982429Y-65553996D01*
X51913700Y-65828184D01*
X51899783Y-66110512D01*
X51600000Y-66110512D01*
X51600000Y-65898665D01*
X51544853Y-65621426D01*
X51436680Y-65360273D01*
X51279637Y-65125241D01*
X51079759Y-64925363D01*
X50847241Y-64770000D01*
X51079759Y-64614637D01*
X51279637Y-64414759D01*
X51436680Y-64179727D01*
X51544853Y-63918574D01*
X51600000Y-63641335D01*
X51600000Y-63398665D01*
X51905000Y-63398665D01*
X51905000Y-63681335D01*
X51960147Y-63958574D01*
X52068320Y-64219727D01*
X52225363Y-64454759D01*
X52425241Y-64654637D01*
X52625869Y-64788692D01*
X52598486Y-64803329D01*
X52526903Y-65047298D01*
X53340000Y-65860395D01*
X54153097Y-65047298D01*
X54081514Y-64803329D01*
X54052659Y-64789676D01*
X54254759Y-64654637D01*
X54454637Y-64454759D01*
X54611680Y-64219727D01*
X54719853Y-63958574D01*
X54775000Y-63681335D01*
X54775000Y-63398665D01*
X54719853Y-63121426D01*
X54611680Y-62860273D01*
X54454637Y-62625241D01*
X54254759Y-62425363D01*
X54019727Y-62268320D01*
X53758574Y-62160147D01*
X53481335Y-62105000D01*
X53198665Y-62105000D01*
X52921426Y-62160147D01*
X52660273Y-62268320D01*
X52425241Y-62425363D01*
X52225363Y-62625241D01*
X52068320Y-62860273D01*
X51960147Y-63121426D01*
X51905000Y-63398665D01*
X51600000Y-63398665D01*
X51600000Y-63358665D01*
X51544853Y-63081426D01*
X51436680Y-62820273D01*
X51279637Y-62585241D01*
X51079759Y-62385363D01*
X50844727Y-62228320D01*
X50583574Y-62120147D01*
X50306335Y-62065000D01*
X50023665Y-62065000D01*
X49746426Y-62120147D01*
X49485273Y-62228320D01*
X49250241Y-62385363D01*
X49050363Y-62585241D01*
X48893320Y-62820273D01*
X48785147Y-63081426D01*
X48730000Y-63358665D01*
X48730000Y-63641335D01*
X48785147Y-63918574D01*
X48893320Y-64179727D01*
X49050363Y-64414759D01*
X49250241Y-64614637D01*
X49482759Y-64770000D01*
X49250241Y-64925363D01*
X49050363Y-65125241D01*
X48893320Y-65360273D01*
X48785147Y-65621426D01*
X48730000Y-65898665D01*
X48730000Y-66181335D01*
X48785147Y-66458574D01*
X48893320Y-66719727D01*
X49050363Y-66954759D01*
X49250241Y-67154637D01*
X49482759Y-67310000D01*
X49250241Y-67465363D01*
X49050363Y-67665241D01*
X48893320Y-67900273D01*
X48785147Y-68161426D01*
X48730000Y-68438665D01*
X48730000Y-68721335D01*
X48785147Y-68998574D01*
X48893320Y-69259727D01*
X49050363Y-69494759D01*
X49250241Y-69694637D01*
X49482759Y-69850000D01*
X49250241Y-70005363D01*
X49050363Y-70205241D01*
X48893320Y-70440273D01*
X48785147Y-70701426D01*
X48730000Y-70978665D01*
X48730000Y-71261335D01*
X48785147Y-71538574D01*
X48893320Y-71799727D01*
X49050363Y-72034759D01*
X49250241Y-72234637D01*
X49485273Y-72391680D01*
X49746426Y-72499853D01*
X50023665Y-72555000D01*
X50306335Y-72555000D01*
X50583574Y-72499853D01*
X50844727Y-72391680D01*
X50931000Y-72334034D01*
X50931000Y-74911451D01*
X50710574Y-74820147D01*
X50433335Y-74765000D01*
X50150665Y-74765000D01*
X49873426Y-74820147D01*
X49612273Y-74928320D01*
X49377241Y-75085363D01*
X49177363Y-75285241D01*
X49020320Y-75520273D01*
X48912147Y-75781426D01*
X48857000Y-76058665D01*
X48857000Y-76341335D01*
X48912147Y-76618574D01*
X49020320Y-76879727D01*
X49177363Y-77114759D01*
X49377241Y-77314637D01*
X49609759Y-77470000D01*
X49377241Y-77625363D01*
X49177363Y-77825241D01*
X49020320Y-78060273D01*
X48912147Y-78321426D01*
X48857000Y-78598665D01*
X48857000Y-78881335D01*
X48912147Y-79158574D01*
X49020320Y-79419727D01*
X49177363Y-79654759D01*
X49377241Y-79854637D01*
X49609759Y-80010000D01*
X49377241Y-80165363D01*
X49177363Y-80365241D01*
X49020320Y-80600273D01*
X48912147Y-80861426D01*
X48857000Y-81138665D01*
X48857000Y-81421335D01*
X48912147Y-81698574D01*
X49020320Y-81959727D01*
X49177363Y-82194759D01*
X49377241Y-82394637D01*
X49609759Y-82550000D01*
X49377241Y-82705363D01*
X49177363Y-82905241D01*
X49020320Y-83140273D01*
X48912147Y-83401426D01*
X48857000Y-83678665D01*
X48857000Y-83961335D01*
X48912147Y-84238574D01*
X49020320Y-84499727D01*
X49177363Y-84734759D01*
X49377241Y-84934637D01*
X49612273Y-85091680D01*
X49873426Y-85199853D01*
X50150665Y-85255000D01*
X50433335Y-85255000D01*
X50710574Y-85199853D01*
X50931000Y-85108550D01*
X50931000Y-87611451D01*
X50710574Y-87520147D01*
X50433335Y-87465000D01*
X50150665Y-87465000D01*
X49873426Y-87520147D01*
X49612273Y-87628320D01*
X49377241Y-87785363D01*
X49177363Y-87985241D01*
X49020320Y-88220273D01*
X48912147Y-88481426D01*
X48857000Y-88758665D01*
X48857000Y-89041335D01*
X48912147Y-89318574D01*
X49020320Y-89579727D01*
X49177363Y-89814759D01*
X49377241Y-90014637D01*
X49609759Y-90170000D01*
X49377241Y-90325363D01*
X49177363Y-90525241D01*
X49020320Y-90760273D01*
X48912147Y-91021426D01*
X48857000Y-91298665D01*
X48857000Y-91581335D01*
X48912147Y-91858574D01*
X49020320Y-92119727D01*
X49177363Y-92354759D01*
X49377241Y-92554637D01*
X49609759Y-92710000D01*
X49377241Y-92865363D01*
X49177363Y-93065241D01*
X49020320Y-93300273D01*
X48912147Y-93561426D01*
X48857000Y-93838665D01*
X48857000Y-94121335D01*
X48912147Y-94398574D01*
X49020320Y-94659727D01*
X49177363Y-94894759D01*
X49377241Y-95094637D01*
X49609759Y-95250000D01*
X49377241Y-95405363D01*
X49177363Y-95605241D01*
X49020320Y-95840273D01*
X48912147Y-96101426D01*
X48857000Y-96378665D01*
X48857000Y-96661335D01*
X48912147Y-96938574D01*
X49020320Y-97199727D01*
X49177363Y-97434759D01*
X49377241Y-97634637D01*
X49612273Y-97791680D01*
X49873426Y-97899853D01*
X50150665Y-97955000D01*
X50433335Y-97955000D01*
X50710574Y-97899853D01*
X50931000Y-97808550D01*
X50931001Y-100311451D01*
X50710574Y-100220147D01*
X50433335Y-100165000D01*
X50150665Y-100165000D01*
X49873426Y-100220147D01*
X49612273Y-100328320D01*
X49377241Y-100485363D01*
X49177363Y-100685241D01*
X49020320Y-100920273D01*
X48912147Y-101181426D01*
X48857000Y-101458665D01*
X48857000Y-101741335D01*
X48912147Y-102018574D01*
X49020320Y-102279727D01*
X49177363Y-102514759D01*
X49377241Y-102714637D01*
X49609759Y-102870000D01*
X49377241Y-103025363D01*
X49177363Y-103225241D01*
X49020320Y-103460273D01*
X48912147Y-103721426D01*
X48857000Y-103998665D01*
X48857000Y-104281335D01*
X48912147Y-104558574D01*
X49020320Y-104819727D01*
X49177363Y-105054759D01*
X49377241Y-105254637D01*
X49609759Y-105410000D01*
X49377241Y-105565363D01*
X49177363Y-105765241D01*
X49020320Y-106000273D01*
X48912147Y-106261426D01*
X48857000Y-106538665D01*
X48857000Y-106821335D01*
X48912147Y-107098574D01*
X49020320Y-107359727D01*
X49177363Y-107594759D01*
X49377241Y-107794637D01*
X49609759Y-107950000D01*
X49377241Y-108105363D01*
X49177363Y-108305241D01*
X49020320Y-108540273D01*
X48912147Y-108801426D01*
X48857000Y-109078665D01*
X48857000Y-109361335D01*
X48912147Y-109638574D01*
X49020320Y-109899727D01*
X49177363Y-110134759D01*
X49377241Y-110334637D01*
X49612273Y-110491680D01*
X49873426Y-110599853D01*
X50150665Y-110655000D01*
X50433335Y-110655000D01*
X50710574Y-110599853D01*
X50931000Y-110508550D01*
X50931000Y-113011450D01*
X50710574Y-112920147D01*
X50433335Y-112865000D01*
X50150665Y-112865000D01*
X49873426Y-112920147D01*
X49612273Y-113028320D01*
X49377241Y-113185363D01*
X49177363Y-113385241D01*
X49020320Y-113620273D01*
X48912147Y-113881426D01*
X48857000Y-114158665D01*
X48857000Y-114441335D01*
X48912147Y-114718574D01*
X49020320Y-114979727D01*
X49177363Y-115214759D01*
X49377241Y-115414637D01*
X49609759Y-115570000D01*
X49377241Y-115725363D01*
X49177363Y-115925241D01*
X49020320Y-116160273D01*
X48912147Y-116421426D01*
X48857000Y-116698665D01*
X48857000Y-116981335D01*
X48912147Y-117258574D01*
X49020320Y-117519727D01*
X49177363Y-117754759D01*
X49377241Y-117954637D01*
X49609759Y-118110000D01*
X49377241Y-118265363D01*
X49177363Y-118465241D01*
X49020320Y-118700273D01*
X48912147Y-118961426D01*
X48857000Y-119238665D01*
X48857000Y-119521335D01*
X48912147Y-119798574D01*
X49020320Y-120059727D01*
X49177363Y-120294759D01*
X49377241Y-120494637D01*
X49609759Y-120650000D01*
X49377241Y-120805363D01*
X49177363Y-121005241D01*
X49020320Y-121240273D01*
X48912147Y-121501426D01*
X48857000Y-121778665D01*
X48857000Y-122061335D01*
X48912147Y-122338574D01*
X49020320Y-122599727D01*
X49177363Y-122834759D01*
X49377241Y-123034637D01*
X49609759Y-123190000D01*
X49377241Y-123345363D01*
X49177363Y-123545241D01*
X49020320Y-123780273D01*
X48912147Y-124041426D01*
X48857000Y-124318665D01*
X48857000Y-124601335D01*
X48912147Y-124878574D01*
X49020320Y-125139727D01*
X49177363Y-125374759D01*
X49377241Y-125574637D01*
X49609759Y-125730000D01*
X49377241Y-125885363D01*
X49177363Y-126085241D01*
X49020320Y-126320273D01*
X48912147Y-126581426D01*
X48857000Y-126858665D01*
X48857000Y-127141335D01*
X48912147Y-127418574D01*
X49020320Y-127679727D01*
X49177363Y-127914759D01*
X49377241Y-128114637D01*
X49609759Y-128270000D01*
X49377241Y-128425363D01*
X49177363Y-128625241D01*
X49020320Y-128860273D01*
X48912147Y-129121426D01*
X48857000Y-129398665D01*
X48857000Y-129681335D01*
X48912147Y-129958574D01*
X49020320Y-130219727D01*
X49177363Y-130454759D01*
X49377241Y-130654637D01*
X49609759Y-130810000D01*
X49377241Y-130965363D01*
X49177363Y-131165241D01*
X49020320Y-131400273D01*
X48912147Y-131661426D01*
X48857000Y-131938665D01*
X48857000Y-132221335D01*
X48912147Y-132498574D01*
X49020320Y-132759727D01*
X49177363Y-132994759D01*
X49377241Y-133194637D01*
X49612273Y-133351680D01*
X49873426Y-133459853D01*
X50150665Y-133515000D01*
X50433335Y-133515000D01*
X50710574Y-133459853D01*
X50931001Y-133368549D01*
X50931001Y-145959000D01*
X49403366Y-145959000D01*
X49263238Y-145844000D01*
X49412502Y-145721502D01*
X49566833Y-145533449D01*
X49681511Y-145318901D01*
X49752130Y-145086102D01*
X49775975Y-144844000D01*
X49752130Y-144601898D01*
X49681511Y-144369099D01*
X49566833Y-144154551D01*
X49412502Y-143966498D01*
X49263238Y-143844000D01*
X49412502Y-143721502D01*
X49566833Y-143533449D01*
X49681511Y-143318901D01*
X49752130Y-143086102D01*
X49775975Y-142844000D01*
X49752130Y-142601898D01*
X49681511Y-142369099D01*
X49566833Y-142154551D01*
X49412502Y-141966498D01*
X49263238Y-141844000D01*
X49412502Y-141721502D01*
X49566833Y-141533449D01*
X49681511Y-141318901D01*
X49752130Y-141086102D01*
X49775975Y-140844000D01*
X49752130Y-140601898D01*
X49681511Y-140369099D01*
X49566833Y-140154551D01*
X49412502Y-139966498D01*
X49263238Y-139844000D01*
X49412502Y-139721502D01*
X49566833Y-139533449D01*
X49681511Y-139318901D01*
X49752130Y-139086102D01*
X49775975Y-138844000D01*
X49752130Y-138601898D01*
X49681511Y-138369099D01*
X49566833Y-138154551D01*
X49412502Y-137966498D01*
X49262652Y-137843519D01*
X49326725Y-137800307D01*
X49498078Y-137627474D01*
X49632421Y-137424533D01*
X49724591Y-137199282D01*
X49728462Y-137161609D01*
X49603731Y-136971000D01*
X48387000Y-136971000D01*
X48387000Y-136991000D01*
X48133000Y-136991000D01*
X48133000Y-136971000D01*
X46916269Y-136971000D01*
X46791538Y-137161609D01*
X46795409Y-137199282D01*
X46887579Y-137424533D01*
X47021922Y-137627474D01*
X47193275Y-137800307D01*
X47257348Y-137843519D01*
X47107498Y-137966498D01*
X46953167Y-138154551D01*
X46838489Y-138369099D01*
X46767870Y-138601898D01*
X46744025Y-138844000D01*
X46767870Y-139086102D01*
X46838489Y-139318901D01*
X46953167Y-139533449D01*
X47107498Y-139721502D01*
X47256762Y-139844000D01*
X47107498Y-139966498D01*
X46953167Y-140154551D01*
X46838489Y-140369099D01*
X46767870Y-140601898D01*
X46744025Y-140844000D01*
X46767870Y-141086102D01*
X46838489Y-141318901D01*
X46953167Y-141533449D01*
X47107498Y-141721502D01*
X47256762Y-141844000D01*
X47116634Y-141959000D01*
X42033000Y-141959000D01*
X42033000Y-136526391D01*
X46791538Y-136526391D01*
X46916269Y-136717000D01*
X48133000Y-136717000D01*
X48133000Y-135609000D01*
X48387000Y-135609000D01*
X48387000Y-136717000D01*
X49603731Y-136717000D01*
X49728462Y-136526391D01*
X49724591Y-136488718D01*
X49632421Y-136263467D01*
X49498078Y-136060526D01*
X49326725Y-135887693D01*
X49124946Y-135751610D01*
X48900496Y-135657507D01*
X48662000Y-135609000D01*
X48387000Y-135609000D01*
X48133000Y-135609000D01*
X47858000Y-135609000D01*
X47619504Y-135657507D01*
X47395054Y-135751610D01*
X47193275Y-135887693D01*
X47021922Y-136060526D01*
X46887579Y-136263467D01*
X46795409Y-136488718D01*
X46791538Y-136526391D01*
X42033000Y-136526391D01*
X42033000Y-133362005D01*
X42058119Y-133377070D01*
X42322960Y-133471909D01*
X42545000Y-133350624D01*
X42545000Y-132207000D01*
X42799000Y-132207000D01*
X42799000Y-133350624D01*
X43021040Y-133471909D01*
X43285881Y-133377070D01*
X43527131Y-133232385D01*
X43735519Y-133043414D01*
X43903037Y-132817420D01*
X44023246Y-132563087D01*
X44063904Y-132429039D01*
X43941915Y-132207000D01*
X42799000Y-132207000D01*
X42545000Y-132207000D01*
X42525000Y-132207000D01*
X42525000Y-131953000D01*
X42545000Y-131953000D01*
X42545000Y-131933000D01*
X42799000Y-131933000D01*
X42799000Y-131953000D01*
X43941915Y-131953000D01*
X44063904Y-131730961D01*
X44023246Y-131596913D01*
X43903037Y-131342580D01*
X43735519Y-131116586D01*
X43527131Y-130927615D01*
X43341135Y-130816067D01*
X43351727Y-130811680D01*
X43586759Y-130654637D01*
X43786637Y-130454759D01*
X43943680Y-130219727D01*
X44051853Y-129958574D01*
X44107000Y-129681335D01*
X44107000Y-129398665D01*
X44051853Y-129121426D01*
X43943680Y-128860273D01*
X43786637Y-128625241D01*
X43586759Y-128425363D01*
X43354241Y-128270000D01*
X43586759Y-128114637D01*
X43786637Y-127914759D01*
X43943680Y-127679727D01*
X44051853Y-127418574D01*
X44107000Y-127141335D01*
X44107000Y-126858665D01*
X44051853Y-126581426D01*
X43943680Y-126320273D01*
X43786637Y-126085241D01*
X43586759Y-125885363D01*
X43351727Y-125728320D01*
X43341135Y-125723933D01*
X43527131Y-125612385D01*
X43735519Y-125423414D01*
X43903037Y-125197420D01*
X44023246Y-124943087D01*
X44063904Y-124809039D01*
X43941915Y-124587000D01*
X42799000Y-124587000D01*
X42799000Y-124607000D01*
X42545000Y-124607000D01*
X42545000Y-124587000D01*
X42525000Y-124587000D01*
X42525000Y-124333000D01*
X42545000Y-124333000D01*
X42545000Y-122047000D01*
X42799000Y-122047000D01*
X42799000Y-124333000D01*
X43941915Y-124333000D01*
X44063904Y-124110961D01*
X44023246Y-123976913D01*
X43903037Y-123722580D01*
X43735519Y-123496586D01*
X43527131Y-123307615D01*
X43331018Y-123190000D01*
X43527131Y-123072385D01*
X43735519Y-122883414D01*
X43903037Y-122657420D01*
X44023246Y-122403087D01*
X44063904Y-122269039D01*
X43941915Y-122047000D01*
X42799000Y-122047000D01*
X42545000Y-122047000D01*
X42525000Y-122047000D01*
X42525000Y-121793000D01*
X42545000Y-121793000D01*
X42545000Y-119507000D01*
X42799000Y-119507000D01*
X42799000Y-121793000D01*
X43941915Y-121793000D01*
X44063904Y-121570961D01*
X44023246Y-121436913D01*
X43903037Y-121182580D01*
X43735519Y-120956586D01*
X43527131Y-120767615D01*
X43331018Y-120650000D01*
X43527131Y-120532385D01*
X43735519Y-120343414D01*
X43903037Y-120117420D01*
X44023246Y-119863087D01*
X44063904Y-119729039D01*
X43941915Y-119507000D01*
X42799000Y-119507000D01*
X42545000Y-119507000D01*
X42525000Y-119507000D01*
X42525000Y-119253000D01*
X42545000Y-119253000D01*
X42545000Y-119233000D01*
X42799000Y-119233000D01*
X42799000Y-119253000D01*
X43941915Y-119253000D01*
X44063904Y-119030961D01*
X44023246Y-118896913D01*
X43903037Y-118642580D01*
X43735519Y-118416586D01*
X43527131Y-118227615D01*
X43341135Y-118116067D01*
X43351727Y-118111680D01*
X43586759Y-117954637D01*
X43786637Y-117754759D01*
X43943680Y-117519727D01*
X44051853Y-117258574D01*
X44107000Y-116981335D01*
X44107000Y-116698665D01*
X44051853Y-116421426D01*
X43943680Y-116160273D01*
X43786637Y-115925241D01*
X43588039Y-115726643D01*
X43596482Y-115725812D01*
X43716180Y-115689502D01*
X43826494Y-115630537D01*
X43923185Y-115551185D01*
X44002537Y-115454494D01*
X44061502Y-115344180D01*
X44097812Y-115224482D01*
X44110072Y-115100000D01*
X44110072Y-113500000D01*
X44097812Y-113375518D01*
X44061502Y-113255820D01*
X44002537Y-113145506D01*
X43923185Y-113048815D01*
X43826494Y-112969463D01*
X43716180Y-112910498D01*
X43596482Y-112874188D01*
X43472000Y-112861928D01*
X42033000Y-112861928D01*
X42033000Y-110502005D01*
X42058119Y-110517070D01*
X42322960Y-110611909D01*
X42545000Y-110490624D01*
X42545000Y-109347000D01*
X42799000Y-109347000D01*
X42799000Y-110490624D01*
X43021040Y-110611909D01*
X43285881Y-110517070D01*
X43527131Y-110372385D01*
X43735519Y-110183414D01*
X43903037Y-109957420D01*
X44023246Y-109703087D01*
X44063904Y-109569039D01*
X43941915Y-109347000D01*
X42799000Y-109347000D01*
X42545000Y-109347000D01*
X42525000Y-109347000D01*
X42525000Y-109093000D01*
X42545000Y-109093000D01*
X42545000Y-109073000D01*
X42799000Y-109073000D01*
X42799000Y-109093000D01*
X43941915Y-109093000D01*
X44063904Y-108870961D01*
X44023246Y-108736913D01*
X43903037Y-108482580D01*
X43735519Y-108256586D01*
X43527131Y-108067615D01*
X43341135Y-107956067D01*
X43351727Y-107951680D01*
X43586759Y-107794637D01*
X43786637Y-107594759D01*
X43943680Y-107359727D01*
X44051853Y-107098574D01*
X44107000Y-106821335D01*
X44107000Y-106538665D01*
X44051853Y-106261426D01*
X43943680Y-106000273D01*
X43786637Y-105765241D01*
X43586759Y-105565363D01*
X43354241Y-105410000D01*
X43586759Y-105254637D01*
X43786637Y-105054759D01*
X43943680Y-104819727D01*
X44051853Y-104558574D01*
X44107000Y-104281335D01*
X44107000Y-103998665D01*
X44051853Y-103721426D01*
X43943680Y-103460273D01*
X43786637Y-103225241D01*
X43588039Y-103026643D01*
X43596482Y-103025812D01*
X43716180Y-102989502D01*
X43826494Y-102930537D01*
X43923185Y-102851185D01*
X44002537Y-102754494D01*
X44061502Y-102644180D01*
X44097812Y-102524482D01*
X44110072Y-102400000D01*
X44110072Y-100800000D01*
X44097812Y-100675518D01*
X44061502Y-100555820D01*
X44002537Y-100445506D01*
X43923185Y-100348815D01*
X43826494Y-100269463D01*
X43716180Y-100210498D01*
X43596482Y-100174188D01*
X43472000Y-100161928D01*
X42033000Y-100161928D01*
X42033000Y-97802005D01*
X42058119Y-97817070D01*
X42322960Y-97911909D01*
X42545000Y-97790624D01*
X42545000Y-96647000D01*
X42799000Y-96647000D01*
X42799000Y-97790624D01*
X43021040Y-97911909D01*
X43285881Y-97817070D01*
X43527131Y-97672385D01*
X43735519Y-97483414D01*
X43903037Y-97257420D01*
X44023246Y-97003087D01*
X44063904Y-96869039D01*
X43941915Y-96647000D01*
X42799000Y-96647000D01*
X42545000Y-96647000D01*
X42525000Y-96647000D01*
X42525000Y-96393000D01*
X42545000Y-96393000D01*
X42545000Y-96373000D01*
X42799000Y-96373000D01*
X42799000Y-96393000D01*
X43941915Y-96393000D01*
X44063904Y-96170961D01*
X44023246Y-96036913D01*
X43903037Y-95782580D01*
X43735519Y-95556586D01*
X43527131Y-95367615D01*
X43341135Y-95256067D01*
X43351727Y-95251680D01*
X43586759Y-95094637D01*
X43786637Y-94894759D01*
X43943680Y-94659727D01*
X44051853Y-94398574D01*
X44107000Y-94121335D01*
X44107000Y-93838665D01*
X44051853Y-93561426D01*
X43943680Y-93300273D01*
X43786637Y-93065241D01*
X43586759Y-92865363D01*
X43354241Y-92710000D01*
X43586759Y-92554637D01*
X43786637Y-92354759D01*
X43943680Y-92119727D01*
X44051853Y-91858574D01*
X44107000Y-91581335D01*
X44107000Y-91298665D01*
X44051853Y-91021426D01*
X43943680Y-90760273D01*
X43786637Y-90525241D01*
X43588039Y-90326643D01*
X43596482Y-90325812D01*
X43716180Y-90289502D01*
X43826494Y-90230537D01*
X43923185Y-90151185D01*
X44002537Y-90054494D01*
X44061502Y-89944180D01*
X44097812Y-89824482D01*
X44110072Y-89700000D01*
X44110072Y-88100000D01*
X44097812Y-87975518D01*
X44061502Y-87855820D01*
X44002537Y-87745506D01*
X43923185Y-87648815D01*
X43826494Y-87569463D01*
X43716180Y-87510498D01*
X43596482Y-87474188D01*
X43472000Y-87461928D01*
X42033000Y-87461928D01*
X42033000Y-85102005D01*
X42058119Y-85117070D01*
X42322960Y-85211909D01*
X42545000Y-85090624D01*
X42545000Y-83947000D01*
X42799000Y-83947000D01*
X42799000Y-85090624D01*
X43021040Y-85211909D01*
X43285881Y-85117070D01*
X43527131Y-84972385D01*
X43735519Y-84783414D01*
X43903037Y-84557420D01*
X44023246Y-84303087D01*
X44063904Y-84169039D01*
X43941915Y-83947000D01*
X42799000Y-83947000D01*
X42545000Y-83947000D01*
X42525000Y-83947000D01*
X42525000Y-83693000D01*
X42545000Y-83693000D01*
X42545000Y-83673000D01*
X42799000Y-83673000D01*
X42799000Y-83693000D01*
X43941915Y-83693000D01*
X44063904Y-83470961D01*
X44023246Y-83336913D01*
X43903037Y-83082580D01*
X43735519Y-82856586D01*
X43527131Y-82667615D01*
X43341135Y-82556067D01*
X43351727Y-82551680D01*
X43586759Y-82394637D01*
X43786637Y-82194759D01*
X43943680Y-81959727D01*
X44051853Y-81698574D01*
X44107000Y-81421335D01*
X44107000Y-81138665D01*
X44051853Y-80861426D01*
X43943680Y-80600273D01*
X43786637Y-80365241D01*
X43586759Y-80165363D01*
X43354241Y-80010000D01*
X43586759Y-79854637D01*
X43786637Y-79654759D01*
X43943680Y-79419727D01*
X44051853Y-79158574D01*
X44107000Y-78881335D01*
X44107000Y-78598665D01*
X44051853Y-78321426D01*
X43943680Y-78060273D01*
X43786637Y-77825241D01*
X43588039Y-77626643D01*
X43596482Y-77625812D01*
X43716180Y-77589502D01*
X43826494Y-77530537D01*
X43923185Y-77451185D01*
X44002537Y-77354494D01*
X44061502Y-77244180D01*
X44097812Y-77124482D01*
X44110072Y-77000000D01*
X44110072Y-75400000D01*
X44097812Y-75275518D01*
X44061502Y-75155820D01*
X44002537Y-75045506D01*
X43923185Y-74948815D01*
X43826494Y-74869463D01*
X43716180Y-74810498D01*
X43596482Y-74774188D01*
X43472000Y-74761928D01*
X42033000Y-74761928D01*
X42033000Y-72453553D01*
X42195960Y-72511909D01*
X42418000Y-72390624D01*
X42418000Y-71247000D01*
X42672000Y-71247000D01*
X42672000Y-72390624D01*
X42894040Y-72511909D01*
X43158881Y-72417070D01*
X43400131Y-72272385D01*
X43608519Y-72083414D01*
X43776037Y-71857420D01*
X43896246Y-71603087D01*
X43936904Y-71469039D01*
X43814915Y-71247000D01*
X42672000Y-71247000D01*
X42418000Y-71247000D01*
X42398000Y-71247000D01*
X42398000Y-70993000D01*
X42418000Y-70993000D01*
X42418000Y-70973000D01*
X42672000Y-70973000D01*
X42672000Y-70993000D01*
X43814915Y-70993000D01*
X43936904Y-70770961D01*
X43896246Y-70636913D01*
X43776037Y-70382580D01*
X43608519Y-70156586D01*
X43400131Y-69967615D01*
X43214135Y-69856067D01*
X43224727Y-69851680D01*
X43459759Y-69694637D01*
X43659637Y-69494759D01*
X43816680Y-69259727D01*
X43924853Y-68998574D01*
X43980000Y-68721335D01*
X43980000Y-68438665D01*
X43924853Y-68161426D01*
X43816680Y-67900273D01*
X43659637Y-67665241D01*
X43459759Y-67465363D01*
X43227241Y-67310000D01*
X43459759Y-67154637D01*
X43659637Y-66954759D01*
X43816680Y-66719727D01*
X43924853Y-66458574D01*
X43980000Y-66181335D01*
X43980000Y-65898665D01*
X43924853Y-65621426D01*
X43816680Y-65360273D01*
X43659637Y-65125241D01*
X43461039Y-64926643D01*
X43469482Y-64925812D01*
X43589180Y-64889502D01*
X43699494Y-64830537D01*
X43796185Y-64751185D01*
X43875537Y-64654494D01*
X43934502Y-64544180D01*
X43970812Y-64424482D01*
X43983072Y-64300000D01*
X43983072Y-62700000D01*
X43970812Y-62575518D01*
X43934502Y-62455820D01*
X43875537Y-62345506D01*
X43796185Y-62248815D01*
X43699494Y-62169463D01*
X43589180Y-62110498D01*
X43469482Y-62074188D01*
X43345000Y-62061928D01*
X41745000Y-62061928D01*
X41620518Y-62074188D01*
X41500820Y-62110498D01*
X41390506Y-62169463D01*
X41293815Y-62248815D01*
X41214463Y-62345506D01*
X41155498Y-62455820D01*
X41119188Y-62575518D01*
X41106928Y-62700000D01*
X41106928Y-64300000D01*
X41119188Y-64424482D01*
X41155498Y-64544180D01*
X41214463Y-64654494D01*
X41293815Y-64751185D01*
X41390506Y-64830537D01*
X41500820Y-64889502D01*
X41620518Y-64925812D01*
X41628961Y-64926643D01*
X41430363Y-65125241D01*
X41410479Y-65155000D01*
X41191476Y-65155000D01*
X41148000Y-65150718D01*
X41104523Y-65155000D01*
X40974510Y-65167805D01*
X40807687Y-65218411D01*
X40653941Y-65300589D01*
X40519183Y-65411183D01*
X40408589Y-65545941D01*
X40326411Y-65699687D01*
X40275805Y-65866510D01*
X40258718Y-66040000D01*
X40263000Y-66083477D01*
X40263000Y-69842446D01*
X40107087Y-69768754D01*
X39973039Y-69728096D01*
X39751000Y-69850085D01*
X39751000Y-70993000D01*
X39771000Y-70993000D01*
X39771000Y-71247000D01*
X39751000Y-71247000D01*
X39751000Y-72389915D01*
X39973039Y-72511904D01*
X40107087Y-72471246D01*
X40263001Y-72397554D01*
X40263001Y-74911451D01*
X40042574Y-74820147D01*
X39765335Y-74765000D01*
X39482665Y-74765000D01*
X39205426Y-74820147D01*
X38944273Y-74928320D01*
X38709241Y-75085363D01*
X38509363Y-75285241D01*
X38352320Y-75520273D01*
X38244147Y-75781426D01*
X38189000Y-76058665D01*
X37719000Y-76058665D01*
X37719000Y-71469040D01*
X38232091Y-71469040D01*
X38326930Y-71733881D01*
X38471615Y-71975131D01*
X38660586Y-72183519D01*
X38886580Y-72351037D01*
X39140913Y-72471246D01*
X39274961Y-72511904D01*
X39497000Y-72389915D01*
X39497000Y-71247000D01*
X38353376Y-71247000D01*
X38232091Y-71469040D01*
X37719000Y-71469040D01*
X37719000Y-70770960D01*
X38232091Y-70770960D01*
X38353376Y-70993000D01*
X39497000Y-70993000D01*
X39497000Y-69850085D01*
X39274961Y-69728096D01*
X39140913Y-69768754D01*
X38886580Y-69888963D01*
X38660586Y-70056481D01*
X38471615Y-70264869D01*
X38326930Y-70506119D01*
X38232091Y-70770960D01*
X37719000Y-70770960D01*
X37719000Y-63358665D01*
X38189000Y-63358665D01*
X38189000Y-63641335D01*
X38244147Y-63918574D01*
X38352320Y-64179727D01*
X38509363Y-64414759D01*
X38709241Y-64614637D01*
X38944273Y-64771680D01*
X39205426Y-64879853D01*
X39482665Y-64935000D01*
X39765335Y-64935000D01*
X40042574Y-64879853D01*
X40303727Y-64771680D01*
X40538759Y-64614637D01*
X40738637Y-64414759D01*
X40895680Y-64179727D01*
X41003853Y-63918574D01*
X41059000Y-63641335D01*
X41059000Y-63358665D01*
X41003853Y-63081426D01*
X40895680Y-62820273D01*
X40738637Y-62585241D01*
X40538759Y-62385363D01*
X40303727Y-62228320D01*
X40042574Y-62120147D01*
X39765335Y-62065000D01*
X39482665Y-62065000D01*
X39205426Y-62120147D01*
X38944273Y-62228320D01*
X38709241Y-62385363D01*
X38509363Y-62585241D01*
X38352320Y-62820273D01*
X38244147Y-63081426D01*
X38189000Y-63358665D01*
X37719000Y-63358665D01*
X37719000Y-60071000D01*
X55245000Y-60071000D01*
X55245000Y-152273000D01*
M02*
