G04 #@! TF.GenerationSoftware,KiCad,Pcbnew,5.1.5+dfsg1-2build2*
G04 #@! TF.CreationDate,2020-10-27T01:34:20+02:00*
G04 #@! TF.ProjectId,memory,6d656d6f-7279-42e6-9b69-6361645f7063,rev?*
G04 #@! TF.SameCoordinates,Original*
G04 #@! TF.FileFunction,Legend,Top*
G04 #@! TF.FilePolarity,Positive*
%FSLAX46Y46*%
G04 Gerber Fmt 4.6, Leading zero omitted, Abs format (unit mm)*
G04 Created by KiCad (PCBNEW 5.1.5+dfsg1-2build2) date 2020-10-27 01:34:20*
%MOMM*%
%LPD*%
G04 APERTURE LIST*
%ADD10C,0.150000*%
%ADD11C,0.010000*%
%ADD12C,0.120000*%
G04 APERTURE END LIST*
D10*
X45672952Y-152868380D02*
X45672952Y-153582666D01*
X45625333Y-153725523D01*
X45530095Y-153820761D01*
X45387238Y-153868380D01*
X45292000Y-153868380D01*
X46625333Y-153868380D02*
X46149142Y-153868380D01*
X46149142Y-152868380D01*
X47530095Y-153773142D02*
X47482476Y-153820761D01*
X47339619Y-153868380D01*
X47244380Y-153868380D01*
X47101523Y-153820761D01*
X47006285Y-153725523D01*
X46958666Y-153630285D01*
X46911047Y-153439809D01*
X46911047Y-153296952D01*
X46958666Y-153106476D01*
X47006285Y-153011238D01*
X47101523Y-152916000D01*
X47244380Y-152868380D01*
X47339619Y-152868380D01*
X47482476Y-152916000D01*
X47530095Y-152963619D01*
X48244380Y-152868380D02*
X48244380Y-153582666D01*
X48196761Y-153725523D01*
X48101523Y-153820761D01*
X47958666Y-153868380D01*
X47863428Y-153868380D01*
X49196761Y-153868380D02*
X48720571Y-153868380D01*
X48720571Y-152868380D01*
X50101523Y-153773142D02*
X50053904Y-153820761D01*
X49911047Y-153868380D01*
X49815809Y-153868380D01*
X49672952Y-153820761D01*
X49577714Y-153725523D01*
X49530095Y-153630285D01*
X49482476Y-153439809D01*
X49482476Y-153296952D01*
X49530095Y-153106476D01*
X49577714Y-153011238D01*
X49672952Y-152916000D01*
X49815809Y-152868380D01*
X49911047Y-152868380D01*
X50053904Y-152916000D01*
X50101523Y-152963619D01*
X50815809Y-152868380D02*
X50815809Y-153582666D01*
X50768190Y-153725523D01*
X50672952Y-153820761D01*
X50530095Y-153868380D01*
X50434857Y-153868380D01*
X51768190Y-153868380D02*
X51292000Y-153868380D01*
X51292000Y-152868380D01*
X52672952Y-153773142D02*
X52625333Y-153820761D01*
X52482476Y-153868380D01*
X52387238Y-153868380D01*
X52244380Y-153820761D01*
X52149142Y-153725523D01*
X52101523Y-153630285D01*
X52053904Y-153439809D01*
X52053904Y-153296952D01*
X52101523Y-153106476D01*
X52149142Y-153011238D01*
X52244380Y-152916000D01*
X52387238Y-152868380D01*
X52482476Y-152868380D01*
X52625333Y-152916000D01*
X52672952Y-152963619D01*
X53387238Y-152868380D02*
X53387238Y-153582666D01*
X53339619Y-153725523D01*
X53244380Y-153820761D01*
X53101523Y-153868380D01*
X53006285Y-153868380D01*
X54339619Y-153868380D02*
X53863428Y-153868380D01*
X53863428Y-152868380D01*
X55244380Y-153773142D02*
X55196761Y-153820761D01*
X55053904Y-153868380D01*
X54958666Y-153868380D01*
X54815809Y-153820761D01*
X54720571Y-153725523D01*
X54672952Y-153630285D01*
X54625333Y-153439809D01*
X54625333Y-153296952D01*
X54672952Y-153106476D01*
X54720571Y-153011238D01*
X54815809Y-152916000D01*
X54958666Y-152868380D01*
X55053904Y-152868380D01*
X55196761Y-152916000D01*
X55244380Y-152963619D01*
X39409714Y-131594666D02*
X40076380Y-131404190D01*
X39600190Y-131213714D01*
X40076380Y-131023238D01*
X39409714Y-130832761D01*
X40028761Y-130070857D02*
X40076380Y-130166095D01*
X40076380Y-130356571D01*
X40028761Y-130451809D01*
X39933523Y-130499428D01*
X39552571Y-130499428D01*
X39457333Y-130451809D01*
X39409714Y-130356571D01*
X39409714Y-130166095D01*
X39457333Y-130070857D01*
X39552571Y-130023238D01*
X39647809Y-130023238D01*
X39743047Y-130499428D01*
X40028761Y-129213714D02*
X40076380Y-129308952D01*
X40076380Y-129499428D01*
X40028761Y-129594666D01*
X39933523Y-129642285D01*
X39552571Y-129642285D01*
X39457333Y-129594666D01*
X39409714Y-129499428D01*
X39409714Y-129308952D01*
X39457333Y-129213714D01*
X39552571Y-129166095D01*
X39647809Y-129166095D01*
X39743047Y-129642285D01*
X40076380Y-128737523D02*
X39409714Y-128737523D01*
X39600190Y-128737523D02*
X39504952Y-128689904D01*
X39457333Y-128642285D01*
X39409714Y-128547047D01*
X39409714Y-128451809D01*
X39409714Y-127689904D02*
X40219238Y-127689904D01*
X40314476Y-127737523D01*
X40362095Y-127785142D01*
X40409714Y-127880380D01*
X40409714Y-128023238D01*
X40362095Y-128118476D01*
X40028761Y-127689904D02*
X40076380Y-127785142D01*
X40076380Y-127975619D01*
X40028761Y-128070857D01*
X39981142Y-128118476D01*
X39885904Y-128166095D01*
X39600190Y-128166095D01*
X39504952Y-128118476D01*
X39457333Y-128070857D01*
X39409714Y-127975619D01*
X39409714Y-127785142D01*
X39457333Y-127689904D01*
X40076380Y-126785142D02*
X39552571Y-126785142D01*
X39457333Y-126832761D01*
X39409714Y-126928000D01*
X39409714Y-127118476D01*
X39457333Y-127213714D01*
X40028761Y-126785142D02*
X40076380Y-126880380D01*
X40076380Y-127118476D01*
X40028761Y-127213714D01*
X39933523Y-127261333D01*
X39838285Y-127261333D01*
X39743047Y-127213714D01*
X39695428Y-127118476D01*
X39695428Y-126880380D01*
X39647809Y-126785142D01*
X39409714Y-126404190D02*
X40076380Y-126213714D01*
X39600190Y-126023238D01*
X40076380Y-125832761D01*
X39409714Y-125642285D01*
X40028761Y-124880380D02*
X40076380Y-124975619D01*
X40076380Y-125166095D01*
X40028761Y-125261333D01*
X39933523Y-125308952D01*
X39552571Y-125308952D01*
X39457333Y-125261333D01*
X39409714Y-125166095D01*
X39409714Y-124975619D01*
X39457333Y-124880380D01*
X39552571Y-124832761D01*
X39647809Y-124832761D01*
X39743047Y-125308952D01*
X39028761Y-122928000D02*
X40314476Y-123785142D01*
X39409714Y-121928000D02*
X40076380Y-121689904D01*
X39409714Y-121451809D01*
X40028761Y-120689904D02*
X40076380Y-120785142D01*
X40076380Y-120975619D01*
X40028761Y-121070857D01*
X39933523Y-121118476D01*
X39552571Y-121118476D01*
X39457333Y-121070857D01*
X39409714Y-120975619D01*
X39409714Y-120785142D01*
X39457333Y-120689904D01*
X39552571Y-120642285D01*
X39647809Y-120642285D01*
X39743047Y-121118476D01*
X40076380Y-120213714D02*
X39409714Y-120213714D01*
X39600190Y-120213714D02*
X39504952Y-120166095D01*
X39457333Y-120118476D01*
X39409714Y-120023238D01*
X39409714Y-119928000D01*
X40028761Y-119642285D02*
X40076380Y-119547047D01*
X40076380Y-119356571D01*
X40028761Y-119261333D01*
X39933523Y-119213714D01*
X39885904Y-119213714D01*
X39790666Y-119261333D01*
X39743047Y-119356571D01*
X39743047Y-119499428D01*
X39695428Y-119594666D01*
X39600190Y-119642285D01*
X39552571Y-119642285D01*
X39457333Y-119594666D01*
X39409714Y-119499428D01*
X39409714Y-119356571D01*
X39457333Y-119261333D01*
X40076380Y-118785142D02*
X39409714Y-118785142D01*
X39076380Y-118785142D02*
X39124000Y-118832761D01*
X39171619Y-118785142D01*
X39124000Y-118737523D01*
X39076380Y-118785142D01*
X39171619Y-118785142D01*
X40076380Y-118166095D02*
X40028761Y-118261333D01*
X39981142Y-118308952D01*
X39885904Y-118356571D01*
X39600190Y-118356571D01*
X39504952Y-118308952D01*
X39457333Y-118261333D01*
X39409714Y-118166095D01*
X39409714Y-118023238D01*
X39457333Y-117928000D01*
X39504952Y-117880380D01*
X39600190Y-117832761D01*
X39885904Y-117832761D01*
X39981142Y-117880380D01*
X40028761Y-117928000D01*
X40076380Y-118023238D01*
X40076380Y-118166095D01*
X39409714Y-117404190D02*
X40076380Y-117404190D01*
X39504952Y-117404190D02*
X39457333Y-117356571D01*
X39409714Y-117261333D01*
X39409714Y-117118476D01*
X39457333Y-117023238D01*
X39552571Y-116975619D01*
X40076380Y-116975619D01*
X39981142Y-116499428D02*
X40028761Y-116451809D01*
X40076380Y-116499428D01*
X40028761Y-116547047D01*
X39981142Y-116499428D01*
X40076380Y-116499428D01*
X39457333Y-116499428D02*
X39504952Y-116451809D01*
X39552571Y-116499428D01*
X39504952Y-116547047D01*
X39457333Y-116499428D01*
X39552571Y-116499428D01*
X39076380Y-115070857D02*
X39076380Y-114975619D01*
X39124000Y-114880380D01*
X39171619Y-114832761D01*
X39266857Y-114785142D01*
X39457333Y-114737523D01*
X39695428Y-114737523D01*
X39885904Y-114785142D01*
X39981142Y-114832761D01*
X40028761Y-114880380D01*
X40076380Y-114975619D01*
X40076380Y-115070857D01*
X40028761Y-115166095D01*
X39981142Y-115213714D01*
X39885904Y-115261333D01*
X39695428Y-115308952D01*
X39457333Y-115308952D01*
X39266857Y-115261333D01*
X39171619Y-115213714D01*
X39124000Y-115166095D01*
X39076380Y-115070857D01*
X39981142Y-114308952D02*
X40028761Y-114261333D01*
X40076380Y-114308952D01*
X40028761Y-114356571D01*
X39981142Y-114308952D01*
X40076380Y-114308952D01*
X40076380Y-113308952D02*
X40076380Y-113880380D01*
X40076380Y-113594666D02*
X39076380Y-113594666D01*
X39219238Y-113689904D01*
X39314476Y-113785142D01*
X39362095Y-113880380D01*
X53744761Y-131777714D02*
X53792380Y-131682476D01*
X53792380Y-131492000D01*
X53744761Y-131396761D01*
X53649523Y-131349142D01*
X53601904Y-131349142D01*
X53506666Y-131396761D01*
X53459047Y-131492000D01*
X53459047Y-131634857D01*
X53411428Y-131730095D01*
X53316190Y-131777714D01*
X53268571Y-131777714D01*
X53173333Y-131730095D01*
X53125714Y-131634857D01*
X53125714Y-131492000D01*
X53173333Y-131396761D01*
X53792380Y-130777714D02*
X53744761Y-130872952D01*
X53697142Y-130920571D01*
X53601904Y-130968190D01*
X53316190Y-130968190D01*
X53220952Y-130920571D01*
X53173333Y-130872952D01*
X53125714Y-130777714D01*
X53125714Y-130634857D01*
X53173333Y-130539619D01*
X53220952Y-130492000D01*
X53316190Y-130444380D01*
X53601904Y-130444380D01*
X53697142Y-130492000D01*
X53744761Y-130539619D01*
X53792380Y-130634857D01*
X53792380Y-130777714D01*
X53125714Y-130015809D02*
X53792380Y-130015809D01*
X53220952Y-130015809D02*
X53173333Y-129968190D01*
X53125714Y-129872952D01*
X53125714Y-129730095D01*
X53173333Y-129634857D01*
X53268571Y-129587238D01*
X53792380Y-129587238D01*
X53792380Y-129111047D02*
X52792380Y-129111047D01*
X53173333Y-129111047D02*
X53125714Y-129015809D01*
X53125714Y-128825333D01*
X53173333Y-128730095D01*
X53220952Y-128682476D01*
X53316190Y-128634857D01*
X53601904Y-128634857D01*
X53697142Y-128682476D01*
X53744761Y-128730095D01*
X53792380Y-128825333D01*
X53792380Y-129015809D01*
X53744761Y-129111047D01*
X53744761Y-127825333D02*
X53792380Y-127920571D01*
X53792380Y-128111047D01*
X53744761Y-128206285D01*
X53649523Y-128253904D01*
X53268571Y-128253904D01*
X53173333Y-128206285D01*
X53125714Y-128111047D01*
X53125714Y-127920571D01*
X53173333Y-127825333D01*
X53268571Y-127777714D01*
X53363809Y-127777714D01*
X53459047Y-128253904D01*
X53744761Y-127396761D02*
X53792380Y-127301523D01*
X53792380Y-127111047D01*
X53744761Y-127015809D01*
X53649523Y-126968190D01*
X53601904Y-126968190D01*
X53506666Y-127015809D01*
X53459047Y-127111047D01*
X53459047Y-127253904D01*
X53411428Y-127349142D01*
X53316190Y-127396761D01*
X53268571Y-127396761D01*
X53173333Y-127349142D01*
X53125714Y-127253904D01*
X53125714Y-127111047D01*
X53173333Y-127015809D01*
X53792380Y-126539619D02*
X53125714Y-126539619D01*
X52792380Y-126539619D02*
X52840000Y-126587238D01*
X52887619Y-126539619D01*
X52840000Y-126492000D01*
X52792380Y-126539619D01*
X52887619Y-126539619D01*
X53744761Y-125682476D02*
X53792380Y-125777714D01*
X53792380Y-125968190D01*
X53744761Y-126063428D01*
X53649523Y-126111047D01*
X53268571Y-126111047D01*
X53173333Y-126063428D01*
X53125714Y-125968190D01*
X53125714Y-125777714D01*
X53173333Y-125682476D01*
X53268571Y-125634857D01*
X53363809Y-125634857D01*
X53459047Y-126111047D01*
X53697142Y-125206285D02*
X53744761Y-125158666D01*
X53792380Y-125206285D01*
X53744761Y-125253904D01*
X53697142Y-125206285D01*
X53792380Y-125206285D01*
X53744761Y-124301523D02*
X53792380Y-124396761D01*
X53792380Y-124587238D01*
X53744761Y-124682476D01*
X53697142Y-124730095D01*
X53601904Y-124777714D01*
X53316190Y-124777714D01*
X53220952Y-124730095D01*
X53173333Y-124682476D01*
X53125714Y-124587238D01*
X53125714Y-124396761D01*
X53173333Y-124301523D01*
X53792380Y-123730095D02*
X53744761Y-123825333D01*
X53697142Y-123872952D01*
X53601904Y-123920571D01*
X53316190Y-123920571D01*
X53220952Y-123872952D01*
X53173333Y-123825333D01*
X53125714Y-123730095D01*
X53125714Y-123587238D01*
X53173333Y-123492000D01*
X53220952Y-123444380D01*
X53316190Y-123396761D01*
X53601904Y-123396761D01*
X53697142Y-123444380D01*
X53744761Y-123492000D01*
X53792380Y-123587238D01*
X53792380Y-123730095D01*
X53697142Y-122968190D02*
X53744761Y-122920571D01*
X53792380Y-122968190D01*
X53744761Y-123015809D01*
X53697142Y-122968190D01*
X53792380Y-122968190D01*
X53125714Y-122587238D02*
X53125714Y-122063428D01*
X53792380Y-122587238D01*
X53792380Y-122063428D01*
X53792380Y-121253904D02*
X53268571Y-121253904D01*
X53173333Y-121301523D01*
X53125714Y-121396761D01*
X53125714Y-121587238D01*
X53173333Y-121682476D01*
X53744761Y-121253904D02*
X53792380Y-121349142D01*
X53792380Y-121587238D01*
X53744761Y-121682476D01*
X53649523Y-121730095D01*
X53554285Y-121730095D01*
X53459047Y-121682476D01*
X53411428Y-121587238D01*
X53411428Y-121349142D01*
X53363809Y-121253904D01*
X38925904Y-140454619D02*
X38973523Y-140407000D01*
X39068761Y-140359380D01*
X39306857Y-140359380D01*
X39402095Y-140407000D01*
X39449714Y-140454619D01*
X39497333Y-140549857D01*
X39497333Y-140645095D01*
X39449714Y-140787952D01*
X38878285Y-141359380D01*
X39497333Y-141359380D01*
X40116380Y-140359380D02*
X40211619Y-140359380D01*
X40306857Y-140407000D01*
X40354476Y-140454619D01*
X40402095Y-140549857D01*
X40449714Y-140740333D01*
X40449714Y-140978428D01*
X40402095Y-141168904D01*
X40354476Y-141264142D01*
X40306857Y-141311761D01*
X40211619Y-141359380D01*
X40116380Y-141359380D01*
X40021142Y-141311761D01*
X39973523Y-141264142D01*
X39925904Y-141168904D01*
X39878285Y-140978428D01*
X39878285Y-140740333D01*
X39925904Y-140549857D01*
X39973523Y-140454619D01*
X40021142Y-140407000D01*
X40116380Y-140359380D01*
X40830666Y-140454619D02*
X40878285Y-140407000D01*
X40973523Y-140359380D01*
X41211619Y-140359380D01*
X41306857Y-140407000D01*
X41354476Y-140454619D01*
X41402095Y-140549857D01*
X41402095Y-140645095D01*
X41354476Y-140787952D01*
X40783047Y-141359380D01*
X41402095Y-141359380D01*
X42021142Y-140359380D02*
X42116380Y-140359380D01*
X42211619Y-140407000D01*
X42259238Y-140454619D01*
X42306857Y-140549857D01*
X42354476Y-140740333D01*
X42354476Y-140978428D01*
X42306857Y-141168904D01*
X42259238Y-141264142D01*
X42211619Y-141311761D01*
X42116380Y-141359380D01*
X42021142Y-141359380D01*
X41925904Y-141311761D01*
X41878285Y-141264142D01*
X41830666Y-141168904D01*
X41783047Y-140978428D01*
X41783047Y-140740333D01*
X41830666Y-140549857D01*
X41878285Y-140454619D01*
X41925904Y-140407000D01*
X42021142Y-140359380D01*
X42783047Y-141359380D02*
X42783047Y-140359380D01*
X43116380Y-141073666D01*
X43449714Y-140359380D01*
X43449714Y-141359380D01*
X44116380Y-140359380D02*
X44211619Y-140359380D01*
X44306857Y-140407000D01*
X44354476Y-140454619D01*
X44402095Y-140549857D01*
X44449714Y-140740333D01*
X44449714Y-140978428D01*
X44402095Y-141168904D01*
X44354476Y-141264142D01*
X44306857Y-141311761D01*
X44211619Y-141359380D01*
X44116380Y-141359380D01*
X44021142Y-141311761D01*
X43973523Y-141264142D01*
X43925904Y-141168904D01*
X43878285Y-140978428D01*
X43878285Y-140740333D01*
X43925904Y-140549857D01*
X43973523Y-140454619D01*
X44021142Y-140407000D01*
X44116380Y-140359380D01*
X45402095Y-141359380D02*
X44830666Y-141359380D01*
X45116380Y-141359380D02*
X45116380Y-140359380D01*
X45021142Y-140502238D01*
X44925904Y-140597476D01*
X44830666Y-140645095D01*
X40925904Y-142723666D02*
X41402095Y-142723666D01*
X40830666Y-143009380D02*
X41164000Y-142009380D01*
X41497333Y-143009380D01*
X42164000Y-142485571D02*
X42306857Y-142533190D01*
X42354476Y-142580809D01*
X42402095Y-142676047D01*
X42402095Y-142818904D01*
X42354476Y-142914142D01*
X42306857Y-142961761D01*
X42211619Y-143009380D01*
X41830666Y-143009380D01*
X41830666Y-142009380D01*
X42164000Y-142009380D01*
X42259238Y-142057000D01*
X42306857Y-142104619D01*
X42354476Y-142199857D01*
X42354476Y-142295095D01*
X42306857Y-142390333D01*
X42259238Y-142437952D01*
X42164000Y-142485571D01*
X41830666Y-142485571D01*
X43402095Y-142914142D02*
X43354476Y-142961761D01*
X43211619Y-143009380D01*
X43116380Y-143009380D01*
X42973523Y-142961761D01*
X42878285Y-142866523D01*
X42830666Y-142771285D01*
X42783047Y-142580809D01*
X42783047Y-142437952D01*
X42830666Y-142247476D01*
X42878285Y-142152238D01*
X42973523Y-142057000D01*
X43116380Y-142009380D01*
X43211619Y-142009380D01*
X43354476Y-142057000D01*
X43402095Y-142104619D01*
D11*
G36*
X42719814Y-134120931D02*
G01*
X42803635Y-134565555D01*
X43112920Y-134693053D01*
X43422206Y-134820551D01*
X43793246Y-134568246D01*
X43897157Y-134497996D01*
X43991087Y-134435272D01*
X44070652Y-134382938D01*
X44131470Y-134343857D01*
X44169157Y-134320893D01*
X44179421Y-134315942D01*
X44197910Y-134328676D01*
X44237420Y-134363882D01*
X44293522Y-134417062D01*
X44361787Y-134483718D01*
X44437786Y-134559354D01*
X44517092Y-134639472D01*
X44595275Y-134719574D01*
X44667907Y-134795164D01*
X44730559Y-134861745D01*
X44778803Y-134914818D01*
X44808210Y-134949887D01*
X44815241Y-134961623D01*
X44805123Y-134983260D01*
X44776759Y-135030662D01*
X44733129Y-135099193D01*
X44677218Y-135184215D01*
X44612006Y-135281093D01*
X44574219Y-135336350D01*
X44505343Y-135437248D01*
X44444140Y-135528299D01*
X44393578Y-135604970D01*
X44356628Y-135662728D01*
X44336258Y-135697043D01*
X44333197Y-135704254D01*
X44340136Y-135724748D01*
X44359051Y-135772513D01*
X44387087Y-135840832D01*
X44421391Y-135922989D01*
X44459109Y-136012270D01*
X44497387Y-136101958D01*
X44533370Y-136185338D01*
X44564206Y-136255694D01*
X44587039Y-136306310D01*
X44599017Y-136330471D01*
X44599724Y-136331422D01*
X44618531Y-136336036D01*
X44668618Y-136346328D01*
X44744793Y-136361287D01*
X44841865Y-136379901D01*
X44954643Y-136401159D01*
X45020442Y-136413418D01*
X45140950Y-136436362D01*
X45249797Y-136458195D01*
X45341476Y-136477722D01*
X45410481Y-136493748D01*
X45451304Y-136505079D01*
X45459511Y-136508674D01*
X45467548Y-136533006D01*
X45474033Y-136587959D01*
X45478970Y-136667108D01*
X45482364Y-136764026D01*
X45484218Y-136872287D01*
X45484538Y-136985465D01*
X45483327Y-137097135D01*
X45480590Y-137200868D01*
X45476331Y-137290241D01*
X45470555Y-137358826D01*
X45463267Y-137400197D01*
X45458895Y-137408810D01*
X45432764Y-137419133D01*
X45377393Y-137433892D01*
X45300107Y-137451352D01*
X45208230Y-137469780D01*
X45176158Y-137475741D01*
X45021524Y-137504066D01*
X44899375Y-137526876D01*
X44805673Y-137545080D01*
X44736384Y-137559583D01*
X44687471Y-137571292D01*
X44654897Y-137581115D01*
X44634628Y-137589956D01*
X44622626Y-137598724D01*
X44620947Y-137600457D01*
X44604184Y-137628371D01*
X44578614Y-137682695D01*
X44546788Y-137756777D01*
X44511260Y-137843965D01*
X44474583Y-137937608D01*
X44439311Y-138031052D01*
X44407996Y-138117647D01*
X44383193Y-138190740D01*
X44367454Y-138243678D01*
X44363332Y-138269811D01*
X44363676Y-138270726D01*
X44377641Y-138292086D01*
X44409322Y-138339084D01*
X44455391Y-138406827D01*
X44512518Y-138490423D01*
X44577373Y-138584982D01*
X44595843Y-138611854D01*
X44661699Y-138709275D01*
X44719650Y-138798163D01*
X44766538Y-138873412D01*
X44799207Y-138929920D01*
X44814500Y-138962581D01*
X44815241Y-138966593D01*
X44802392Y-138987684D01*
X44766888Y-139029464D01*
X44713293Y-139087445D01*
X44646171Y-139157135D01*
X44570087Y-139234045D01*
X44489604Y-139313683D01*
X44409287Y-139391561D01*
X44333699Y-139463186D01*
X44267405Y-139524070D01*
X44214969Y-139569721D01*
X44180955Y-139595650D01*
X44171545Y-139599883D01*
X44149643Y-139589912D01*
X44104800Y-139563020D01*
X44044321Y-139523736D01*
X43997789Y-139492117D01*
X43913475Y-139434098D01*
X43813626Y-139365784D01*
X43713473Y-139297579D01*
X43659627Y-139261075D01*
X43477371Y-139137800D01*
X43324381Y-139220520D01*
X43254682Y-139256759D01*
X43195414Y-139284926D01*
X43155311Y-139300991D01*
X43145103Y-139303226D01*
X43132829Y-139286722D01*
X43108613Y-139240082D01*
X43074263Y-139167609D01*
X43031588Y-139073606D01*
X42982394Y-138962374D01*
X42928490Y-138838215D01*
X42871684Y-138705432D01*
X42813782Y-138568327D01*
X42756593Y-138431202D01*
X42701924Y-138298358D01*
X42651584Y-138174098D01*
X42607380Y-138062725D01*
X42571119Y-137968539D01*
X42544609Y-137895844D01*
X42529658Y-137848941D01*
X42527254Y-137832833D01*
X42546311Y-137812286D01*
X42588036Y-137778933D01*
X42643706Y-137739702D01*
X42648378Y-137736599D01*
X42792264Y-137621423D01*
X42908283Y-137487053D01*
X42995430Y-137337784D01*
X43052699Y-137177913D01*
X43079086Y-137011737D01*
X43073585Y-136843552D01*
X43035190Y-136677655D01*
X42962895Y-136518342D01*
X42941626Y-136483487D01*
X42830996Y-136342737D01*
X42700302Y-136229714D01*
X42554064Y-136145003D01*
X42396808Y-136089194D01*
X42233057Y-136062874D01*
X42067333Y-136066630D01*
X41904162Y-136101050D01*
X41748065Y-136166723D01*
X41603567Y-136264235D01*
X41558869Y-136303813D01*
X41445112Y-136427703D01*
X41362218Y-136558124D01*
X41305356Y-136704315D01*
X41273687Y-136849088D01*
X41265869Y-137011860D01*
X41291938Y-137175440D01*
X41349245Y-137334298D01*
X41435144Y-137482906D01*
X41546986Y-137615735D01*
X41682123Y-137727256D01*
X41699883Y-137739011D01*
X41756150Y-137777508D01*
X41798923Y-137810863D01*
X41819372Y-137832160D01*
X41819669Y-137832833D01*
X41815279Y-137855871D01*
X41797876Y-137908157D01*
X41769268Y-137985390D01*
X41731265Y-138083268D01*
X41685674Y-138197491D01*
X41634303Y-138323758D01*
X41578962Y-138457767D01*
X41521458Y-138595218D01*
X41463601Y-138731808D01*
X41407198Y-138863237D01*
X41354058Y-138985205D01*
X41305990Y-139093409D01*
X41264801Y-139183549D01*
X41232301Y-139251323D01*
X41210297Y-139292430D01*
X41201436Y-139303226D01*
X41174360Y-139294819D01*
X41123697Y-139272272D01*
X41058183Y-139239613D01*
X41022159Y-139220520D01*
X40869168Y-139137800D01*
X40686912Y-139261075D01*
X40593875Y-139324228D01*
X40492015Y-139393727D01*
X40396562Y-139459165D01*
X40348750Y-139492117D01*
X40281505Y-139537273D01*
X40224564Y-139573057D01*
X40185354Y-139594938D01*
X40172619Y-139599563D01*
X40154083Y-139587085D01*
X40113059Y-139552252D01*
X40053525Y-139498678D01*
X39979458Y-139429983D01*
X39894835Y-139349781D01*
X39841315Y-139298286D01*
X39747681Y-139206286D01*
X39666759Y-139123999D01*
X39601823Y-139054945D01*
X39556142Y-139002644D01*
X39532989Y-138970616D01*
X39530768Y-138964116D01*
X39541076Y-138939394D01*
X39569561Y-138889405D01*
X39613063Y-138819212D01*
X39668423Y-138733875D01*
X39732480Y-138638456D01*
X39750697Y-138611854D01*
X39817073Y-138515167D01*
X39876622Y-138428117D01*
X39926016Y-138355595D01*
X39961925Y-138302493D01*
X39981019Y-138273703D01*
X39982864Y-138270726D01*
X39980105Y-138247782D01*
X39965462Y-138197336D01*
X39941487Y-138126041D01*
X39910734Y-138040547D01*
X39875756Y-137947507D01*
X39839107Y-137853574D01*
X39803339Y-137765399D01*
X39771006Y-137689634D01*
X39744662Y-137632931D01*
X39726858Y-137601943D01*
X39725593Y-137600457D01*
X39714706Y-137591601D01*
X39696318Y-137582843D01*
X39666394Y-137573277D01*
X39620897Y-137561996D01*
X39555791Y-137548093D01*
X39467039Y-137530663D01*
X39350607Y-137508798D01*
X39202458Y-137481591D01*
X39170382Y-137475741D01*
X39075314Y-137457374D01*
X38992435Y-137439405D01*
X38929070Y-137423569D01*
X38892542Y-137411600D01*
X38887644Y-137408810D01*
X38879573Y-137384072D01*
X38873013Y-137328790D01*
X38867967Y-137249389D01*
X38864441Y-137152296D01*
X38862439Y-137043938D01*
X38861964Y-136930740D01*
X38863023Y-136819128D01*
X38865618Y-136715529D01*
X38869754Y-136626368D01*
X38875437Y-136558072D01*
X38882669Y-136517066D01*
X38887029Y-136508674D01*
X38911302Y-136500208D01*
X38966574Y-136486435D01*
X39047338Y-136468550D01*
X39148088Y-136447748D01*
X39263317Y-136425223D01*
X39326098Y-136413418D01*
X39445213Y-136391151D01*
X39551435Y-136370979D01*
X39639573Y-136353915D01*
X39704434Y-136340969D01*
X39740826Y-136333155D01*
X39746816Y-136331422D01*
X39756939Y-136311890D01*
X39778338Y-136264843D01*
X39808161Y-136197003D01*
X39843555Y-136115091D01*
X39881668Y-136025828D01*
X39919647Y-135935935D01*
X39954640Y-135852135D01*
X39983794Y-135781147D01*
X40004257Y-135729694D01*
X40013177Y-135704497D01*
X40013343Y-135703396D01*
X40003231Y-135683519D01*
X39974883Y-135637777D01*
X39931277Y-135570717D01*
X39875394Y-135486884D01*
X39810213Y-135390826D01*
X39772321Y-135335650D01*
X39703275Y-135234481D01*
X39641950Y-135142630D01*
X39591337Y-135064744D01*
X39554429Y-135005469D01*
X39534218Y-134969451D01*
X39531299Y-134961377D01*
X39543847Y-134942584D01*
X39578537Y-134902457D01*
X39630937Y-134845493D01*
X39696616Y-134776185D01*
X39771144Y-134699031D01*
X39850087Y-134618525D01*
X39929017Y-134539163D01*
X40003500Y-134465440D01*
X40069106Y-134401852D01*
X40121404Y-134352894D01*
X40155961Y-134323061D01*
X40167522Y-134315942D01*
X40186346Y-134325953D01*
X40231369Y-134354078D01*
X40298213Y-134397454D01*
X40382501Y-134453218D01*
X40479856Y-134518506D01*
X40553293Y-134568246D01*
X40924333Y-134820551D01*
X41542905Y-134565555D01*
X41626725Y-134120931D01*
X41710546Y-133676307D01*
X42635994Y-133676307D01*
X42719814Y-134120931D01*
G37*
X42719814Y-134120931D02*
X42803635Y-134565555D01*
X43112920Y-134693053D01*
X43422206Y-134820551D01*
X43793246Y-134568246D01*
X43897157Y-134497996D01*
X43991087Y-134435272D01*
X44070652Y-134382938D01*
X44131470Y-134343857D01*
X44169157Y-134320893D01*
X44179421Y-134315942D01*
X44197910Y-134328676D01*
X44237420Y-134363882D01*
X44293522Y-134417062D01*
X44361787Y-134483718D01*
X44437786Y-134559354D01*
X44517092Y-134639472D01*
X44595275Y-134719574D01*
X44667907Y-134795164D01*
X44730559Y-134861745D01*
X44778803Y-134914818D01*
X44808210Y-134949887D01*
X44815241Y-134961623D01*
X44805123Y-134983260D01*
X44776759Y-135030662D01*
X44733129Y-135099193D01*
X44677218Y-135184215D01*
X44612006Y-135281093D01*
X44574219Y-135336350D01*
X44505343Y-135437248D01*
X44444140Y-135528299D01*
X44393578Y-135604970D01*
X44356628Y-135662728D01*
X44336258Y-135697043D01*
X44333197Y-135704254D01*
X44340136Y-135724748D01*
X44359051Y-135772513D01*
X44387087Y-135840832D01*
X44421391Y-135922989D01*
X44459109Y-136012270D01*
X44497387Y-136101958D01*
X44533370Y-136185338D01*
X44564206Y-136255694D01*
X44587039Y-136306310D01*
X44599017Y-136330471D01*
X44599724Y-136331422D01*
X44618531Y-136336036D01*
X44668618Y-136346328D01*
X44744793Y-136361287D01*
X44841865Y-136379901D01*
X44954643Y-136401159D01*
X45020442Y-136413418D01*
X45140950Y-136436362D01*
X45249797Y-136458195D01*
X45341476Y-136477722D01*
X45410481Y-136493748D01*
X45451304Y-136505079D01*
X45459511Y-136508674D01*
X45467548Y-136533006D01*
X45474033Y-136587959D01*
X45478970Y-136667108D01*
X45482364Y-136764026D01*
X45484218Y-136872287D01*
X45484538Y-136985465D01*
X45483327Y-137097135D01*
X45480590Y-137200868D01*
X45476331Y-137290241D01*
X45470555Y-137358826D01*
X45463267Y-137400197D01*
X45458895Y-137408810D01*
X45432764Y-137419133D01*
X45377393Y-137433892D01*
X45300107Y-137451352D01*
X45208230Y-137469780D01*
X45176158Y-137475741D01*
X45021524Y-137504066D01*
X44899375Y-137526876D01*
X44805673Y-137545080D01*
X44736384Y-137559583D01*
X44687471Y-137571292D01*
X44654897Y-137581115D01*
X44634628Y-137589956D01*
X44622626Y-137598724D01*
X44620947Y-137600457D01*
X44604184Y-137628371D01*
X44578614Y-137682695D01*
X44546788Y-137756777D01*
X44511260Y-137843965D01*
X44474583Y-137937608D01*
X44439311Y-138031052D01*
X44407996Y-138117647D01*
X44383193Y-138190740D01*
X44367454Y-138243678D01*
X44363332Y-138269811D01*
X44363676Y-138270726D01*
X44377641Y-138292086D01*
X44409322Y-138339084D01*
X44455391Y-138406827D01*
X44512518Y-138490423D01*
X44577373Y-138584982D01*
X44595843Y-138611854D01*
X44661699Y-138709275D01*
X44719650Y-138798163D01*
X44766538Y-138873412D01*
X44799207Y-138929920D01*
X44814500Y-138962581D01*
X44815241Y-138966593D01*
X44802392Y-138987684D01*
X44766888Y-139029464D01*
X44713293Y-139087445D01*
X44646171Y-139157135D01*
X44570087Y-139234045D01*
X44489604Y-139313683D01*
X44409287Y-139391561D01*
X44333699Y-139463186D01*
X44267405Y-139524070D01*
X44214969Y-139569721D01*
X44180955Y-139595650D01*
X44171545Y-139599883D01*
X44149643Y-139589912D01*
X44104800Y-139563020D01*
X44044321Y-139523736D01*
X43997789Y-139492117D01*
X43913475Y-139434098D01*
X43813626Y-139365784D01*
X43713473Y-139297579D01*
X43659627Y-139261075D01*
X43477371Y-139137800D01*
X43324381Y-139220520D01*
X43254682Y-139256759D01*
X43195414Y-139284926D01*
X43155311Y-139300991D01*
X43145103Y-139303226D01*
X43132829Y-139286722D01*
X43108613Y-139240082D01*
X43074263Y-139167609D01*
X43031588Y-139073606D01*
X42982394Y-138962374D01*
X42928490Y-138838215D01*
X42871684Y-138705432D01*
X42813782Y-138568327D01*
X42756593Y-138431202D01*
X42701924Y-138298358D01*
X42651584Y-138174098D01*
X42607380Y-138062725D01*
X42571119Y-137968539D01*
X42544609Y-137895844D01*
X42529658Y-137848941D01*
X42527254Y-137832833D01*
X42546311Y-137812286D01*
X42588036Y-137778933D01*
X42643706Y-137739702D01*
X42648378Y-137736599D01*
X42792264Y-137621423D01*
X42908283Y-137487053D01*
X42995430Y-137337784D01*
X43052699Y-137177913D01*
X43079086Y-137011737D01*
X43073585Y-136843552D01*
X43035190Y-136677655D01*
X42962895Y-136518342D01*
X42941626Y-136483487D01*
X42830996Y-136342737D01*
X42700302Y-136229714D01*
X42554064Y-136145003D01*
X42396808Y-136089194D01*
X42233057Y-136062874D01*
X42067333Y-136066630D01*
X41904162Y-136101050D01*
X41748065Y-136166723D01*
X41603567Y-136264235D01*
X41558869Y-136303813D01*
X41445112Y-136427703D01*
X41362218Y-136558124D01*
X41305356Y-136704315D01*
X41273687Y-136849088D01*
X41265869Y-137011860D01*
X41291938Y-137175440D01*
X41349245Y-137334298D01*
X41435144Y-137482906D01*
X41546986Y-137615735D01*
X41682123Y-137727256D01*
X41699883Y-137739011D01*
X41756150Y-137777508D01*
X41798923Y-137810863D01*
X41819372Y-137832160D01*
X41819669Y-137832833D01*
X41815279Y-137855871D01*
X41797876Y-137908157D01*
X41769268Y-137985390D01*
X41731265Y-138083268D01*
X41685674Y-138197491D01*
X41634303Y-138323758D01*
X41578962Y-138457767D01*
X41521458Y-138595218D01*
X41463601Y-138731808D01*
X41407198Y-138863237D01*
X41354058Y-138985205D01*
X41305990Y-139093409D01*
X41264801Y-139183549D01*
X41232301Y-139251323D01*
X41210297Y-139292430D01*
X41201436Y-139303226D01*
X41174360Y-139294819D01*
X41123697Y-139272272D01*
X41058183Y-139239613D01*
X41022159Y-139220520D01*
X40869168Y-139137800D01*
X40686912Y-139261075D01*
X40593875Y-139324228D01*
X40492015Y-139393727D01*
X40396562Y-139459165D01*
X40348750Y-139492117D01*
X40281505Y-139537273D01*
X40224564Y-139573057D01*
X40185354Y-139594938D01*
X40172619Y-139599563D01*
X40154083Y-139587085D01*
X40113059Y-139552252D01*
X40053525Y-139498678D01*
X39979458Y-139429983D01*
X39894835Y-139349781D01*
X39841315Y-139298286D01*
X39747681Y-139206286D01*
X39666759Y-139123999D01*
X39601823Y-139054945D01*
X39556142Y-139002644D01*
X39532989Y-138970616D01*
X39530768Y-138964116D01*
X39541076Y-138939394D01*
X39569561Y-138889405D01*
X39613063Y-138819212D01*
X39668423Y-138733875D01*
X39732480Y-138638456D01*
X39750697Y-138611854D01*
X39817073Y-138515167D01*
X39876622Y-138428117D01*
X39926016Y-138355595D01*
X39961925Y-138302493D01*
X39981019Y-138273703D01*
X39982864Y-138270726D01*
X39980105Y-138247782D01*
X39965462Y-138197336D01*
X39941487Y-138126041D01*
X39910734Y-138040547D01*
X39875756Y-137947507D01*
X39839107Y-137853574D01*
X39803339Y-137765399D01*
X39771006Y-137689634D01*
X39744662Y-137632931D01*
X39726858Y-137601943D01*
X39725593Y-137600457D01*
X39714706Y-137591601D01*
X39696318Y-137582843D01*
X39666394Y-137573277D01*
X39620897Y-137561996D01*
X39555791Y-137548093D01*
X39467039Y-137530663D01*
X39350607Y-137508798D01*
X39202458Y-137481591D01*
X39170382Y-137475741D01*
X39075314Y-137457374D01*
X38992435Y-137439405D01*
X38929070Y-137423569D01*
X38892542Y-137411600D01*
X38887644Y-137408810D01*
X38879573Y-137384072D01*
X38873013Y-137328790D01*
X38867967Y-137249389D01*
X38864441Y-137152296D01*
X38862439Y-137043938D01*
X38861964Y-136930740D01*
X38863023Y-136819128D01*
X38865618Y-136715529D01*
X38869754Y-136626368D01*
X38875437Y-136558072D01*
X38882669Y-136517066D01*
X38887029Y-136508674D01*
X38911302Y-136500208D01*
X38966574Y-136486435D01*
X39047338Y-136468550D01*
X39148088Y-136447748D01*
X39263317Y-136425223D01*
X39326098Y-136413418D01*
X39445213Y-136391151D01*
X39551435Y-136370979D01*
X39639573Y-136353915D01*
X39704434Y-136340969D01*
X39740826Y-136333155D01*
X39746816Y-136331422D01*
X39756939Y-136311890D01*
X39778338Y-136264843D01*
X39808161Y-136197003D01*
X39843555Y-136115091D01*
X39881668Y-136025828D01*
X39919647Y-135935935D01*
X39954640Y-135852135D01*
X39983794Y-135781147D01*
X40004257Y-135729694D01*
X40013177Y-135704497D01*
X40013343Y-135703396D01*
X40003231Y-135683519D01*
X39974883Y-135637777D01*
X39931277Y-135570717D01*
X39875394Y-135486884D01*
X39810213Y-135390826D01*
X39772321Y-135335650D01*
X39703275Y-135234481D01*
X39641950Y-135142630D01*
X39591337Y-135064744D01*
X39554429Y-135005469D01*
X39534218Y-134969451D01*
X39531299Y-134961377D01*
X39543847Y-134942584D01*
X39578537Y-134902457D01*
X39630937Y-134845493D01*
X39696616Y-134776185D01*
X39771144Y-134699031D01*
X39850087Y-134618525D01*
X39929017Y-134539163D01*
X40003500Y-134465440D01*
X40069106Y-134401852D01*
X40121404Y-134352894D01*
X40155961Y-134323061D01*
X40167522Y-134315942D01*
X40186346Y-134325953D01*
X40231369Y-134354078D01*
X40298213Y-134397454D01*
X40382501Y-134453218D01*
X40479856Y-134518506D01*
X40553293Y-134568246D01*
X40924333Y-134820551D01*
X41542905Y-134565555D01*
X41626725Y-134120931D01*
X41710546Y-133676307D01*
X42635994Y-133676307D01*
X42719814Y-134120931D01*
D12*
X44256478Y-151698478D02*
G75*
G03X42418000Y-147260000I-1838478J1838478D01*
G01*
X40579522Y-151698478D02*
G75*
G02X42418000Y-147260000I1838478J1838478D01*
G01*
X40618000Y-151710000D02*
X44218000Y-151710000D01*
X38254000Y-108680000D02*
X38584000Y-108680000D01*
X38254000Y-102140000D02*
X38254000Y-108680000D01*
X38584000Y-102140000D02*
X38254000Y-102140000D01*
X40994000Y-108680000D02*
X40664000Y-108680000D01*
X40994000Y-102140000D02*
X40994000Y-108680000D01*
X40664000Y-102140000D02*
X40994000Y-102140000D01*
X38254000Y-95980000D02*
X38584000Y-95980000D01*
X38254000Y-89440000D02*
X38254000Y-95980000D01*
X38584000Y-89440000D02*
X38254000Y-89440000D01*
X40994000Y-95980000D02*
X40664000Y-95980000D01*
X40994000Y-89440000D02*
X40994000Y-95980000D01*
X40664000Y-89440000D02*
X40994000Y-89440000D01*
X38254000Y-83280000D02*
X38584000Y-83280000D01*
X38254000Y-76740000D02*
X38254000Y-83280000D01*
X38584000Y-76740000D02*
X38254000Y-76740000D01*
X40994000Y-83280000D02*
X40664000Y-83280000D01*
X40994000Y-76740000D02*
X40994000Y-83280000D01*
X40664000Y-76740000D02*
X40994000Y-76740000D01*
X38254000Y-70580000D02*
X38584000Y-70580000D01*
X38254000Y-64040000D02*
X38254000Y-70580000D01*
X38584000Y-64040000D02*
X38254000Y-64040000D01*
X40994000Y-70580000D02*
X40664000Y-70580000D01*
X40994000Y-64040000D02*
X40994000Y-70580000D01*
X40664000Y-64040000D02*
X40994000Y-64040000D01*
X46150000Y-151204000D02*
X47400000Y-151204000D01*
X46150000Y-149954000D02*
X46150000Y-151204000D01*
X50560000Y-137844000D02*
X50060000Y-137844000D01*
X50060000Y-137744000D02*
X50560000Y-137744000D01*
X50060000Y-137944000D02*
X50060000Y-137744000D01*
X50560000Y-137944000D02*
X50060000Y-137944000D01*
X50560000Y-139844000D02*
X50060000Y-139844000D01*
X50060000Y-139744000D02*
X50560000Y-139744000D01*
X50060000Y-139944000D02*
X50060000Y-139744000D01*
X50560000Y-139944000D02*
X50060000Y-139944000D01*
X50560000Y-141844000D02*
X50060000Y-141844000D01*
X50060000Y-141744000D02*
X50560000Y-141744000D01*
X50060000Y-141944000D02*
X50060000Y-141744000D01*
X50560000Y-141944000D02*
X50060000Y-141944000D01*
X50560000Y-143844000D02*
X50060000Y-143844000D01*
X50060000Y-143744000D02*
X50560000Y-143744000D01*
X50060000Y-143944000D02*
X50060000Y-143744000D01*
X50560000Y-143944000D02*
X50060000Y-143944000D01*
X50560000Y-145844000D02*
X50060000Y-145844000D01*
X50060000Y-145744000D02*
X50560000Y-145744000D01*
X50060000Y-145944000D02*
X50060000Y-145744000D01*
X50560000Y-145944000D02*
X50060000Y-145944000D01*
X50560000Y-147844000D02*
X50060000Y-147844000D01*
X50060000Y-147744000D02*
X50560000Y-147744000D01*
X50060000Y-147944000D02*
X50060000Y-147744000D01*
X50560000Y-147944000D02*
X50060000Y-147944000D01*
X49060000Y-134784000D02*
X49060000Y-135394000D01*
X47760000Y-134784000D02*
X47760000Y-135394000D01*
X49060000Y-150904000D02*
X49060000Y-150294000D01*
X47760000Y-150904000D02*
X47760000Y-150294000D01*
X47060000Y-137344000D02*
X46450000Y-137344000D01*
X47060000Y-135394000D02*
X47060000Y-137344000D01*
X50560000Y-135394000D02*
X47060000Y-135394000D01*
X50560000Y-150294000D02*
X50560000Y-135394000D01*
X47060000Y-150294000D02*
X50560000Y-150294000D01*
X47060000Y-148344000D02*
X47060000Y-150294000D01*
X46450000Y-148344000D02*
X47060000Y-148344000D01*
X46350000Y-149144000D02*
X46350000Y-149444000D01*
X46250000Y-149444000D02*
X46450000Y-149444000D01*
X46250000Y-149144000D02*
X46250000Y-149444000D01*
X46450000Y-149144000D02*
X46250000Y-149144000D01*
X46450000Y-134784000D02*
X46450000Y-150904000D01*
X51170000Y-134784000D02*
X46450000Y-134784000D01*
X51170000Y-150904000D02*
X51170000Y-134784000D01*
X46450000Y-150904000D02*
X51170000Y-150904000D01*
X49132000Y-112970000D02*
X47482000Y-112970000D01*
X49132000Y-133410000D02*
X49132000Y-112970000D01*
X43832000Y-133410000D02*
X49132000Y-133410000D01*
X43832000Y-112970000D02*
X43832000Y-133410000D01*
X45482000Y-112970000D02*
X43832000Y-112970000D01*
X47482000Y-112970000D02*
G75*
G02X45482000Y-112970000I-1000000J0D01*
G01*
X49132000Y-100270000D02*
X47482000Y-100270000D01*
X49132000Y-110550000D02*
X49132000Y-100270000D01*
X43832000Y-110550000D02*
X49132000Y-110550000D01*
X43832000Y-100270000D02*
X43832000Y-110550000D01*
X45482000Y-100270000D02*
X43832000Y-100270000D01*
X47482000Y-100270000D02*
G75*
G02X45482000Y-100270000I-1000000J0D01*
G01*
X49132000Y-87570000D02*
X47482000Y-87570000D01*
X49132000Y-97850000D02*
X49132000Y-87570000D01*
X43832000Y-97850000D02*
X49132000Y-97850000D01*
X43832000Y-87570000D02*
X43832000Y-97850000D01*
X45482000Y-87570000D02*
X43832000Y-87570000D01*
X47482000Y-87570000D02*
G75*
G02X45482000Y-87570000I-1000000J0D01*
G01*
X49132000Y-74870000D02*
X47482000Y-74870000D01*
X49132000Y-85150000D02*
X49132000Y-74870000D01*
X43832000Y-85150000D02*
X49132000Y-85150000D01*
X43832000Y-74870000D02*
X43832000Y-85150000D01*
X45482000Y-74870000D02*
X43832000Y-74870000D01*
X47482000Y-74870000D02*
G75*
G02X45482000Y-74870000I-1000000J0D01*
G01*
X49005000Y-62170000D02*
X47355000Y-62170000D01*
X49005000Y-72450000D02*
X49005000Y-62170000D01*
X43705000Y-72450000D02*
X49005000Y-72450000D01*
X43705000Y-62170000D02*
X43705000Y-72450000D01*
X45355000Y-62170000D02*
X43705000Y-62170000D01*
X47355000Y-62170000D02*
G75*
G02X45355000Y-62170000I-1000000J0D01*
G01*
X51970000Y-112970000D02*
X54710000Y-112970000D01*
X51970000Y-118210000D02*
X54710000Y-118210000D01*
X54710000Y-118210000D02*
X54710000Y-112970000D01*
X51970000Y-118210000D02*
X51970000Y-112970000D01*
X51970000Y-100270000D02*
X54710000Y-100270000D01*
X51970000Y-105510000D02*
X54710000Y-105510000D01*
X54710000Y-105510000D02*
X54710000Y-100270000D01*
X51970000Y-105510000D02*
X51970000Y-100270000D01*
X51970000Y-87570000D02*
X54710000Y-87570000D01*
X51970000Y-92810000D02*
X54710000Y-92810000D01*
X54710000Y-92810000D02*
X54710000Y-87570000D01*
X51970000Y-92810000D02*
X51970000Y-87570000D01*
X51970000Y-74870000D02*
X54710000Y-74870000D01*
X51970000Y-80110000D02*
X54710000Y-80110000D01*
X54710000Y-80110000D02*
X54710000Y-74870000D01*
X51970000Y-80110000D02*
X51970000Y-74870000D01*
X51970000Y-62170000D02*
X54710000Y-62170000D01*
X51970000Y-67410000D02*
X54710000Y-67410000D01*
X54710000Y-67410000D02*
X54710000Y-62170000D01*
X51970000Y-67410000D02*
X51970000Y-62170000D01*
X45018000Y-143918000D02*
X45018000Y-146658000D01*
X39778000Y-143918000D02*
X39778000Y-146658000D01*
X39778000Y-146658000D02*
X45018000Y-146658000D01*
X39778000Y-143918000D02*
X45018000Y-143918000D01*
X51970000Y-146498000D02*
X54710000Y-146498000D01*
X51970000Y-151738000D02*
X54710000Y-151738000D01*
X54710000Y-151738000D02*
X54710000Y-146498000D01*
X51970000Y-151738000D02*
X51970000Y-146498000D01*
D10*
X37846095Y-149312380D02*
X37846095Y-150121904D01*
X37893714Y-150217142D01*
X37941333Y-150264761D01*
X38036571Y-150312380D01*
X38227047Y-150312380D01*
X38322285Y-150264761D01*
X38369904Y-150217142D01*
X38417523Y-150121904D01*
X38417523Y-149312380D01*
X39417523Y-150312380D02*
X38846095Y-150312380D01*
X39131809Y-150312380D02*
X39131809Y-149312380D01*
X39036571Y-149455238D01*
X38941333Y-149550476D01*
X38846095Y-149598095D01*
X39457333Y-99512380D02*
X39124000Y-99036190D01*
X38885904Y-99512380D02*
X38885904Y-98512380D01*
X39266857Y-98512380D01*
X39362095Y-98560000D01*
X39409714Y-98607619D01*
X39457333Y-98702857D01*
X39457333Y-98845714D01*
X39409714Y-98940952D01*
X39362095Y-98988571D01*
X39266857Y-99036190D01*
X38885904Y-99036190D01*
X40314476Y-98845714D02*
X40314476Y-99512380D01*
X40076380Y-98464761D02*
X39838285Y-99179047D01*
X40457333Y-99179047D01*
X39457333Y-86812380D02*
X39124000Y-86336190D01*
X38885904Y-86812380D02*
X38885904Y-85812380D01*
X39266857Y-85812380D01*
X39362095Y-85860000D01*
X39409714Y-85907619D01*
X39457333Y-86002857D01*
X39457333Y-86145714D01*
X39409714Y-86240952D01*
X39362095Y-86288571D01*
X39266857Y-86336190D01*
X38885904Y-86336190D01*
X39790666Y-85812380D02*
X40409714Y-85812380D01*
X40076380Y-86193333D01*
X40219238Y-86193333D01*
X40314476Y-86240952D01*
X40362095Y-86288571D01*
X40409714Y-86383809D01*
X40409714Y-86621904D01*
X40362095Y-86717142D01*
X40314476Y-86764761D01*
X40219238Y-86812380D01*
X39933523Y-86812380D01*
X39838285Y-86764761D01*
X39790666Y-86717142D01*
X39457333Y-74112380D02*
X39124000Y-73636190D01*
X38885904Y-74112380D02*
X38885904Y-73112380D01*
X39266857Y-73112380D01*
X39362095Y-73160000D01*
X39409714Y-73207619D01*
X39457333Y-73302857D01*
X39457333Y-73445714D01*
X39409714Y-73540952D01*
X39362095Y-73588571D01*
X39266857Y-73636190D01*
X38885904Y-73636190D01*
X39838285Y-73207619D02*
X39885904Y-73160000D01*
X39981142Y-73112380D01*
X40219238Y-73112380D01*
X40314476Y-73160000D01*
X40362095Y-73207619D01*
X40409714Y-73302857D01*
X40409714Y-73398095D01*
X40362095Y-73540952D01*
X39790666Y-74112380D01*
X40409714Y-74112380D01*
X39457333Y-61412380D02*
X39124000Y-60936190D01*
X38885904Y-61412380D02*
X38885904Y-60412380D01*
X39266857Y-60412380D01*
X39362095Y-60460000D01*
X39409714Y-60507619D01*
X39457333Y-60602857D01*
X39457333Y-60745714D01*
X39409714Y-60840952D01*
X39362095Y-60888571D01*
X39266857Y-60936190D01*
X38885904Y-60936190D01*
X40409714Y-61412380D02*
X39838285Y-61412380D01*
X40124000Y-61412380D02*
X40124000Y-60412380D01*
X40028761Y-60555238D01*
X39933523Y-60650476D01*
X39838285Y-60698095D01*
X53006666Y-134580380D02*
X53006666Y-135294666D01*
X52959047Y-135437523D01*
X52863809Y-135532761D01*
X52720952Y-135580380D01*
X52625714Y-135580380D01*
X54006666Y-135580380D02*
X53435238Y-135580380D01*
X53720952Y-135580380D02*
X53720952Y-134580380D01*
X53625714Y-134723238D01*
X53530476Y-134818476D01*
X53435238Y-134866095D01*
X45505809Y-112212380D02*
X45505809Y-111212380D01*
X46553428Y-112117142D02*
X46505809Y-112164761D01*
X46362952Y-112212380D01*
X46267714Y-112212380D01*
X46124857Y-112164761D01*
X46029619Y-112069523D01*
X45982000Y-111974285D01*
X45934380Y-111783809D01*
X45934380Y-111640952D01*
X45982000Y-111450476D01*
X46029619Y-111355238D01*
X46124857Y-111260000D01*
X46267714Y-111212380D01*
X46362952Y-111212380D01*
X46505809Y-111260000D01*
X46553428Y-111307619D01*
X47458190Y-111212380D02*
X46982000Y-111212380D01*
X46934380Y-111688571D01*
X46982000Y-111640952D01*
X47077238Y-111593333D01*
X47315333Y-111593333D01*
X47410571Y-111640952D01*
X47458190Y-111688571D01*
X47505809Y-111783809D01*
X47505809Y-112021904D01*
X47458190Y-112117142D01*
X47410571Y-112164761D01*
X47315333Y-112212380D01*
X47077238Y-112212380D01*
X46982000Y-112164761D01*
X46934380Y-112117142D01*
X45505809Y-99512380D02*
X45505809Y-98512380D01*
X46553428Y-99417142D02*
X46505809Y-99464761D01*
X46362952Y-99512380D01*
X46267714Y-99512380D01*
X46124857Y-99464761D01*
X46029619Y-99369523D01*
X45982000Y-99274285D01*
X45934380Y-99083809D01*
X45934380Y-98940952D01*
X45982000Y-98750476D01*
X46029619Y-98655238D01*
X46124857Y-98560000D01*
X46267714Y-98512380D01*
X46362952Y-98512380D01*
X46505809Y-98560000D01*
X46553428Y-98607619D01*
X47410571Y-98845714D02*
X47410571Y-99512380D01*
X47172476Y-98464761D02*
X46934380Y-99179047D01*
X47553428Y-99179047D01*
X45505809Y-86812380D02*
X45505809Y-85812380D01*
X46553428Y-86717142D02*
X46505809Y-86764761D01*
X46362952Y-86812380D01*
X46267714Y-86812380D01*
X46124857Y-86764761D01*
X46029619Y-86669523D01*
X45982000Y-86574285D01*
X45934380Y-86383809D01*
X45934380Y-86240952D01*
X45982000Y-86050476D01*
X46029619Y-85955238D01*
X46124857Y-85860000D01*
X46267714Y-85812380D01*
X46362952Y-85812380D01*
X46505809Y-85860000D01*
X46553428Y-85907619D01*
X46886761Y-85812380D02*
X47505809Y-85812380D01*
X47172476Y-86193333D01*
X47315333Y-86193333D01*
X47410571Y-86240952D01*
X47458190Y-86288571D01*
X47505809Y-86383809D01*
X47505809Y-86621904D01*
X47458190Y-86717142D01*
X47410571Y-86764761D01*
X47315333Y-86812380D01*
X47029619Y-86812380D01*
X46934380Y-86764761D01*
X46886761Y-86717142D01*
X45505809Y-74112380D02*
X45505809Y-73112380D01*
X46553428Y-74017142D02*
X46505809Y-74064761D01*
X46362952Y-74112380D01*
X46267714Y-74112380D01*
X46124857Y-74064761D01*
X46029619Y-73969523D01*
X45982000Y-73874285D01*
X45934380Y-73683809D01*
X45934380Y-73540952D01*
X45982000Y-73350476D01*
X46029619Y-73255238D01*
X46124857Y-73160000D01*
X46267714Y-73112380D01*
X46362952Y-73112380D01*
X46505809Y-73160000D01*
X46553428Y-73207619D01*
X46934380Y-73207619D02*
X46982000Y-73160000D01*
X47077238Y-73112380D01*
X47315333Y-73112380D01*
X47410571Y-73160000D01*
X47458190Y-73207619D01*
X47505809Y-73302857D01*
X47505809Y-73398095D01*
X47458190Y-73540952D01*
X46886761Y-74112380D01*
X47505809Y-74112380D01*
X45378809Y-61412380D02*
X45378809Y-60412380D01*
X46426428Y-61317142D02*
X46378809Y-61364761D01*
X46235952Y-61412380D01*
X46140714Y-61412380D01*
X45997857Y-61364761D01*
X45902619Y-61269523D01*
X45855000Y-61174285D01*
X45807380Y-60983809D01*
X45807380Y-60840952D01*
X45855000Y-60650476D01*
X45902619Y-60555238D01*
X45997857Y-60460000D01*
X46140714Y-60412380D01*
X46235952Y-60412380D01*
X46378809Y-60460000D01*
X46426428Y-60507619D01*
X47378809Y-61412380D02*
X46807380Y-61412380D01*
X47093095Y-61412380D02*
X47093095Y-60412380D01*
X46997857Y-60555238D01*
X46902619Y-60650476D01*
X46807380Y-60698095D01*
X53173333Y-112117142D02*
X53125714Y-112164761D01*
X52982857Y-112212380D01*
X52887619Y-112212380D01*
X52744761Y-112164761D01*
X52649523Y-112069523D01*
X52601904Y-111974285D01*
X52554285Y-111783809D01*
X52554285Y-111640952D01*
X52601904Y-111450476D01*
X52649523Y-111355238D01*
X52744761Y-111260000D01*
X52887619Y-111212380D01*
X52982857Y-111212380D01*
X53125714Y-111260000D01*
X53173333Y-111307619D01*
X53506666Y-111212380D02*
X54173333Y-111212380D01*
X53744761Y-112212380D01*
X53173333Y-99417142D02*
X53125714Y-99464761D01*
X52982857Y-99512380D01*
X52887619Y-99512380D01*
X52744761Y-99464761D01*
X52649523Y-99369523D01*
X52601904Y-99274285D01*
X52554285Y-99083809D01*
X52554285Y-98940952D01*
X52601904Y-98750476D01*
X52649523Y-98655238D01*
X52744761Y-98560000D01*
X52887619Y-98512380D01*
X52982857Y-98512380D01*
X53125714Y-98560000D01*
X53173333Y-98607619D01*
X54030476Y-98512380D02*
X53840000Y-98512380D01*
X53744761Y-98560000D01*
X53697142Y-98607619D01*
X53601904Y-98750476D01*
X53554285Y-98940952D01*
X53554285Y-99321904D01*
X53601904Y-99417142D01*
X53649523Y-99464761D01*
X53744761Y-99512380D01*
X53935238Y-99512380D01*
X54030476Y-99464761D01*
X54078095Y-99417142D01*
X54125714Y-99321904D01*
X54125714Y-99083809D01*
X54078095Y-98988571D01*
X54030476Y-98940952D01*
X53935238Y-98893333D01*
X53744761Y-98893333D01*
X53649523Y-98940952D01*
X53601904Y-98988571D01*
X53554285Y-99083809D01*
X53173333Y-86717142D02*
X53125714Y-86764761D01*
X52982857Y-86812380D01*
X52887619Y-86812380D01*
X52744761Y-86764761D01*
X52649523Y-86669523D01*
X52601904Y-86574285D01*
X52554285Y-86383809D01*
X52554285Y-86240952D01*
X52601904Y-86050476D01*
X52649523Y-85955238D01*
X52744761Y-85860000D01*
X52887619Y-85812380D01*
X52982857Y-85812380D01*
X53125714Y-85860000D01*
X53173333Y-85907619D01*
X54078095Y-85812380D02*
X53601904Y-85812380D01*
X53554285Y-86288571D01*
X53601904Y-86240952D01*
X53697142Y-86193333D01*
X53935238Y-86193333D01*
X54030476Y-86240952D01*
X54078095Y-86288571D01*
X54125714Y-86383809D01*
X54125714Y-86621904D01*
X54078095Y-86717142D01*
X54030476Y-86764761D01*
X53935238Y-86812380D01*
X53697142Y-86812380D01*
X53601904Y-86764761D01*
X53554285Y-86717142D01*
X53173333Y-74017142D02*
X53125714Y-74064761D01*
X52982857Y-74112380D01*
X52887619Y-74112380D01*
X52744761Y-74064761D01*
X52649523Y-73969523D01*
X52601904Y-73874285D01*
X52554285Y-73683809D01*
X52554285Y-73540952D01*
X52601904Y-73350476D01*
X52649523Y-73255238D01*
X52744761Y-73160000D01*
X52887619Y-73112380D01*
X52982857Y-73112380D01*
X53125714Y-73160000D01*
X53173333Y-73207619D01*
X54030476Y-73445714D02*
X54030476Y-74112380D01*
X53792380Y-73064761D02*
X53554285Y-73779047D01*
X54173333Y-73779047D01*
X53173333Y-61317142D02*
X53125714Y-61364761D01*
X52982857Y-61412380D01*
X52887619Y-61412380D01*
X52744761Y-61364761D01*
X52649523Y-61269523D01*
X52601904Y-61174285D01*
X52554285Y-60983809D01*
X52554285Y-60840952D01*
X52601904Y-60650476D01*
X52649523Y-60555238D01*
X52744761Y-60460000D01*
X52887619Y-60412380D01*
X52982857Y-60412380D01*
X53125714Y-60460000D01*
X53173333Y-60507619D01*
X53506666Y-60412380D02*
X54125714Y-60412380D01*
X53792380Y-60793333D01*
X53935238Y-60793333D01*
X54030476Y-60840952D01*
X54078095Y-60888571D01*
X54125714Y-60983809D01*
X54125714Y-61221904D01*
X54078095Y-61317142D01*
X54030476Y-61364761D01*
X53935238Y-61412380D01*
X53649523Y-61412380D01*
X53554285Y-61364761D01*
X53506666Y-61317142D01*
X38441333Y-145645142D02*
X38393714Y-145692761D01*
X38250857Y-145740380D01*
X38155619Y-145740380D01*
X38012761Y-145692761D01*
X37917523Y-145597523D01*
X37869904Y-145502285D01*
X37822285Y-145311809D01*
X37822285Y-145168952D01*
X37869904Y-144978476D01*
X37917523Y-144883238D01*
X38012761Y-144788000D01*
X38155619Y-144740380D01*
X38250857Y-144740380D01*
X38393714Y-144788000D01*
X38441333Y-144835619D01*
X38822285Y-144835619D02*
X38869904Y-144788000D01*
X38965142Y-144740380D01*
X39203238Y-144740380D01*
X39298476Y-144788000D01*
X39346095Y-144835619D01*
X39393714Y-144930857D01*
X39393714Y-145026095D01*
X39346095Y-145168952D01*
X38774666Y-145740380D01*
X39393714Y-145740380D01*
X53173333Y-145645142D02*
X53125714Y-145692761D01*
X52982857Y-145740380D01*
X52887619Y-145740380D01*
X52744761Y-145692761D01*
X52649523Y-145597523D01*
X52601904Y-145502285D01*
X52554285Y-145311809D01*
X52554285Y-145168952D01*
X52601904Y-144978476D01*
X52649523Y-144883238D01*
X52744761Y-144788000D01*
X52887619Y-144740380D01*
X52982857Y-144740380D01*
X53125714Y-144788000D01*
X53173333Y-144835619D01*
X54125714Y-145740380D02*
X53554285Y-145740380D01*
X53840000Y-145740380D02*
X53840000Y-144740380D01*
X53744761Y-144883238D01*
X53649523Y-144978476D01*
X53554285Y-145026095D01*
M02*
