G04 #@! TF.GenerationSoftware,KiCad,Pcbnew,5.1.5+dfsg1-2build2*
G04 #@! TF.CreationDate,2020-08-27T12:41:00+02:00*
G04 #@! TF.ProjectId,camera_board,63616d65-7261-45f6-926f-6172642e6b69,0*
G04 #@! TF.SameCoordinates,Original*
G04 #@! TF.FileFunction,Legend,Top*
G04 #@! TF.FilePolarity,Positive*
%FSLAX46Y46*%
G04 Gerber Fmt 4.6, Leading zero omitted, Abs format (unit mm)*
G04 Created by KiCad (PCBNEW 5.1.5+dfsg1-2build2) date 2020-08-27 12:41:00*
%MOMM*%
%LPD*%
G04 APERTURE LIST*
%ADD10C,0.150000*%
%ADD11C,0.120000*%
%ADD12C,0.010000*%
%ADD13C,0.100000*%
%ADD14C,0.800000*%
G04 APERTURE END LIST*
D10*
X86820952Y-181062380D02*
X86820952Y-181776666D01*
X86773333Y-181919523D01*
X86678095Y-182014761D01*
X86535238Y-182062380D01*
X86440000Y-182062380D01*
X87773333Y-182062380D02*
X87297142Y-182062380D01*
X87297142Y-181062380D01*
X88678095Y-181967142D02*
X88630476Y-182014761D01*
X88487619Y-182062380D01*
X88392380Y-182062380D01*
X88249523Y-182014761D01*
X88154285Y-181919523D01*
X88106666Y-181824285D01*
X88059047Y-181633809D01*
X88059047Y-181490952D01*
X88106666Y-181300476D01*
X88154285Y-181205238D01*
X88249523Y-181110000D01*
X88392380Y-181062380D01*
X88487619Y-181062380D01*
X88630476Y-181110000D01*
X88678095Y-181157619D01*
X89392380Y-181062380D02*
X89392380Y-181776666D01*
X89344761Y-181919523D01*
X89249523Y-182014761D01*
X89106666Y-182062380D01*
X89011428Y-182062380D01*
X90344761Y-182062380D02*
X89868571Y-182062380D01*
X89868571Y-181062380D01*
X91249523Y-181967142D02*
X91201904Y-182014761D01*
X91059047Y-182062380D01*
X90963809Y-182062380D01*
X90820952Y-182014761D01*
X90725714Y-181919523D01*
X90678095Y-181824285D01*
X90630476Y-181633809D01*
X90630476Y-181490952D01*
X90678095Y-181300476D01*
X90725714Y-181205238D01*
X90820952Y-181110000D01*
X90963809Y-181062380D01*
X91059047Y-181062380D01*
X91201904Y-181110000D01*
X91249523Y-181157619D01*
X91963809Y-181062380D02*
X91963809Y-181776666D01*
X91916190Y-181919523D01*
X91820952Y-182014761D01*
X91678095Y-182062380D01*
X91582857Y-182062380D01*
X92916190Y-182062380D02*
X92440000Y-182062380D01*
X92440000Y-181062380D01*
X93820952Y-181967142D02*
X93773333Y-182014761D01*
X93630476Y-182062380D01*
X93535238Y-182062380D01*
X93392380Y-182014761D01*
X93297142Y-181919523D01*
X93249523Y-181824285D01*
X93201904Y-181633809D01*
X93201904Y-181490952D01*
X93249523Y-181300476D01*
X93297142Y-181205238D01*
X93392380Y-181110000D01*
X93535238Y-181062380D01*
X93630476Y-181062380D01*
X93773333Y-181110000D01*
X93820952Y-181157619D01*
X94535238Y-181062380D02*
X94535238Y-181776666D01*
X94487619Y-181919523D01*
X94392380Y-182014761D01*
X94249523Y-182062380D01*
X94154285Y-182062380D01*
X95487619Y-182062380D02*
X95011428Y-182062380D01*
X95011428Y-181062380D01*
X96392380Y-181967142D02*
X96344761Y-182014761D01*
X96201904Y-182062380D01*
X96106666Y-182062380D01*
X95963809Y-182014761D01*
X95868571Y-181919523D01*
X95820952Y-181824285D01*
X95773333Y-181633809D01*
X95773333Y-181490952D01*
X95820952Y-181300476D01*
X95868571Y-181205238D01*
X95963809Y-181110000D01*
X96106666Y-181062380D01*
X96201904Y-181062380D01*
X96344761Y-181110000D01*
X96392380Y-181157619D01*
X34958928Y-160838571D02*
X35101785Y-160886190D01*
X35149404Y-160933809D01*
X35197023Y-161029047D01*
X35197023Y-161171904D01*
X35149404Y-161267142D01*
X35101785Y-161314761D01*
X35006547Y-161362380D01*
X34625595Y-161362380D01*
X34625595Y-160362380D01*
X34958928Y-160362380D01*
X35054166Y-160410000D01*
X35101785Y-160457619D01*
X35149404Y-160552857D01*
X35149404Y-160648095D01*
X35101785Y-160743333D01*
X35054166Y-160790952D01*
X34958928Y-160838571D01*
X34625595Y-160838571D01*
X36006547Y-161314761D02*
X35911309Y-161362380D01*
X35720833Y-161362380D01*
X35625595Y-161314761D01*
X35577976Y-161219523D01*
X35577976Y-160838571D01*
X35625595Y-160743333D01*
X35720833Y-160695714D01*
X35911309Y-160695714D01*
X36006547Y-160743333D01*
X36054166Y-160838571D01*
X36054166Y-160933809D01*
X35577976Y-161029047D01*
X36625595Y-161362380D02*
X36530357Y-161314761D01*
X36482738Y-161219523D01*
X36482738Y-160362380D01*
X37435119Y-161362380D02*
X37435119Y-160838571D01*
X37387500Y-160743333D01*
X37292261Y-160695714D01*
X37101785Y-160695714D01*
X37006547Y-160743333D01*
X37435119Y-161314761D02*
X37339880Y-161362380D01*
X37101785Y-161362380D01*
X37006547Y-161314761D01*
X36958928Y-161219523D01*
X36958928Y-161124285D01*
X37006547Y-161029047D01*
X37101785Y-160981428D01*
X37339880Y-160981428D01*
X37435119Y-160933809D01*
X37911309Y-160695714D02*
X37911309Y-161362380D01*
X37911309Y-160790952D02*
X37958928Y-160743333D01*
X38054166Y-160695714D01*
X38197023Y-160695714D01*
X38292261Y-160743333D01*
X38339880Y-160838571D01*
X38339880Y-161362380D01*
X39244642Y-160695714D02*
X39244642Y-161505238D01*
X39197023Y-161600476D01*
X39149404Y-161648095D01*
X39054166Y-161695714D01*
X38911309Y-161695714D01*
X38816071Y-161648095D01*
X39244642Y-161314761D02*
X39149404Y-161362380D01*
X38958928Y-161362380D01*
X38863690Y-161314761D01*
X38816071Y-161267142D01*
X38768452Y-161171904D01*
X38768452Y-160886190D01*
X38816071Y-160790952D01*
X38863690Y-160743333D01*
X38958928Y-160695714D01*
X39149404Y-160695714D01*
X39244642Y-160743333D01*
X39720833Y-161362380D02*
X39720833Y-160695714D01*
X39720833Y-160886190D02*
X39768452Y-160790952D01*
X39816071Y-160743333D01*
X39911309Y-160695714D01*
X40006547Y-160695714D01*
X40339880Y-161362380D02*
X40339880Y-160695714D01*
X40339880Y-160362380D02*
X40292261Y-160410000D01*
X40339880Y-160457619D01*
X40387500Y-160410000D01*
X40339880Y-160362380D01*
X40339880Y-160457619D01*
X40816071Y-161362380D02*
X40816071Y-160362380D01*
X40911309Y-160981428D02*
X41197023Y-161362380D01*
X41197023Y-160695714D02*
X40816071Y-161076666D01*
X43101785Y-160314761D02*
X42244642Y-161600476D01*
X44197023Y-161362380D02*
X44197023Y-160362380D01*
X44673214Y-161362380D02*
X44673214Y-160695714D01*
X44673214Y-160790952D02*
X44720833Y-160743333D01*
X44816071Y-160695714D01*
X44958928Y-160695714D01*
X45054166Y-160743333D01*
X45101785Y-160838571D01*
X45101785Y-161362380D01*
X45101785Y-160838571D02*
X45149404Y-160743333D01*
X45244642Y-160695714D01*
X45387500Y-160695714D01*
X45482738Y-160743333D01*
X45530357Y-160838571D01*
X45530357Y-161362380D01*
X46006547Y-160695714D02*
X46006547Y-161695714D01*
X46006547Y-160743333D02*
X46101785Y-160695714D01*
X46292261Y-160695714D01*
X46387500Y-160743333D01*
X46435119Y-160790952D01*
X46482738Y-160886190D01*
X46482738Y-161171904D01*
X46435119Y-161267142D01*
X46387500Y-161314761D01*
X46292261Y-161362380D01*
X46101785Y-161362380D01*
X46006547Y-161314761D01*
X47054166Y-161362380D02*
X46958928Y-161314761D01*
X46911309Y-161267142D01*
X46863690Y-161171904D01*
X46863690Y-160886190D01*
X46911309Y-160790952D01*
X46958928Y-160743333D01*
X47054166Y-160695714D01*
X47197023Y-160695714D01*
X47292261Y-160743333D01*
X47339880Y-160790952D01*
X47387500Y-160886190D01*
X47387500Y-161171904D01*
X47339880Y-161267142D01*
X47292261Y-161314761D01*
X47197023Y-161362380D01*
X47054166Y-161362380D01*
X47816071Y-161362380D02*
X47816071Y-160695714D01*
X47816071Y-160886190D02*
X47863690Y-160790952D01*
X47911309Y-160743333D01*
X48006547Y-160695714D01*
X48101785Y-160695714D01*
X48292261Y-160695714D02*
X48673214Y-160695714D01*
X48435119Y-160362380D02*
X48435119Y-161219523D01*
X48482738Y-161314761D01*
X48577976Y-161362380D01*
X48673214Y-161362380D01*
X49435119Y-161362380D02*
X49435119Y-160838571D01*
X49387500Y-160743333D01*
X49292261Y-160695714D01*
X49101785Y-160695714D01*
X49006547Y-160743333D01*
X49435119Y-161314761D02*
X49339880Y-161362380D01*
X49101785Y-161362380D01*
X49006547Y-161314761D01*
X48958928Y-161219523D01*
X48958928Y-161124285D01*
X49006547Y-161029047D01*
X49101785Y-160981428D01*
X49339880Y-160981428D01*
X49435119Y-160933809D01*
X49911309Y-160695714D02*
X49911309Y-161362380D01*
X49911309Y-160790952D02*
X49958928Y-160743333D01*
X50054166Y-160695714D01*
X50197023Y-160695714D01*
X50292261Y-160743333D01*
X50339880Y-160838571D01*
X50339880Y-161362380D01*
X50673214Y-160695714D02*
X51054166Y-160695714D01*
X50816071Y-160362380D02*
X50816071Y-161219523D01*
X50863690Y-161314761D01*
X50958928Y-161362380D01*
X51054166Y-161362380D01*
X35149404Y-163012380D02*
X34577976Y-163012380D01*
X34863690Y-163012380D02*
X34863690Y-162012380D01*
X34768452Y-162155238D01*
X34673214Y-162250476D01*
X34577976Y-162298095D01*
X35577976Y-162917142D02*
X35625595Y-162964761D01*
X35577976Y-163012380D01*
X35530357Y-162964761D01*
X35577976Y-162917142D01*
X35577976Y-163012380D01*
X36530357Y-162012380D02*
X36054166Y-162012380D01*
X36006547Y-162488571D01*
X36054166Y-162440952D01*
X36149404Y-162393333D01*
X36387500Y-162393333D01*
X36482738Y-162440952D01*
X36530357Y-162488571D01*
X36577976Y-162583809D01*
X36577976Y-162821904D01*
X36530357Y-162917142D01*
X36482738Y-162964761D01*
X36387500Y-163012380D01*
X36149404Y-163012380D01*
X36054166Y-162964761D01*
X36006547Y-162917142D01*
X36958928Y-162726666D02*
X37435119Y-162726666D01*
X36863690Y-163012380D02*
X37197023Y-162012380D01*
X37530357Y-163012380D01*
X38482738Y-162536190D02*
X38435119Y-162488571D01*
X38339880Y-162440952D01*
X38244642Y-162440952D01*
X38149404Y-162488571D01*
X38101785Y-162536190D01*
X38054166Y-162631428D01*
X38054166Y-162726666D01*
X38101785Y-162821904D01*
X38149404Y-162869523D01*
X38244642Y-162917142D01*
X38339880Y-162917142D01*
X38435119Y-162869523D01*
X38482738Y-162821904D01*
X38482738Y-162440952D02*
X38482738Y-162821904D01*
X38530357Y-162869523D01*
X38577976Y-162869523D01*
X38673214Y-162821904D01*
X38720833Y-162726666D01*
X38720833Y-162488571D01*
X38625595Y-162345714D01*
X38482738Y-162250476D01*
X38292261Y-162202857D01*
X38101785Y-162250476D01*
X37958928Y-162345714D01*
X37863690Y-162488571D01*
X37816071Y-162679047D01*
X37863690Y-162869523D01*
X37958928Y-163012380D01*
X38101785Y-163107619D01*
X38292261Y-163155238D01*
X38482738Y-163107619D01*
X38625595Y-163012380D01*
X39339880Y-162012380D02*
X39435119Y-162012380D01*
X39530357Y-162060000D01*
X39577976Y-162107619D01*
X39625595Y-162202857D01*
X39673214Y-162393333D01*
X39673214Y-162631428D01*
X39625595Y-162821904D01*
X39577976Y-162917142D01*
X39530357Y-162964761D01*
X39435119Y-163012380D01*
X39339880Y-163012380D01*
X39244642Y-162964761D01*
X39197023Y-162917142D01*
X39149404Y-162821904D01*
X39101785Y-162631428D01*
X39101785Y-162393333D01*
X39149404Y-162202857D01*
X39197023Y-162107619D01*
X39244642Y-162060000D01*
X39339880Y-162012380D01*
X40292261Y-162012380D02*
X40387500Y-162012380D01*
X40482738Y-162060000D01*
X40530357Y-162107619D01*
X40577976Y-162202857D01*
X40625595Y-162393333D01*
X40625595Y-162631428D01*
X40577976Y-162821904D01*
X40530357Y-162917142D01*
X40482738Y-162964761D01*
X40387500Y-163012380D01*
X40292261Y-163012380D01*
X40197023Y-162964761D01*
X40149404Y-162917142D01*
X40101785Y-162821904D01*
X40054166Y-162631428D01*
X40054166Y-162393333D01*
X40101785Y-162202857D01*
X40149404Y-162107619D01*
X40197023Y-162060000D01*
X40292261Y-162012380D01*
X41530357Y-162012380D02*
X41054166Y-162012380D01*
X41006547Y-162488571D01*
X41054166Y-162440952D01*
X41149404Y-162393333D01*
X41387500Y-162393333D01*
X41482738Y-162440952D01*
X41530357Y-162488571D01*
X41577976Y-162583809D01*
X41577976Y-162821904D01*
X41530357Y-162917142D01*
X41482738Y-162964761D01*
X41387500Y-163012380D01*
X41149404Y-163012380D01*
X41054166Y-162964761D01*
X41006547Y-162917142D01*
X41863690Y-162012380D02*
X42197023Y-163012380D01*
X42530357Y-162012380D01*
X35149404Y-163710000D02*
X35054166Y-163662380D01*
X34911309Y-163662380D01*
X34768452Y-163710000D01*
X34673214Y-163805238D01*
X34625595Y-163900476D01*
X34577976Y-164090952D01*
X34577976Y-164233809D01*
X34625595Y-164424285D01*
X34673214Y-164519523D01*
X34768452Y-164614761D01*
X34911309Y-164662380D01*
X35006547Y-164662380D01*
X35149404Y-164614761D01*
X35197023Y-164567142D01*
X35197023Y-164233809D01*
X35006547Y-164233809D01*
X35577976Y-164614761D02*
X35720833Y-164662380D01*
X35958928Y-164662380D01*
X36054166Y-164614761D01*
X36101785Y-164567142D01*
X36149404Y-164471904D01*
X36149404Y-164376666D01*
X36101785Y-164281428D01*
X36054166Y-164233809D01*
X35958928Y-164186190D01*
X35768452Y-164138571D01*
X35673214Y-164090952D01*
X35625595Y-164043333D01*
X35577976Y-163948095D01*
X35577976Y-163852857D01*
X35625595Y-163757619D01*
X35673214Y-163710000D01*
X35768452Y-163662380D01*
X36006547Y-163662380D01*
X36149404Y-163710000D01*
X37292261Y-163614761D02*
X36435119Y-164900476D01*
X37625595Y-164662380D02*
X37625595Y-163662380D01*
X37863690Y-163662380D01*
X38006547Y-163710000D01*
X38101785Y-163805238D01*
X38149404Y-163900476D01*
X38197023Y-164090952D01*
X38197023Y-164233809D01*
X38149404Y-164424285D01*
X38101785Y-164519523D01*
X38006547Y-164614761D01*
X37863690Y-164662380D01*
X37625595Y-164662380D01*
X39197023Y-164567142D02*
X39149404Y-164614761D01*
X39006547Y-164662380D01*
X38911309Y-164662380D01*
X38768452Y-164614761D01*
X38673214Y-164519523D01*
X38625595Y-164424285D01*
X38577976Y-164233809D01*
X38577976Y-164090952D01*
X38625595Y-163900476D01*
X38673214Y-163805238D01*
X38768452Y-163710000D01*
X38911309Y-163662380D01*
X39006547Y-163662380D01*
X39149404Y-163710000D01*
X39197023Y-163757619D01*
X81923333Y-173347619D02*
X81970952Y-173300000D01*
X82066190Y-173252380D01*
X82304285Y-173252380D01*
X82399523Y-173300000D01*
X82447142Y-173347619D01*
X82494761Y-173442857D01*
X82494761Y-173538095D01*
X82447142Y-173680952D01*
X81875714Y-174252380D01*
X82494761Y-174252380D01*
X83113809Y-173252380D02*
X83209047Y-173252380D01*
X83304285Y-173300000D01*
X83351904Y-173347619D01*
X83399523Y-173442857D01*
X83447142Y-173633333D01*
X83447142Y-173871428D01*
X83399523Y-174061904D01*
X83351904Y-174157142D01*
X83304285Y-174204761D01*
X83209047Y-174252380D01*
X83113809Y-174252380D01*
X83018571Y-174204761D01*
X82970952Y-174157142D01*
X82923333Y-174061904D01*
X82875714Y-173871428D01*
X82875714Y-173633333D01*
X82923333Y-173442857D01*
X82970952Y-173347619D01*
X83018571Y-173300000D01*
X83113809Y-173252380D01*
X83828095Y-173347619D02*
X83875714Y-173300000D01*
X83970952Y-173252380D01*
X84209047Y-173252380D01*
X84304285Y-173300000D01*
X84351904Y-173347619D01*
X84399523Y-173442857D01*
X84399523Y-173538095D01*
X84351904Y-173680952D01*
X83780476Y-174252380D01*
X84399523Y-174252380D01*
X85018571Y-173252380D02*
X85113809Y-173252380D01*
X85209047Y-173300000D01*
X85256666Y-173347619D01*
X85304285Y-173442857D01*
X85351904Y-173633333D01*
X85351904Y-173871428D01*
X85304285Y-174061904D01*
X85256666Y-174157142D01*
X85209047Y-174204761D01*
X85113809Y-174252380D01*
X85018571Y-174252380D01*
X84923333Y-174204761D01*
X84875714Y-174157142D01*
X84828095Y-174061904D01*
X84780476Y-173871428D01*
X84780476Y-173633333D01*
X84828095Y-173442857D01*
X84875714Y-173347619D01*
X84923333Y-173300000D01*
X85018571Y-173252380D01*
X85780476Y-174252380D02*
X85780476Y-173252380D01*
X86161428Y-173252380D01*
X86256666Y-173300000D01*
X86304285Y-173347619D01*
X86351904Y-173442857D01*
X86351904Y-173585714D01*
X86304285Y-173680952D01*
X86256666Y-173728571D01*
X86161428Y-173776190D01*
X85780476Y-173776190D01*
X86970952Y-173252380D02*
X87066190Y-173252380D01*
X87161428Y-173300000D01*
X87209047Y-173347619D01*
X87256666Y-173442857D01*
X87304285Y-173633333D01*
X87304285Y-173871428D01*
X87256666Y-174061904D01*
X87209047Y-174157142D01*
X87161428Y-174204761D01*
X87066190Y-174252380D01*
X86970952Y-174252380D01*
X86875714Y-174204761D01*
X86828095Y-174157142D01*
X86780476Y-174061904D01*
X86732857Y-173871428D01*
X86732857Y-173633333D01*
X86780476Y-173442857D01*
X86828095Y-173347619D01*
X86875714Y-173300000D01*
X86970952Y-173252380D01*
X88256666Y-174252380D02*
X87685238Y-174252380D01*
X87970952Y-174252380D02*
X87970952Y-173252380D01*
X87875714Y-173395238D01*
X87780476Y-173490476D01*
X87685238Y-173538095D01*
X83851904Y-175616666D02*
X84328095Y-175616666D01*
X83756666Y-175902380D02*
X84090000Y-174902380D01*
X84423333Y-175902380D01*
X85090000Y-175378571D02*
X85232857Y-175426190D01*
X85280476Y-175473809D01*
X85328095Y-175569047D01*
X85328095Y-175711904D01*
X85280476Y-175807142D01*
X85232857Y-175854761D01*
X85137619Y-175902380D01*
X84756666Y-175902380D01*
X84756666Y-174902380D01*
X85090000Y-174902380D01*
X85185238Y-174950000D01*
X85232857Y-174997619D01*
X85280476Y-175092857D01*
X85280476Y-175188095D01*
X85232857Y-175283333D01*
X85185238Y-175330952D01*
X85090000Y-175378571D01*
X84756666Y-175378571D01*
X86328095Y-175807142D02*
X86280476Y-175854761D01*
X86137619Y-175902380D01*
X86042380Y-175902380D01*
X85899523Y-175854761D01*
X85804285Y-175759523D01*
X85756666Y-175664285D01*
X85709047Y-175473809D01*
X85709047Y-175330952D01*
X85756666Y-175140476D01*
X85804285Y-175045238D01*
X85899523Y-174950000D01*
X86042380Y-174902380D01*
X86137619Y-174902380D01*
X86280476Y-174950000D01*
X86328095Y-174997619D01*
X79804285Y-160234761D02*
X79899523Y-160282380D01*
X80090000Y-160282380D01*
X80185238Y-160234761D01*
X80232857Y-160139523D01*
X80232857Y-160091904D01*
X80185238Y-159996666D01*
X80090000Y-159949047D01*
X79947142Y-159949047D01*
X79851904Y-159901428D01*
X79804285Y-159806190D01*
X79804285Y-159758571D01*
X79851904Y-159663333D01*
X79947142Y-159615714D01*
X80090000Y-159615714D01*
X80185238Y-159663333D01*
X80804285Y-160282380D02*
X80709047Y-160234761D01*
X80661428Y-160187142D01*
X80613809Y-160091904D01*
X80613809Y-159806190D01*
X80661428Y-159710952D01*
X80709047Y-159663333D01*
X80804285Y-159615714D01*
X80947142Y-159615714D01*
X81042380Y-159663333D01*
X81090000Y-159710952D01*
X81137619Y-159806190D01*
X81137619Y-160091904D01*
X81090000Y-160187142D01*
X81042380Y-160234761D01*
X80947142Y-160282380D01*
X80804285Y-160282380D01*
X81566190Y-159615714D02*
X81566190Y-160282380D01*
X81566190Y-159710952D02*
X81613809Y-159663333D01*
X81709047Y-159615714D01*
X81851904Y-159615714D01*
X81947142Y-159663333D01*
X81994761Y-159758571D01*
X81994761Y-160282380D01*
X82470952Y-160282380D02*
X82470952Y-159282380D01*
X82470952Y-159663333D02*
X82566190Y-159615714D01*
X82756666Y-159615714D01*
X82851904Y-159663333D01*
X82899523Y-159710952D01*
X82947142Y-159806190D01*
X82947142Y-160091904D01*
X82899523Y-160187142D01*
X82851904Y-160234761D01*
X82756666Y-160282380D01*
X82566190Y-160282380D01*
X82470952Y-160234761D01*
X83756666Y-160234761D02*
X83661428Y-160282380D01*
X83470952Y-160282380D01*
X83375714Y-160234761D01*
X83328095Y-160139523D01*
X83328095Y-159758571D01*
X83375714Y-159663333D01*
X83470952Y-159615714D01*
X83661428Y-159615714D01*
X83756666Y-159663333D01*
X83804285Y-159758571D01*
X83804285Y-159853809D01*
X83328095Y-159949047D01*
X84185238Y-160234761D02*
X84280476Y-160282380D01*
X84470952Y-160282380D01*
X84566190Y-160234761D01*
X84613809Y-160139523D01*
X84613809Y-160091904D01*
X84566190Y-159996666D01*
X84470952Y-159949047D01*
X84328095Y-159949047D01*
X84232857Y-159901428D01*
X84185238Y-159806190D01*
X84185238Y-159758571D01*
X84232857Y-159663333D01*
X84328095Y-159615714D01*
X84470952Y-159615714D01*
X84566190Y-159663333D01*
X85042380Y-160282380D02*
X85042380Y-159615714D01*
X85042380Y-159282380D02*
X84994761Y-159330000D01*
X85042380Y-159377619D01*
X85090000Y-159330000D01*
X85042380Y-159282380D01*
X85042380Y-159377619D01*
X85899523Y-160234761D02*
X85804285Y-160282380D01*
X85613809Y-160282380D01*
X85518571Y-160234761D01*
X85470952Y-160139523D01*
X85470952Y-159758571D01*
X85518571Y-159663333D01*
X85613809Y-159615714D01*
X85804285Y-159615714D01*
X85899523Y-159663333D01*
X85947142Y-159758571D01*
X85947142Y-159853809D01*
X85470952Y-159949047D01*
X86375714Y-160187142D02*
X86423333Y-160234761D01*
X86375714Y-160282380D01*
X86328095Y-160234761D01*
X86375714Y-160187142D01*
X86375714Y-160282380D01*
X87280476Y-160234761D02*
X87185238Y-160282380D01*
X86994761Y-160282380D01*
X86899523Y-160234761D01*
X86851904Y-160187142D01*
X86804285Y-160091904D01*
X86804285Y-159806190D01*
X86851904Y-159710952D01*
X86899523Y-159663333D01*
X86994761Y-159615714D01*
X87185238Y-159615714D01*
X87280476Y-159663333D01*
X87851904Y-160282380D02*
X87756666Y-160234761D01*
X87709047Y-160187142D01*
X87661428Y-160091904D01*
X87661428Y-159806190D01*
X87709047Y-159710952D01*
X87756666Y-159663333D01*
X87851904Y-159615714D01*
X87994761Y-159615714D01*
X88090000Y-159663333D01*
X88137619Y-159710952D01*
X88185238Y-159806190D01*
X88185238Y-160091904D01*
X88137619Y-160187142D01*
X88090000Y-160234761D01*
X87994761Y-160282380D01*
X87851904Y-160282380D01*
X88613809Y-160187142D02*
X88661428Y-160234761D01*
X88613809Y-160282380D01*
X88566190Y-160234761D01*
X88613809Y-160187142D01*
X88613809Y-160282380D01*
X88994761Y-159615714D02*
X89518571Y-159615714D01*
X88994761Y-160282380D01*
X89518571Y-160282380D01*
X90328095Y-160282380D02*
X90328095Y-159758571D01*
X90280476Y-159663333D01*
X90185238Y-159615714D01*
X89994761Y-159615714D01*
X89899523Y-159663333D01*
X90328095Y-160234761D02*
X90232857Y-160282380D01*
X89994761Y-160282380D01*
X89899523Y-160234761D01*
X89851904Y-160139523D01*
X89851904Y-160044285D01*
X89899523Y-159949047D01*
X89994761Y-159901428D01*
X90232857Y-159901428D01*
X90328095Y-159853809D01*
X75923333Y-161265714D02*
X76113809Y-161932380D01*
X76304285Y-161456190D01*
X76494761Y-161932380D01*
X76685238Y-161265714D01*
X77447142Y-161884761D02*
X77351904Y-161932380D01*
X77161428Y-161932380D01*
X77066190Y-161884761D01*
X77018571Y-161789523D01*
X77018571Y-161408571D01*
X77066190Y-161313333D01*
X77161428Y-161265714D01*
X77351904Y-161265714D01*
X77447142Y-161313333D01*
X77494761Y-161408571D01*
X77494761Y-161503809D01*
X77018571Y-161599047D01*
X78304285Y-161884761D02*
X78209047Y-161932380D01*
X78018571Y-161932380D01*
X77923333Y-161884761D01*
X77875714Y-161789523D01*
X77875714Y-161408571D01*
X77923333Y-161313333D01*
X78018571Y-161265714D01*
X78209047Y-161265714D01*
X78304285Y-161313333D01*
X78351904Y-161408571D01*
X78351904Y-161503809D01*
X77875714Y-161599047D01*
X78780476Y-161932380D02*
X78780476Y-161265714D01*
X78780476Y-161456190D02*
X78828095Y-161360952D01*
X78875714Y-161313333D01*
X78970952Y-161265714D01*
X79066190Y-161265714D01*
X79828095Y-161265714D02*
X79828095Y-162075238D01*
X79780476Y-162170476D01*
X79732857Y-162218095D01*
X79637619Y-162265714D01*
X79494761Y-162265714D01*
X79399523Y-162218095D01*
X79828095Y-161884761D02*
X79732857Y-161932380D01*
X79542380Y-161932380D01*
X79447142Y-161884761D01*
X79399523Y-161837142D01*
X79351904Y-161741904D01*
X79351904Y-161456190D01*
X79399523Y-161360952D01*
X79447142Y-161313333D01*
X79542380Y-161265714D01*
X79732857Y-161265714D01*
X79828095Y-161313333D01*
X80732857Y-161932380D02*
X80732857Y-161408571D01*
X80685238Y-161313333D01*
X80590000Y-161265714D01*
X80399523Y-161265714D01*
X80304285Y-161313333D01*
X80732857Y-161884761D02*
X80637619Y-161932380D01*
X80399523Y-161932380D01*
X80304285Y-161884761D01*
X80256666Y-161789523D01*
X80256666Y-161694285D01*
X80304285Y-161599047D01*
X80399523Y-161551428D01*
X80637619Y-161551428D01*
X80732857Y-161503809D01*
X81113809Y-161265714D02*
X81304285Y-161932380D01*
X81494761Y-161456190D01*
X81685238Y-161932380D01*
X81875714Y-161265714D01*
X82637619Y-161884761D02*
X82542380Y-161932380D01*
X82351904Y-161932380D01*
X82256666Y-161884761D01*
X82209047Y-161789523D01*
X82209047Y-161408571D01*
X82256666Y-161313333D01*
X82351904Y-161265714D01*
X82542380Y-161265714D01*
X82637619Y-161313333D01*
X82685238Y-161408571D01*
X82685238Y-161503809D01*
X82209047Y-161599047D01*
X84590000Y-160884761D02*
X83732857Y-162170476D01*
X85590000Y-161265714D02*
X85828095Y-161932380D01*
X86066190Y-161265714D01*
X86828095Y-161884761D02*
X86732857Y-161932380D01*
X86542380Y-161932380D01*
X86447142Y-161884761D01*
X86399523Y-161789523D01*
X86399523Y-161408571D01*
X86447142Y-161313333D01*
X86542380Y-161265714D01*
X86732857Y-161265714D01*
X86828095Y-161313333D01*
X86875714Y-161408571D01*
X86875714Y-161503809D01*
X86399523Y-161599047D01*
X87304285Y-161932380D02*
X87304285Y-161265714D01*
X87304285Y-161456190D02*
X87351904Y-161360952D01*
X87399523Y-161313333D01*
X87494761Y-161265714D01*
X87590000Y-161265714D01*
X87875714Y-161884761D02*
X87970952Y-161932380D01*
X88161428Y-161932380D01*
X88256666Y-161884761D01*
X88304285Y-161789523D01*
X88304285Y-161741904D01*
X88256666Y-161646666D01*
X88161428Y-161599047D01*
X88018571Y-161599047D01*
X87923333Y-161551428D01*
X87875714Y-161456190D01*
X87875714Y-161408571D01*
X87923333Y-161313333D01*
X88018571Y-161265714D01*
X88161428Y-161265714D01*
X88256666Y-161313333D01*
X88732857Y-161932380D02*
X88732857Y-161265714D01*
X88732857Y-160932380D02*
X88685238Y-160980000D01*
X88732857Y-161027619D01*
X88780476Y-160980000D01*
X88732857Y-160932380D01*
X88732857Y-161027619D01*
X89351904Y-161932380D02*
X89256666Y-161884761D01*
X89209047Y-161837142D01*
X89161428Y-161741904D01*
X89161428Y-161456190D01*
X89209047Y-161360952D01*
X89256666Y-161313333D01*
X89351904Y-161265714D01*
X89494761Y-161265714D01*
X89590000Y-161313333D01*
X89637619Y-161360952D01*
X89685238Y-161456190D01*
X89685238Y-161741904D01*
X89637619Y-161837142D01*
X89590000Y-161884761D01*
X89494761Y-161932380D01*
X89351904Y-161932380D01*
X90113809Y-161265714D02*
X90113809Y-161932380D01*
X90113809Y-161360952D02*
X90161428Y-161313333D01*
X90256666Y-161265714D01*
X90399523Y-161265714D01*
X90494761Y-161313333D01*
X90542380Y-161408571D01*
X90542380Y-161932380D01*
X91018571Y-161837142D02*
X91066190Y-161884761D01*
X91018571Y-161932380D01*
X90970952Y-161884761D01*
X91018571Y-161837142D01*
X91018571Y-161932380D01*
X91018571Y-161313333D02*
X91066190Y-161360952D01*
X91018571Y-161408571D01*
X90970952Y-161360952D01*
X91018571Y-161313333D01*
X91018571Y-161408571D01*
X92447142Y-160932380D02*
X92542380Y-160932380D01*
X92637619Y-160980000D01*
X92685238Y-161027619D01*
X92732857Y-161122857D01*
X92780476Y-161313333D01*
X92780476Y-161551428D01*
X92732857Y-161741904D01*
X92685238Y-161837142D01*
X92637619Y-161884761D01*
X92542380Y-161932380D01*
X92447142Y-161932380D01*
X92351904Y-161884761D01*
X92304285Y-161837142D01*
X92256666Y-161741904D01*
X92209047Y-161551428D01*
X92209047Y-161313333D01*
X92256666Y-161122857D01*
X92304285Y-161027619D01*
X92351904Y-160980000D01*
X92447142Y-160932380D01*
X93209047Y-161837142D02*
X93256666Y-161884761D01*
X93209047Y-161932380D01*
X93161428Y-161884761D01*
X93209047Y-161837142D01*
X93209047Y-161932380D01*
X94161428Y-160932380D02*
X93685238Y-160932380D01*
X93637619Y-161408571D01*
X93685238Y-161360952D01*
X93780476Y-161313333D01*
X94018571Y-161313333D01*
X94113809Y-161360952D01*
X94161428Y-161408571D01*
X94209047Y-161503809D01*
X94209047Y-161741904D01*
X94161428Y-161837142D01*
X94113809Y-161884761D01*
X94018571Y-161932380D01*
X93780476Y-161932380D01*
X93685238Y-161884761D01*
X93637619Y-161837142D01*
D11*
X82450000Y-57685000D02*
X87690000Y-57685000D01*
X82450000Y-60425000D02*
X87690000Y-60425000D01*
X82450000Y-57685000D02*
X82450000Y-60425000D01*
X87690000Y-57685000D02*
X87690000Y-60425000D01*
D12*
G36*
X85836536Y-164240427D02*
G01*
X85949118Y-164837618D01*
X86364531Y-165008865D01*
X86779945Y-165180112D01*
X87278302Y-164841233D01*
X87417869Y-164746877D01*
X87544029Y-164662630D01*
X87650896Y-164592338D01*
X87732583Y-164539847D01*
X87783202Y-164509004D01*
X87796987Y-164502353D01*
X87821821Y-164519458D01*
X87874889Y-164566744D01*
X87950241Y-164638172D01*
X88041930Y-164727700D01*
X88144008Y-164829289D01*
X88250527Y-164936898D01*
X88355537Y-165044487D01*
X88453092Y-165146015D01*
X88537243Y-165235441D01*
X88602041Y-165306726D01*
X88641538Y-165353828D01*
X88650981Y-165369592D01*
X88637392Y-165398653D01*
X88599294Y-165462321D01*
X88540694Y-165554367D01*
X88465598Y-165668564D01*
X88378009Y-165798684D01*
X88327255Y-165872901D01*
X88234746Y-166008422D01*
X88152541Y-166130716D01*
X88084631Y-166233695D01*
X88035001Y-166311273D01*
X88007641Y-166357361D01*
X88003530Y-166367047D01*
X88012850Y-166394574D01*
X88038255Y-166458728D01*
X88075912Y-166550490D01*
X88121987Y-166660839D01*
X88172647Y-166780755D01*
X88224060Y-166901219D01*
X88272390Y-167013209D01*
X88313807Y-167107707D01*
X88344475Y-167175692D01*
X88360562Y-167208143D01*
X88361512Y-167209420D01*
X88386773Y-167215617D01*
X88454046Y-167229440D01*
X88556361Y-167249532D01*
X88686742Y-167274534D01*
X88838217Y-167303086D01*
X88926594Y-167319551D01*
X89088453Y-167350369D01*
X89234650Y-167379694D01*
X89357788Y-167405921D01*
X89450470Y-167427446D01*
X89505302Y-167442665D01*
X89516324Y-167447493D01*
X89527119Y-167480174D01*
X89535830Y-167553985D01*
X89542461Y-167660292D01*
X89547019Y-167790467D01*
X89549510Y-167935876D01*
X89549939Y-168087890D01*
X89548312Y-168237877D01*
X89544636Y-168377206D01*
X89538916Y-168497245D01*
X89531158Y-168589365D01*
X89521369Y-168644932D01*
X89515497Y-168656500D01*
X89480400Y-168670365D01*
X89406029Y-168690188D01*
X89302224Y-168713639D01*
X89178820Y-168738391D01*
X89135742Y-168746398D01*
X88928048Y-168784441D01*
X88763985Y-168815079D01*
X88638131Y-168839529D01*
X88545066Y-168859009D01*
X88479368Y-168874736D01*
X88435618Y-168887928D01*
X88408393Y-168899804D01*
X88392273Y-168911580D01*
X88390018Y-168913908D01*
X88367504Y-168951400D01*
X88333159Y-169024365D01*
X88290412Y-169123867D01*
X88242693Y-169240973D01*
X88193431Y-169366748D01*
X88146056Y-169492257D01*
X88103996Y-169608565D01*
X88070681Y-169706739D01*
X88049542Y-169777843D01*
X88044006Y-169812942D01*
X88044467Y-169814172D01*
X88063224Y-169842861D01*
X88105777Y-169905985D01*
X88167654Y-169996973D01*
X88244383Y-170109255D01*
X88331492Y-170236260D01*
X88356299Y-170272353D01*
X88444753Y-170403203D01*
X88522589Y-170522591D01*
X88585567Y-170623662D01*
X88629446Y-170699559D01*
X88649986Y-170743427D01*
X88650981Y-170748817D01*
X88633723Y-170777144D01*
X88586036Y-170833261D01*
X88514051Y-170911137D01*
X88423898Y-171004740D01*
X88321706Y-171108041D01*
X88213606Y-171215006D01*
X88105729Y-171319606D01*
X88004205Y-171415809D01*
X87915163Y-171497584D01*
X87844734Y-171558900D01*
X87799048Y-171593726D01*
X87786410Y-171599412D01*
X87756992Y-171586020D01*
X87696762Y-171549899D01*
X87615530Y-171497136D01*
X87553031Y-171454667D01*
X87439786Y-171376740D01*
X87305675Y-171284984D01*
X87171156Y-171193375D01*
X87098834Y-171144346D01*
X86854039Y-170978770D01*
X86648551Y-171089875D01*
X86554937Y-171138548D01*
X86475331Y-171176381D01*
X86421468Y-171197958D01*
X86407758Y-171200961D01*
X86391271Y-171178793D01*
X86358746Y-171116149D01*
X86312609Y-171018809D01*
X86255291Y-170892549D01*
X86189217Y-170743150D01*
X86116816Y-170576388D01*
X86040517Y-170398042D01*
X85962747Y-170213891D01*
X85885935Y-170029712D01*
X85812507Y-169851285D01*
X85744893Y-169684387D01*
X85685521Y-169534797D01*
X85636817Y-169408293D01*
X85601211Y-169310654D01*
X85581131Y-169247657D01*
X85577901Y-169226021D01*
X85603497Y-169198424D01*
X85659539Y-169153625D01*
X85734312Y-169100934D01*
X85740588Y-169096765D01*
X85933846Y-168942069D01*
X86089675Y-168761591D01*
X86206725Y-168561102D01*
X86283646Y-168346374D01*
X86319087Y-168123177D01*
X86311698Y-167897281D01*
X86260128Y-167674459D01*
X86163027Y-167460479D01*
X86134459Y-167413664D01*
X85985869Y-167224618D01*
X85810328Y-167072812D01*
X85613911Y-166959034D01*
X85402694Y-166884075D01*
X85182754Y-166848722D01*
X84960164Y-166853767D01*
X84741002Y-166899999D01*
X84531343Y-166988206D01*
X84337262Y-167119179D01*
X84277227Y-167172337D01*
X84124436Y-167338739D01*
X84013098Y-167513912D01*
X83936724Y-167710266D01*
X83894188Y-167904717D01*
X83883687Y-168123342D01*
X83918701Y-168343052D01*
X83995674Y-168556420D01*
X84111048Y-168756022D01*
X84261266Y-168934429D01*
X84442774Y-169084217D01*
X84466628Y-169100006D01*
X84542202Y-169151712D01*
X84599652Y-169196512D01*
X84627118Y-169225117D01*
X84627518Y-169226021D01*
X84621621Y-169256964D01*
X84598246Y-169327191D01*
X84559822Y-169430925D01*
X84508778Y-169562390D01*
X84447543Y-169715807D01*
X84378545Y-169885401D01*
X84304214Y-170065393D01*
X84226979Y-170250008D01*
X84149269Y-170433468D01*
X84073512Y-170609996D01*
X84002138Y-170773814D01*
X83937575Y-170919147D01*
X83882253Y-171040217D01*
X83838601Y-171131247D01*
X83809047Y-171186460D01*
X83797145Y-171200961D01*
X83760778Y-171189669D01*
X83692731Y-171159385D01*
X83604737Y-171115520D01*
X83556351Y-171089875D01*
X83350864Y-170978770D01*
X83106069Y-171144346D01*
X82981107Y-171229170D01*
X82844296Y-171322516D01*
X82716089Y-171410408D01*
X82651872Y-171454667D01*
X82561552Y-171515318D01*
X82485072Y-171563381D01*
X82432408Y-171592770D01*
X82415303Y-171598982D01*
X82390406Y-171582223D01*
X82335306Y-171535436D01*
X82255344Y-171463480D01*
X82155861Y-171371212D01*
X82042201Y-171263490D01*
X81970316Y-171194326D01*
X81844552Y-171070757D01*
X81735864Y-170960234D01*
X81648646Y-170867485D01*
X81587290Y-170797237D01*
X81556192Y-170754220D01*
X81553209Y-170745490D01*
X81567054Y-170712284D01*
X81605313Y-170645142D01*
X81663742Y-170550863D01*
X81738098Y-170436245D01*
X81824136Y-170308083D01*
X81848603Y-170272353D01*
X81937755Y-170142489D01*
X82017739Y-170025569D01*
X82084081Y-169928162D01*
X82132312Y-169856839D01*
X82157958Y-169818170D01*
X82160436Y-169814172D01*
X82156730Y-169783355D01*
X82137062Y-169715599D01*
X82104861Y-169619839D01*
X82063556Y-169505009D01*
X82016576Y-169380044D01*
X81967350Y-169253879D01*
X81919309Y-169135448D01*
X81875882Y-169033685D01*
X81840497Y-168957526D01*
X81816585Y-168915904D01*
X81814885Y-168913908D01*
X81800263Y-168902013D01*
X81775566Y-168890250D01*
X81735373Y-168877401D01*
X81674264Y-168862249D01*
X81586818Y-168843576D01*
X81467613Y-168820165D01*
X81311228Y-168790797D01*
X81112244Y-168754255D01*
X81069161Y-168746398D01*
X80941471Y-168721727D01*
X80830154Y-168697593D01*
X80745046Y-168676324D01*
X80695984Y-168660248D01*
X80689406Y-168656500D01*
X80678565Y-168623273D01*
X80669754Y-168549021D01*
X80662977Y-168442376D01*
X80658241Y-168311967D01*
X80655551Y-168166427D01*
X80654914Y-168014386D01*
X80656335Y-167864476D01*
X80659821Y-167725328D01*
X80665377Y-167605572D01*
X80673009Y-167513841D01*
X80682723Y-167458766D01*
X80688579Y-167447493D01*
X80721181Y-167436123D01*
X80795419Y-167417624D01*
X80903897Y-167393602D01*
X81039218Y-167365662D01*
X81193986Y-167335408D01*
X81278308Y-167319551D01*
X81438297Y-167289644D01*
X81580968Y-167262550D01*
X81699349Y-167239631D01*
X81786466Y-167222243D01*
X81835346Y-167211747D01*
X81843391Y-167209420D01*
X81856988Y-167183186D01*
X81885730Y-167119995D01*
X81925786Y-167028877D01*
X81973325Y-166918857D01*
X82024516Y-166798965D01*
X82075527Y-166678227D01*
X82122527Y-166565671D01*
X82161685Y-166470326D01*
X82189170Y-166401217D01*
X82201150Y-166367374D01*
X82201373Y-166365895D01*
X82187792Y-166339197D01*
X82149716Y-166277760D01*
X82091148Y-166187689D01*
X82016089Y-166075090D01*
X81928541Y-165946070D01*
X81877648Y-165871961D01*
X81784910Y-165736077D01*
X81702542Y-165612709D01*
X81634562Y-165508097D01*
X81584989Y-165428483D01*
X81557843Y-165380107D01*
X81553922Y-165369262D01*
X81570776Y-165344020D01*
X81617369Y-165290124D01*
X81687749Y-165213613D01*
X81775966Y-165120523D01*
X81876066Y-165016895D01*
X81982099Y-164908764D01*
X82088112Y-164802170D01*
X82188153Y-164703150D01*
X82276271Y-164617742D01*
X82346514Y-164551985D01*
X82392929Y-164511916D01*
X82408457Y-164502353D01*
X82433740Y-164515800D01*
X82494212Y-164553575D01*
X82583993Y-164611835D01*
X82697204Y-164686734D01*
X82827964Y-164774425D01*
X82926600Y-164841233D01*
X83424958Y-165180112D01*
X83840371Y-165008865D01*
X84255785Y-164837618D01*
X84368367Y-164240427D01*
X84480950Y-163643235D01*
X85723953Y-163643235D01*
X85836536Y-164240427D01*
G37*
X85836536Y-164240427D02*
X85949118Y-164837618D01*
X86364531Y-165008865D01*
X86779945Y-165180112D01*
X87278302Y-164841233D01*
X87417869Y-164746877D01*
X87544029Y-164662630D01*
X87650896Y-164592338D01*
X87732583Y-164539847D01*
X87783202Y-164509004D01*
X87796987Y-164502353D01*
X87821821Y-164519458D01*
X87874889Y-164566744D01*
X87950241Y-164638172D01*
X88041930Y-164727700D01*
X88144008Y-164829289D01*
X88250527Y-164936898D01*
X88355537Y-165044487D01*
X88453092Y-165146015D01*
X88537243Y-165235441D01*
X88602041Y-165306726D01*
X88641538Y-165353828D01*
X88650981Y-165369592D01*
X88637392Y-165398653D01*
X88599294Y-165462321D01*
X88540694Y-165554367D01*
X88465598Y-165668564D01*
X88378009Y-165798684D01*
X88327255Y-165872901D01*
X88234746Y-166008422D01*
X88152541Y-166130716D01*
X88084631Y-166233695D01*
X88035001Y-166311273D01*
X88007641Y-166357361D01*
X88003530Y-166367047D01*
X88012850Y-166394574D01*
X88038255Y-166458728D01*
X88075912Y-166550490D01*
X88121987Y-166660839D01*
X88172647Y-166780755D01*
X88224060Y-166901219D01*
X88272390Y-167013209D01*
X88313807Y-167107707D01*
X88344475Y-167175692D01*
X88360562Y-167208143D01*
X88361512Y-167209420D01*
X88386773Y-167215617D01*
X88454046Y-167229440D01*
X88556361Y-167249532D01*
X88686742Y-167274534D01*
X88838217Y-167303086D01*
X88926594Y-167319551D01*
X89088453Y-167350369D01*
X89234650Y-167379694D01*
X89357788Y-167405921D01*
X89450470Y-167427446D01*
X89505302Y-167442665D01*
X89516324Y-167447493D01*
X89527119Y-167480174D01*
X89535830Y-167553985D01*
X89542461Y-167660292D01*
X89547019Y-167790467D01*
X89549510Y-167935876D01*
X89549939Y-168087890D01*
X89548312Y-168237877D01*
X89544636Y-168377206D01*
X89538916Y-168497245D01*
X89531158Y-168589365D01*
X89521369Y-168644932D01*
X89515497Y-168656500D01*
X89480400Y-168670365D01*
X89406029Y-168690188D01*
X89302224Y-168713639D01*
X89178820Y-168738391D01*
X89135742Y-168746398D01*
X88928048Y-168784441D01*
X88763985Y-168815079D01*
X88638131Y-168839529D01*
X88545066Y-168859009D01*
X88479368Y-168874736D01*
X88435618Y-168887928D01*
X88408393Y-168899804D01*
X88392273Y-168911580D01*
X88390018Y-168913908D01*
X88367504Y-168951400D01*
X88333159Y-169024365D01*
X88290412Y-169123867D01*
X88242693Y-169240973D01*
X88193431Y-169366748D01*
X88146056Y-169492257D01*
X88103996Y-169608565D01*
X88070681Y-169706739D01*
X88049542Y-169777843D01*
X88044006Y-169812942D01*
X88044467Y-169814172D01*
X88063224Y-169842861D01*
X88105777Y-169905985D01*
X88167654Y-169996973D01*
X88244383Y-170109255D01*
X88331492Y-170236260D01*
X88356299Y-170272353D01*
X88444753Y-170403203D01*
X88522589Y-170522591D01*
X88585567Y-170623662D01*
X88629446Y-170699559D01*
X88649986Y-170743427D01*
X88650981Y-170748817D01*
X88633723Y-170777144D01*
X88586036Y-170833261D01*
X88514051Y-170911137D01*
X88423898Y-171004740D01*
X88321706Y-171108041D01*
X88213606Y-171215006D01*
X88105729Y-171319606D01*
X88004205Y-171415809D01*
X87915163Y-171497584D01*
X87844734Y-171558900D01*
X87799048Y-171593726D01*
X87786410Y-171599412D01*
X87756992Y-171586020D01*
X87696762Y-171549899D01*
X87615530Y-171497136D01*
X87553031Y-171454667D01*
X87439786Y-171376740D01*
X87305675Y-171284984D01*
X87171156Y-171193375D01*
X87098834Y-171144346D01*
X86854039Y-170978770D01*
X86648551Y-171089875D01*
X86554937Y-171138548D01*
X86475331Y-171176381D01*
X86421468Y-171197958D01*
X86407758Y-171200961D01*
X86391271Y-171178793D01*
X86358746Y-171116149D01*
X86312609Y-171018809D01*
X86255291Y-170892549D01*
X86189217Y-170743150D01*
X86116816Y-170576388D01*
X86040517Y-170398042D01*
X85962747Y-170213891D01*
X85885935Y-170029712D01*
X85812507Y-169851285D01*
X85744893Y-169684387D01*
X85685521Y-169534797D01*
X85636817Y-169408293D01*
X85601211Y-169310654D01*
X85581131Y-169247657D01*
X85577901Y-169226021D01*
X85603497Y-169198424D01*
X85659539Y-169153625D01*
X85734312Y-169100934D01*
X85740588Y-169096765D01*
X85933846Y-168942069D01*
X86089675Y-168761591D01*
X86206725Y-168561102D01*
X86283646Y-168346374D01*
X86319087Y-168123177D01*
X86311698Y-167897281D01*
X86260128Y-167674459D01*
X86163027Y-167460479D01*
X86134459Y-167413664D01*
X85985869Y-167224618D01*
X85810328Y-167072812D01*
X85613911Y-166959034D01*
X85402694Y-166884075D01*
X85182754Y-166848722D01*
X84960164Y-166853767D01*
X84741002Y-166899999D01*
X84531343Y-166988206D01*
X84337262Y-167119179D01*
X84277227Y-167172337D01*
X84124436Y-167338739D01*
X84013098Y-167513912D01*
X83936724Y-167710266D01*
X83894188Y-167904717D01*
X83883687Y-168123342D01*
X83918701Y-168343052D01*
X83995674Y-168556420D01*
X84111048Y-168756022D01*
X84261266Y-168934429D01*
X84442774Y-169084217D01*
X84466628Y-169100006D01*
X84542202Y-169151712D01*
X84599652Y-169196512D01*
X84627118Y-169225117D01*
X84627518Y-169226021D01*
X84621621Y-169256964D01*
X84598246Y-169327191D01*
X84559822Y-169430925D01*
X84508778Y-169562390D01*
X84447543Y-169715807D01*
X84378545Y-169885401D01*
X84304214Y-170065393D01*
X84226979Y-170250008D01*
X84149269Y-170433468D01*
X84073512Y-170609996D01*
X84002138Y-170773814D01*
X83937575Y-170919147D01*
X83882253Y-171040217D01*
X83838601Y-171131247D01*
X83809047Y-171186460D01*
X83797145Y-171200961D01*
X83760778Y-171189669D01*
X83692731Y-171159385D01*
X83604737Y-171115520D01*
X83556351Y-171089875D01*
X83350864Y-170978770D01*
X83106069Y-171144346D01*
X82981107Y-171229170D01*
X82844296Y-171322516D01*
X82716089Y-171410408D01*
X82651872Y-171454667D01*
X82561552Y-171515318D01*
X82485072Y-171563381D01*
X82432408Y-171592770D01*
X82415303Y-171598982D01*
X82390406Y-171582223D01*
X82335306Y-171535436D01*
X82255344Y-171463480D01*
X82155861Y-171371212D01*
X82042201Y-171263490D01*
X81970316Y-171194326D01*
X81844552Y-171070757D01*
X81735864Y-170960234D01*
X81648646Y-170867485D01*
X81587290Y-170797237D01*
X81556192Y-170754220D01*
X81553209Y-170745490D01*
X81567054Y-170712284D01*
X81605313Y-170645142D01*
X81663742Y-170550863D01*
X81738098Y-170436245D01*
X81824136Y-170308083D01*
X81848603Y-170272353D01*
X81937755Y-170142489D01*
X82017739Y-170025569D01*
X82084081Y-169928162D01*
X82132312Y-169856839D01*
X82157958Y-169818170D01*
X82160436Y-169814172D01*
X82156730Y-169783355D01*
X82137062Y-169715599D01*
X82104861Y-169619839D01*
X82063556Y-169505009D01*
X82016576Y-169380044D01*
X81967350Y-169253879D01*
X81919309Y-169135448D01*
X81875882Y-169033685D01*
X81840497Y-168957526D01*
X81816585Y-168915904D01*
X81814885Y-168913908D01*
X81800263Y-168902013D01*
X81775566Y-168890250D01*
X81735373Y-168877401D01*
X81674264Y-168862249D01*
X81586818Y-168843576D01*
X81467613Y-168820165D01*
X81311228Y-168790797D01*
X81112244Y-168754255D01*
X81069161Y-168746398D01*
X80941471Y-168721727D01*
X80830154Y-168697593D01*
X80745046Y-168676324D01*
X80695984Y-168660248D01*
X80689406Y-168656500D01*
X80678565Y-168623273D01*
X80669754Y-168549021D01*
X80662977Y-168442376D01*
X80658241Y-168311967D01*
X80655551Y-168166427D01*
X80654914Y-168014386D01*
X80656335Y-167864476D01*
X80659821Y-167725328D01*
X80665377Y-167605572D01*
X80673009Y-167513841D01*
X80682723Y-167458766D01*
X80688579Y-167447493D01*
X80721181Y-167436123D01*
X80795419Y-167417624D01*
X80903897Y-167393602D01*
X81039218Y-167365662D01*
X81193986Y-167335408D01*
X81278308Y-167319551D01*
X81438297Y-167289644D01*
X81580968Y-167262550D01*
X81699349Y-167239631D01*
X81786466Y-167222243D01*
X81835346Y-167211747D01*
X81843391Y-167209420D01*
X81856988Y-167183186D01*
X81885730Y-167119995D01*
X81925786Y-167028877D01*
X81973325Y-166918857D01*
X82024516Y-166798965D01*
X82075527Y-166678227D01*
X82122527Y-166565671D01*
X82161685Y-166470326D01*
X82189170Y-166401217D01*
X82201150Y-166367374D01*
X82201373Y-166365895D01*
X82187792Y-166339197D01*
X82149716Y-166277760D01*
X82091148Y-166187689D01*
X82016089Y-166075090D01*
X81928541Y-165946070D01*
X81877648Y-165871961D01*
X81784910Y-165736077D01*
X81702542Y-165612709D01*
X81634562Y-165508097D01*
X81584989Y-165428483D01*
X81557843Y-165380107D01*
X81553922Y-165369262D01*
X81570776Y-165344020D01*
X81617369Y-165290124D01*
X81687749Y-165213613D01*
X81775966Y-165120523D01*
X81876066Y-165016895D01*
X81982099Y-164908764D01*
X82088112Y-164802170D01*
X82188153Y-164703150D01*
X82276271Y-164617742D01*
X82346514Y-164551985D01*
X82392929Y-164511916D01*
X82408457Y-164502353D01*
X82433740Y-164515800D01*
X82494212Y-164553575D01*
X82583993Y-164611835D01*
X82697204Y-164686734D01*
X82827964Y-164774425D01*
X82926600Y-164841233D01*
X83424958Y-165180112D01*
X83840371Y-165008865D01*
X84255785Y-164837618D01*
X84368367Y-164240427D01*
X84480950Y-163643235D01*
X85723953Y-163643235D01*
X85836536Y-164240427D01*
D10*
X78105000Y-53715920D02*
X65405000Y-53715920D01*
X78105000Y-61335920D02*
X78105000Y-53715920D01*
X65405000Y-61335920D02*
X78105000Y-61335920D01*
X65405000Y-53715920D02*
X65405000Y-61335920D01*
D11*
X66675000Y-61695920D02*
X65045000Y-61695920D01*
X65045000Y-61695920D02*
X65045000Y-60065920D01*
X88360000Y-56285000D02*
X88360000Y-56615000D01*
X88360000Y-56615000D02*
X81820000Y-56615000D01*
X81820000Y-56615000D02*
X81820000Y-56285000D01*
X88360000Y-54205000D02*
X88360000Y-53875000D01*
X88360000Y-53875000D02*
X81820000Y-53875000D01*
X81820000Y-53875000D02*
X81820000Y-54205000D01*
X67580000Y-64710000D02*
X65930000Y-64710000D01*
X65930000Y-64710000D02*
X65930000Y-85150000D01*
X65930000Y-85150000D02*
X71230000Y-85150000D01*
X71230000Y-85150000D02*
X71230000Y-64710000D01*
X71230000Y-64710000D02*
X69580000Y-64710000D01*
X69580000Y-64710000D02*
G75*
G02X67580000Y-64710000I-1000000J0D01*
G01*
X95790000Y-121892000D02*
X91070000Y-121892000D01*
X91070000Y-121892000D02*
X91070000Y-132012000D01*
X91070000Y-132012000D02*
X95790000Y-132012000D01*
X95790000Y-132012000D02*
X95790000Y-121892000D01*
X95790000Y-123652000D02*
X95990000Y-123652000D01*
X95990000Y-123652000D02*
X95990000Y-123352000D01*
X95990000Y-123352000D02*
X95790000Y-123352000D01*
X95890000Y-123652000D02*
X95890000Y-123352000D01*
X95790000Y-124452000D02*
X95180000Y-124452000D01*
X95180000Y-124452000D02*
X95180000Y-122502000D01*
X95180000Y-122502000D02*
X91680000Y-122502000D01*
X91680000Y-122502000D02*
X91680000Y-131402000D01*
X91680000Y-131402000D02*
X95180000Y-131402000D01*
X95180000Y-131402000D02*
X95180000Y-129452000D01*
X95180000Y-129452000D02*
X95790000Y-129452000D01*
X94480000Y-121892000D02*
X94480000Y-122502000D01*
X93180000Y-121892000D02*
X93180000Y-122502000D01*
X94480000Y-132012000D02*
X94480000Y-131402000D01*
X93180000Y-132012000D02*
X93180000Y-131402000D01*
X91680000Y-124852000D02*
X92180000Y-124852000D01*
X92180000Y-124852000D02*
X92180000Y-125052000D01*
X92180000Y-125052000D02*
X91680000Y-125052000D01*
X91680000Y-124952000D02*
X92180000Y-124952000D01*
X91680000Y-126852000D02*
X92180000Y-126852000D01*
X92180000Y-126852000D02*
X92180000Y-127052000D01*
X92180000Y-127052000D02*
X91680000Y-127052000D01*
X91680000Y-126952000D02*
X92180000Y-126952000D01*
X91680000Y-128852000D02*
X92180000Y-128852000D01*
X92180000Y-128852000D02*
X92180000Y-129052000D01*
X92180000Y-129052000D02*
X91680000Y-129052000D01*
X91680000Y-128952000D02*
X92180000Y-128952000D01*
X96090000Y-122842000D02*
X96090000Y-121592000D01*
X96090000Y-121592000D02*
X94840000Y-121592000D01*
X85995000Y-64710000D02*
X84345000Y-64710000D01*
X84345000Y-64710000D02*
X84345000Y-74990000D01*
X84345000Y-74990000D02*
X89645000Y-74990000D01*
X89645000Y-74990000D02*
X89645000Y-64710000D01*
X89645000Y-64710000D02*
X87995000Y-64710000D01*
X87995000Y-64710000D02*
G75*
G02X85995000Y-64710000I-1000000J0D01*
G01*
X59015000Y-160560000D02*
X69255000Y-160560000D01*
X59015000Y-165201000D02*
X69255000Y-165201000D01*
X59015000Y-160560000D02*
X59015000Y-165201000D01*
X69255000Y-160560000D02*
X69255000Y-165201000D01*
X59015000Y-162070000D02*
X69255000Y-162070000D01*
X62285000Y-160560000D02*
X62285000Y-162070000D01*
X65986000Y-160560000D02*
X65986000Y-162070000D01*
X40783000Y-64837000D02*
X39133000Y-64837000D01*
X39133000Y-64837000D02*
X39133000Y-82737000D01*
X39133000Y-82737000D02*
X44433000Y-82737000D01*
X44433000Y-82737000D02*
X44433000Y-64837000D01*
X44433000Y-64837000D02*
X42783000Y-64837000D01*
X42783000Y-64837000D02*
G75*
G02X40783000Y-64837000I-1000000J0D01*
G01*
X56150000Y-64710000D02*
X54500000Y-64710000D01*
X54500000Y-64710000D02*
X54500000Y-74990000D01*
X54500000Y-74990000D02*
X59800000Y-74990000D01*
X59800000Y-74990000D02*
X59800000Y-64710000D01*
X59800000Y-64710000D02*
X58150000Y-64710000D01*
X58150000Y-64710000D02*
G75*
G02X56150000Y-64710000I-1000000J0D01*
G01*
X53880000Y-101068000D02*
X53880000Y-100738000D01*
X53880000Y-100738000D02*
X60420000Y-100738000D01*
X60420000Y-100738000D02*
X60420000Y-101068000D01*
X53880000Y-103148000D02*
X53880000Y-103478000D01*
X53880000Y-103478000D02*
X60420000Y-103478000D01*
X60420000Y-103478000D02*
X60420000Y-103148000D01*
X60420000Y-129945000D02*
X60420000Y-130275000D01*
X60420000Y-130275000D02*
X53880000Y-130275000D01*
X53880000Y-130275000D02*
X53880000Y-129945000D01*
X60420000Y-127865000D02*
X60420000Y-127535000D01*
X60420000Y-127535000D02*
X53880000Y-127535000D01*
X53880000Y-127535000D02*
X53880000Y-127865000D01*
X77692000Y-103021000D02*
X77692000Y-103351000D01*
X77692000Y-103351000D02*
X71152000Y-103351000D01*
X71152000Y-103351000D02*
X71152000Y-103021000D01*
X77692000Y-100941000D02*
X77692000Y-100611000D01*
X77692000Y-100611000D02*
X71152000Y-100611000D01*
X71152000Y-100611000D02*
X71152000Y-100941000D01*
X77692000Y-129945000D02*
X77692000Y-130275000D01*
X77692000Y-130275000D02*
X71152000Y-130275000D01*
X71152000Y-130275000D02*
X71152000Y-129945000D01*
X77692000Y-127865000D02*
X77692000Y-127535000D01*
X77692000Y-127535000D02*
X71152000Y-127535000D01*
X71152000Y-127535000D02*
X71152000Y-127865000D01*
X78970000Y-73120000D02*
X78640000Y-73120000D01*
X78640000Y-73120000D02*
X78640000Y-66580000D01*
X78640000Y-66580000D02*
X78970000Y-66580000D01*
X81050000Y-73120000D02*
X81380000Y-73120000D01*
X81380000Y-73120000D02*
X81380000Y-66580000D01*
X81380000Y-66580000D02*
X81050000Y-66580000D01*
X77240000Y-66580000D02*
X77570000Y-66580000D01*
X77570000Y-66580000D02*
X77570000Y-73120000D01*
X77570000Y-73120000D02*
X77240000Y-73120000D01*
X75160000Y-66580000D02*
X74830000Y-66580000D01*
X74830000Y-66580000D02*
X74830000Y-73120000D01*
X74830000Y-73120000D02*
X75160000Y-73120000D01*
X53880000Y-84050000D02*
X53880000Y-83720000D01*
X53880000Y-83720000D02*
X60420000Y-83720000D01*
X60420000Y-83720000D02*
X60420000Y-84050000D01*
X53880000Y-86130000D02*
X53880000Y-86460000D01*
X53880000Y-86460000D02*
X60420000Y-86460000D01*
X60420000Y-86460000D02*
X60420000Y-86130000D01*
X53880000Y-80240000D02*
X53880000Y-79910000D01*
X53880000Y-79910000D02*
X60420000Y-79910000D01*
X60420000Y-79910000D02*
X60420000Y-80240000D01*
X53880000Y-82320000D02*
X53880000Y-82650000D01*
X53880000Y-82650000D02*
X60420000Y-82650000D01*
X60420000Y-82650000D02*
X60420000Y-82320000D01*
X53880000Y-87860000D02*
X53880000Y-87530000D01*
X53880000Y-87530000D02*
X60420000Y-87530000D01*
X60420000Y-87530000D02*
X60420000Y-87860000D01*
X53880000Y-89940000D02*
X53880000Y-90270000D01*
X53880000Y-90270000D02*
X60420000Y-90270000D01*
X60420000Y-90270000D02*
X60420000Y-89940000D01*
X53880000Y-76430000D02*
X53880000Y-76100000D01*
X53880000Y-76100000D02*
X60420000Y-76100000D01*
X60420000Y-76100000D02*
X60420000Y-76430000D01*
X53880000Y-78510000D02*
X53880000Y-78840000D01*
X53880000Y-78840000D02*
X60420000Y-78840000D01*
X60420000Y-78840000D02*
X60420000Y-78510000D01*
X76382000Y-113516000D02*
X76382000Y-117116000D01*
X77109205Y-117640184D02*
G75*
G02X76382000Y-117116000I1122795J2324184D01*
G01*
X79330807Y-117672400D02*
G75*
G03X80832000Y-115316000I-1098807J2356400D01*
G01*
X79330807Y-112959600D02*
G75*
G02X80832000Y-115316000I-1098807J-2356400D01*
G01*
X77109205Y-112991816D02*
G75*
G03X76382000Y-113516000I1122795J-2324184D01*
G01*
X76382000Y-140440000D02*
X76382000Y-144040000D01*
X77109205Y-144564184D02*
G75*
G02X76382000Y-144040000I1122795J2324184D01*
G01*
X79330807Y-144596400D02*
G75*
G03X80832000Y-142240000I-1098807J2356400D01*
G01*
X79330807Y-139883600D02*
G75*
G02X80832000Y-142240000I-1098807J-2356400D01*
G01*
X77109205Y-139915816D02*
G75*
G03X76382000Y-140440000I1122795J-2324184D01*
G01*
X32480000Y-122710000D02*
X37200000Y-122710000D01*
X37200000Y-122710000D02*
X37200000Y-112590000D01*
X37200000Y-112590000D02*
X32480000Y-112590000D01*
X32480000Y-112590000D02*
X32480000Y-122710000D01*
X32480000Y-120950000D02*
X32280000Y-120950000D01*
X32280000Y-120950000D02*
X32280000Y-121250000D01*
X32280000Y-121250000D02*
X32480000Y-121250000D01*
X32380000Y-120950000D02*
X32380000Y-121250000D01*
X32480000Y-120150000D02*
X33090000Y-120150000D01*
X33090000Y-120150000D02*
X33090000Y-122100000D01*
X33090000Y-122100000D02*
X36590000Y-122100000D01*
X36590000Y-122100000D02*
X36590000Y-113200000D01*
X36590000Y-113200000D02*
X33090000Y-113200000D01*
X33090000Y-113200000D02*
X33090000Y-115150000D01*
X33090000Y-115150000D02*
X32480000Y-115150000D01*
X33790000Y-122710000D02*
X33790000Y-122100000D01*
X35090000Y-122710000D02*
X35090000Y-122100000D01*
X33790000Y-112590000D02*
X33790000Y-113200000D01*
X35090000Y-112590000D02*
X35090000Y-113200000D01*
X36590000Y-119750000D02*
X36090000Y-119750000D01*
X36090000Y-119750000D02*
X36090000Y-119550000D01*
X36090000Y-119550000D02*
X36590000Y-119550000D01*
X36590000Y-119650000D02*
X36090000Y-119650000D01*
X36590000Y-117750000D02*
X36090000Y-117750000D01*
X36090000Y-117750000D02*
X36090000Y-117550000D01*
X36090000Y-117550000D02*
X36590000Y-117550000D01*
X36590000Y-117650000D02*
X36090000Y-117650000D01*
X36590000Y-115750000D02*
X36090000Y-115750000D01*
X36090000Y-115750000D02*
X36090000Y-115550000D01*
X36090000Y-115550000D02*
X36590000Y-115550000D01*
X36590000Y-115650000D02*
X36090000Y-115650000D01*
X32180000Y-121760000D02*
X32180000Y-123010000D01*
X32180000Y-123010000D02*
X33430000Y-123010000D01*
X95790000Y-107922000D02*
X91070000Y-107922000D01*
X91070000Y-107922000D02*
X91070000Y-118042000D01*
X91070000Y-118042000D02*
X95790000Y-118042000D01*
X95790000Y-118042000D02*
X95790000Y-107922000D01*
X95790000Y-109682000D02*
X95990000Y-109682000D01*
X95990000Y-109682000D02*
X95990000Y-109382000D01*
X95990000Y-109382000D02*
X95790000Y-109382000D01*
X95890000Y-109682000D02*
X95890000Y-109382000D01*
X95790000Y-110482000D02*
X95180000Y-110482000D01*
X95180000Y-110482000D02*
X95180000Y-108532000D01*
X95180000Y-108532000D02*
X91680000Y-108532000D01*
X91680000Y-108532000D02*
X91680000Y-117432000D01*
X91680000Y-117432000D02*
X95180000Y-117432000D01*
X95180000Y-117432000D02*
X95180000Y-115482000D01*
X95180000Y-115482000D02*
X95790000Y-115482000D01*
X94480000Y-107922000D02*
X94480000Y-108532000D01*
X93180000Y-107922000D02*
X93180000Y-108532000D01*
X94480000Y-118042000D02*
X94480000Y-117432000D01*
X93180000Y-118042000D02*
X93180000Y-117432000D01*
X91680000Y-110882000D02*
X92180000Y-110882000D01*
X92180000Y-110882000D02*
X92180000Y-111082000D01*
X92180000Y-111082000D02*
X91680000Y-111082000D01*
X91680000Y-110982000D02*
X92180000Y-110982000D01*
X91680000Y-112882000D02*
X92180000Y-112882000D01*
X92180000Y-112882000D02*
X92180000Y-113082000D01*
X92180000Y-113082000D02*
X91680000Y-113082000D01*
X91680000Y-112982000D02*
X92180000Y-112982000D01*
X91680000Y-114882000D02*
X92180000Y-114882000D01*
X92180000Y-114882000D02*
X92180000Y-115082000D01*
X92180000Y-115082000D02*
X91680000Y-115082000D01*
X91680000Y-114982000D02*
X92180000Y-114982000D01*
X96090000Y-108872000D02*
X96090000Y-107622000D01*
X96090000Y-107622000D02*
X94840000Y-107622000D01*
D13*
X72095000Y-133990000D02*
X49595000Y-133990000D01*
X49595000Y-133990000D02*
X49595000Y-150490000D01*
X49595000Y-150490000D02*
X72095000Y-150490000D01*
X72095000Y-150490000D02*
X72095000Y-133990000D01*
D14*
X73645000Y-142240000D02*
X73645000Y-142240000D01*
X73545000Y-142240000D02*
X73545000Y-142240000D01*
X73845000Y-142240000D02*
G75*
G02X73545000Y-142240000I-150000J0D01*
G01*
X73745000Y-142240000D02*
G75*
G02X73645000Y-142240000I-50000J0D01*
G01*
D13*
X71968000Y-107066000D02*
X49468000Y-107066000D01*
X49468000Y-107066000D02*
X49468000Y-123566000D01*
X49468000Y-123566000D02*
X71968000Y-123566000D01*
X71968000Y-123566000D02*
X71968000Y-107066000D01*
D14*
X73518000Y-115316000D02*
X73518000Y-115316000D01*
X73418000Y-115316000D02*
X73418000Y-115316000D01*
X73718000Y-115316000D02*
G75*
G02X73418000Y-115316000I-150000J0D01*
G01*
X73618000Y-115316000D02*
G75*
G02X73518000Y-115316000I-50000J0D01*
G01*
D11*
X59118000Y-175250000D02*
X59118000Y-169190000D01*
X59118000Y-169190000D02*
X61928000Y-169190000D01*
X66528000Y-169190000D02*
X69338000Y-169190000D01*
X69338000Y-169190000D02*
X69338000Y-175250000D01*
X69338000Y-179350000D02*
X69338000Y-182410000D01*
X69338000Y-182410000D02*
X59118000Y-182410000D01*
X59118000Y-182410000D02*
X59118000Y-179350000D01*
X63228000Y-169000000D02*
X65228000Y-169000000D01*
X84478000Y-106452000D02*
X89678000Y-106452000D01*
X84478000Y-83532000D02*
X84478000Y-106452000D01*
X89678000Y-80932000D02*
X89678000Y-106452000D01*
X84478000Y-83532000D02*
X87078000Y-83532000D01*
X87078000Y-83532000D02*
X87078000Y-80932000D01*
X87078000Y-80932000D02*
X89678000Y-80932000D01*
X84478000Y-82262000D02*
X84478000Y-80932000D01*
X84478000Y-80932000D02*
X85808000Y-80932000D01*
X32480000Y-151285000D02*
X37200000Y-151285000D01*
X37200000Y-151285000D02*
X37200000Y-135165000D01*
X37200000Y-135165000D02*
X32480000Y-135165000D01*
X32480000Y-135165000D02*
X32480000Y-151285000D01*
X32480000Y-149525000D02*
X32280000Y-149525000D01*
X32280000Y-149525000D02*
X32280000Y-149825000D01*
X32280000Y-149825000D02*
X32480000Y-149825000D01*
X32380000Y-149525000D02*
X32380000Y-149825000D01*
X32480000Y-148725000D02*
X33090000Y-148725000D01*
X33090000Y-148725000D02*
X33090000Y-150675000D01*
X33090000Y-150675000D02*
X36590000Y-150675000D01*
X36590000Y-150675000D02*
X36590000Y-135775000D01*
X36590000Y-135775000D02*
X33090000Y-135775000D01*
X33090000Y-135775000D02*
X33090000Y-137725000D01*
X33090000Y-137725000D02*
X32480000Y-137725000D01*
X33790000Y-151285000D02*
X33790000Y-150675000D01*
X35090000Y-151285000D02*
X35090000Y-150675000D01*
X33790000Y-135165000D02*
X33790000Y-135775000D01*
X35090000Y-135165000D02*
X35090000Y-135775000D01*
X36590000Y-148325000D02*
X36090000Y-148325000D01*
X36090000Y-148325000D02*
X36090000Y-148125000D01*
X36090000Y-148125000D02*
X36590000Y-148125000D01*
X36590000Y-148225000D02*
X36090000Y-148225000D01*
X36590000Y-146325000D02*
X36090000Y-146325000D01*
X36090000Y-146325000D02*
X36090000Y-146125000D01*
X36090000Y-146125000D02*
X36590000Y-146125000D01*
X36590000Y-146225000D02*
X36090000Y-146225000D01*
X36590000Y-144325000D02*
X36090000Y-144325000D01*
X36090000Y-144325000D02*
X36090000Y-144125000D01*
X36090000Y-144125000D02*
X36590000Y-144125000D01*
X36590000Y-144225000D02*
X36090000Y-144225000D01*
X36590000Y-142325000D02*
X36090000Y-142325000D01*
X36090000Y-142325000D02*
X36090000Y-142125000D01*
X36090000Y-142125000D02*
X36590000Y-142125000D01*
X36590000Y-142225000D02*
X36090000Y-142225000D01*
X36590000Y-140325000D02*
X36090000Y-140325000D01*
X36090000Y-140325000D02*
X36090000Y-140125000D01*
X36090000Y-140125000D02*
X36590000Y-140125000D01*
X36590000Y-140225000D02*
X36090000Y-140225000D01*
X36590000Y-138325000D02*
X36090000Y-138325000D01*
X36090000Y-138325000D02*
X36090000Y-138125000D01*
X36090000Y-138125000D02*
X36590000Y-138125000D01*
X36590000Y-138225000D02*
X36090000Y-138225000D01*
X32180000Y-150335000D02*
X32180000Y-151585000D01*
X32180000Y-151585000D02*
X33430000Y-151585000D01*
X84478000Y-151152000D02*
X89678000Y-151152000D01*
X84478000Y-110452000D02*
X84478000Y-151152000D01*
X89678000Y-107852000D02*
X89678000Y-151152000D01*
X84478000Y-110452000D02*
X87078000Y-110452000D01*
X87078000Y-110452000D02*
X87078000Y-107852000D01*
X87078000Y-107852000D02*
X89678000Y-107852000D01*
X84478000Y-109182000D02*
X84478000Y-107852000D01*
X84478000Y-107852000D02*
X85808000Y-107852000D01*
X95790000Y-135227000D02*
X91070000Y-135227000D01*
X91070000Y-135227000D02*
X91070000Y-151347000D01*
X91070000Y-151347000D02*
X95790000Y-151347000D01*
X95790000Y-151347000D02*
X95790000Y-135227000D01*
X95790000Y-136987000D02*
X95990000Y-136987000D01*
X95990000Y-136987000D02*
X95990000Y-136687000D01*
X95990000Y-136687000D02*
X95790000Y-136687000D01*
X95890000Y-136987000D02*
X95890000Y-136687000D01*
X95790000Y-137787000D02*
X95180000Y-137787000D01*
X95180000Y-137787000D02*
X95180000Y-135837000D01*
X95180000Y-135837000D02*
X91680000Y-135837000D01*
X91680000Y-135837000D02*
X91680000Y-150737000D01*
X91680000Y-150737000D02*
X95180000Y-150737000D01*
X95180000Y-150737000D02*
X95180000Y-148787000D01*
X95180000Y-148787000D02*
X95790000Y-148787000D01*
X94480000Y-135227000D02*
X94480000Y-135837000D01*
X93180000Y-135227000D02*
X93180000Y-135837000D01*
X94480000Y-151347000D02*
X94480000Y-150737000D01*
X93180000Y-151347000D02*
X93180000Y-150737000D01*
X91680000Y-138187000D02*
X92180000Y-138187000D01*
X92180000Y-138187000D02*
X92180000Y-138387000D01*
X92180000Y-138387000D02*
X91680000Y-138387000D01*
X91680000Y-138287000D02*
X92180000Y-138287000D01*
X91680000Y-140187000D02*
X92180000Y-140187000D01*
X92180000Y-140187000D02*
X92180000Y-140387000D01*
X92180000Y-140387000D02*
X91680000Y-140387000D01*
X91680000Y-140287000D02*
X92180000Y-140287000D01*
X91680000Y-142187000D02*
X92180000Y-142187000D01*
X92180000Y-142187000D02*
X92180000Y-142387000D01*
X92180000Y-142387000D02*
X91680000Y-142387000D01*
X91680000Y-142287000D02*
X92180000Y-142287000D01*
X91680000Y-144187000D02*
X92180000Y-144187000D01*
X92180000Y-144187000D02*
X92180000Y-144387000D01*
X92180000Y-144387000D02*
X91680000Y-144387000D01*
X91680000Y-144287000D02*
X92180000Y-144287000D01*
X91680000Y-146187000D02*
X92180000Y-146187000D01*
X92180000Y-146187000D02*
X92180000Y-146387000D01*
X92180000Y-146387000D02*
X91680000Y-146387000D01*
X91680000Y-146287000D02*
X92180000Y-146287000D01*
X91680000Y-148187000D02*
X92180000Y-148187000D01*
X92180000Y-148187000D02*
X92180000Y-148387000D01*
X92180000Y-148387000D02*
X91680000Y-148387000D01*
X91680000Y-148287000D02*
X92180000Y-148287000D01*
X96090000Y-136177000D02*
X96090000Y-134927000D01*
X96090000Y-134927000D02*
X94840000Y-134927000D01*
X38778000Y-151152000D02*
X43978000Y-151152000D01*
X38778000Y-115532000D02*
X38778000Y-151152000D01*
X43978000Y-112932000D02*
X43978000Y-151152000D01*
X38778000Y-115532000D02*
X41378000Y-115532000D01*
X41378000Y-115532000D02*
X41378000Y-112932000D01*
X41378000Y-112932000D02*
X43978000Y-112932000D01*
X38778000Y-114262000D02*
X38778000Y-112932000D01*
X38778000Y-112932000D02*
X40108000Y-112932000D01*
X38778000Y-110512000D02*
X43978000Y-110512000D01*
X38778000Y-92672000D02*
X38778000Y-110512000D01*
X43978000Y-90072000D02*
X43978000Y-110512000D01*
X38778000Y-92672000D02*
X41378000Y-92672000D01*
X41378000Y-92672000D02*
X41378000Y-90072000D01*
X41378000Y-90072000D02*
X43978000Y-90072000D01*
X38778000Y-91402000D02*
X38778000Y-90072000D01*
X38778000Y-90072000D02*
X40108000Y-90072000D01*
X29605000Y-60005000D02*
X29605000Y-53765000D01*
X29605000Y-53765000D02*
X33605000Y-53765000D01*
X33605000Y-53765000D02*
X33605000Y-53465000D01*
X33605000Y-53465000D02*
X47845000Y-53465000D01*
X47845000Y-53465000D02*
X47845000Y-61905000D01*
X47845000Y-61905000D02*
X33605000Y-61905000D01*
X33605000Y-61905000D02*
X33605000Y-60005000D01*
X33605000Y-60005000D02*
X29605000Y-60005000D01*
X79468000Y-106898000D02*
X79312000Y-106898000D01*
X77152000Y-106898000D02*
X76996000Y-106898000D01*
X77152163Y-109499130D02*
G75*
G02X77152000Y-107417039I1079837J1041130D01*
G01*
X79311837Y-109499130D02*
G75*
G03X79312000Y-107417039I-1079837J1041130D01*
G01*
X77153392Y-110130335D02*
G75*
G02X76996484Y-106898000I1078608J1672335D01*
G01*
X79310608Y-110130335D02*
G75*
G03X79467516Y-106898000I-1078608J1672335D01*
G01*
X79468000Y-133695000D02*
X79312000Y-133695000D01*
X77152000Y-133695000D02*
X76996000Y-133695000D01*
X77152163Y-136296130D02*
G75*
G02X77152000Y-134214039I1079837J1041130D01*
G01*
X79311837Y-136296130D02*
G75*
G03X79312000Y-134214039I-1079837J1041130D01*
G01*
X77153392Y-136927335D02*
G75*
G02X76996484Y-133695000I1078608J1672335D01*
G01*
X79310608Y-136927335D02*
G75*
G03X79467516Y-133695000I-1078608J1672335D01*
G01*
X51491371Y-55880000D02*
G75*
G03X51491371Y-55880000I-1326371J0D01*
G01*
X50165000Y-57206371D02*
X50165000Y-57320000D01*
X33555000Y-69950000D02*
X33555000Y-64710000D01*
X36295000Y-69950000D02*
X36295000Y-64710000D01*
X33555000Y-69950000D02*
X36295000Y-69950000D01*
X33555000Y-64710000D02*
X36295000Y-64710000D01*
X73760000Y-168810000D02*
X73760000Y-174050000D01*
X71020000Y-168810000D02*
X71020000Y-174050000D01*
X73760000Y-168810000D02*
X71020000Y-168810000D01*
X73760000Y-174050000D02*
X71020000Y-174050000D01*
X92610000Y-69950000D02*
X92610000Y-64710000D01*
X95350000Y-69950000D02*
X95350000Y-64710000D01*
X92610000Y-69950000D02*
X95350000Y-69950000D01*
X92610000Y-64710000D02*
X95350000Y-64710000D01*
X71020000Y-165200000D02*
X71020000Y-159960000D01*
X73760000Y-165200000D02*
X73760000Y-159960000D01*
X71020000Y-165200000D02*
X73760000Y-165200000D01*
X71020000Y-159960000D02*
X73760000Y-159960000D01*
X54510000Y-165200000D02*
X54510000Y-159960000D01*
X57250000Y-165200000D02*
X57250000Y-159960000D01*
X54510000Y-165200000D02*
X57250000Y-165200000D01*
X54510000Y-159960000D02*
X57250000Y-159960000D01*
X48795000Y-69950000D02*
X48795000Y-64710000D01*
X51535000Y-69950000D02*
X51535000Y-64710000D01*
X48795000Y-69950000D02*
X51535000Y-69950000D01*
X48795000Y-64710000D02*
X51535000Y-64710000D01*
D10*
X79843333Y-61317142D02*
X79795714Y-61364761D01*
X79652857Y-61412380D01*
X79557619Y-61412380D01*
X79414761Y-61364761D01*
X79319523Y-61269523D01*
X79271904Y-61174285D01*
X79224285Y-60983809D01*
X79224285Y-60840952D01*
X79271904Y-60650476D01*
X79319523Y-60555238D01*
X79414761Y-60460000D01*
X79557619Y-60412380D01*
X79652857Y-60412380D01*
X79795714Y-60460000D01*
X79843333Y-60507619D01*
X80176666Y-60412380D02*
X80843333Y-60412380D01*
X80414761Y-61412380D01*
X79248095Y-58507380D02*
X79248095Y-59316904D01*
X79295714Y-59412142D01*
X79343333Y-59459761D01*
X79438571Y-59507380D01*
X79629047Y-59507380D01*
X79724285Y-59459761D01*
X79771904Y-59412142D01*
X79819523Y-59316904D01*
X79819523Y-58507380D01*
X80724285Y-58507380D02*
X80533809Y-58507380D01*
X80438571Y-58555000D01*
X80390952Y-58602619D01*
X80295714Y-58745476D01*
X80248095Y-58935952D01*
X80248095Y-59316904D01*
X80295714Y-59412142D01*
X80343333Y-59459761D01*
X80438571Y-59507380D01*
X80629047Y-59507380D01*
X80724285Y-59459761D01*
X80771904Y-59412142D01*
X80819523Y-59316904D01*
X80819523Y-59078809D01*
X80771904Y-58983571D01*
X80724285Y-58935952D01*
X80629047Y-58888333D01*
X80438571Y-58888333D01*
X80343333Y-58935952D01*
X80295714Y-58983571D01*
X80248095Y-59078809D01*
X89527142Y-59507380D02*
X89193809Y-59031190D01*
X88955714Y-59507380D02*
X88955714Y-58507380D01*
X89336666Y-58507380D01*
X89431904Y-58555000D01*
X89479523Y-58602619D01*
X89527142Y-58697857D01*
X89527142Y-58840714D01*
X89479523Y-58935952D01*
X89431904Y-58983571D01*
X89336666Y-59031190D01*
X88955714Y-59031190D01*
X90479523Y-59507380D02*
X89908095Y-59507380D01*
X90193809Y-59507380D02*
X90193809Y-58507380D01*
X90098571Y-58650238D01*
X90003333Y-58745476D01*
X89908095Y-58793095D01*
X91431904Y-59507380D02*
X90860476Y-59507380D01*
X91146190Y-59507380D02*
X91146190Y-58507380D01*
X91050952Y-58650238D01*
X90955714Y-58745476D01*
X90860476Y-58793095D01*
X67818095Y-62952380D02*
X67818095Y-63761904D01*
X67865714Y-63857142D01*
X67913333Y-63904761D01*
X68008571Y-63952380D01*
X68199047Y-63952380D01*
X68294285Y-63904761D01*
X68341904Y-63857142D01*
X68389523Y-63761904D01*
X68389523Y-62952380D01*
X69341904Y-62952380D02*
X68865714Y-62952380D01*
X68818095Y-63428571D01*
X68865714Y-63380952D01*
X68960952Y-63333333D01*
X69199047Y-63333333D01*
X69294285Y-63380952D01*
X69341904Y-63428571D01*
X69389523Y-63523809D01*
X69389523Y-63761904D01*
X69341904Y-63857142D01*
X69294285Y-63904761D01*
X69199047Y-63952380D01*
X68960952Y-63952380D01*
X68865714Y-63904761D01*
X68818095Y-63857142D01*
X93646666Y-58507380D02*
X94265714Y-58507380D01*
X93932380Y-58888333D01*
X94075238Y-58888333D01*
X94170476Y-58935952D01*
X94218095Y-58983571D01*
X94265714Y-59078809D01*
X94265714Y-59316904D01*
X94218095Y-59412142D01*
X94170476Y-59459761D01*
X94075238Y-59507380D01*
X93789523Y-59507380D01*
X93694285Y-59459761D01*
X93646666Y-59412142D01*
X60515476Y-58840714D02*
X60515476Y-59507380D01*
X60277380Y-58459761D02*
X60039285Y-59174047D01*
X60658333Y-59174047D01*
X93059285Y-173512619D02*
X93106904Y-173465000D01*
X93202142Y-173417380D01*
X93440238Y-173417380D01*
X93535476Y-173465000D01*
X93583095Y-173512619D01*
X93630714Y-173607857D01*
X93630714Y-173703095D01*
X93583095Y-173845952D01*
X93011666Y-174417380D01*
X93630714Y-174417380D01*
X35210714Y-174417380D02*
X34639285Y-174417380D01*
X34925000Y-174417380D02*
X34925000Y-173417380D01*
X34829761Y-173560238D01*
X34734523Y-173655476D01*
X34639285Y-173703095D01*
X98194761Y-128642476D02*
X98242380Y-128499619D01*
X98242380Y-128261523D01*
X98194761Y-128166285D01*
X98147142Y-128118666D01*
X98051904Y-128071047D01*
X97956666Y-128071047D01*
X97861428Y-128118666D01*
X97813809Y-128166285D01*
X97766190Y-128261523D01*
X97718571Y-128452000D01*
X97670952Y-128547238D01*
X97623333Y-128594857D01*
X97528095Y-128642476D01*
X97432857Y-128642476D01*
X97337619Y-128594857D01*
X97290000Y-128547238D01*
X97242380Y-128452000D01*
X97242380Y-128213904D01*
X97290000Y-128071047D01*
X98242380Y-127642476D02*
X97242380Y-127642476D01*
X98242380Y-127071047D01*
X97242380Y-127071047D01*
X98242380Y-126118666D02*
X98242380Y-126594857D01*
X97242380Y-126594857D01*
X98242380Y-125261523D02*
X98242380Y-125832952D01*
X98242380Y-125547238D02*
X97242380Y-125547238D01*
X97385238Y-125642476D01*
X97480476Y-125737714D01*
X97528095Y-125832952D01*
X86233095Y-62952380D02*
X86233095Y-63761904D01*
X86280714Y-63857142D01*
X86328333Y-63904761D01*
X86423571Y-63952380D01*
X86614047Y-63952380D01*
X86709285Y-63904761D01*
X86756904Y-63857142D01*
X86804523Y-63761904D01*
X86804523Y-62952380D01*
X87709285Y-63285714D02*
X87709285Y-63952380D01*
X87471190Y-62904761D02*
X87233095Y-63619047D01*
X87852142Y-63619047D01*
X63373095Y-158202380D02*
X63373095Y-159011904D01*
X63420714Y-159107142D01*
X63468333Y-159154761D01*
X63563571Y-159202380D01*
X63754047Y-159202380D01*
X63849285Y-159154761D01*
X63896904Y-159107142D01*
X63944523Y-159011904D01*
X63944523Y-158202380D01*
X64325476Y-158202380D02*
X64944523Y-158202380D01*
X64611190Y-158583333D01*
X64754047Y-158583333D01*
X64849285Y-158630952D01*
X64896904Y-158678571D01*
X64944523Y-158773809D01*
X64944523Y-159011904D01*
X64896904Y-159107142D01*
X64849285Y-159154761D01*
X64754047Y-159202380D01*
X64468333Y-159202380D01*
X64373095Y-159154761D01*
X64325476Y-159107142D01*
X41021095Y-62952380D02*
X41021095Y-63761904D01*
X41068714Y-63857142D01*
X41116333Y-63904761D01*
X41211571Y-63952380D01*
X41402047Y-63952380D01*
X41497285Y-63904761D01*
X41544904Y-63857142D01*
X41592523Y-63761904D01*
X41592523Y-62952380D01*
X42021095Y-63047619D02*
X42068714Y-63000000D01*
X42163952Y-62952380D01*
X42402047Y-62952380D01*
X42497285Y-63000000D01*
X42544904Y-63047619D01*
X42592523Y-63142857D01*
X42592523Y-63238095D01*
X42544904Y-63380952D01*
X41973476Y-63952380D01*
X42592523Y-63952380D01*
X56388095Y-62952380D02*
X56388095Y-63761904D01*
X56435714Y-63857142D01*
X56483333Y-63904761D01*
X56578571Y-63952380D01*
X56769047Y-63952380D01*
X56864285Y-63904761D01*
X56911904Y-63857142D01*
X56959523Y-63761904D01*
X56959523Y-62952380D01*
X57959523Y-63952380D02*
X57388095Y-63952380D01*
X57673809Y-63952380D02*
X57673809Y-62952380D01*
X57578571Y-63095238D01*
X57483333Y-63190476D01*
X57388095Y-63238095D01*
X56507142Y-105227380D02*
X56173809Y-104751190D01*
X55935714Y-105227380D02*
X55935714Y-104227380D01*
X56316666Y-104227380D01*
X56411904Y-104275000D01*
X56459523Y-104322619D01*
X56507142Y-104417857D01*
X56507142Y-104560714D01*
X56459523Y-104655952D01*
X56411904Y-104703571D01*
X56316666Y-104751190D01*
X55935714Y-104751190D01*
X57459523Y-105227380D02*
X56888095Y-105227380D01*
X57173809Y-105227380D02*
X57173809Y-104227380D01*
X57078571Y-104370238D01*
X56983333Y-104465476D01*
X56888095Y-104513095D01*
X58078571Y-104227380D02*
X58173809Y-104227380D01*
X58269047Y-104275000D01*
X58316666Y-104322619D01*
X58364285Y-104417857D01*
X58411904Y-104608333D01*
X58411904Y-104846428D01*
X58364285Y-105036904D01*
X58316666Y-105132142D01*
X58269047Y-105179761D01*
X58173809Y-105227380D01*
X58078571Y-105227380D01*
X57983333Y-105179761D01*
X57935714Y-105132142D01*
X57888095Y-105036904D01*
X57840476Y-104846428D01*
X57840476Y-104608333D01*
X57888095Y-104417857D01*
X57935714Y-104322619D01*
X57983333Y-104275000D01*
X58078571Y-104227380D01*
X56983333Y-131770380D02*
X56650000Y-131294190D01*
X56411904Y-131770380D02*
X56411904Y-130770380D01*
X56792857Y-130770380D01*
X56888095Y-130818000D01*
X56935714Y-130865619D01*
X56983333Y-130960857D01*
X56983333Y-131103714D01*
X56935714Y-131198952D01*
X56888095Y-131246571D01*
X56792857Y-131294190D01*
X56411904Y-131294190D01*
X57459523Y-131770380D02*
X57650000Y-131770380D01*
X57745238Y-131722761D01*
X57792857Y-131675142D01*
X57888095Y-131532285D01*
X57935714Y-131341809D01*
X57935714Y-130960857D01*
X57888095Y-130865619D01*
X57840476Y-130818000D01*
X57745238Y-130770380D01*
X57554761Y-130770380D01*
X57459523Y-130818000D01*
X57411904Y-130865619D01*
X57364285Y-130960857D01*
X57364285Y-131198952D01*
X57411904Y-131294190D01*
X57459523Y-131341809D01*
X57554761Y-131389428D01*
X57745238Y-131389428D01*
X57840476Y-131341809D01*
X57888095Y-131294190D01*
X57935714Y-131198952D01*
X74255333Y-105227380D02*
X73922000Y-104751190D01*
X73683904Y-105227380D02*
X73683904Y-104227380D01*
X74064857Y-104227380D01*
X74160095Y-104275000D01*
X74207714Y-104322619D01*
X74255333Y-104417857D01*
X74255333Y-104560714D01*
X74207714Y-104655952D01*
X74160095Y-104703571D01*
X74064857Y-104751190D01*
X73683904Y-104751190D01*
X74826761Y-104655952D02*
X74731523Y-104608333D01*
X74683904Y-104560714D01*
X74636285Y-104465476D01*
X74636285Y-104417857D01*
X74683904Y-104322619D01*
X74731523Y-104275000D01*
X74826761Y-104227380D01*
X75017238Y-104227380D01*
X75112476Y-104275000D01*
X75160095Y-104322619D01*
X75207714Y-104417857D01*
X75207714Y-104465476D01*
X75160095Y-104560714D01*
X75112476Y-104608333D01*
X75017238Y-104655952D01*
X74826761Y-104655952D01*
X74731523Y-104703571D01*
X74683904Y-104751190D01*
X74636285Y-104846428D01*
X74636285Y-105036904D01*
X74683904Y-105132142D01*
X74731523Y-105179761D01*
X74826761Y-105227380D01*
X75017238Y-105227380D01*
X75112476Y-105179761D01*
X75160095Y-105132142D01*
X75207714Y-105036904D01*
X75207714Y-104846428D01*
X75160095Y-104751190D01*
X75112476Y-104703571D01*
X75017238Y-104655952D01*
X74128333Y-131897380D02*
X73795000Y-131421190D01*
X73556904Y-131897380D02*
X73556904Y-130897380D01*
X73937857Y-130897380D01*
X74033095Y-130945000D01*
X74080714Y-130992619D01*
X74128333Y-131087857D01*
X74128333Y-131230714D01*
X74080714Y-131325952D01*
X74033095Y-131373571D01*
X73937857Y-131421190D01*
X73556904Y-131421190D01*
X74461666Y-130897380D02*
X75128333Y-130897380D01*
X74699761Y-131897380D01*
X79843333Y-63952380D02*
X79510000Y-63476190D01*
X79271904Y-63952380D02*
X79271904Y-62952380D01*
X79652857Y-62952380D01*
X79748095Y-63000000D01*
X79795714Y-63047619D01*
X79843333Y-63142857D01*
X79843333Y-63285714D01*
X79795714Y-63380952D01*
X79748095Y-63428571D01*
X79652857Y-63476190D01*
X79271904Y-63476190D01*
X80700476Y-62952380D02*
X80510000Y-62952380D01*
X80414761Y-63000000D01*
X80367142Y-63047619D01*
X80271904Y-63190476D01*
X80224285Y-63380952D01*
X80224285Y-63761904D01*
X80271904Y-63857142D01*
X80319523Y-63904761D01*
X80414761Y-63952380D01*
X80605238Y-63952380D01*
X80700476Y-63904761D01*
X80748095Y-63857142D01*
X80795714Y-63761904D01*
X80795714Y-63523809D01*
X80748095Y-63428571D01*
X80700476Y-63380952D01*
X80605238Y-63333333D01*
X80414761Y-63333333D01*
X80319523Y-63380952D01*
X80271904Y-63428571D01*
X80224285Y-63523809D01*
X76033333Y-63952380D02*
X75700000Y-63476190D01*
X75461904Y-63952380D02*
X75461904Y-62952380D01*
X75842857Y-62952380D01*
X75938095Y-63000000D01*
X75985714Y-63047619D01*
X76033333Y-63142857D01*
X76033333Y-63285714D01*
X75985714Y-63380952D01*
X75938095Y-63428571D01*
X75842857Y-63476190D01*
X75461904Y-63476190D01*
X76938095Y-62952380D02*
X76461904Y-62952380D01*
X76414285Y-63428571D01*
X76461904Y-63380952D01*
X76557142Y-63333333D01*
X76795238Y-63333333D01*
X76890476Y-63380952D01*
X76938095Y-63428571D01*
X76985714Y-63523809D01*
X76985714Y-63761904D01*
X76938095Y-63857142D01*
X76890476Y-63904761D01*
X76795238Y-63952380D01*
X76557142Y-63952380D01*
X76461904Y-63904761D01*
X76414285Y-63857142D01*
X49998333Y-85542380D02*
X49665000Y-85066190D01*
X49426904Y-85542380D02*
X49426904Y-84542380D01*
X49807857Y-84542380D01*
X49903095Y-84590000D01*
X49950714Y-84637619D01*
X49998333Y-84732857D01*
X49998333Y-84875714D01*
X49950714Y-84970952D01*
X49903095Y-85018571D01*
X49807857Y-85066190D01*
X49426904Y-85066190D01*
X50855476Y-84875714D02*
X50855476Y-85542380D01*
X50617380Y-84494761D02*
X50379285Y-85209047D01*
X50998333Y-85209047D01*
X49998333Y-81732380D02*
X49665000Y-81256190D01*
X49426904Y-81732380D02*
X49426904Y-80732380D01*
X49807857Y-80732380D01*
X49903095Y-80780000D01*
X49950714Y-80827619D01*
X49998333Y-80922857D01*
X49998333Y-81065714D01*
X49950714Y-81160952D01*
X49903095Y-81208571D01*
X49807857Y-81256190D01*
X49426904Y-81256190D01*
X50331666Y-80732380D02*
X50950714Y-80732380D01*
X50617380Y-81113333D01*
X50760238Y-81113333D01*
X50855476Y-81160952D01*
X50903095Y-81208571D01*
X50950714Y-81303809D01*
X50950714Y-81541904D01*
X50903095Y-81637142D01*
X50855476Y-81684761D01*
X50760238Y-81732380D01*
X50474523Y-81732380D01*
X50379285Y-81684761D01*
X50331666Y-81637142D01*
X49998333Y-89352380D02*
X49665000Y-88876190D01*
X49426904Y-89352380D02*
X49426904Y-88352380D01*
X49807857Y-88352380D01*
X49903095Y-88400000D01*
X49950714Y-88447619D01*
X49998333Y-88542857D01*
X49998333Y-88685714D01*
X49950714Y-88780952D01*
X49903095Y-88828571D01*
X49807857Y-88876190D01*
X49426904Y-88876190D01*
X50379285Y-88447619D02*
X50426904Y-88400000D01*
X50522142Y-88352380D01*
X50760238Y-88352380D01*
X50855476Y-88400000D01*
X50903095Y-88447619D01*
X50950714Y-88542857D01*
X50950714Y-88638095D01*
X50903095Y-88780952D01*
X50331666Y-89352380D01*
X50950714Y-89352380D01*
X49998333Y-77922380D02*
X49665000Y-77446190D01*
X49426904Y-77922380D02*
X49426904Y-76922380D01*
X49807857Y-76922380D01*
X49903095Y-76970000D01*
X49950714Y-77017619D01*
X49998333Y-77112857D01*
X49998333Y-77255714D01*
X49950714Y-77350952D01*
X49903095Y-77398571D01*
X49807857Y-77446190D01*
X49426904Y-77446190D01*
X50950714Y-77922380D02*
X50379285Y-77922380D01*
X50665000Y-77922380D02*
X50665000Y-76922380D01*
X50569761Y-77065238D01*
X50474523Y-77160476D01*
X50379285Y-77208095D01*
X82200761Y-115863619D02*
X82105523Y-115816000D01*
X82010285Y-115720761D01*
X81867428Y-115577904D01*
X81772190Y-115530285D01*
X81676952Y-115530285D01*
X81724571Y-115768380D02*
X81629333Y-115720761D01*
X81534095Y-115625523D01*
X81486476Y-115435047D01*
X81486476Y-115101714D01*
X81534095Y-114911238D01*
X81629333Y-114816000D01*
X81724571Y-114768380D01*
X81915047Y-114768380D01*
X82010285Y-114816000D01*
X82105523Y-114911238D01*
X82153142Y-115101714D01*
X82153142Y-115435047D01*
X82105523Y-115625523D01*
X82010285Y-115720761D01*
X81915047Y-115768380D01*
X81724571Y-115768380D01*
X82534095Y-114863619D02*
X82581714Y-114816000D01*
X82676952Y-114768380D01*
X82915047Y-114768380D01*
X83010285Y-114816000D01*
X83057904Y-114863619D01*
X83105523Y-114958857D01*
X83105523Y-115054095D01*
X83057904Y-115196952D01*
X82486476Y-115768380D01*
X83105523Y-115768380D01*
X81819761Y-142787619D02*
X81724523Y-142740000D01*
X81629285Y-142644761D01*
X81486428Y-142501904D01*
X81391190Y-142454285D01*
X81295952Y-142454285D01*
X81343571Y-142692380D02*
X81248333Y-142644761D01*
X81153095Y-142549523D01*
X81105476Y-142359047D01*
X81105476Y-142025714D01*
X81153095Y-141835238D01*
X81248333Y-141740000D01*
X81343571Y-141692380D01*
X81534047Y-141692380D01*
X81629285Y-141740000D01*
X81724523Y-141835238D01*
X81772142Y-142025714D01*
X81772142Y-142359047D01*
X81724523Y-142549523D01*
X81629285Y-142644761D01*
X81534047Y-142692380D01*
X81343571Y-142692380D01*
X82724523Y-142692380D02*
X82153095Y-142692380D01*
X82438809Y-142692380D02*
X82438809Y-141692380D01*
X82343571Y-141835238D01*
X82248333Y-141930476D01*
X82153095Y-141978095D01*
X30932380Y-119388095D02*
X29932380Y-119388095D01*
X30932380Y-118816666D02*
X30360952Y-119245238D01*
X29932380Y-118816666D02*
X30503809Y-119388095D01*
X30646666Y-118435714D02*
X30646666Y-117959523D01*
X30932380Y-118530952D02*
X29932380Y-118197619D01*
X30932380Y-117864285D01*
X30932380Y-117530952D02*
X29932380Y-117530952D01*
X30646666Y-117197619D01*
X29932380Y-116864285D01*
X30932380Y-116864285D01*
X30027619Y-116435714D02*
X29980000Y-116388095D01*
X29932380Y-116292857D01*
X29932380Y-116054761D01*
X29980000Y-115959523D01*
X30027619Y-115911904D01*
X30122857Y-115864285D01*
X30218095Y-115864285D01*
X30360952Y-115911904D01*
X30932380Y-116483333D01*
X30932380Y-115864285D01*
X98242380Y-114768095D02*
X97242380Y-114768095D01*
X98242380Y-114196666D02*
X97670952Y-114625238D01*
X97242380Y-114196666D02*
X97813809Y-114768095D01*
X97956666Y-113815714D02*
X97956666Y-113339523D01*
X98242380Y-113910952D02*
X97242380Y-113577619D01*
X98242380Y-113244285D01*
X98242380Y-112910952D02*
X97242380Y-112910952D01*
X97956666Y-112577619D01*
X97242380Y-112244285D01*
X98242380Y-112244285D01*
X98242380Y-111244285D02*
X98242380Y-111815714D01*
X98242380Y-111530000D02*
X97242380Y-111530000D01*
X97385238Y-111625238D01*
X97480476Y-111720476D01*
X97528095Y-111815714D01*
X60881904Y-142692380D02*
X60881904Y-141692380D01*
X61453333Y-142692380D02*
X61024761Y-142120952D01*
X61453333Y-141692380D02*
X60881904Y-142263809D01*
X61834285Y-141787619D02*
X61881904Y-141740000D01*
X61977142Y-141692380D01*
X62215238Y-141692380D01*
X62310476Y-141740000D01*
X62358095Y-141787619D01*
X62405714Y-141882857D01*
X62405714Y-141978095D01*
X62358095Y-142120952D01*
X61786666Y-142692380D01*
X62405714Y-142692380D01*
X60754904Y-115768380D02*
X60754904Y-114768380D01*
X61326333Y-115768380D02*
X60897761Y-115196952D01*
X61326333Y-114768380D02*
X60754904Y-115339809D01*
X62278714Y-115768380D02*
X61707285Y-115768380D01*
X61993000Y-115768380D02*
X61993000Y-114768380D01*
X61897761Y-114911238D01*
X61802523Y-115006476D01*
X61707285Y-115054095D01*
X63894666Y-167085380D02*
X63894666Y-167799666D01*
X63847047Y-167942523D01*
X63751809Y-168037761D01*
X63608952Y-168085380D01*
X63513714Y-168085380D01*
X64799428Y-167085380D02*
X64608952Y-167085380D01*
X64513714Y-167133000D01*
X64466095Y-167180619D01*
X64370857Y-167323476D01*
X64323238Y-167513952D01*
X64323238Y-167894904D01*
X64370857Y-167990142D01*
X64418476Y-168037761D01*
X64513714Y-168085380D01*
X64704190Y-168085380D01*
X64799428Y-168037761D01*
X64847047Y-167990142D01*
X64894666Y-167894904D01*
X64894666Y-167656809D01*
X64847047Y-167561571D01*
X64799428Y-167513952D01*
X64704190Y-167466333D01*
X64513714Y-167466333D01*
X64418476Y-167513952D01*
X64370857Y-167561571D01*
X64323238Y-167656809D01*
X86744666Y-78827380D02*
X86744666Y-79541666D01*
X86697047Y-79684523D01*
X86601809Y-79779761D01*
X86458952Y-79827380D01*
X86363714Y-79827380D01*
X87697047Y-78827380D02*
X87220857Y-78827380D01*
X87173238Y-79303571D01*
X87220857Y-79255952D01*
X87316095Y-79208333D01*
X87554190Y-79208333D01*
X87649428Y-79255952D01*
X87697047Y-79303571D01*
X87744666Y-79398809D01*
X87744666Y-79636904D01*
X87697047Y-79732142D01*
X87649428Y-79779761D01*
X87554190Y-79827380D01*
X87316095Y-79827380D01*
X87220857Y-79779761D01*
X87173238Y-79732142D01*
X29980000Y-144415476D02*
X29932380Y-144510714D01*
X29932380Y-144653571D01*
X29980000Y-144796428D01*
X30075238Y-144891666D01*
X30170476Y-144939285D01*
X30360952Y-144986904D01*
X30503809Y-144986904D01*
X30694285Y-144939285D01*
X30789523Y-144891666D01*
X30884761Y-144796428D01*
X30932380Y-144653571D01*
X30932380Y-144558333D01*
X30884761Y-144415476D01*
X30837142Y-144367857D01*
X30503809Y-144367857D01*
X30503809Y-144558333D01*
X30408571Y-143939285D02*
X30408571Y-143605952D01*
X30932380Y-143463095D02*
X30932380Y-143939285D01*
X29932380Y-143939285D01*
X29932380Y-143463095D01*
X30932380Y-143034523D02*
X29932380Y-143034523D01*
X30408571Y-143034523D02*
X30408571Y-142463095D01*
X30932380Y-142463095D02*
X29932380Y-142463095D01*
X30027619Y-142034523D02*
X29980000Y-141986904D01*
X29932380Y-141891666D01*
X29932380Y-141653571D01*
X29980000Y-141558333D01*
X30027619Y-141510714D01*
X30122857Y-141463095D01*
X30218095Y-141463095D01*
X30360952Y-141510714D01*
X30932380Y-142082142D01*
X30932380Y-141463095D01*
X86707386Y-152116540D02*
X86707386Y-152830826D01*
X86659767Y-152973683D01*
X86564529Y-153068921D01*
X86421672Y-153116540D01*
X86326434Y-153116540D01*
X87612148Y-152449874D02*
X87612148Y-153116540D01*
X87374053Y-152068921D02*
X87135958Y-152783207D01*
X87755005Y-152783207D01*
X97290000Y-144477476D02*
X97242380Y-144572714D01*
X97242380Y-144715571D01*
X97290000Y-144858428D01*
X97385238Y-144953666D01*
X97480476Y-145001285D01*
X97670952Y-145048904D01*
X97813809Y-145048904D01*
X98004285Y-145001285D01*
X98099523Y-144953666D01*
X98194761Y-144858428D01*
X98242380Y-144715571D01*
X98242380Y-144620333D01*
X98194761Y-144477476D01*
X98147142Y-144429857D01*
X97813809Y-144429857D01*
X97813809Y-144620333D01*
X97718571Y-144001285D02*
X97718571Y-143667952D01*
X98242380Y-143525095D02*
X98242380Y-144001285D01*
X97242380Y-144001285D01*
X97242380Y-143525095D01*
X98242380Y-143096523D02*
X97242380Y-143096523D01*
X97718571Y-143096523D02*
X97718571Y-142525095D01*
X98242380Y-142525095D02*
X97242380Y-142525095D01*
X98242380Y-141525095D02*
X98242380Y-142096523D01*
X98242380Y-141810809D02*
X97242380Y-141810809D01*
X97385238Y-141906047D01*
X97480476Y-142001285D01*
X97528095Y-142096523D01*
X41044666Y-151979380D02*
X41044666Y-152693666D01*
X40997047Y-152836523D01*
X40901809Y-152931761D01*
X40758952Y-152979380D01*
X40663714Y-152979380D01*
X41425619Y-151979380D02*
X42044666Y-151979380D01*
X41711333Y-152360333D01*
X41854190Y-152360333D01*
X41949428Y-152407952D01*
X41997047Y-152455571D01*
X42044666Y-152550809D01*
X42044666Y-152788904D01*
X41997047Y-152884142D01*
X41949428Y-152931761D01*
X41854190Y-152979380D01*
X41568476Y-152979380D01*
X41473238Y-152931761D01*
X41425619Y-152884142D01*
X41044666Y-87844380D02*
X41044666Y-88558666D01*
X40997047Y-88701523D01*
X40901809Y-88796761D01*
X40758952Y-88844380D01*
X40663714Y-88844380D01*
X41473238Y-87939619D02*
X41520857Y-87892000D01*
X41616095Y-87844380D01*
X41854190Y-87844380D01*
X41949428Y-87892000D01*
X41997047Y-87939619D01*
X42044666Y-88034857D01*
X42044666Y-88130095D01*
X41997047Y-88272952D01*
X41425619Y-88844380D01*
X42044666Y-88844380D01*
X34591666Y-51522380D02*
X34591666Y-52236666D01*
X34544047Y-52379523D01*
X34448809Y-52474761D01*
X34305952Y-52522380D01*
X34210714Y-52522380D01*
X35591666Y-52522380D02*
X35020238Y-52522380D01*
X35305952Y-52522380D02*
X35305952Y-51522380D01*
X35210714Y-51665238D01*
X35115476Y-51760476D01*
X35020238Y-51808095D01*
X81557904Y-108910380D02*
X81557904Y-107910380D01*
X81796000Y-107910380D01*
X81938857Y-107958000D01*
X82034095Y-108053238D01*
X82081714Y-108148476D01*
X82129333Y-108338952D01*
X82129333Y-108481809D01*
X82081714Y-108672285D01*
X82034095Y-108767523D01*
X81938857Y-108862761D01*
X81796000Y-108910380D01*
X81557904Y-108910380D01*
X82462666Y-107910380D02*
X83081714Y-107910380D01*
X82748380Y-108291333D01*
X82891238Y-108291333D01*
X82986476Y-108338952D01*
X83034095Y-108386571D01*
X83081714Y-108481809D01*
X83081714Y-108719904D01*
X83034095Y-108815142D01*
X82986476Y-108862761D01*
X82891238Y-108910380D01*
X82605523Y-108910380D01*
X82510285Y-108862761D01*
X82462666Y-108815142D01*
X81049904Y-135580380D02*
X81049904Y-134580380D01*
X81288000Y-134580380D01*
X81430857Y-134628000D01*
X81526095Y-134723238D01*
X81573714Y-134818476D01*
X81621333Y-135008952D01*
X81621333Y-135151809D01*
X81573714Y-135342285D01*
X81526095Y-135437523D01*
X81430857Y-135532761D01*
X81288000Y-135580380D01*
X81049904Y-135580380D01*
X82002285Y-134675619D02*
X82049904Y-134628000D01*
X82145142Y-134580380D01*
X82383238Y-134580380D01*
X82478476Y-134628000D01*
X82526095Y-134675619D01*
X82573714Y-134770857D01*
X82573714Y-134866095D01*
X82526095Y-135008952D01*
X81954666Y-135580380D01*
X82573714Y-135580380D01*
X49426904Y-53792380D02*
X49426904Y-52792380D01*
X49665000Y-52792380D01*
X49807857Y-52840000D01*
X49903095Y-52935238D01*
X49950714Y-53030476D01*
X49998333Y-53220952D01*
X49998333Y-53363809D01*
X49950714Y-53554285D01*
X49903095Y-53649523D01*
X49807857Y-53744761D01*
X49665000Y-53792380D01*
X49426904Y-53792380D01*
X50950714Y-53792380D02*
X50379285Y-53792380D01*
X50665000Y-53792380D02*
X50665000Y-52792380D01*
X50569761Y-52935238D01*
X50474523Y-53030476D01*
X50379285Y-53078095D01*
X49926904Y-61126666D02*
X50403095Y-61126666D01*
X49831666Y-61412380D02*
X50165000Y-60412380D01*
X50498333Y-61412380D01*
X34758333Y-63857142D02*
X34710714Y-63904761D01*
X34567857Y-63952380D01*
X34472619Y-63952380D01*
X34329761Y-63904761D01*
X34234523Y-63809523D01*
X34186904Y-63714285D01*
X34139285Y-63523809D01*
X34139285Y-63380952D01*
X34186904Y-63190476D01*
X34234523Y-63095238D01*
X34329761Y-63000000D01*
X34472619Y-62952380D01*
X34567857Y-62952380D01*
X34710714Y-63000000D01*
X34758333Y-63047619D01*
X35615476Y-62952380D02*
X35425000Y-62952380D01*
X35329761Y-63000000D01*
X35282142Y-63047619D01*
X35186904Y-63190476D01*
X35139285Y-63380952D01*
X35139285Y-63761904D01*
X35186904Y-63857142D01*
X35234523Y-63904761D01*
X35329761Y-63952380D01*
X35520238Y-63952380D01*
X35615476Y-63904761D01*
X35663095Y-63857142D01*
X35710714Y-63761904D01*
X35710714Y-63523809D01*
X35663095Y-63428571D01*
X35615476Y-63380952D01*
X35520238Y-63333333D01*
X35329761Y-63333333D01*
X35234523Y-63380952D01*
X35186904Y-63428571D01*
X35139285Y-63523809D01*
X72223333Y-167997142D02*
X72175714Y-168044761D01*
X72032857Y-168092380D01*
X71937619Y-168092380D01*
X71794761Y-168044761D01*
X71699523Y-167949523D01*
X71651904Y-167854285D01*
X71604285Y-167663809D01*
X71604285Y-167520952D01*
X71651904Y-167330476D01*
X71699523Y-167235238D01*
X71794761Y-167140000D01*
X71937619Y-167092380D01*
X72032857Y-167092380D01*
X72175714Y-167140000D01*
X72223333Y-167187619D01*
X73128095Y-167092380D02*
X72651904Y-167092380D01*
X72604285Y-167568571D01*
X72651904Y-167520952D01*
X72747142Y-167473333D01*
X72985238Y-167473333D01*
X73080476Y-167520952D01*
X73128095Y-167568571D01*
X73175714Y-167663809D01*
X73175714Y-167901904D01*
X73128095Y-167997142D01*
X73080476Y-168044761D01*
X72985238Y-168092380D01*
X72747142Y-168092380D01*
X72651904Y-168044761D01*
X72604285Y-167997142D01*
X93813333Y-63857142D02*
X93765714Y-63904761D01*
X93622857Y-63952380D01*
X93527619Y-63952380D01*
X93384761Y-63904761D01*
X93289523Y-63809523D01*
X93241904Y-63714285D01*
X93194285Y-63523809D01*
X93194285Y-63380952D01*
X93241904Y-63190476D01*
X93289523Y-63095238D01*
X93384761Y-63000000D01*
X93527619Y-62952380D01*
X93622857Y-62952380D01*
X93765714Y-63000000D01*
X93813333Y-63047619D01*
X94670476Y-63285714D02*
X94670476Y-63952380D01*
X94432380Y-62904761D02*
X94194285Y-63619047D01*
X94813333Y-63619047D01*
X72223333Y-159107142D02*
X72175714Y-159154761D01*
X72032857Y-159202380D01*
X71937619Y-159202380D01*
X71794761Y-159154761D01*
X71699523Y-159059523D01*
X71651904Y-158964285D01*
X71604285Y-158773809D01*
X71604285Y-158630952D01*
X71651904Y-158440476D01*
X71699523Y-158345238D01*
X71794761Y-158250000D01*
X71937619Y-158202380D01*
X72032857Y-158202380D01*
X72175714Y-158250000D01*
X72223333Y-158297619D01*
X72556666Y-158202380D02*
X73175714Y-158202380D01*
X72842380Y-158583333D01*
X72985238Y-158583333D01*
X73080476Y-158630952D01*
X73128095Y-158678571D01*
X73175714Y-158773809D01*
X73175714Y-159011904D01*
X73128095Y-159107142D01*
X73080476Y-159154761D01*
X72985238Y-159202380D01*
X72699523Y-159202380D01*
X72604285Y-159154761D01*
X72556666Y-159107142D01*
X55713333Y-159107142D02*
X55665714Y-159154761D01*
X55522857Y-159202380D01*
X55427619Y-159202380D01*
X55284761Y-159154761D01*
X55189523Y-159059523D01*
X55141904Y-158964285D01*
X55094285Y-158773809D01*
X55094285Y-158630952D01*
X55141904Y-158440476D01*
X55189523Y-158345238D01*
X55284761Y-158250000D01*
X55427619Y-158202380D01*
X55522857Y-158202380D01*
X55665714Y-158250000D01*
X55713333Y-158297619D01*
X56094285Y-158297619D02*
X56141904Y-158250000D01*
X56237142Y-158202380D01*
X56475238Y-158202380D01*
X56570476Y-158250000D01*
X56618095Y-158297619D01*
X56665714Y-158392857D01*
X56665714Y-158488095D01*
X56618095Y-158630952D01*
X56046666Y-159202380D01*
X56665714Y-159202380D01*
X49998333Y-63857142D02*
X49950714Y-63904761D01*
X49807857Y-63952380D01*
X49712619Y-63952380D01*
X49569761Y-63904761D01*
X49474523Y-63809523D01*
X49426904Y-63714285D01*
X49379285Y-63523809D01*
X49379285Y-63380952D01*
X49426904Y-63190476D01*
X49474523Y-63095238D01*
X49569761Y-63000000D01*
X49712619Y-62952380D01*
X49807857Y-62952380D01*
X49950714Y-63000000D01*
X49998333Y-63047619D01*
X50950714Y-63952380D02*
X50379285Y-63952380D01*
X50665000Y-63952380D02*
X50665000Y-62952380D01*
X50569761Y-63095238D01*
X50474523Y-63190476D01*
X50379285Y-63238095D01*
M02*
