M48
; DRILL file {KiCad 5.1.5+dfsg1-2build2} date Do 27 Aug 2020 12:41:09
; FORMAT={-:-/ absolute / inch / decimal}
; #@! TF.CreationDate,2020-08-27T12:41:09+02:00
; #@! TF.GenerationSoftware,Kicad,Pcbnew,5.1.5+dfsg1-2build2
; #@! TF.FileFunction,Plated,1,2,PTH
FMAT,2
INCH
T1C0.0295
T2C0.0315
T3C0.0354
T4C0.0394
T5C0.0433
T6C0.0591
%
G90
G05
T1
X3.7Y-4.33
X3.7Y-4.4087
X3.7Y-4.4875
X3.7Y-4.5662
X1.35Y-4.5138
X1.35Y-4.5925
X1.35Y-4.6713
X1.35Y-4.75
X1.35Y-5.4026
X1.35Y-5.4813
X1.35Y-5.56
X1.35Y-5.6388
X1.35Y-5.7175
X1.35Y-5.7963
X1.35Y-5.875
X3.7Y-4.88
X3.7Y-4.9587
X3.7Y-5.0375
X3.7Y-5.1162
X3.7Y-5.405
X3.7Y-5.4837
X3.7Y-5.5625
X3.7Y-5.6412
X3.7Y-5.72
X3.7Y-5.7987
X3.7Y-5.8774
T2
X2.1Y-3.35
X2.4Y-3.35
X2.1Y-3.2
X2.4Y-3.2
X2.2Y-6.3516
X2.2Y-6.45
X3.275Y-2.6
X3.275Y-2.7
X3.275Y-2.8
X3.275Y-2.9
X3.575Y-2.6
X3.575Y-2.7
X3.575Y-2.8
X3.575Y-2.9
X2.1Y-3.5
X2.4Y-3.5
X1.375Y-2.6016
X1.375Y-2.7
X2.55Y-2.6
X2.55Y-2.7
X2.55Y-2.8
X2.55Y-2.9
X2.55Y-3.0
X2.55Y-3.1
X2.55Y-3.2
X2.55Y-3.3
X2.85Y-2.6
X2.85Y-2.7
X2.85Y-2.8
X2.85Y-2.9
X2.85Y-3.0
X2.85Y-3.1
X2.85Y-3.2
X2.85Y-3.3
X2.78Y-4.015
X3.08Y-4.015
X2.625Y-2.1648
X2.625Y-2.3648
X2.725Y-2.1648
X2.725Y-2.3648
X2.825Y-2.1648
X2.825Y-2.3648
X2.925Y-2.1648
X2.925Y-2.3648
X3.025Y-2.1648
X3.025Y-2.3648
X3.7Y-2.6016
X3.7Y-2.7
X1.975Y-2.6016
X1.975Y-2.7
X3.3Y-2.325
X3.3984Y-2.325
X3.0Y-2.6
X3.0Y-2.9
X2.1Y-4.02
X2.4Y-4.02
X2.85Y-6.7
X2.85Y-6.7984
X3.08Y-5.5
X3.08Y-5.6
X3.08Y-5.7
X2.1Y-5.075
X2.4Y-5.075
X3.2Y-2.175
X3.5Y-2.175
X2.85Y-6.3516
X2.85Y-6.45
X1.975Y-2.2
X1.975Y-2.3
X2.1Y-2.6
X2.1Y-2.7
X2.1Y-2.8
X2.1Y-2.9
X2.4Y-2.6
X2.4Y-2.7
X2.4Y-2.8
X2.4Y-2.9
X3.15Y-2.6
X3.15Y-2.9
X3.08Y-4.44
X3.08Y-4.54
X3.08Y-4.64
X2.1Y-3.05
X2.4Y-3.05
X2.78Y-5.075
X3.08Y-5.075
X1.495Y-2.605
X1.495Y-2.705
X1.495Y-2.805
X1.495Y-2.905
X1.495Y-3.005
X1.495Y-3.105
X1.495Y-3.205
X1.795Y-2.605
X1.795Y-2.705
X1.795Y-2.805
X1.795Y-2.905
X1.795Y-3.005
X1.795Y-3.105
X1.795Y-3.205
T3
X3.08Y-5.275
X3.08Y-5.375
X3.08Y-4.22
X3.08Y-4.32
T4
X3.3783Y-4.2985
X3.3783Y-4.3985
X3.3783Y-4.4985
X3.3783Y-4.5985
X3.3783Y-4.6985
X3.3783Y-4.7985
X3.3783Y-4.8985
X3.3783Y-4.9985
X3.3783Y-5.0985
X3.3783Y-5.1985
X3.3783Y-5.2985
X3.3783Y-5.3985
X3.3783Y-5.4985
X3.3783Y-5.5985
X3.3783Y-5.6985
X3.3783Y-5.7985
X3.3783Y-5.8985
X3.4783Y-4.2985
X3.4783Y-4.3985
X3.4783Y-4.4985
X3.4783Y-4.5985
X3.4783Y-4.6985
X3.4783Y-4.7985
X3.4783Y-4.8985
X3.4783Y-4.9985
X3.4783Y-5.0985
X3.4783Y-5.1985
X3.4783Y-5.2985
X3.4783Y-5.3985
X3.4783Y-5.4985
X3.4783Y-5.5985
X3.4783Y-5.6985
X3.4783Y-5.7985
X3.4783Y-5.8985
X1.5791Y-4.4985
X1.5791Y-4.5985
X1.5791Y-4.6985
X1.5791Y-4.7985
X1.5791Y-4.8985
X1.5791Y-4.9985
X1.5791Y-5.0985
X1.5791Y-5.1985
X1.5791Y-5.2985
X1.5791Y-5.3985
X1.5791Y-5.4985
X1.5791Y-5.5985
X1.5791Y-5.6985
X1.5791Y-5.7985
X1.5791Y-5.8985
X1.6791Y-4.4985
X1.6791Y-4.5985
X1.6791Y-4.6985
X1.6791Y-4.7985
X1.6791Y-4.8985
X1.6791Y-4.9985
X1.6791Y-5.0985
X1.6791Y-5.1985
X1.6791Y-5.2985
X1.6791Y-5.3985
X1.6791Y-5.4985
X1.6791Y-5.5985
X1.6791Y-5.6985
X1.6791Y-5.7985
X1.6791Y-5.8985
X3.3783Y-3.2387
X3.3783Y-3.3387
X3.3783Y-3.4387
X3.3783Y-3.5387
X3.3783Y-3.6387
X3.3783Y-3.7387
X3.3783Y-3.8387
X3.3783Y-3.9387
X3.3783Y-4.0387
X3.3783Y-4.1387
X3.4783Y-3.2387
X3.4783Y-3.3387
X3.4783Y-3.4387
X3.4783Y-3.5387
X3.4783Y-3.6387
X3.4783Y-3.7387
X3.4783Y-3.8387
X3.4783Y-3.9387
X3.4783Y-4.0387
X3.4783Y-4.1387
X1.5791Y-3.5985
X1.5791Y-3.6985
X1.5791Y-3.7985
X1.5791Y-3.8985
X1.5791Y-3.9985
X1.5791Y-4.0985
X1.5791Y-4.1985
X1.5791Y-4.2985
X1.6791Y-3.5985
X1.6791Y-3.6985
X1.6791Y-3.7985
X1.6791Y-3.8985
X1.6791Y-3.9985
X1.6791Y-4.0985
X1.6791Y-4.1985
X1.6791Y-4.2985
T5
X2.425Y-6.45
X2.525Y-6.45
X2.625Y-6.45
T6
X2.1109Y-4.3038
X2.1109Y-4.7762
X2.5913Y-4.3038
X2.5913Y-4.7762
X2.67Y-4.54
X2.1159Y-5.3638
X2.1159Y-5.8362
X2.5963Y-5.3638
X2.5963Y-5.8362
X2.675Y-5.6
T4
G00X1.375Y-2.2947
M15
G01X1.375Y-2.2553
M16
G05
G00X1.4695Y-2.2159
M15
G01X1.4695Y-2.1766
M16
G05
G00X1.686Y-2.2159
M15
G01X1.686Y-2.1766
M16
G05
G00X2.3515Y-6.9508
M15
G01X2.3515Y-7.0098
M16
G05
G00X2.4893Y-6.7047
M15
G01X2.568Y-6.7047
M16
G05
G00X2.5031Y-6.9409
M15
G01X2.5543Y-6.9409
M16
G05
G00X2.7058Y-6.9508
M15
G01X2.7058Y-7.0098
M16
G05
T0
M30
